M48
; DRILL file {KiCad (5.1.0)-1} date 30/05/2019 14:49:59
; FORMAT={-:-/ absolute / metric / decimal}
; #@! TF.CreationDate,2019-05-30T14:49:59+02:00
; #@! TF.GenerationSoftware,Kicad,Pcbnew,(5.1.0)-1
; #@! TF.FileFunction,Plated,1,2,PTH
FMAT,2
METRIC
T1C0.600
%
G90
G05
T1
X132.728Y-104.592
X132.728Y-120.848
X133.998Y-110.434
X135.395Y-108.021
X135.395Y-113.609
X136.919Y-108.123
X137.935Y-85.796
X139.078Y-122.372
X139.205Y-118.562
X139.205Y-120.721
X139.814Y-108.123
X139.967Y-106.878
X140.729Y-92.527
X140.729Y-98.242
X141.237Y-112.847
X141.999Y-99.004
X142.253Y-103.068
X142.38Y-105.608
X142.38Y-114.244
X142.507Y-81.986
X142.634Y-92.527
X143.523Y-119.172
X144.412Y-98.242
X144.539Y-106.243
X145.428Y-119.07
X146.063Y-98.242
X146.19Y-105.862
X146.444Y-92.527
X146.571Y-112.466
X147.968Y-100.655
X148.095Y-106.243
X150.381Y-105.735
X150.635Y-112.466
X152.159Y-122.753
X152.794Y-85.923
X152.921Y-105.481
X153.048Y-110.053
X154.826Y-103.322
X155.207Y-85.923
X156.223Y-101.798
X157.239Y-105.608
X157.62Y-109.545
X158.001Y-111.577
X158.509Y-97.734
X158.636Y-104.084
X158.636Y-106.497
X160.287Y-110.561
X160.668Y-97.988
X160.668Y-102.306
X162.065Y-111.577
X162.954Y-104.846
T0
M30
