G04 #@! TF.GenerationSoftware,KiCad,Pcbnew,(5.1.0)-1*
G04 #@! TF.CreationDate,2019-05-30T14:49:56+02:00*
G04 #@! TF.ProjectId,UWED,55574544-2e6b-4696-9361-645f70636258,rev?*
G04 #@! TF.SameCoordinates,Original*
G04 #@! TF.FileFunction,Paste,Top*
G04 #@! TF.FilePolarity,Positive*
%FSLAX46Y46*%
G04 Gerber Fmt 4.6, Leading zero omitted, Abs format (unit mm)*
G04 Created by KiCad (PCBNEW (5.1.0)-1) date 2019-05-30 14:49:56*
%MOMM*%
%LPD*%
G04 APERTURE LIST*
%ADD10R,1.347500X1.147500*%
%ADD11R,1.147500X1.347500*%
%ADD12R,1.047500X1.047500*%
%ADD13R,1.117500X0.266600*%
%ADD14R,0.355500X1.117500*%
%ADD15R,1.347500X0.267500*%
%ADD16R,1.117500X0.355500*%
%ADD17R,0.863500X1.879500*%
%ADD18R,3.657500X1.879500*%
%ADD19R,1.879500X1.879500*%
%ADD20R,1.347500X2.847500*%
%ADD21R,2.847500X1.347500*%
%ADD22R,1.347500X0.147500*%
%ADD23R,1.847500X2.347500*%
%ADD24R,1.347500X3.347500*%
%ADD25R,2.147500X3.347500*%
%ADD26C,0.100000*%
%ADD27C,0.660300*%
G04 APERTURE END LIST*
D10*
X153174600Y-100848200D03*
X153174600Y-102748200D03*
D11*
X160728600Y-100147200D03*
X158828600Y-100147200D03*
D10*
X156095600Y-96911200D03*
X156095600Y-98811200D03*
X138950600Y-98435200D03*
X138950600Y-100335200D03*
X136791600Y-98562200D03*
X136791600Y-100462200D03*
D11*
X156156600Y-111958200D03*
X154256600Y-111958200D03*
D12*
X152429400Y-91790600D03*
X154529400Y-91790600D03*
D11*
X148414600Y-91765200D03*
X150314600Y-91765200D03*
X141810600Y-108275200D03*
X143710600Y-108275200D03*
D10*
X133362600Y-97414200D03*
X133362600Y-95514200D03*
X133362600Y-93350200D03*
X133362600Y-91450200D03*
D13*
X160662040Y-104211200D03*
X160662040Y-104861200D03*
X160662040Y-105511200D03*
X160662040Y-106161440D03*
X160662040Y-106811681D03*
X160662040Y-107461918D03*
X160662040Y-108112159D03*
X154812041Y-108112400D03*
X154810600Y-107462400D03*
X154810600Y-106812159D03*
X154810600Y-106161918D03*
X154810600Y-105511681D03*
X154810600Y-104861440D03*
X154810600Y-104211200D03*
D14*
X142633600Y-96743600D03*
X141693800Y-96743600D03*
X140754000Y-96743600D03*
X140754000Y-93924200D03*
X141693800Y-93924200D03*
X142633600Y-93924200D03*
X146316600Y-96743600D03*
X145376800Y-96743600D03*
X144437000Y-96743600D03*
X144437000Y-93924200D03*
X145376800Y-93924200D03*
X146316600Y-93924200D03*
D15*
X150089600Y-102814200D03*
X150089600Y-103464200D03*
X150089600Y-104114200D03*
X150089600Y-104764200D03*
X146189600Y-104764200D03*
X146189600Y-104114200D03*
X146189600Y-103464200D03*
X146189600Y-102814200D03*
D16*
X149517000Y-109164200D03*
X149517000Y-110104000D03*
X149517000Y-111043800D03*
X146697600Y-111043800D03*
X146697600Y-110104000D03*
X146697600Y-109164200D03*
D17*
X148983600Y-89352200D03*
D18*
X152793600Y-89352200D03*
X145173600Y-89352200D03*
D19*
X150761600Y-81732200D03*
X147205600Y-81732200D03*
D20*
X152174600Y-126817200D03*
X154174600Y-126817200D03*
D13*
X140820040Y-102433200D03*
X140820040Y-103083440D03*
X140820040Y-103733681D03*
X140820040Y-104383918D03*
X140820040Y-105034159D03*
X140820040Y-105684400D03*
X136918600Y-105684400D03*
X136918600Y-105034159D03*
X136918600Y-104383918D03*
X136918600Y-103733681D03*
X136918600Y-103083440D03*
X136918600Y-102433200D03*
D21*
X157365600Y-84002200D03*
X157365600Y-82002200D03*
D20*
X158238600Y-126817200D03*
X156238600Y-126817200D03*
X162429600Y-126817200D03*
X160429600Y-126817200D03*
D21*
X161302600Y-121213200D03*
X161302600Y-119213200D03*
X161302600Y-115022200D03*
X161302600Y-117022200D03*
D22*
X141410600Y-109545200D03*
X141410600Y-110045200D03*
X141410600Y-110545200D03*
X141410600Y-111045200D03*
X141410600Y-111545200D03*
X136410600Y-111545200D03*
X136410600Y-111045200D03*
X136410600Y-110545200D03*
X136410600Y-110045200D03*
X136410600Y-109545200D03*
D23*
X137045600Y-91492200D03*
D24*
X133545600Y-83692200D03*
X140645600Y-82692200D03*
D25*
X133445600Y-88192200D03*
X140745600Y-89192200D03*
D26*
G36*
X150163339Y-127123481D02*
G01*
X150192183Y-127127759D01*
X150220469Y-127134845D01*
X150247924Y-127144668D01*
X150274283Y-127157135D01*
X150299294Y-127172126D01*
X150322715Y-127189497D01*
X150344321Y-127209079D01*
X150363903Y-127230685D01*
X150381274Y-127254106D01*
X150396265Y-127279117D01*
X150408732Y-127305476D01*
X150418555Y-127332931D01*
X150425641Y-127361217D01*
X150429919Y-127390061D01*
X150431350Y-127419185D01*
X150431350Y-127485215D01*
X150429919Y-127514339D01*
X150425641Y-127543183D01*
X150418555Y-127571469D01*
X150408732Y-127598924D01*
X150396265Y-127625283D01*
X150381274Y-127650294D01*
X150363903Y-127673715D01*
X150344321Y-127695321D01*
X150322715Y-127714903D01*
X150299294Y-127732274D01*
X150274283Y-127747265D01*
X150247924Y-127759732D01*
X150220469Y-127769555D01*
X150192183Y-127776641D01*
X150163339Y-127780919D01*
X150134215Y-127782350D01*
X147528185Y-127782350D01*
X147499061Y-127780919D01*
X147470217Y-127776641D01*
X147441931Y-127769555D01*
X147414476Y-127759732D01*
X147388117Y-127747265D01*
X147363106Y-127732274D01*
X147339685Y-127714903D01*
X147318079Y-127695321D01*
X147298497Y-127673715D01*
X147281126Y-127650294D01*
X147266135Y-127625283D01*
X147253668Y-127598924D01*
X147243845Y-127571469D01*
X147236759Y-127543183D01*
X147232481Y-127514339D01*
X147231050Y-127485215D01*
X147231050Y-127419185D01*
X147232481Y-127390061D01*
X147236759Y-127361217D01*
X147243845Y-127332931D01*
X147253668Y-127305476D01*
X147266135Y-127279117D01*
X147281126Y-127254106D01*
X147298497Y-127230685D01*
X147318079Y-127209079D01*
X147339685Y-127189497D01*
X147363106Y-127172126D01*
X147388117Y-127157135D01*
X147414476Y-127144668D01*
X147441931Y-127134845D01*
X147470217Y-127127759D01*
X147499061Y-127123481D01*
X147528185Y-127122050D01*
X150134215Y-127122050D01*
X150163339Y-127123481D01*
X150163339Y-127123481D01*
G37*
D27*
X148831200Y-127452200D03*
D26*
G36*
X150163339Y-125853481D02*
G01*
X150192183Y-125857759D01*
X150220469Y-125864845D01*
X150247924Y-125874668D01*
X150274283Y-125887135D01*
X150299294Y-125902126D01*
X150322715Y-125919497D01*
X150344321Y-125939079D01*
X150363903Y-125960685D01*
X150381274Y-125984106D01*
X150396265Y-126009117D01*
X150408732Y-126035476D01*
X150418555Y-126062931D01*
X150425641Y-126091217D01*
X150429919Y-126120061D01*
X150431350Y-126149185D01*
X150431350Y-126215215D01*
X150429919Y-126244339D01*
X150425641Y-126273183D01*
X150418555Y-126301469D01*
X150408732Y-126328924D01*
X150396265Y-126355283D01*
X150381274Y-126380294D01*
X150363903Y-126403715D01*
X150344321Y-126425321D01*
X150322715Y-126444903D01*
X150299294Y-126462274D01*
X150274283Y-126477265D01*
X150247924Y-126489732D01*
X150220469Y-126499555D01*
X150192183Y-126506641D01*
X150163339Y-126510919D01*
X150134215Y-126512350D01*
X147528185Y-126512350D01*
X147499061Y-126510919D01*
X147470217Y-126506641D01*
X147441931Y-126499555D01*
X147414476Y-126489732D01*
X147388117Y-126477265D01*
X147363106Y-126462274D01*
X147339685Y-126444903D01*
X147318079Y-126425321D01*
X147298497Y-126403715D01*
X147281126Y-126380294D01*
X147266135Y-126355283D01*
X147253668Y-126328924D01*
X147243845Y-126301469D01*
X147236759Y-126273183D01*
X147232481Y-126244339D01*
X147231050Y-126215215D01*
X147231050Y-126149185D01*
X147232481Y-126120061D01*
X147236759Y-126091217D01*
X147243845Y-126062931D01*
X147253668Y-126035476D01*
X147266135Y-126009117D01*
X147281126Y-125984106D01*
X147298497Y-125960685D01*
X147318079Y-125939079D01*
X147339685Y-125919497D01*
X147363106Y-125902126D01*
X147388117Y-125887135D01*
X147414476Y-125874668D01*
X147441931Y-125864845D01*
X147470217Y-125857759D01*
X147499061Y-125853481D01*
X147528185Y-125852050D01*
X150134215Y-125852050D01*
X150163339Y-125853481D01*
X150163339Y-125853481D01*
G37*
D27*
X148831200Y-126182200D03*
D26*
G36*
X150163339Y-124583481D02*
G01*
X150192183Y-124587759D01*
X150220469Y-124594845D01*
X150247924Y-124604668D01*
X150274283Y-124617135D01*
X150299294Y-124632126D01*
X150322715Y-124649497D01*
X150344321Y-124669079D01*
X150363903Y-124690685D01*
X150381274Y-124714106D01*
X150396265Y-124739117D01*
X150408732Y-124765476D01*
X150418555Y-124792931D01*
X150425641Y-124821217D01*
X150429919Y-124850061D01*
X150431350Y-124879185D01*
X150431350Y-124945215D01*
X150429919Y-124974339D01*
X150425641Y-125003183D01*
X150418555Y-125031469D01*
X150408732Y-125058924D01*
X150396265Y-125085283D01*
X150381274Y-125110294D01*
X150363903Y-125133715D01*
X150344321Y-125155321D01*
X150322715Y-125174903D01*
X150299294Y-125192274D01*
X150274283Y-125207265D01*
X150247924Y-125219732D01*
X150220469Y-125229555D01*
X150192183Y-125236641D01*
X150163339Y-125240919D01*
X150134215Y-125242350D01*
X147528185Y-125242350D01*
X147499061Y-125240919D01*
X147470217Y-125236641D01*
X147441931Y-125229555D01*
X147414476Y-125219732D01*
X147388117Y-125207265D01*
X147363106Y-125192274D01*
X147339685Y-125174903D01*
X147318079Y-125155321D01*
X147298497Y-125133715D01*
X147281126Y-125110294D01*
X147266135Y-125085283D01*
X147253668Y-125058924D01*
X147243845Y-125031469D01*
X147236759Y-125003183D01*
X147232481Y-124974339D01*
X147231050Y-124945215D01*
X147231050Y-124879185D01*
X147232481Y-124850061D01*
X147236759Y-124821217D01*
X147243845Y-124792931D01*
X147253668Y-124765476D01*
X147266135Y-124739117D01*
X147281126Y-124714106D01*
X147298497Y-124690685D01*
X147318079Y-124669079D01*
X147339685Y-124649497D01*
X147363106Y-124632126D01*
X147388117Y-124617135D01*
X147414476Y-124604668D01*
X147441931Y-124594845D01*
X147470217Y-124587759D01*
X147499061Y-124583481D01*
X147528185Y-124582050D01*
X150134215Y-124582050D01*
X150163339Y-124583481D01*
X150163339Y-124583481D01*
G37*
D27*
X148831200Y-124912200D03*
D26*
G36*
X150163339Y-123313481D02*
G01*
X150192183Y-123317759D01*
X150220469Y-123324845D01*
X150247924Y-123334668D01*
X150274283Y-123347135D01*
X150299294Y-123362126D01*
X150322715Y-123379497D01*
X150344321Y-123399079D01*
X150363903Y-123420685D01*
X150381274Y-123444106D01*
X150396265Y-123469117D01*
X150408732Y-123495476D01*
X150418555Y-123522931D01*
X150425641Y-123551217D01*
X150429919Y-123580061D01*
X150431350Y-123609185D01*
X150431350Y-123675215D01*
X150429919Y-123704339D01*
X150425641Y-123733183D01*
X150418555Y-123761469D01*
X150408732Y-123788924D01*
X150396265Y-123815283D01*
X150381274Y-123840294D01*
X150363903Y-123863715D01*
X150344321Y-123885321D01*
X150322715Y-123904903D01*
X150299294Y-123922274D01*
X150274283Y-123937265D01*
X150247924Y-123949732D01*
X150220469Y-123959555D01*
X150192183Y-123966641D01*
X150163339Y-123970919D01*
X150134215Y-123972350D01*
X147528185Y-123972350D01*
X147499061Y-123970919D01*
X147470217Y-123966641D01*
X147441931Y-123959555D01*
X147414476Y-123949732D01*
X147388117Y-123937265D01*
X147363106Y-123922274D01*
X147339685Y-123904903D01*
X147318079Y-123885321D01*
X147298497Y-123863715D01*
X147281126Y-123840294D01*
X147266135Y-123815283D01*
X147253668Y-123788924D01*
X147243845Y-123761469D01*
X147236759Y-123733183D01*
X147232481Y-123704339D01*
X147231050Y-123675215D01*
X147231050Y-123609185D01*
X147232481Y-123580061D01*
X147236759Y-123551217D01*
X147243845Y-123522931D01*
X147253668Y-123495476D01*
X147266135Y-123469117D01*
X147281126Y-123444106D01*
X147298497Y-123420685D01*
X147318079Y-123399079D01*
X147339685Y-123379497D01*
X147363106Y-123362126D01*
X147388117Y-123347135D01*
X147414476Y-123334668D01*
X147441931Y-123324845D01*
X147470217Y-123317759D01*
X147499061Y-123313481D01*
X147528185Y-123312050D01*
X150134215Y-123312050D01*
X150163339Y-123313481D01*
X150163339Y-123313481D01*
G37*
D27*
X148831200Y-123642200D03*
D26*
G36*
X150163339Y-122043481D02*
G01*
X150192183Y-122047759D01*
X150220469Y-122054845D01*
X150247924Y-122064668D01*
X150274283Y-122077135D01*
X150299294Y-122092126D01*
X150322715Y-122109497D01*
X150344321Y-122129079D01*
X150363903Y-122150685D01*
X150381274Y-122174106D01*
X150396265Y-122199117D01*
X150408732Y-122225476D01*
X150418555Y-122252931D01*
X150425641Y-122281217D01*
X150429919Y-122310061D01*
X150431350Y-122339185D01*
X150431350Y-122405215D01*
X150429919Y-122434339D01*
X150425641Y-122463183D01*
X150418555Y-122491469D01*
X150408732Y-122518924D01*
X150396265Y-122545283D01*
X150381274Y-122570294D01*
X150363903Y-122593715D01*
X150344321Y-122615321D01*
X150322715Y-122634903D01*
X150299294Y-122652274D01*
X150274283Y-122667265D01*
X150247924Y-122679732D01*
X150220469Y-122689555D01*
X150192183Y-122696641D01*
X150163339Y-122700919D01*
X150134215Y-122702350D01*
X147528185Y-122702350D01*
X147499061Y-122700919D01*
X147470217Y-122696641D01*
X147441931Y-122689555D01*
X147414476Y-122679732D01*
X147388117Y-122667265D01*
X147363106Y-122652274D01*
X147339685Y-122634903D01*
X147318079Y-122615321D01*
X147298497Y-122593715D01*
X147281126Y-122570294D01*
X147266135Y-122545283D01*
X147253668Y-122518924D01*
X147243845Y-122491469D01*
X147236759Y-122463183D01*
X147232481Y-122434339D01*
X147231050Y-122405215D01*
X147231050Y-122339185D01*
X147232481Y-122310061D01*
X147236759Y-122281217D01*
X147243845Y-122252931D01*
X147253668Y-122225476D01*
X147266135Y-122199117D01*
X147281126Y-122174106D01*
X147298497Y-122150685D01*
X147318079Y-122129079D01*
X147339685Y-122109497D01*
X147363106Y-122092126D01*
X147388117Y-122077135D01*
X147414476Y-122064668D01*
X147441931Y-122054845D01*
X147470217Y-122047759D01*
X147499061Y-122043481D01*
X147528185Y-122042050D01*
X150134215Y-122042050D01*
X150163339Y-122043481D01*
X150163339Y-122043481D01*
G37*
D27*
X148831200Y-122372200D03*
D26*
G36*
X150163339Y-120773481D02*
G01*
X150192183Y-120777759D01*
X150220469Y-120784845D01*
X150247924Y-120794668D01*
X150274283Y-120807135D01*
X150299294Y-120822126D01*
X150322715Y-120839497D01*
X150344321Y-120859079D01*
X150363903Y-120880685D01*
X150381274Y-120904106D01*
X150396265Y-120929117D01*
X150408732Y-120955476D01*
X150418555Y-120982931D01*
X150425641Y-121011217D01*
X150429919Y-121040061D01*
X150431350Y-121069185D01*
X150431350Y-121135215D01*
X150429919Y-121164339D01*
X150425641Y-121193183D01*
X150418555Y-121221469D01*
X150408732Y-121248924D01*
X150396265Y-121275283D01*
X150381274Y-121300294D01*
X150363903Y-121323715D01*
X150344321Y-121345321D01*
X150322715Y-121364903D01*
X150299294Y-121382274D01*
X150274283Y-121397265D01*
X150247924Y-121409732D01*
X150220469Y-121419555D01*
X150192183Y-121426641D01*
X150163339Y-121430919D01*
X150134215Y-121432350D01*
X147528185Y-121432350D01*
X147499061Y-121430919D01*
X147470217Y-121426641D01*
X147441931Y-121419555D01*
X147414476Y-121409732D01*
X147388117Y-121397265D01*
X147363106Y-121382274D01*
X147339685Y-121364903D01*
X147318079Y-121345321D01*
X147298497Y-121323715D01*
X147281126Y-121300294D01*
X147266135Y-121275283D01*
X147253668Y-121248924D01*
X147243845Y-121221469D01*
X147236759Y-121193183D01*
X147232481Y-121164339D01*
X147231050Y-121135215D01*
X147231050Y-121069185D01*
X147232481Y-121040061D01*
X147236759Y-121011217D01*
X147243845Y-120982931D01*
X147253668Y-120955476D01*
X147266135Y-120929117D01*
X147281126Y-120904106D01*
X147298497Y-120880685D01*
X147318079Y-120859079D01*
X147339685Y-120839497D01*
X147363106Y-120822126D01*
X147388117Y-120807135D01*
X147414476Y-120794668D01*
X147441931Y-120784845D01*
X147470217Y-120777759D01*
X147499061Y-120773481D01*
X147528185Y-120772050D01*
X150134215Y-120772050D01*
X150163339Y-120773481D01*
X150163339Y-120773481D01*
G37*
D27*
X148831200Y-121102200D03*
D26*
G36*
X150163339Y-119503481D02*
G01*
X150192183Y-119507759D01*
X150220469Y-119514845D01*
X150247924Y-119524668D01*
X150274283Y-119537135D01*
X150299294Y-119552126D01*
X150322715Y-119569497D01*
X150344321Y-119589079D01*
X150363903Y-119610685D01*
X150381274Y-119634106D01*
X150396265Y-119659117D01*
X150408732Y-119685476D01*
X150418555Y-119712931D01*
X150425641Y-119741217D01*
X150429919Y-119770061D01*
X150431350Y-119799185D01*
X150431350Y-119865215D01*
X150429919Y-119894339D01*
X150425641Y-119923183D01*
X150418555Y-119951469D01*
X150408732Y-119978924D01*
X150396265Y-120005283D01*
X150381274Y-120030294D01*
X150363903Y-120053715D01*
X150344321Y-120075321D01*
X150322715Y-120094903D01*
X150299294Y-120112274D01*
X150274283Y-120127265D01*
X150247924Y-120139732D01*
X150220469Y-120149555D01*
X150192183Y-120156641D01*
X150163339Y-120160919D01*
X150134215Y-120162350D01*
X147528185Y-120162350D01*
X147499061Y-120160919D01*
X147470217Y-120156641D01*
X147441931Y-120149555D01*
X147414476Y-120139732D01*
X147388117Y-120127265D01*
X147363106Y-120112274D01*
X147339685Y-120094903D01*
X147318079Y-120075321D01*
X147298497Y-120053715D01*
X147281126Y-120030294D01*
X147266135Y-120005283D01*
X147253668Y-119978924D01*
X147243845Y-119951469D01*
X147236759Y-119923183D01*
X147232481Y-119894339D01*
X147231050Y-119865215D01*
X147231050Y-119799185D01*
X147232481Y-119770061D01*
X147236759Y-119741217D01*
X147243845Y-119712931D01*
X147253668Y-119685476D01*
X147266135Y-119659117D01*
X147281126Y-119634106D01*
X147298497Y-119610685D01*
X147318079Y-119589079D01*
X147339685Y-119569497D01*
X147363106Y-119552126D01*
X147388117Y-119537135D01*
X147414476Y-119524668D01*
X147441931Y-119514845D01*
X147470217Y-119507759D01*
X147499061Y-119503481D01*
X147528185Y-119502050D01*
X150134215Y-119502050D01*
X150163339Y-119503481D01*
X150163339Y-119503481D01*
G37*
D27*
X148831200Y-119832200D03*
D26*
G36*
X150163339Y-118233481D02*
G01*
X150192183Y-118237759D01*
X150220469Y-118244845D01*
X150247924Y-118254668D01*
X150274283Y-118267135D01*
X150299294Y-118282126D01*
X150322715Y-118299497D01*
X150344321Y-118319079D01*
X150363903Y-118340685D01*
X150381274Y-118364106D01*
X150396265Y-118389117D01*
X150408732Y-118415476D01*
X150418555Y-118442931D01*
X150425641Y-118471217D01*
X150429919Y-118500061D01*
X150431350Y-118529185D01*
X150431350Y-118595215D01*
X150429919Y-118624339D01*
X150425641Y-118653183D01*
X150418555Y-118681469D01*
X150408732Y-118708924D01*
X150396265Y-118735283D01*
X150381274Y-118760294D01*
X150363903Y-118783715D01*
X150344321Y-118805321D01*
X150322715Y-118824903D01*
X150299294Y-118842274D01*
X150274283Y-118857265D01*
X150247924Y-118869732D01*
X150220469Y-118879555D01*
X150192183Y-118886641D01*
X150163339Y-118890919D01*
X150134215Y-118892350D01*
X147528185Y-118892350D01*
X147499061Y-118890919D01*
X147470217Y-118886641D01*
X147441931Y-118879555D01*
X147414476Y-118869732D01*
X147388117Y-118857265D01*
X147363106Y-118842274D01*
X147339685Y-118824903D01*
X147318079Y-118805321D01*
X147298497Y-118783715D01*
X147281126Y-118760294D01*
X147266135Y-118735283D01*
X147253668Y-118708924D01*
X147243845Y-118681469D01*
X147236759Y-118653183D01*
X147232481Y-118624339D01*
X147231050Y-118595215D01*
X147231050Y-118529185D01*
X147232481Y-118500061D01*
X147236759Y-118471217D01*
X147243845Y-118442931D01*
X147253668Y-118415476D01*
X147266135Y-118389117D01*
X147281126Y-118364106D01*
X147298497Y-118340685D01*
X147318079Y-118319079D01*
X147339685Y-118299497D01*
X147363106Y-118282126D01*
X147388117Y-118267135D01*
X147414476Y-118254668D01*
X147441931Y-118244845D01*
X147470217Y-118237759D01*
X147499061Y-118233481D01*
X147528185Y-118232050D01*
X150134215Y-118232050D01*
X150163339Y-118233481D01*
X150163339Y-118233481D01*
G37*
D27*
X148831200Y-118562200D03*
D26*
G36*
X150163339Y-116963481D02*
G01*
X150192183Y-116967759D01*
X150220469Y-116974845D01*
X150247924Y-116984668D01*
X150274283Y-116997135D01*
X150299294Y-117012126D01*
X150322715Y-117029497D01*
X150344321Y-117049079D01*
X150363903Y-117070685D01*
X150381274Y-117094106D01*
X150396265Y-117119117D01*
X150408732Y-117145476D01*
X150418555Y-117172931D01*
X150425641Y-117201217D01*
X150429919Y-117230061D01*
X150431350Y-117259185D01*
X150431350Y-117325215D01*
X150429919Y-117354339D01*
X150425641Y-117383183D01*
X150418555Y-117411469D01*
X150408732Y-117438924D01*
X150396265Y-117465283D01*
X150381274Y-117490294D01*
X150363903Y-117513715D01*
X150344321Y-117535321D01*
X150322715Y-117554903D01*
X150299294Y-117572274D01*
X150274283Y-117587265D01*
X150247924Y-117599732D01*
X150220469Y-117609555D01*
X150192183Y-117616641D01*
X150163339Y-117620919D01*
X150134215Y-117622350D01*
X147528185Y-117622350D01*
X147499061Y-117620919D01*
X147470217Y-117616641D01*
X147441931Y-117609555D01*
X147414476Y-117599732D01*
X147388117Y-117587265D01*
X147363106Y-117572274D01*
X147339685Y-117554903D01*
X147318079Y-117535321D01*
X147298497Y-117513715D01*
X147281126Y-117490294D01*
X147266135Y-117465283D01*
X147253668Y-117438924D01*
X147243845Y-117411469D01*
X147236759Y-117383183D01*
X147232481Y-117354339D01*
X147231050Y-117325215D01*
X147231050Y-117259185D01*
X147232481Y-117230061D01*
X147236759Y-117201217D01*
X147243845Y-117172931D01*
X147253668Y-117145476D01*
X147266135Y-117119117D01*
X147281126Y-117094106D01*
X147298497Y-117070685D01*
X147318079Y-117049079D01*
X147339685Y-117029497D01*
X147363106Y-117012126D01*
X147388117Y-116997135D01*
X147414476Y-116984668D01*
X147441931Y-116974845D01*
X147470217Y-116967759D01*
X147499061Y-116963481D01*
X147528185Y-116962050D01*
X150134215Y-116962050D01*
X150163339Y-116963481D01*
X150163339Y-116963481D01*
G37*
D27*
X148831200Y-117292200D03*
D26*
G36*
X150163339Y-115693481D02*
G01*
X150192183Y-115697759D01*
X150220469Y-115704845D01*
X150247924Y-115714668D01*
X150274283Y-115727135D01*
X150299294Y-115742126D01*
X150322715Y-115759497D01*
X150344321Y-115779079D01*
X150363903Y-115800685D01*
X150381274Y-115824106D01*
X150396265Y-115849117D01*
X150408732Y-115875476D01*
X150418555Y-115902931D01*
X150425641Y-115931217D01*
X150429919Y-115960061D01*
X150431350Y-115989185D01*
X150431350Y-116055215D01*
X150429919Y-116084339D01*
X150425641Y-116113183D01*
X150418555Y-116141469D01*
X150408732Y-116168924D01*
X150396265Y-116195283D01*
X150381274Y-116220294D01*
X150363903Y-116243715D01*
X150344321Y-116265321D01*
X150322715Y-116284903D01*
X150299294Y-116302274D01*
X150274283Y-116317265D01*
X150247924Y-116329732D01*
X150220469Y-116339555D01*
X150192183Y-116346641D01*
X150163339Y-116350919D01*
X150134215Y-116352350D01*
X147528185Y-116352350D01*
X147499061Y-116350919D01*
X147470217Y-116346641D01*
X147441931Y-116339555D01*
X147414476Y-116329732D01*
X147388117Y-116317265D01*
X147363106Y-116302274D01*
X147339685Y-116284903D01*
X147318079Y-116265321D01*
X147298497Y-116243715D01*
X147281126Y-116220294D01*
X147266135Y-116195283D01*
X147253668Y-116168924D01*
X147243845Y-116141469D01*
X147236759Y-116113183D01*
X147232481Y-116084339D01*
X147231050Y-116055215D01*
X147231050Y-115989185D01*
X147232481Y-115960061D01*
X147236759Y-115931217D01*
X147243845Y-115902931D01*
X147253668Y-115875476D01*
X147266135Y-115849117D01*
X147281126Y-115824106D01*
X147298497Y-115800685D01*
X147318079Y-115779079D01*
X147339685Y-115759497D01*
X147363106Y-115742126D01*
X147388117Y-115727135D01*
X147414476Y-115714668D01*
X147441931Y-115704845D01*
X147470217Y-115697759D01*
X147499061Y-115693481D01*
X147528185Y-115692050D01*
X150134215Y-115692050D01*
X150163339Y-115693481D01*
X150163339Y-115693481D01*
G37*
D27*
X148831200Y-116022200D03*
D26*
G36*
X150163339Y-114423481D02*
G01*
X150192183Y-114427759D01*
X150220469Y-114434845D01*
X150247924Y-114444668D01*
X150274283Y-114457135D01*
X150299294Y-114472126D01*
X150322715Y-114489497D01*
X150344321Y-114509079D01*
X150363903Y-114530685D01*
X150381274Y-114554106D01*
X150396265Y-114579117D01*
X150408732Y-114605476D01*
X150418555Y-114632931D01*
X150425641Y-114661217D01*
X150429919Y-114690061D01*
X150431350Y-114719185D01*
X150431350Y-114785215D01*
X150429919Y-114814339D01*
X150425641Y-114843183D01*
X150418555Y-114871469D01*
X150408732Y-114898924D01*
X150396265Y-114925283D01*
X150381274Y-114950294D01*
X150363903Y-114973715D01*
X150344321Y-114995321D01*
X150322715Y-115014903D01*
X150299294Y-115032274D01*
X150274283Y-115047265D01*
X150247924Y-115059732D01*
X150220469Y-115069555D01*
X150192183Y-115076641D01*
X150163339Y-115080919D01*
X150134215Y-115082350D01*
X147528185Y-115082350D01*
X147499061Y-115080919D01*
X147470217Y-115076641D01*
X147441931Y-115069555D01*
X147414476Y-115059732D01*
X147388117Y-115047265D01*
X147363106Y-115032274D01*
X147339685Y-115014903D01*
X147318079Y-114995321D01*
X147298497Y-114973715D01*
X147281126Y-114950294D01*
X147266135Y-114925283D01*
X147253668Y-114898924D01*
X147243845Y-114871469D01*
X147236759Y-114843183D01*
X147232481Y-114814339D01*
X147231050Y-114785215D01*
X147231050Y-114719185D01*
X147232481Y-114690061D01*
X147236759Y-114661217D01*
X147243845Y-114632931D01*
X147253668Y-114605476D01*
X147266135Y-114579117D01*
X147281126Y-114554106D01*
X147298497Y-114530685D01*
X147318079Y-114509079D01*
X147339685Y-114489497D01*
X147363106Y-114472126D01*
X147388117Y-114457135D01*
X147414476Y-114444668D01*
X147441931Y-114434845D01*
X147470217Y-114427759D01*
X147499061Y-114423481D01*
X147528185Y-114422050D01*
X150134215Y-114422050D01*
X150163339Y-114423481D01*
X150163339Y-114423481D01*
G37*
D27*
X148831200Y-114752200D03*
D26*
G36*
X136752139Y-123313481D02*
G01*
X136780983Y-123317759D01*
X136809269Y-123324845D01*
X136836724Y-123334668D01*
X136863083Y-123347135D01*
X136888094Y-123362126D01*
X136911515Y-123379497D01*
X136933121Y-123399079D01*
X136952703Y-123420685D01*
X136970074Y-123444106D01*
X136985065Y-123469117D01*
X136997532Y-123495476D01*
X137007355Y-123522931D01*
X137014441Y-123551217D01*
X137018719Y-123580061D01*
X137020150Y-123609185D01*
X137020150Y-123675215D01*
X137018719Y-123704339D01*
X137014441Y-123733183D01*
X137007355Y-123761469D01*
X136997532Y-123788924D01*
X136985065Y-123815283D01*
X136970074Y-123840294D01*
X136952703Y-123863715D01*
X136933121Y-123885321D01*
X136911515Y-123904903D01*
X136888094Y-123922274D01*
X136863083Y-123937265D01*
X136836724Y-123949732D01*
X136809269Y-123959555D01*
X136780983Y-123966641D01*
X136752139Y-123970919D01*
X136723015Y-123972350D01*
X134116985Y-123972350D01*
X134087861Y-123970919D01*
X134059017Y-123966641D01*
X134030731Y-123959555D01*
X134003276Y-123949732D01*
X133976917Y-123937265D01*
X133951906Y-123922274D01*
X133928485Y-123904903D01*
X133906879Y-123885321D01*
X133887297Y-123863715D01*
X133869926Y-123840294D01*
X133854935Y-123815283D01*
X133842468Y-123788924D01*
X133832645Y-123761469D01*
X133825559Y-123733183D01*
X133821281Y-123704339D01*
X133819850Y-123675215D01*
X133819850Y-123609185D01*
X133821281Y-123580061D01*
X133825559Y-123551217D01*
X133832645Y-123522931D01*
X133842468Y-123495476D01*
X133854935Y-123469117D01*
X133869926Y-123444106D01*
X133887297Y-123420685D01*
X133906879Y-123399079D01*
X133928485Y-123379497D01*
X133951906Y-123362126D01*
X133976917Y-123347135D01*
X134003276Y-123334668D01*
X134030731Y-123324845D01*
X134059017Y-123317759D01*
X134087861Y-123313481D01*
X134116985Y-123312050D01*
X136723015Y-123312050D01*
X136752139Y-123313481D01*
X136752139Y-123313481D01*
G37*
D27*
X135420000Y-123642200D03*
D26*
G36*
X136752139Y-122043481D02*
G01*
X136780983Y-122047759D01*
X136809269Y-122054845D01*
X136836724Y-122064668D01*
X136863083Y-122077135D01*
X136888094Y-122092126D01*
X136911515Y-122109497D01*
X136933121Y-122129079D01*
X136952703Y-122150685D01*
X136970074Y-122174106D01*
X136985065Y-122199117D01*
X136997532Y-122225476D01*
X137007355Y-122252931D01*
X137014441Y-122281217D01*
X137018719Y-122310061D01*
X137020150Y-122339185D01*
X137020150Y-122405215D01*
X137018719Y-122434339D01*
X137014441Y-122463183D01*
X137007355Y-122491469D01*
X136997532Y-122518924D01*
X136985065Y-122545283D01*
X136970074Y-122570294D01*
X136952703Y-122593715D01*
X136933121Y-122615321D01*
X136911515Y-122634903D01*
X136888094Y-122652274D01*
X136863083Y-122667265D01*
X136836724Y-122679732D01*
X136809269Y-122689555D01*
X136780983Y-122696641D01*
X136752139Y-122700919D01*
X136723015Y-122702350D01*
X134116985Y-122702350D01*
X134087861Y-122700919D01*
X134059017Y-122696641D01*
X134030731Y-122689555D01*
X134003276Y-122679732D01*
X133976917Y-122667265D01*
X133951906Y-122652274D01*
X133928485Y-122634903D01*
X133906879Y-122615321D01*
X133887297Y-122593715D01*
X133869926Y-122570294D01*
X133854935Y-122545283D01*
X133842468Y-122518924D01*
X133832645Y-122491469D01*
X133825559Y-122463183D01*
X133821281Y-122434339D01*
X133819850Y-122405215D01*
X133819850Y-122339185D01*
X133821281Y-122310061D01*
X133825559Y-122281217D01*
X133832645Y-122252931D01*
X133842468Y-122225476D01*
X133854935Y-122199117D01*
X133869926Y-122174106D01*
X133887297Y-122150685D01*
X133906879Y-122129079D01*
X133928485Y-122109497D01*
X133951906Y-122092126D01*
X133976917Y-122077135D01*
X134003276Y-122064668D01*
X134030731Y-122054845D01*
X134059017Y-122047759D01*
X134087861Y-122043481D01*
X134116985Y-122042050D01*
X136723015Y-122042050D01*
X136752139Y-122043481D01*
X136752139Y-122043481D01*
G37*
D27*
X135420000Y-122372200D03*
D26*
G36*
X136752139Y-120773481D02*
G01*
X136780983Y-120777759D01*
X136809269Y-120784845D01*
X136836724Y-120794668D01*
X136863083Y-120807135D01*
X136888094Y-120822126D01*
X136911515Y-120839497D01*
X136933121Y-120859079D01*
X136952703Y-120880685D01*
X136970074Y-120904106D01*
X136985065Y-120929117D01*
X136997532Y-120955476D01*
X137007355Y-120982931D01*
X137014441Y-121011217D01*
X137018719Y-121040061D01*
X137020150Y-121069185D01*
X137020150Y-121135215D01*
X137018719Y-121164339D01*
X137014441Y-121193183D01*
X137007355Y-121221469D01*
X136997532Y-121248924D01*
X136985065Y-121275283D01*
X136970074Y-121300294D01*
X136952703Y-121323715D01*
X136933121Y-121345321D01*
X136911515Y-121364903D01*
X136888094Y-121382274D01*
X136863083Y-121397265D01*
X136836724Y-121409732D01*
X136809269Y-121419555D01*
X136780983Y-121426641D01*
X136752139Y-121430919D01*
X136723015Y-121432350D01*
X134116985Y-121432350D01*
X134087861Y-121430919D01*
X134059017Y-121426641D01*
X134030731Y-121419555D01*
X134003276Y-121409732D01*
X133976917Y-121397265D01*
X133951906Y-121382274D01*
X133928485Y-121364903D01*
X133906879Y-121345321D01*
X133887297Y-121323715D01*
X133869926Y-121300294D01*
X133854935Y-121275283D01*
X133842468Y-121248924D01*
X133832645Y-121221469D01*
X133825559Y-121193183D01*
X133821281Y-121164339D01*
X133819850Y-121135215D01*
X133819850Y-121069185D01*
X133821281Y-121040061D01*
X133825559Y-121011217D01*
X133832645Y-120982931D01*
X133842468Y-120955476D01*
X133854935Y-120929117D01*
X133869926Y-120904106D01*
X133887297Y-120880685D01*
X133906879Y-120859079D01*
X133928485Y-120839497D01*
X133951906Y-120822126D01*
X133976917Y-120807135D01*
X134003276Y-120794668D01*
X134030731Y-120784845D01*
X134059017Y-120777759D01*
X134087861Y-120773481D01*
X134116985Y-120772050D01*
X136723015Y-120772050D01*
X136752139Y-120773481D01*
X136752139Y-120773481D01*
G37*
D27*
X135420000Y-121102200D03*
D26*
G36*
X136752139Y-119503481D02*
G01*
X136780983Y-119507759D01*
X136809269Y-119514845D01*
X136836724Y-119524668D01*
X136863083Y-119537135D01*
X136888094Y-119552126D01*
X136911515Y-119569497D01*
X136933121Y-119589079D01*
X136952703Y-119610685D01*
X136970074Y-119634106D01*
X136985065Y-119659117D01*
X136997532Y-119685476D01*
X137007355Y-119712931D01*
X137014441Y-119741217D01*
X137018719Y-119770061D01*
X137020150Y-119799185D01*
X137020150Y-119865215D01*
X137018719Y-119894339D01*
X137014441Y-119923183D01*
X137007355Y-119951469D01*
X136997532Y-119978924D01*
X136985065Y-120005283D01*
X136970074Y-120030294D01*
X136952703Y-120053715D01*
X136933121Y-120075321D01*
X136911515Y-120094903D01*
X136888094Y-120112274D01*
X136863083Y-120127265D01*
X136836724Y-120139732D01*
X136809269Y-120149555D01*
X136780983Y-120156641D01*
X136752139Y-120160919D01*
X136723015Y-120162350D01*
X134116985Y-120162350D01*
X134087861Y-120160919D01*
X134059017Y-120156641D01*
X134030731Y-120149555D01*
X134003276Y-120139732D01*
X133976917Y-120127265D01*
X133951906Y-120112274D01*
X133928485Y-120094903D01*
X133906879Y-120075321D01*
X133887297Y-120053715D01*
X133869926Y-120030294D01*
X133854935Y-120005283D01*
X133842468Y-119978924D01*
X133832645Y-119951469D01*
X133825559Y-119923183D01*
X133821281Y-119894339D01*
X133819850Y-119865215D01*
X133819850Y-119799185D01*
X133821281Y-119770061D01*
X133825559Y-119741217D01*
X133832645Y-119712931D01*
X133842468Y-119685476D01*
X133854935Y-119659117D01*
X133869926Y-119634106D01*
X133887297Y-119610685D01*
X133906879Y-119589079D01*
X133928485Y-119569497D01*
X133951906Y-119552126D01*
X133976917Y-119537135D01*
X134003276Y-119524668D01*
X134030731Y-119514845D01*
X134059017Y-119507759D01*
X134087861Y-119503481D01*
X134116985Y-119502050D01*
X136723015Y-119502050D01*
X136752139Y-119503481D01*
X136752139Y-119503481D01*
G37*
D27*
X135420000Y-119832200D03*
D26*
G36*
X136752139Y-118233481D02*
G01*
X136780983Y-118237759D01*
X136809269Y-118244845D01*
X136836724Y-118254668D01*
X136863083Y-118267135D01*
X136888094Y-118282126D01*
X136911515Y-118299497D01*
X136933121Y-118319079D01*
X136952703Y-118340685D01*
X136970074Y-118364106D01*
X136985065Y-118389117D01*
X136997532Y-118415476D01*
X137007355Y-118442931D01*
X137014441Y-118471217D01*
X137018719Y-118500061D01*
X137020150Y-118529185D01*
X137020150Y-118595215D01*
X137018719Y-118624339D01*
X137014441Y-118653183D01*
X137007355Y-118681469D01*
X136997532Y-118708924D01*
X136985065Y-118735283D01*
X136970074Y-118760294D01*
X136952703Y-118783715D01*
X136933121Y-118805321D01*
X136911515Y-118824903D01*
X136888094Y-118842274D01*
X136863083Y-118857265D01*
X136836724Y-118869732D01*
X136809269Y-118879555D01*
X136780983Y-118886641D01*
X136752139Y-118890919D01*
X136723015Y-118892350D01*
X134116985Y-118892350D01*
X134087861Y-118890919D01*
X134059017Y-118886641D01*
X134030731Y-118879555D01*
X134003276Y-118869732D01*
X133976917Y-118857265D01*
X133951906Y-118842274D01*
X133928485Y-118824903D01*
X133906879Y-118805321D01*
X133887297Y-118783715D01*
X133869926Y-118760294D01*
X133854935Y-118735283D01*
X133842468Y-118708924D01*
X133832645Y-118681469D01*
X133825559Y-118653183D01*
X133821281Y-118624339D01*
X133819850Y-118595215D01*
X133819850Y-118529185D01*
X133821281Y-118500061D01*
X133825559Y-118471217D01*
X133832645Y-118442931D01*
X133842468Y-118415476D01*
X133854935Y-118389117D01*
X133869926Y-118364106D01*
X133887297Y-118340685D01*
X133906879Y-118319079D01*
X133928485Y-118299497D01*
X133951906Y-118282126D01*
X133976917Y-118267135D01*
X134003276Y-118254668D01*
X134030731Y-118244845D01*
X134059017Y-118237759D01*
X134087861Y-118233481D01*
X134116985Y-118232050D01*
X136723015Y-118232050D01*
X136752139Y-118233481D01*
X136752139Y-118233481D01*
G37*
D27*
X135420000Y-118562200D03*
D26*
G36*
X136752139Y-116963481D02*
G01*
X136780983Y-116967759D01*
X136809269Y-116974845D01*
X136836724Y-116984668D01*
X136863083Y-116997135D01*
X136888094Y-117012126D01*
X136911515Y-117029497D01*
X136933121Y-117049079D01*
X136952703Y-117070685D01*
X136970074Y-117094106D01*
X136985065Y-117119117D01*
X136997532Y-117145476D01*
X137007355Y-117172931D01*
X137014441Y-117201217D01*
X137018719Y-117230061D01*
X137020150Y-117259185D01*
X137020150Y-117325215D01*
X137018719Y-117354339D01*
X137014441Y-117383183D01*
X137007355Y-117411469D01*
X136997532Y-117438924D01*
X136985065Y-117465283D01*
X136970074Y-117490294D01*
X136952703Y-117513715D01*
X136933121Y-117535321D01*
X136911515Y-117554903D01*
X136888094Y-117572274D01*
X136863083Y-117587265D01*
X136836724Y-117599732D01*
X136809269Y-117609555D01*
X136780983Y-117616641D01*
X136752139Y-117620919D01*
X136723015Y-117622350D01*
X134116985Y-117622350D01*
X134087861Y-117620919D01*
X134059017Y-117616641D01*
X134030731Y-117609555D01*
X134003276Y-117599732D01*
X133976917Y-117587265D01*
X133951906Y-117572274D01*
X133928485Y-117554903D01*
X133906879Y-117535321D01*
X133887297Y-117513715D01*
X133869926Y-117490294D01*
X133854935Y-117465283D01*
X133842468Y-117438924D01*
X133832645Y-117411469D01*
X133825559Y-117383183D01*
X133821281Y-117354339D01*
X133819850Y-117325215D01*
X133819850Y-117259185D01*
X133821281Y-117230061D01*
X133825559Y-117201217D01*
X133832645Y-117172931D01*
X133842468Y-117145476D01*
X133854935Y-117119117D01*
X133869926Y-117094106D01*
X133887297Y-117070685D01*
X133906879Y-117049079D01*
X133928485Y-117029497D01*
X133951906Y-117012126D01*
X133976917Y-116997135D01*
X134003276Y-116984668D01*
X134030731Y-116974845D01*
X134059017Y-116967759D01*
X134087861Y-116963481D01*
X134116985Y-116962050D01*
X136723015Y-116962050D01*
X136752139Y-116963481D01*
X136752139Y-116963481D01*
G37*
D27*
X135420000Y-117292200D03*
D26*
G36*
X136752139Y-115693481D02*
G01*
X136780983Y-115697759D01*
X136809269Y-115704845D01*
X136836724Y-115714668D01*
X136863083Y-115727135D01*
X136888094Y-115742126D01*
X136911515Y-115759497D01*
X136933121Y-115779079D01*
X136952703Y-115800685D01*
X136970074Y-115824106D01*
X136985065Y-115849117D01*
X136997532Y-115875476D01*
X137007355Y-115902931D01*
X137014441Y-115931217D01*
X137018719Y-115960061D01*
X137020150Y-115989185D01*
X137020150Y-116055215D01*
X137018719Y-116084339D01*
X137014441Y-116113183D01*
X137007355Y-116141469D01*
X136997532Y-116168924D01*
X136985065Y-116195283D01*
X136970074Y-116220294D01*
X136952703Y-116243715D01*
X136933121Y-116265321D01*
X136911515Y-116284903D01*
X136888094Y-116302274D01*
X136863083Y-116317265D01*
X136836724Y-116329732D01*
X136809269Y-116339555D01*
X136780983Y-116346641D01*
X136752139Y-116350919D01*
X136723015Y-116352350D01*
X134116985Y-116352350D01*
X134087861Y-116350919D01*
X134059017Y-116346641D01*
X134030731Y-116339555D01*
X134003276Y-116329732D01*
X133976917Y-116317265D01*
X133951906Y-116302274D01*
X133928485Y-116284903D01*
X133906879Y-116265321D01*
X133887297Y-116243715D01*
X133869926Y-116220294D01*
X133854935Y-116195283D01*
X133842468Y-116168924D01*
X133832645Y-116141469D01*
X133825559Y-116113183D01*
X133821281Y-116084339D01*
X133819850Y-116055215D01*
X133819850Y-115989185D01*
X133821281Y-115960061D01*
X133825559Y-115931217D01*
X133832645Y-115902931D01*
X133842468Y-115875476D01*
X133854935Y-115849117D01*
X133869926Y-115824106D01*
X133887297Y-115800685D01*
X133906879Y-115779079D01*
X133928485Y-115759497D01*
X133951906Y-115742126D01*
X133976917Y-115727135D01*
X134003276Y-115714668D01*
X134030731Y-115704845D01*
X134059017Y-115697759D01*
X134087861Y-115693481D01*
X134116985Y-115692050D01*
X136723015Y-115692050D01*
X136752139Y-115693481D01*
X136752139Y-115693481D01*
G37*
D27*
X135420000Y-116022200D03*
D26*
G36*
X136752139Y-114423481D02*
G01*
X136780983Y-114427759D01*
X136809269Y-114434845D01*
X136836724Y-114444668D01*
X136863083Y-114457135D01*
X136888094Y-114472126D01*
X136911515Y-114489497D01*
X136933121Y-114509079D01*
X136952703Y-114530685D01*
X136970074Y-114554106D01*
X136985065Y-114579117D01*
X136997532Y-114605476D01*
X137007355Y-114632931D01*
X137014441Y-114661217D01*
X137018719Y-114690061D01*
X137020150Y-114719185D01*
X137020150Y-114785215D01*
X137018719Y-114814339D01*
X137014441Y-114843183D01*
X137007355Y-114871469D01*
X136997532Y-114898924D01*
X136985065Y-114925283D01*
X136970074Y-114950294D01*
X136952703Y-114973715D01*
X136933121Y-114995321D01*
X136911515Y-115014903D01*
X136888094Y-115032274D01*
X136863083Y-115047265D01*
X136836724Y-115059732D01*
X136809269Y-115069555D01*
X136780983Y-115076641D01*
X136752139Y-115080919D01*
X136723015Y-115082350D01*
X134116985Y-115082350D01*
X134087861Y-115080919D01*
X134059017Y-115076641D01*
X134030731Y-115069555D01*
X134003276Y-115059732D01*
X133976917Y-115047265D01*
X133951906Y-115032274D01*
X133928485Y-115014903D01*
X133906879Y-114995321D01*
X133887297Y-114973715D01*
X133869926Y-114950294D01*
X133854935Y-114925283D01*
X133842468Y-114898924D01*
X133832645Y-114871469D01*
X133825559Y-114843183D01*
X133821281Y-114814339D01*
X133819850Y-114785215D01*
X133819850Y-114719185D01*
X133821281Y-114690061D01*
X133825559Y-114661217D01*
X133832645Y-114632931D01*
X133842468Y-114605476D01*
X133854935Y-114579117D01*
X133869926Y-114554106D01*
X133887297Y-114530685D01*
X133906879Y-114509079D01*
X133928485Y-114489497D01*
X133951906Y-114472126D01*
X133976917Y-114457135D01*
X134003276Y-114444668D01*
X134030731Y-114434845D01*
X134059017Y-114427759D01*
X134087861Y-114423481D01*
X134116985Y-114422050D01*
X136723015Y-114422050D01*
X136752139Y-114423481D01*
X136752139Y-114423481D01*
G37*
D27*
X135420000Y-114752200D03*
M02*
