G04 #@! TF.GenerationSoftware,KiCad,Pcbnew,(5.1.0)-1*
G04 #@! TF.CreationDate,2019-05-30T14:49:56+02:00*
G04 #@! TF.ProjectId,UWED,55574544-2e6b-4696-9361-645f70636258,rev?*
G04 #@! TF.SameCoordinates,Original*
G04 #@! TF.FileFunction,Copper,L2,Bot*
G04 #@! TF.FilePolarity,Positive*
%FSLAX46Y46*%
G04 Gerber Fmt 4.6, Leading zero omitted, Abs format (unit mm)*
G04 Created by KiCad (PCBNEW (5.1.0)-1) date 2019-05-30 14:49:56*
%MOMM*%
%LPD*%
G04 APERTURE LIST*
%ADD10R,1.300000X1.500000*%
%ADD11R,1.500000X1.300000*%
%ADD12R,1.800000X1.400000*%
%ADD13C,1.006400*%
%ADD14C,0.812800*%
%ADD15C,0.609600*%
%ADD16C,0.406400*%
%ADD17C,0.304800*%
%ADD18C,0.254000*%
G04 APERTURE END LIST*
D10*
X148282600Y-90622200D03*
X146382600Y-90622200D03*
D11*
X155333600Y-112786200D03*
X155333600Y-114686200D03*
D10*
X137873600Y-114371200D03*
X139773600Y-114371200D03*
X137873600Y-116530200D03*
X139773600Y-116530200D03*
X140154600Y-103195200D03*
X138254600Y-103195200D03*
X140154600Y-105227200D03*
X138254600Y-105227200D03*
X142694600Y-90622200D03*
X140794600Y-90622200D03*
D11*
X138696600Y-94879200D03*
X138696600Y-96779200D03*
X142887600Y-94752200D03*
X142887600Y-96652200D03*
X136537600Y-94879200D03*
X136537600Y-96779200D03*
D10*
X145239600Y-95829200D03*
X147139600Y-95829200D03*
X143512400Y-120848200D03*
X145412400Y-120848200D03*
X152605600Y-99893200D03*
X154505600Y-99893200D03*
D12*
X161937600Y-127247200D03*
X161937600Y-123847200D03*
X161937600Y-122294200D03*
X161937600Y-118894200D03*
X159905600Y-123847200D03*
X159905600Y-127247200D03*
X161937600Y-117214200D03*
X161937600Y-113814200D03*
X159905600Y-118894200D03*
X159905600Y-122294200D03*
X159905600Y-113814200D03*
X159905600Y-117214200D03*
D11*
X135394600Y-102245200D03*
X135394600Y-104145200D03*
X152666600Y-103891200D03*
X152666600Y-101991200D03*
D10*
X158569600Y-99893200D03*
X156669600Y-99893200D03*
X162633600Y-99893200D03*
X160733600Y-99893200D03*
D11*
X157492600Y-113548200D03*
X157492600Y-115448200D03*
X153936600Y-122687200D03*
X153936600Y-120787200D03*
D13*
X155206600Y-85923200D03*
X142506600Y-81986200D03*
X142379600Y-105608200D03*
X142379600Y-114244200D03*
X146189600Y-105862200D03*
X135394600Y-113609200D03*
X158000600Y-111577200D03*
X162064600Y-111577200D03*
X158508600Y-97734200D03*
X143522600Y-119171800D03*
X141998600Y-99004200D03*
X145427600Y-119070200D03*
X152158600Y-122753200D03*
X139077600Y-122372200D03*
X132727600Y-120848200D03*
X132727600Y-104592200D03*
X139204600Y-120721200D03*
X146570600Y-112466200D03*
X153047600Y-110053200D03*
X139204600Y-118562200D03*
X136918600Y-108122800D03*
X139814200Y-108122800D03*
X142252600Y-103068200D03*
X160667600Y-102306200D03*
X150634600Y-112466200D03*
X162953600Y-104846200D03*
X150380600Y-105735200D03*
X157238600Y-105608200D03*
X158635600Y-106497200D03*
X158635600Y-104084200D03*
X148094600Y-106243200D03*
X157619600Y-109545200D03*
X160286600Y-110561200D03*
X144538600Y-106243200D03*
X156222600Y-101798200D03*
X146062600Y-98242200D03*
X141236600Y-112847200D03*
X139966600Y-106878200D03*
X152920600Y-105481200D03*
X154825600Y-103322200D03*
X133997600Y-110434200D03*
X147967600Y-100655200D03*
X135394600Y-108021200D03*
X137934600Y-85796200D03*
X152793600Y-85923200D03*
X140728600Y-98242200D03*
X142633600Y-92527200D03*
X146443600Y-92527200D03*
X140728600Y-92527200D03*
X144411600Y-98242200D03*
X160667600Y-97988200D03*
D14*
X155206600Y-85923200D02*
X155206600Y-82367200D01*
X155206600Y-82367200D02*
X155206600Y-81986200D01*
X155206600Y-81986200D02*
X142506600Y-81986200D01*
X148282600Y-90622200D02*
X149491600Y-90622200D01*
X149491600Y-90622200D02*
X149491600Y-87447200D01*
X149491600Y-87447200D02*
X155206600Y-87447200D01*
X155206600Y-87447200D02*
X155206600Y-85923200D01*
X142694600Y-90622200D02*
X142760600Y-90622200D01*
X142760600Y-90622200D02*
X142760600Y-89098200D01*
X142760600Y-89098200D02*
X142760600Y-87447200D01*
X142760600Y-87447200D02*
X149491600Y-87447200D01*
D15*
X138696600Y-94879200D02*
X139204600Y-94879200D01*
X139204600Y-94879200D02*
X139331600Y-94879200D01*
X139331600Y-94879200D02*
X139331600Y-88971200D01*
X139331600Y-88971200D02*
X142760600Y-88971200D01*
X142760600Y-88971200D02*
X142760600Y-89098200D01*
X142887600Y-94752200D02*
X139204600Y-94752200D01*
X139204600Y-94752200D02*
X139204600Y-94879200D01*
D14*
X136537600Y-94879200D02*
X138696600Y-94879200D01*
D15*
X145239600Y-95829200D02*
X144792600Y-95829200D01*
X144792600Y-95829200D02*
X143776600Y-94813200D01*
X143776600Y-94813200D02*
X142948600Y-94813200D01*
X142948600Y-94813200D02*
X142887600Y-94752200D01*
D16*
X142379600Y-105608200D02*
X142379600Y-114244200D01*
X146189600Y-105862200D02*
X146189600Y-104719200D01*
X146189600Y-104719200D02*
X145808600Y-104338200D01*
X145808600Y-104338200D02*
X143649600Y-104338200D01*
X143649600Y-104338200D02*
X142379600Y-105608200D01*
X137873600Y-116530200D02*
X137873600Y-114371200D01*
X137873600Y-114371200D02*
X135394600Y-113609200D01*
X140154600Y-105227200D02*
X140154600Y-103195200D01*
X140154600Y-103195200D02*
X140154600Y-105623400D01*
X140154600Y-105623400D02*
X140093600Y-105684400D01*
X140093600Y-105684400D02*
X142303400Y-105684400D01*
X142303400Y-105684400D02*
X142379600Y-105608200D01*
X158000600Y-111577200D02*
X162064600Y-111577200D01*
D14*
X158508600Y-97734200D02*
X158508600Y-82113200D01*
X158508600Y-82113200D02*
X155460600Y-82113200D01*
X155460600Y-82113200D02*
X155206600Y-82367200D01*
D16*
X143512400Y-120848200D02*
X143522600Y-120848200D01*
X143522600Y-120848200D02*
X143522600Y-119171800D01*
X141998600Y-99004200D02*
X142125600Y-98877200D01*
X141998600Y-99004200D02*
X141871600Y-99131200D01*
X141871600Y-99131200D02*
X138315600Y-99131200D01*
X138315600Y-99131200D02*
X136537600Y-97353200D01*
X136537600Y-97353200D02*
X136537600Y-96779200D01*
D17*
X145412400Y-120848200D02*
X145437800Y-119390200D01*
X145437800Y-119390200D02*
X145427600Y-119070200D01*
D16*
X152158600Y-122753200D02*
X144919600Y-122397600D01*
X144919600Y-122397600D02*
X139077600Y-122372200D01*
X153936600Y-122687200D02*
X152224600Y-122687200D01*
X152224600Y-122687200D02*
X152158600Y-122753200D01*
X132727600Y-120848200D02*
X132727600Y-104592200D01*
X139204600Y-120721200D02*
X140220600Y-120721200D01*
X140220600Y-120721200D02*
X146570600Y-114371200D01*
X146570600Y-114371200D02*
X146570600Y-112466200D01*
D17*
X153047600Y-110053200D02*
X145427600Y-110053200D01*
X145427600Y-110053200D02*
X145427600Y-114498200D01*
X145427600Y-114498200D02*
X141363600Y-118562200D01*
X141363600Y-118562200D02*
X139204600Y-118562200D01*
D16*
X136918600Y-108122800D02*
X139814200Y-108122800D01*
D17*
X142252600Y-103068200D02*
X151015600Y-103068200D01*
X151015600Y-103068200D02*
X151269600Y-103322200D01*
X151269600Y-103322200D02*
X151269600Y-105989200D01*
X151269600Y-105989200D02*
X152031600Y-106751200D01*
X152031600Y-106751200D02*
X153682600Y-106751200D01*
X153682600Y-106751200D02*
X154571600Y-105862200D01*
X154571600Y-105862200D02*
X154571600Y-104846200D01*
X154571600Y-104846200D02*
X154952600Y-104465200D01*
X154952600Y-104465200D02*
X155841600Y-104465200D01*
X155841600Y-104465200D02*
X156349600Y-103957200D01*
X156349600Y-103957200D02*
X156349600Y-103195200D01*
X156349600Y-103195200D02*
X156476600Y-103068200D01*
X156476600Y-103068200D02*
X156857600Y-103068200D01*
X156857600Y-103068200D02*
X157619600Y-102306200D01*
X157619600Y-102306200D02*
X160667600Y-102306200D01*
X161937600Y-113814200D02*
X159905600Y-113814200D01*
X155333600Y-112786200D02*
X156730600Y-112786200D01*
X156730600Y-112786200D02*
X157492600Y-113548200D01*
D16*
X157492600Y-113548200D02*
X159639600Y-113548200D01*
X159639600Y-113548200D02*
X159905600Y-113814200D01*
X161937600Y-103576200D02*
X160667600Y-102306200D01*
X153936600Y-120787200D02*
X153936600Y-116149200D01*
X153936600Y-116149200D02*
X151650600Y-113863200D01*
X151650600Y-113863200D02*
X149872600Y-113863200D01*
X149872600Y-113863200D02*
X149110600Y-113101200D01*
X149110600Y-113101200D02*
X149110600Y-111704200D01*
X149110600Y-111704200D02*
X149745600Y-111069200D01*
X149745600Y-111069200D02*
X151269600Y-111069200D01*
X151269600Y-111069200D02*
X151777600Y-111577200D01*
X151777600Y-111577200D02*
X154124600Y-111577200D01*
X154124600Y-111577200D02*
X155333600Y-112786200D01*
X161937600Y-103576200D02*
X161937600Y-105735200D01*
X161937600Y-105735200D02*
X162953600Y-106751200D01*
X162953600Y-106751200D02*
X162953600Y-112798200D01*
X162953600Y-112798200D02*
X161937600Y-113814200D01*
D17*
X159905600Y-127247200D02*
X161937600Y-127247200D01*
X155333600Y-114686200D02*
X155775600Y-114686200D01*
X155775600Y-114686200D02*
X156603600Y-115514200D01*
X156603600Y-115514200D02*
X157426600Y-115514200D01*
X157426600Y-115514200D02*
X157492600Y-115448200D01*
X150634600Y-112466200D02*
X152666600Y-112466200D01*
X152666600Y-112466200D02*
X154952600Y-114752200D01*
X154952600Y-114752200D02*
X155267600Y-114752200D01*
X155267600Y-114752200D02*
X155333600Y-114686200D01*
D16*
X159905600Y-127247200D02*
X159319600Y-127247200D01*
X159319600Y-127247200D02*
X157365600Y-125293200D01*
X157365600Y-125293200D02*
X157365600Y-115575200D01*
X157365600Y-115575200D02*
X157492600Y-115448200D01*
X162953600Y-104846200D02*
X162953600Y-105735200D01*
X162953600Y-105735200D02*
X163207600Y-105735200D01*
X163207600Y-105735200D02*
X163588600Y-105989200D01*
X163588600Y-105989200D02*
X163588600Y-115641200D01*
X163588600Y-115641200D02*
X157685600Y-115641200D01*
X157685600Y-115641200D02*
X157492600Y-115448200D01*
D17*
X150380600Y-105735200D02*
X150380600Y-106243200D01*
X150380600Y-106243200D02*
X151650600Y-107513200D01*
X151650600Y-107513200D02*
X153936600Y-107513200D01*
X153936600Y-107513200D02*
X155333600Y-106116200D01*
X155333600Y-106116200D02*
X155333600Y-105735200D01*
X155333600Y-105735200D02*
X155460600Y-105608200D01*
X155460600Y-105608200D02*
X157238600Y-105608200D01*
D16*
X158635600Y-106497200D02*
X158635600Y-104084200D01*
D17*
X148094600Y-106243200D02*
X149237600Y-106243200D01*
X149237600Y-106243200D02*
X151523600Y-108529200D01*
X151523600Y-108529200D02*
X156603600Y-108529200D01*
X156603600Y-108529200D02*
X157619600Y-109545200D01*
X160286600Y-110561200D02*
X156984600Y-110561200D01*
X156984600Y-110561200D02*
X155587600Y-109164200D01*
X155587600Y-109164200D02*
X151142600Y-109164200D01*
X151142600Y-109164200D02*
X149237600Y-107259200D01*
X149237600Y-107259200D02*
X145707000Y-107259200D01*
X145707000Y-107259200D02*
X144538600Y-106243200D01*
D16*
X156222600Y-101798200D02*
X156476600Y-101798200D01*
X156476600Y-101798200D02*
X156857600Y-101417200D01*
X156857600Y-101417200D02*
X162064600Y-101417200D01*
X162064600Y-101417200D02*
X162572600Y-100909200D01*
X162572600Y-100909200D02*
X162572600Y-99954200D01*
X162572600Y-99954200D02*
X162633600Y-99893200D01*
X146062600Y-98242200D02*
X147078600Y-97099200D01*
X147078600Y-97099200D02*
X147078600Y-95890200D01*
X147078600Y-95890200D02*
X147139600Y-95829200D01*
X139773600Y-114371200D02*
X141236600Y-112847200D01*
X139773600Y-116530200D02*
X139773600Y-114371200D01*
X138254600Y-105227200D02*
X138254600Y-103195200D01*
X138254600Y-103195200D02*
X138254600Y-105420200D01*
X138254600Y-105420200D02*
X138315600Y-105481200D01*
X138315600Y-105481200D02*
X138315600Y-106243200D01*
X138315600Y-106243200D02*
X138823600Y-106751200D01*
X138823600Y-106751200D02*
X139966600Y-106878200D01*
D17*
X152920600Y-105481200D02*
X152793600Y-104018200D01*
X152793600Y-104018200D02*
X152666600Y-103891200D01*
X154825600Y-103322200D02*
X154825600Y-100848200D01*
X154825600Y-100848200D02*
X154505600Y-99893200D01*
X154505600Y-99893200D02*
X156669600Y-99893200D01*
X133997600Y-110434200D02*
X133997600Y-100655200D01*
X133997600Y-100655200D02*
X147967600Y-100655200D01*
X135394600Y-108021200D02*
X135394600Y-104145200D01*
D14*
X137934600Y-85796200D02*
X152793600Y-85796200D01*
X152793600Y-85796200D02*
X152793600Y-85923200D01*
D16*
X140728600Y-98242200D02*
X138696600Y-98242200D01*
X138696600Y-98242200D02*
X138696600Y-96779200D01*
X142633600Y-92527200D02*
X146443600Y-92527200D01*
X140728600Y-92527200D02*
X142633600Y-92527200D01*
X146443600Y-92527200D02*
X146382600Y-92527200D01*
X146382600Y-92527200D02*
X146382600Y-90622200D01*
D15*
X140728600Y-92527200D02*
X140794600Y-92527200D01*
X140794600Y-92527200D02*
X140794600Y-90622200D01*
D16*
X144411600Y-98242200D02*
X142887600Y-98242200D01*
X142887600Y-98242200D02*
X142887600Y-96652200D01*
D17*
X135394600Y-102245200D02*
X136537600Y-102245200D01*
X152666600Y-101991200D02*
X152666600Y-99954200D01*
X152666600Y-99954200D02*
X152605600Y-99893200D01*
X136537600Y-102245200D02*
X136537600Y-101925200D01*
X136537600Y-101925200D02*
X136664600Y-101798200D01*
X136664600Y-101798200D02*
X152473600Y-101798200D01*
X152473600Y-101798200D02*
X152666600Y-101991200D01*
D16*
X158569600Y-99893200D02*
X160733600Y-99893200D01*
X160667600Y-97988200D02*
X160667600Y-99827200D01*
X160667600Y-99827200D02*
X160733600Y-99893200D01*
D17*
X161937600Y-123847200D02*
X161937600Y-122294200D01*
X161937600Y-118894200D02*
X161937600Y-117214200D01*
X159905600Y-123847200D02*
X159905600Y-122294200D01*
X159905600Y-118894200D02*
X159905600Y-117214200D01*
D18*
G36*
X164680800Y-128798400D02*
G01*
X147815200Y-128798400D01*
X147815200Y-123515200D01*
X147812760Y-123490424D01*
X147805533Y-123466599D01*
X147793797Y-123444643D01*
X147778003Y-123425397D01*
X147758757Y-123409603D01*
X147736801Y-123397867D01*
X147712976Y-123390640D01*
X147688200Y-123388200D01*
X132499000Y-123388200D01*
X132499000Y-121833739D01*
X132628005Y-121859400D01*
X132827195Y-121859400D01*
X133022556Y-121820540D01*
X133206583Y-121744314D01*
X133372203Y-121633651D01*
X133513051Y-121492803D01*
X133623714Y-121327183D01*
X133699940Y-121143156D01*
X133738800Y-120947795D01*
X133738800Y-120748605D01*
X133699940Y-120553244D01*
X133623714Y-120369217D01*
X133513051Y-120203597D01*
X133438800Y-120129346D01*
X133438800Y-111276982D01*
X133518617Y-111330314D01*
X133702644Y-111406540D01*
X133898005Y-111445400D01*
X134097195Y-111445400D01*
X134292556Y-111406540D01*
X134476583Y-111330314D01*
X134642203Y-111219651D01*
X134783051Y-111078803D01*
X134893714Y-110913183D01*
X134969940Y-110729156D01*
X135008800Y-110533795D01*
X135008800Y-110334605D01*
X134969940Y-110139244D01*
X134893714Y-109955217D01*
X134783051Y-109789597D01*
X134658000Y-109664546D01*
X134658000Y-108714654D01*
X134749997Y-108806651D01*
X134915617Y-108917314D01*
X135099644Y-108993540D01*
X135295005Y-109032400D01*
X135494195Y-109032400D01*
X135689556Y-108993540D01*
X135873583Y-108917314D01*
X136039203Y-108806651D01*
X136111240Y-108734614D01*
X136133149Y-108767403D01*
X136273997Y-108908251D01*
X136439617Y-109018914D01*
X136623644Y-109095140D01*
X136819005Y-109134000D01*
X137018195Y-109134000D01*
X137213556Y-109095140D01*
X137397583Y-109018914D01*
X137563203Y-108908251D01*
X137637454Y-108834000D01*
X139095346Y-108834000D01*
X139169597Y-108908251D01*
X139335217Y-109018914D01*
X139519244Y-109095140D01*
X139714605Y-109134000D01*
X139913795Y-109134000D01*
X140109156Y-109095140D01*
X140293183Y-109018914D01*
X140458803Y-108908251D01*
X140599651Y-108767403D01*
X140710314Y-108601783D01*
X140786540Y-108417756D01*
X140825400Y-108222395D01*
X140825400Y-108023205D01*
X140786540Y-107827844D01*
X140710314Y-107643817D01*
X140678560Y-107596294D01*
X140752051Y-107522803D01*
X140862714Y-107357183D01*
X140938940Y-107173156D01*
X140977800Y-106977795D01*
X140977800Y-106778605D01*
X140938940Y-106583244D01*
X140862714Y-106399217D01*
X140752051Y-106233597D01*
X140611203Y-106092749D01*
X140445583Y-105982086D01*
X140261556Y-105905860D01*
X140066195Y-105867000D01*
X139867005Y-105867000D01*
X139671644Y-105905860D01*
X139487617Y-105982086D01*
X139409431Y-106034328D01*
X139415057Y-105977200D01*
X139415057Y-104477200D01*
X139405249Y-104377615D01*
X139376201Y-104281857D01*
X139338434Y-104211200D01*
X139376201Y-104140543D01*
X139405249Y-104044785D01*
X139415057Y-103945200D01*
X139415057Y-102458600D01*
X141443761Y-102458600D01*
X141356486Y-102589217D01*
X141280260Y-102773244D01*
X141241400Y-102968605D01*
X141241400Y-103167795D01*
X141280260Y-103363156D01*
X141356486Y-103547183D01*
X141467149Y-103712803D01*
X141607997Y-103853651D01*
X141773617Y-103964314D01*
X141957644Y-104040540D01*
X142153005Y-104079400D01*
X142352195Y-104079400D01*
X142547556Y-104040540D01*
X142731583Y-103964314D01*
X142897203Y-103853651D01*
X143022254Y-103728600D01*
X150609200Y-103728600D01*
X150609201Y-104749661D01*
X150480195Y-104724000D01*
X150281005Y-104724000D01*
X150085644Y-104762860D01*
X149901617Y-104839086D01*
X149735997Y-104949749D01*
X149595149Y-105090597D01*
X149484486Y-105256217D01*
X149408260Y-105440244D01*
X149377380Y-105595486D01*
X149367061Y-105592356D01*
X149270039Y-105582800D01*
X149237600Y-105579605D01*
X149205161Y-105582800D01*
X148864254Y-105582800D01*
X148739203Y-105457749D01*
X148573583Y-105347086D01*
X148389556Y-105270860D01*
X148194195Y-105232000D01*
X147995005Y-105232000D01*
X147799644Y-105270860D01*
X147615617Y-105347086D01*
X147449997Y-105457749D01*
X147309149Y-105598597D01*
X147198486Y-105764217D01*
X147122260Y-105948244D01*
X147083400Y-106143605D01*
X147083400Y-106342795D01*
X147122260Y-106538156D01*
X147147379Y-106598800D01*
X145953973Y-106598800D01*
X145549800Y-106247345D01*
X145549800Y-106143605D01*
X145510940Y-105948244D01*
X145434714Y-105764217D01*
X145324051Y-105598597D01*
X145183203Y-105457749D01*
X145017583Y-105347086D01*
X144833556Y-105270860D01*
X144638195Y-105232000D01*
X144439005Y-105232000D01*
X144243644Y-105270860D01*
X144059617Y-105347086D01*
X143893997Y-105457749D01*
X143753149Y-105598597D01*
X143642486Y-105764217D01*
X143566260Y-105948244D01*
X143527400Y-106143605D01*
X143527400Y-106342795D01*
X143566260Y-106538156D01*
X143642486Y-106722183D01*
X143753149Y-106887803D01*
X143893997Y-107028651D01*
X144059617Y-107139314D01*
X144243644Y-107215540D01*
X144439005Y-107254400D01*
X144638195Y-107254400D01*
X144684463Y-107245197D01*
X145231742Y-107721091D01*
X145237767Y-107728433D01*
X145280770Y-107763724D01*
X145298138Y-107778827D01*
X145305828Y-107784289D01*
X145338326Y-107810959D01*
X145358748Y-107821875D01*
X145377622Y-107835280D01*
X145415977Y-107852464D01*
X145453053Y-107872282D01*
X145475212Y-107879004D01*
X145496338Y-107888469D01*
X145537311Y-107897841D01*
X145577539Y-107910044D01*
X145600582Y-107912314D01*
X145623151Y-107917476D01*
X145665167Y-107918675D01*
X145674561Y-107919600D01*
X145697596Y-107919600D01*
X145753185Y-107921186D01*
X145762546Y-107919600D01*
X148964054Y-107919600D01*
X150437253Y-109392800D01*
X145460039Y-109392800D01*
X145427600Y-109389605D01*
X145395161Y-109392800D01*
X145298139Y-109402356D01*
X145173653Y-109440118D01*
X145058926Y-109501441D01*
X144958367Y-109583967D01*
X144875841Y-109684526D01*
X144814518Y-109799253D01*
X144776756Y-109923739D01*
X144764005Y-110053200D01*
X144767200Y-110085639D01*
X144767201Y-114224652D01*
X141090054Y-117901800D01*
X139974254Y-117901800D01*
X139863111Y-117790657D01*
X140423600Y-117790657D01*
X140523185Y-117780849D01*
X140618943Y-117751801D01*
X140707195Y-117704629D01*
X140784548Y-117641148D01*
X140848029Y-117563795D01*
X140895201Y-117475543D01*
X140924249Y-117379785D01*
X140934057Y-117280200D01*
X140934057Y-115780200D01*
X140924249Y-115680615D01*
X140895201Y-115584857D01*
X140848029Y-115496605D01*
X140810356Y-115450700D01*
X140848029Y-115404795D01*
X140895201Y-115316543D01*
X140924249Y-115220785D01*
X140934057Y-115121200D01*
X140934057Y-114189328D01*
X141251740Y-113858400D01*
X141336195Y-113858400D01*
X141531556Y-113819540D01*
X141715583Y-113743314D01*
X141881203Y-113632651D01*
X142022051Y-113491803D01*
X142132714Y-113326183D01*
X142208940Y-113142156D01*
X142247800Y-112946795D01*
X142247800Y-112747605D01*
X142208940Y-112552244D01*
X142132714Y-112368217D01*
X142022051Y-112202597D01*
X141881203Y-112061749D01*
X141715583Y-111951086D01*
X141531556Y-111874860D01*
X141336195Y-111836000D01*
X141137005Y-111836000D01*
X140941644Y-111874860D01*
X140757617Y-111951086D01*
X140591997Y-112061749D01*
X140451149Y-112202597D01*
X140340486Y-112368217D01*
X140264260Y-112552244D01*
X140225400Y-112747605D01*
X140225400Y-112873591D01*
X139997741Y-113110743D01*
X139123600Y-113110743D01*
X139024015Y-113120551D01*
X138928257Y-113149599D01*
X138840005Y-113196771D01*
X138762652Y-113260252D01*
X138699171Y-113337605D01*
X138651999Y-113425857D01*
X138622951Y-113521615D01*
X138613143Y-113621200D01*
X138613143Y-115121200D01*
X138622951Y-115220785D01*
X138651999Y-115316543D01*
X138699171Y-115404795D01*
X138736844Y-115450700D01*
X138699171Y-115496605D01*
X138651999Y-115584857D01*
X138622951Y-115680615D01*
X138613143Y-115780200D01*
X138613143Y-117280200D01*
X138622951Y-117379785D01*
X138651999Y-117475543D01*
X138699171Y-117563795D01*
X138762652Y-117641148D01*
X138770424Y-117647526D01*
X138725617Y-117666086D01*
X138559997Y-117776749D01*
X138419149Y-117917597D01*
X138308486Y-118083217D01*
X138232260Y-118267244D01*
X138193400Y-118462605D01*
X138193400Y-118661795D01*
X138232260Y-118857156D01*
X138308486Y-119041183D01*
X138419149Y-119206803D01*
X138559997Y-119347651D01*
X138725617Y-119458314D01*
X138909644Y-119534540D01*
X139105005Y-119573400D01*
X139304195Y-119573400D01*
X139499556Y-119534540D01*
X139683583Y-119458314D01*
X139849203Y-119347651D01*
X139974254Y-119222600D01*
X140713413Y-119222600D01*
X139926013Y-120010000D01*
X139923454Y-120010000D01*
X139849203Y-119935749D01*
X139683583Y-119825086D01*
X139499556Y-119748860D01*
X139304195Y-119710000D01*
X139105005Y-119710000D01*
X138909644Y-119748860D01*
X138725617Y-119825086D01*
X138559997Y-119935749D01*
X138419149Y-120076597D01*
X138308486Y-120242217D01*
X138232260Y-120426244D01*
X138193400Y-120621605D01*
X138193400Y-120820795D01*
X138232260Y-121016156D01*
X138308486Y-121200183D01*
X138419149Y-121365803D01*
X138557144Y-121503798D01*
X138432997Y-121586749D01*
X138292149Y-121727597D01*
X138181486Y-121893217D01*
X138105260Y-122077244D01*
X138066400Y-122272605D01*
X138066400Y-122471795D01*
X138105260Y-122667156D01*
X138181486Y-122851183D01*
X138292149Y-123016803D01*
X138432997Y-123157651D01*
X138598617Y-123268314D01*
X138782644Y-123344540D01*
X138978005Y-123383400D01*
X139177195Y-123383400D01*
X139372556Y-123344540D01*
X139556583Y-123268314D01*
X139722203Y-123157651D01*
X139793336Y-123086518D01*
X144900603Y-123108724D01*
X151403511Y-123428165D01*
X151513997Y-123538651D01*
X151679617Y-123649314D01*
X151863644Y-123725540D01*
X152059005Y-123764400D01*
X152258195Y-123764400D01*
X152453556Y-123725540D01*
X152637583Y-123649314D01*
X152740617Y-123580470D01*
X152762171Y-123620795D01*
X152825652Y-123698148D01*
X152903005Y-123761629D01*
X152991257Y-123808801D01*
X153087015Y-123837849D01*
X153186600Y-123847657D01*
X154686600Y-123847657D01*
X154786185Y-123837849D01*
X154881943Y-123808801D01*
X154970195Y-123761629D01*
X155047548Y-123698148D01*
X155111029Y-123620795D01*
X155158201Y-123532543D01*
X155187249Y-123436785D01*
X155197057Y-123337200D01*
X155197057Y-122037200D01*
X155187249Y-121937615D01*
X155158201Y-121841857D01*
X155111029Y-121753605D01*
X155097566Y-121737200D01*
X155111029Y-121720795D01*
X155158201Y-121632543D01*
X155187249Y-121536785D01*
X155197057Y-121437200D01*
X155197057Y-120137200D01*
X155187249Y-120037615D01*
X155158201Y-119941857D01*
X155111029Y-119853605D01*
X155047548Y-119776252D01*
X154970195Y-119712771D01*
X154881943Y-119665599D01*
X154786185Y-119636551D01*
X154686600Y-119626743D01*
X154647800Y-119626743D01*
X154647800Y-116184125D01*
X154651240Y-116149199D01*
X154647800Y-116114273D01*
X154647800Y-116114264D01*
X154637509Y-116009780D01*
X154596842Y-115875719D01*
X154581181Y-115846419D01*
X154583600Y-115846657D01*
X156002110Y-115846657D01*
X156113686Y-115958233D01*
X156134367Y-115983433D01*
X156201142Y-116038233D01*
X156232143Y-116063675D01*
X156232143Y-116098200D01*
X156241951Y-116197785D01*
X156270999Y-116293543D01*
X156318171Y-116381795D01*
X156381652Y-116459148D01*
X156459005Y-116522629D01*
X156547257Y-116569801D01*
X156643015Y-116598849D01*
X156654401Y-116599970D01*
X156654400Y-125258274D01*
X156650960Y-125293200D01*
X156654400Y-125328126D01*
X156654400Y-125328135D01*
X156664691Y-125432619D01*
X156705358Y-125566680D01*
X156771398Y-125690232D01*
X156860273Y-125798526D01*
X156887410Y-125820797D01*
X158495143Y-127428532D01*
X158495143Y-127947200D01*
X158504951Y-128046785D01*
X158533999Y-128142543D01*
X158581171Y-128230795D01*
X158644652Y-128308148D01*
X158722005Y-128371629D01*
X158810257Y-128418801D01*
X158906015Y-128447849D01*
X159005600Y-128457657D01*
X160805600Y-128457657D01*
X160905185Y-128447849D01*
X160921600Y-128442870D01*
X160938015Y-128447849D01*
X161037600Y-128457657D01*
X162837600Y-128457657D01*
X162937185Y-128447849D01*
X163032943Y-128418801D01*
X163121195Y-128371629D01*
X163198548Y-128308148D01*
X163262029Y-128230795D01*
X163309201Y-128142543D01*
X163338249Y-128046785D01*
X163348057Y-127947200D01*
X163348057Y-126547200D01*
X163338249Y-126447615D01*
X163309201Y-126351857D01*
X163262029Y-126263605D01*
X163198548Y-126186252D01*
X163121195Y-126122771D01*
X163032943Y-126075599D01*
X162937185Y-126046551D01*
X162837600Y-126036743D01*
X161037600Y-126036743D01*
X160938015Y-126046551D01*
X160921600Y-126051530D01*
X160905185Y-126046551D01*
X160805600Y-126036743D01*
X159114931Y-126036743D01*
X158076800Y-124998613D01*
X158076800Y-121594200D01*
X158495143Y-121594200D01*
X158495143Y-122994200D01*
X158502677Y-123070700D01*
X158495143Y-123147200D01*
X158495143Y-124547200D01*
X158504951Y-124646785D01*
X158533999Y-124742543D01*
X158581171Y-124830795D01*
X158644652Y-124908148D01*
X158722005Y-124971629D01*
X158810257Y-125018801D01*
X158906015Y-125047849D01*
X159005600Y-125057657D01*
X160805600Y-125057657D01*
X160905185Y-125047849D01*
X160921600Y-125042870D01*
X160938015Y-125047849D01*
X161037600Y-125057657D01*
X162837600Y-125057657D01*
X162937185Y-125047849D01*
X163032943Y-125018801D01*
X163121195Y-124971629D01*
X163198548Y-124908148D01*
X163262029Y-124830795D01*
X163309201Y-124742543D01*
X163338249Y-124646785D01*
X163348057Y-124547200D01*
X163348057Y-123147200D01*
X163340523Y-123070700D01*
X163348057Y-122994200D01*
X163348057Y-121594200D01*
X163338249Y-121494615D01*
X163309201Y-121398857D01*
X163262029Y-121310605D01*
X163198548Y-121233252D01*
X163121195Y-121169771D01*
X163032943Y-121122599D01*
X162937185Y-121093551D01*
X162837600Y-121083743D01*
X161037600Y-121083743D01*
X160938015Y-121093551D01*
X160921600Y-121098530D01*
X160905185Y-121093551D01*
X160805600Y-121083743D01*
X159005600Y-121083743D01*
X158906015Y-121093551D01*
X158810257Y-121122599D01*
X158722005Y-121169771D01*
X158644652Y-121233252D01*
X158581171Y-121310605D01*
X158533999Y-121398857D01*
X158504951Y-121494615D01*
X158495143Y-121594200D01*
X158076800Y-121594200D01*
X158076800Y-116608657D01*
X158242600Y-116608657D01*
X158342185Y-116598849D01*
X158437943Y-116569801D01*
X158495143Y-116539227D01*
X158495143Y-117914200D01*
X158504951Y-118013785D01*
X158517211Y-118054200D01*
X158504951Y-118094615D01*
X158495143Y-118194200D01*
X158495143Y-119594200D01*
X158504951Y-119693785D01*
X158533999Y-119789543D01*
X158581171Y-119877795D01*
X158644652Y-119955148D01*
X158722005Y-120018629D01*
X158810257Y-120065801D01*
X158906015Y-120094849D01*
X159005600Y-120104657D01*
X160805600Y-120104657D01*
X160905185Y-120094849D01*
X160921600Y-120089870D01*
X160938015Y-120094849D01*
X161037600Y-120104657D01*
X162837600Y-120104657D01*
X162937185Y-120094849D01*
X163032943Y-120065801D01*
X163121195Y-120018629D01*
X163198548Y-119955148D01*
X163262029Y-119877795D01*
X163309201Y-119789543D01*
X163338249Y-119693785D01*
X163348057Y-119594200D01*
X163348057Y-118194200D01*
X163338249Y-118094615D01*
X163325989Y-118054200D01*
X163338249Y-118013785D01*
X163348057Y-117914200D01*
X163348057Y-116514200D01*
X163338249Y-116414615D01*
X163319376Y-116352400D01*
X163553664Y-116352400D01*
X163588600Y-116355841D01*
X163623536Y-116352400D01*
X163728020Y-116342109D01*
X163862081Y-116301442D01*
X163985633Y-116235402D01*
X164093927Y-116146527D01*
X164182802Y-116038233D01*
X164248842Y-115914681D01*
X164289509Y-115780620D01*
X164303241Y-115641200D01*
X164299800Y-115606264D01*
X164299800Y-106023757D01*
X164303240Y-105988452D01*
X164296400Y-105919743D01*
X164289509Y-105849780D01*
X164289399Y-105849417D01*
X164289362Y-105849047D01*
X164269270Y-105783061D01*
X164248842Y-105715719D01*
X164248663Y-105715385D01*
X164248555Y-105715029D01*
X164215920Y-105654127D01*
X164182802Y-105592167D01*
X164182562Y-105591875D01*
X164182386Y-105591546D01*
X164138134Y-105537740D01*
X164093926Y-105483873D01*
X164093638Y-105483636D01*
X164093398Y-105483345D01*
X164039080Y-105438862D01*
X163985632Y-105394998D01*
X163954348Y-105378276D01*
X163855122Y-105312126D01*
X163925940Y-105141156D01*
X163964800Y-104945795D01*
X163964800Y-104746605D01*
X163925940Y-104551244D01*
X163849714Y-104367217D01*
X163739051Y-104201597D01*
X163598203Y-104060749D01*
X163432583Y-103950086D01*
X163248556Y-103873860D01*
X163053195Y-103835000D01*
X162854005Y-103835000D01*
X162658644Y-103873860D01*
X162648800Y-103877937D01*
X162648800Y-103611125D01*
X162652240Y-103576199D01*
X162648800Y-103541273D01*
X162648800Y-103541264D01*
X162638509Y-103436780D01*
X162597842Y-103302719D01*
X162531802Y-103179167D01*
X162518338Y-103162761D01*
X162465197Y-103098008D01*
X162465188Y-103097999D01*
X162442926Y-103070873D01*
X162415800Y-103048612D01*
X161678800Y-102311612D01*
X161678800Y-102206605D01*
X161663244Y-102128400D01*
X162029674Y-102128400D01*
X162064600Y-102131840D01*
X162099526Y-102128400D01*
X162099536Y-102128400D01*
X162204020Y-102118109D01*
X162338081Y-102077442D01*
X162461633Y-102011402D01*
X162569927Y-101922527D01*
X162592201Y-101895386D01*
X163050800Y-101436789D01*
X163077926Y-101414527D01*
X163100188Y-101387401D01*
X163100197Y-101387392D01*
X163166801Y-101306234D01*
X163166802Y-101306233D01*
X163232842Y-101182681D01*
X163241646Y-101153657D01*
X163283600Y-101153657D01*
X163383185Y-101143849D01*
X163478943Y-101114801D01*
X163567195Y-101067629D01*
X163644548Y-101004148D01*
X163708029Y-100926795D01*
X163755201Y-100838543D01*
X163784249Y-100742785D01*
X163794057Y-100643200D01*
X163794057Y-99143200D01*
X163784249Y-99043615D01*
X163755201Y-98947857D01*
X163708029Y-98859605D01*
X163644548Y-98782252D01*
X163567195Y-98718771D01*
X163478943Y-98671599D01*
X163383185Y-98642551D01*
X163283600Y-98632743D01*
X161983600Y-98632743D01*
X161884015Y-98642551D01*
X161788257Y-98671599D01*
X161700005Y-98718771D01*
X161683600Y-98732234D01*
X161667195Y-98718771D01*
X161578943Y-98671599D01*
X161483185Y-98642551D01*
X161446879Y-98638975D01*
X161453051Y-98632803D01*
X161563714Y-98467183D01*
X161639940Y-98283156D01*
X161678800Y-98087795D01*
X161678800Y-97888605D01*
X161639940Y-97693244D01*
X161563714Y-97509217D01*
X161453051Y-97343597D01*
X161312203Y-97202749D01*
X161146583Y-97092086D01*
X160962556Y-97015860D01*
X160767195Y-96977000D01*
X160568005Y-96977000D01*
X160372644Y-97015860D01*
X160188617Y-97092086D01*
X160022997Y-97202749D01*
X159882149Y-97343597D01*
X159771486Y-97509217D01*
X159695260Y-97693244D01*
X159656400Y-97888605D01*
X159656400Y-98087795D01*
X159695260Y-98283156D01*
X159771486Y-98467183D01*
X159882149Y-98632803D01*
X159913337Y-98663991D01*
X159888257Y-98671599D01*
X159800005Y-98718771D01*
X159722652Y-98782252D01*
X159659171Y-98859605D01*
X159651600Y-98873769D01*
X159644029Y-98859605D01*
X159580548Y-98782252D01*
X159503195Y-98718771D01*
X159414943Y-98671599D01*
X159319185Y-98642551D01*
X159219600Y-98632743D01*
X157919600Y-98632743D01*
X157820015Y-98642551D01*
X157724257Y-98671599D01*
X157636005Y-98718771D01*
X157619600Y-98732234D01*
X157603195Y-98718771D01*
X157514943Y-98671599D01*
X157419185Y-98642551D01*
X157319600Y-98632743D01*
X156019600Y-98632743D01*
X155920015Y-98642551D01*
X155824257Y-98671599D01*
X155736005Y-98718771D01*
X155658652Y-98782252D01*
X155595171Y-98859605D01*
X155587600Y-98873769D01*
X155580029Y-98859605D01*
X155516548Y-98782252D01*
X155439195Y-98718771D01*
X155350943Y-98671599D01*
X155255185Y-98642551D01*
X155155600Y-98632743D01*
X153855600Y-98632743D01*
X153756015Y-98642551D01*
X153660257Y-98671599D01*
X153572005Y-98718771D01*
X153555600Y-98732234D01*
X153539195Y-98718771D01*
X153450943Y-98671599D01*
X153355185Y-98642551D01*
X153255600Y-98632743D01*
X151955600Y-98632743D01*
X151856015Y-98642551D01*
X151760257Y-98671599D01*
X151672005Y-98718771D01*
X151594652Y-98782252D01*
X151531171Y-98859605D01*
X151483999Y-98947857D01*
X151454951Y-99043615D01*
X151445143Y-99143200D01*
X151445143Y-100643200D01*
X151454951Y-100742785D01*
X151483999Y-100838543D01*
X151531171Y-100926795D01*
X151567238Y-100970744D01*
X151555652Y-100980252D01*
X151492171Y-101057605D01*
X151449306Y-101137800D01*
X148861297Y-101137800D01*
X148863714Y-101134183D01*
X148939940Y-100950156D01*
X148978800Y-100754795D01*
X148978800Y-100555605D01*
X148939940Y-100360244D01*
X148863714Y-100176217D01*
X148753051Y-100010597D01*
X148612203Y-99869749D01*
X148446583Y-99759086D01*
X148262556Y-99682860D01*
X148067195Y-99644000D01*
X147868005Y-99644000D01*
X147672644Y-99682860D01*
X147488617Y-99759086D01*
X147322997Y-99869749D01*
X147197946Y-99994800D01*
X142201757Y-99994800D01*
X142293556Y-99976540D01*
X142477583Y-99900314D01*
X142643203Y-99789651D01*
X142784051Y-99648803D01*
X142894714Y-99483183D01*
X142970940Y-99299156D01*
X143009800Y-99103795D01*
X143009800Y-98953400D01*
X143692746Y-98953400D01*
X143766997Y-99027651D01*
X143932617Y-99138314D01*
X144116644Y-99214540D01*
X144312005Y-99253400D01*
X144511195Y-99253400D01*
X144706556Y-99214540D01*
X144890583Y-99138314D01*
X145056203Y-99027651D01*
X145197051Y-98886803D01*
X145237100Y-98826865D01*
X145277149Y-98886803D01*
X145417997Y-99027651D01*
X145583617Y-99138314D01*
X145767644Y-99214540D01*
X145963005Y-99253400D01*
X146162195Y-99253400D01*
X146357556Y-99214540D01*
X146541583Y-99138314D01*
X146707203Y-99027651D01*
X146848051Y-98886803D01*
X146958714Y-98721183D01*
X147034940Y-98537156D01*
X147073800Y-98341795D01*
X147073800Y-98175098D01*
X147573014Y-97613482D01*
X147583926Y-97604527D01*
X147619448Y-97561244D01*
X147633368Y-97545584D01*
X147641631Y-97534214D01*
X147672802Y-97496233D01*
X147682721Y-97477675D01*
X147695091Y-97460655D01*
X147715673Y-97416027D01*
X147738842Y-97372681D01*
X147744950Y-97352547D01*
X147753762Y-97333439D01*
X147765242Y-97285653D01*
X147779509Y-97238620D01*
X147781572Y-97217676D01*
X147786486Y-97197220D01*
X147788422Y-97148123D01*
X147789800Y-97134136D01*
X147789800Y-97113194D01*
X147790733Y-97089545D01*
X147889185Y-97079849D01*
X147984943Y-97050801D01*
X148073195Y-97003629D01*
X148150548Y-96940148D01*
X148214029Y-96862795D01*
X148261201Y-96774543D01*
X148290249Y-96678785D01*
X148300057Y-96579200D01*
X148300057Y-95079200D01*
X148290249Y-94979615D01*
X148261201Y-94883857D01*
X148214029Y-94795605D01*
X148150548Y-94718252D01*
X148073195Y-94654771D01*
X147984943Y-94607599D01*
X147889185Y-94578551D01*
X147789600Y-94568743D01*
X146489600Y-94568743D01*
X146390015Y-94578551D01*
X146294257Y-94607599D01*
X146206005Y-94654771D01*
X146128652Y-94718252D01*
X146065171Y-94795605D01*
X146017999Y-94883857D01*
X145988951Y-94979615D01*
X145979143Y-95079200D01*
X145979143Y-96579200D01*
X145988951Y-96678785D01*
X146017999Y-96774543D01*
X146065171Y-96862795D01*
X146128652Y-96940148D01*
X146206005Y-97003629D01*
X146210068Y-97005801D01*
X146009891Y-97231000D01*
X145963005Y-97231000D01*
X145767644Y-97269860D01*
X145583617Y-97346086D01*
X145417997Y-97456749D01*
X145277149Y-97597597D01*
X145237100Y-97657535D01*
X145197051Y-97597597D01*
X145056203Y-97456749D01*
X144890583Y-97346086D01*
X144706556Y-97269860D01*
X144511195Y-97231000D01*
X144312005Y-97231000D01*
X144148057Y-97263612D01*
X144148057Y-96002200D01*
X144138249Y-95902615D01*
X144109201Y-95806857D01*
X144062029Y-95718605D01*
X143998548Y-95641252D01*
X143921195Y-95577771D01*
X143832943Y-95530599D01*
X143737185Y-95501551D01*
X143637600Y-95491743D01*
X142137600Y-95491743D01*
X142038015Y-95501551D01*
X141942257Y-95530599D01*
X141854005Y-95577771D01*
X141776652Y-95641252D01*
X141713171Y-95718605D01*
X141665999Y-95806857D01*
X141636951Y-95902615D01*
X141627143Y-96002200D01*
X141627143Y-97302200D01*
X141636951Y-97401785D01*
X141665999Y-97497543D01*
X141713171Y-97585795D01*
X141776652Y-97663148D01*
X141854005Y-97726629D01*
X141942257Y-97773801D01*
X142038015Y-97802849D01*
X142137600Y-97812657D01*
X142176400Y-97812657D01*
X142176400Y-98008556D01*
X142098195Y-97993000D01*
X141899005Y-97993000D01*
X141717234Y-98029157D01*
X141700940Y-97947244D01*
X141624714Y-97763217D01*
X141514051Y-97597597D01*
X141373203Y-97456749D01*
X141207583Y-97346086D01*
X141023556Y-97269860D01*
X140828195Y-97231000D01*
X140629005Y-97231000D01*
X140433644Y-97269860D01*
X140249617Y-97346086D01*
X140083997Y-97456749D01*
X140009746Y-97531000D01*
X139946577Y-97531000D01*
X139947249Y-97528785D01*
X139957057Y-97429200D01*
X139957057Y-96129200D01*
X139947249Y-96029615D01*
X139918201Y-95933857D01*
X139871029Y-95845605D01*
X139807548Y-95768252D01*
X139730195Y-95704771D01*
X139641943Y-95657599D01*
X139546185Y-95628551D01*
X139446600Y-95618743D01*
X137946600Y-95618743D01*
X137847015Y-95628551D01*
X137751257Y-95657599D01*
X137663005Y-95704771D01*
X137617100Y-95742444D01*
X137571195Y-95704771D01*
X137482943Y-95657599D01*
X137387185Y-95628551D01*
X137287600Y-95618743D01*
X135787600Y-95618743D01*
X135688015Y-95628551D01*
X135592257Y-95657599D01*
X135504005Y-95704771D01*
X135426652Y-95768252D01*
X135363171Y-95845605D01*
X135315999Y-95933857D01*
X135286951Y-96029615D01*
X135277143Y-96129200D01*
X135277143Y-97429200D01*
X135286951Y-97528785D01*
X135315999Y-97624543D01*
X135363171Y-97712795D01*
X135426652Y-97790148D01*
X135504005Y-97853629D01*
X135592257Y-97900801D01*
X135688015Y-97929849D01*
X135787600Y-97939657D01*
X136118270Y-97939657D01*
X137788007Y-99609396D01*
X137810273Y-99636527D01*
X137837404Y-99658793D01*
X137837409Y-99658798D01*
X137918567Y-99725402D01*
X138042118Y-99791442D01*
X138119054Y-99814780D01*
X138176180Y-99832109D01*
X138280664Y-99842400D01*
X138280671Y-99842400D01*
X138315600Y-99845840D01*
X138350528Y-99842400D01*
X141432942Y-99842400D01*
X141519617Y-99900314D01*
X141703644Y-99976540D01*
X141795443Y-99994800D01*
X134030039Y-99994800D01*
X133997600Y-99991605D01*
X133965161Y-99994800D01*
X133868139Y-100004356D01*
X133743653Y-100042118D01*
X133628926Y-100103441D01*
X133528367Y-100185967D01*
X133445841Y-100286526D01*
X133384518Y-100401253D01*
X133346756Y-100525739D01*
X133334005Y-100655200D01*
X133337201Y-100687649D01*
X133337201Y-103783361D01*
X133206583Y-103696086D01*
X133022556Y-103619860D01*
X132827195Y-103581000D01*
X132628005Y-103581000D01*
X132499000Y-103606661D01*
X132499000Y-89872200D01*
X139634143Y-89872200D01*
X139634143Y-91372200D01*
X139643951Y-91471785D01*
X139672999Y-91567543D01*
X139720171Y-91655795D01*
X139783652Y-91733148D01*
X139861005Y-91796629D01*
X139949257Y-91843801D01*
X139974337Y-91851409D01*
X139943149Y-91882597D01*
X139832486Y-92048217D01*
X139756260Y-92232244D01*
X139717400Y-92427605D01*
X139717400Y-92626795D01*
X139756260Y-92822156D01*
X139832486Y-93006183D01*
X139943149Y-93171803D01*
X140083997Y-93312651D01*
X140249617Y-93423314D01*
X140433644Y-93499540D01*
X140629005Y-93538400D01*
X140828195Y-93538400D01*
X141023556Y-93499540D01*
X141207583Y-93423314D01*
X141373203Y-93312651D01*
X141447454Y-93238400D01*
X141914746Y-93238400D01*
X141988997Y-93312651D01*
X142154617Y-93423314D01*
X142338644Y-93499540D01*
X142534005Y-93538400D01*
X142733195Y-93538400D01*
X142928556Y-93499540D01*
X143112583Y-93423314D01*
X143278203Y-93312651D01*
X143352454Y-93238400D01*
X145724746Y-93238400D01*
X145798997Y-93312651D01*
X145964617Y-93423314D01*
X146148644Y-93499540D01*
X146344005Y-93538400D01*
X146543195Y-93538400D01*
X146738556Y-93499540D01*
X146922583Y-93423314D01*
X147088203Y-93312651D01*
X147229051Y-93171803D01*
X147339714Y-93006183D01*
X147415940Y-92822156D01*
X147454800Y-92626795D01*
X147454800Y-92427605D01*
X147415940Y-92232244D01*
X147339714Y-92048217D01*
X147229051Y-91882597D01*
X147199027Y-91852573D01*
X147227943Y-91843801D01*
X147316195Y-91796629D01*
X147393548Y-91733148D01*
X147457029Y-91655795D01*
X147504201Y-91567543D01*
X147533249Y-91471785D01*
X147543057Y-91372200D01*
X147543057Y-89872200D01*
X147533249Y-89772615D01*
X147504201Y-89676857D01*
X147457029Y-89588605D01*
X147393548Y-89511252D01*
X147316195Y-89447771D01*
X147227943Y-89400599D01*
X147132185Y-89371551D01*
X147032600Y-89361743D01*
X145732600Y-89361743D01*
X145633015Y-89371551D01*
X145537257Y-89400599D01*
X145449005Y-89447771D01*
X145371652Y-89511252D01*
X145308171Y-89588605D01*
X145260999Y-89676857D01*
X145231951Y-89772615D01*
X145222143Y-89872200D01*
X145222143Y-91372200D01*
X145231951Y-91471785D01*
X145260999Y-91567543D01*
X145308171Y-91655795D01*
X145371652Y-91733148D01*
X145449005Y-91796629D01*
X145485245Y-91816000D01*
X143352454Y-91816000D01*
X143278203Y-91741749D01*
X143112583Y-91631086D01*
X142928556Y-91554860D01*
X142733195Y-91516000D01*
X142534005Y-91516000D01*
X142338644Y-91554860D01*
X142154617Y-91631086D01*
X141988997Y-91741749D01*
X141914746Y-91816000D01*
X141691955Y-91816000D01*
X141728195Y-91796629D01*
X141805548Y-91733148D01*
X141869029Y-91655795D01*
X141916201Y-91567543D01*
X141945249Y-91471785D01*
X141955057Y-91372200D01*
X141955057Y-89872200D01*
X141945249Y-89772615D01*
X141916201Y-89676857D01*
X141869029Y-89588605D01*
X141805548Y-89511252D01*
X141728195Y-89447771D01*
X141639943Y-89400599D01*
X141544185Y-89371551D01*
X141444600Y-89361743D01*
X140144600Y-89361743D01*
X140045015Y-89371551D01*
X139949257Y-89400599D01*
X139861005Y-89447771D01*
X139783652Y-89511252D01*
X139720171Y-89588605D01*
X139672999Y-89676857D01*
X139643951Y-89772615D01*
X139634143Y-89872200D01*
X132499000Y-89872200D01*
X132499000Y-85696605D01*
X136923400Y-85696605D01*
X136923400Y-85895795D01*
X136962260Y-86091156D01*
X137038486Y-86275183D01*
X137149149Y-86440803D01*
X137289997Y-86581651D01*
X137455617Y-86692314D01*
X137639644Y-86768540D01*
X137835005Y-86807400D01*
X138034195Y-86807400D01*
X138229556Y-86768540D01*
X138369436Y-86710600D01*
X152151914Y-86710600D01*
X152314617Y-86819314D01*
X152498644Y-86895540D01*
X152694005Y-86934400D01*
X152893195Y-86934400D01*
X153088556Y-86895540D01*
X153272583Y-86819314D01*
X153438203Y-86708651D01*
X153579051Y-86567803D01*
X153689714Y-86402183D01*
X153765940Y-86218156D01*
X153804800Y-86022795D01*
X153804800Y-85823605D01*
X153765940Y-85628244D01*
X153689714Y-85444217D01*
X153579051Y-85278597D01*
X153438203Y-85137749D01*
X153408332Y-85117790D01*
X153304071Y-85032226D01*
X153145219Y-84947317D01*
X152972854Y-84895031D01*
X152838518Y-84881800D01*
X152838517Y-84881800D01*
X152793600Y-84877376D01*
X152748682Y-84881800D01*
X138369436Y-84881800D01*
X138229556Y-84823860D01*
X138034195Y-84785000D01*
X137835005Y-84785000D01*
X137639644Y-84823860D01*
X137455617Y-84900086D01*
X137289997Y-85010749D01*
X137149149Y-85151597D01*
X137038486Y-85317217D01*
X136962260Y-85501244D01*
X136923400Y-85696605D01*
X132499000Y-85696605D01*
X132499000Y-81071800D01*
X164680800Y-81071800D01*
X164680800Y-128798400D01*
X164680800Y-128798400D01*
G37*
X164680800Y-128798400D02*
X147815200Y-128798400D01*
X147815200Y-123515200D01*
X147812760Y-123490424D01*
X147805533Y-123466599D01*
X147793797Y-123444643D01*
X147778003Y-123425397D01*
X147758757Y-123409603D01*
X147736801Y-123397867D01*
X147712976Y-123390640D01*
X147688200Y-123388200D01*
X132499000Y-123388200D01*
X132499000Y-121833739D01*
X132628005Y-121859400D01*
X132827195Y-121859400D01*
X133022556Y-121820540D01*
X133206583Y-121744314D01*
X133372203Y-121633651D01*
X133513051Y-121492803D01*
X133623714Y-121327183D01*
X133699940Y-121143156D01*
X133738800Y-120947795D01*
X133738800Y-120748605D01*
X133699940Y-120553244D01*
X133623714Y-120369217D01*
X133513051Y-120203597D01*
X133438800Y-120129346D01*
X133438800Y-111276982D01*
X133518617Y-111330314D01*
X133702644Y-111406540D01*
X133898005Y-111445400D01*
X134097195Y-111445400D01*
X134292556Y-111406540D01*
X134476583Y-111330314D01*
X134642203Y-111219651D01*
X134783051Y-111078803D01*
X134893714Y-110913183D01*
X134969940Y-110729156D01*
X135008800Y-110533795D01*
X135008800Y-110334605D01*
X134969940Y-110139244D01*
X134893714Y-109955217D01*
X134783051Y-109789597D01*
X134658000Y-109664546D01*
X134658000Y-108714654D01*
X134749997Y-108806651D01*
X134915617Y-108917314D01*
X135099644Y-108993540D01*
X135295005Y-109032400D01*
X135494195Y-109032400D01*
X135689556Y-108993540D01*
X135873583Y-108917314D01*
X136039203Y-108806651D01*
X136111240Y-108734614D01*
X136133149Y-108767403D01*
X136273997Y-108908251D01*
X136439617Y-109018914D01*
X136623644Y-109095140D01*
X136819005Y-109134000D01*
X137018195Y-109134000D01*
X137213556Y-109095140D01*
X137397583Y-109018914D01*
X137563203Y-108908251D01*
X137637454Y-108834000D01*
X139095346Y-108834000D01*
X139169597Y-108908251D01*
X139335217Y-109018914D01*
X139519244Y-109095140D01*
X139714605Y-109134000D01*
X139913795Y-109134000D01*
X140109156Y-109095140D01*
X140293183Y-109018914D01*
X140458803Y-108908251D01*
X140599651Y-108767403D01*
X140710314Y-108601783D01*
X140786540Y-108417756D01*
X140825400Y-108222395D01*
X140825400Y-108023205D01*
X140786540Y-107827844D01*
X140710314Y-107643817D01*
X140678560Y-107596294D01*
X140752051Y-107522803D01*
X140862714Y-107357183D01*
X140938940Y-107173156D01*
X140977800Y-106977795D01*
X140977800Y-106778605D01*
X140938940Y-106583244D01*
X140862714Y-106399217D01*
X140752051Y-106233597D01*
X140611203Y-106092749D01*
X140445583Y-105982086D01*
X140261556Y-105905860D01*
X140066195Y-105867000D01*
X139867005Y-105867000D01*
X139671644Y-105905860D01*
X139487617Y-105982086D01*
X139409431Y-106034328D01*
X139415057Y-105977200D01*
X139415057Y-104477200D01*
X139405249Y-104377615D01*
X139376201Y-104281857D01*
X139338434Y-104211200D01*
X139376201Y-104140543D01*
X139405249Y-104044785D01*
X139415057Y-103945200D01*
X139415057Y-102458600D01*
X141443761Y-102458600D01*
X141356486Y-102589217D01*
X141280260Y-102773244D01*
X141241400Y-102968605D01*
X141241400Y-103167795D01*
X141280260Y-103363156D01*
X141356486Y-103547183D01*
X141467149Y-103712803D01*
X141607997Y-103853651D01*
X141773617Y-103964314D01*
X141957644Y-104040540D01*
X142153005Y-104079400D01*
X142352195Y-104079400D01*
X142547556Y-104040540D01*
X142731583Y-103964314D01*
X142897203Y-103853651D01*
X143022254Y-103728600D01*
X150609200Y-103728600D01*
X150609201Y-104749661D01*
X150480195Y-104724000D01*
X150281005Y-104724000D01*
X150085644Y-104762860D01*
X149901617Y-104839086D01*
X149735997Y-104949749D01*
X149595149Y-105090597D01*
X149484486Y-105256217D01*
X149408260Y-105440244D01*
X149377380Y-105595486D01*
X149367061Y-105592356D01*
X149270039Y-105582800D01*
X149237600Y-105579605D01*
X149205161Y-105582800D01*
X148864254Y-105582800D01*
X148739203Y-105457749D01*
X148573583Y-105347086D01*
X148389556Y-105270860D01*
X148194195Y-105232000D01*
X147995005Y-105232000D01*
X147799644Y-105270860D01*
X147615617Y-105347086D01*
X147449997Y-105457749D01*
X147309149Y-105598597D01*
X147198486Y-105764217D01*
X147122260Y-105948244D01*
X147083400Y-106143605D01*
X147083400Y-106342795D01*
X147122260Y-106538156D01*
X147147379Y-106598800D01*
X145953973Y-106598800D01*
X145549800Y-106247345D01*
X145549800Y-106143605D01*
X145510940Y-105948244D01*
X145434714Y-105764217D01*
X145324051Y-105598597D01*
X145183203Y-105457749D01*
X145017583Y-105347086D01*
X144833556Y-105270860D01*
X144638195Y-105232000D01*
X144439005Y-105232000D01*
X144243644Y-105270860D01*
X144059617Y-105347086D01*
X143893997Y-105457749D01*
X143753149Y-105598597D01*
X143642486Y-105764217D01*
X143566260Y-105948244D01*
X143527400Y-106143605D01*
X143527400Y-106342795D01*
X143566260Y-106538156D01*
X143642486Y-106722183D01*
X143753149Y-106887803D01*
X143893997Y-107028651D01*
X144059617Y-107139314D01*
X144243644Y-107215540D01*
X144439005Y-107254400D01*
X144638195Y-107254400D01*
X144684463Y-107245197D01*
X145231742Y-107721091D01*
X145237767Y-107728433D01*
X145280770Y-107763724D01*
X145298138Y-107778827D01*
X145305828Y-107784289D01*
X145338326Y-107810959D01*
X145358748Y-107821875D01*
X145377622Y-107835280D01*
X145415977Y-107852464D01*
X145453053Y-107872282D01*
X145475212Y-107879004D01*
X145496338Y-107888469D01*
X145537311Y-107897841D01*
X145577539Y-107910044D01*
X145600582Y-107912314D01*
X145623151Y-107917476D01*
X145665167Y-107918675D01*
X145674561Y-107919600D01*
X145697596Y-107919600D01*
X145753185Y-107921186D01*
X145762546Y-107919600D01*
X148964054Y-107919600D01*
X150437253Y-109392800D01*
X145460039Y-109392800D01*
X145427600Y-109389605D01*
X145395161Y-109392800D01*
X145298139Y-109402356D01*
X145173653Y-109440118D01*
X145058926Y-109501441D01*
X144958367Y-109583967D01*
X144875841Y-109684526D01*
X144814518Y-109799253D01*
X144776756Y-109923739D01*
X144764005Y-110053200D01*
X144767200Y-110085639D01*
X144767201Y-114224652D01*
X141090054Y-117901800D01*
X139974254Y-117901800D01*
X139863111Y-117790657D01*
X140423600Y-117790657D01*
X140523185Y-117780849D01*
X140618943Y-117751801D01*
X140707195Y-117704629D01*
X140784548Y-117641148D01*
X140848029Y-117563795D01*
X140895201Y-117475543D01*
X140924249Y-117379785D01*
X140934057Y-117280200D01*
X140934057Y-115780200D01*
X140924249Y-115680615D01*
X140895201Y-115584857D01*
X140848029Y-115496605D01*
X140810356Y-115450700D01*
X140848029Y-115404795D01*
X140895201Y-115316543D01*
X140924249Y-115220785D01*
X140934057Y-115121200D01*
X140934057Y-114189328D01*
X141251740Y-113858400D01*
X141336195Y-113858400D01*
X141531556Y-113819540D01*
X141715583Y-113743314D01*
X141881203Y-113632651D01*
X142022051Y-113491803D01*
X142132714Y-113326183D01*
X142208940Y-113142156D01*
X142247800Y-112946795D01*
X142247800Y-112747605D01*
X142208940Y-112552244D01*
X142132714Y-112368217D01*
X142022051Y-112202597D01*
X141881203Y-112061749D01*
X141715583Y-111951086D01*
X141531556Y-111874860D01*
X141336195Y-111836000D01*
X141137005Y-111836000D01*
X140941644Y-111874860D01*
X140757617Y-111951086D01*
X140591997Y-112061749D01*
X140451149Y-112202597D01*
X140340486Y-112368217D01*
X140264260Y-112552244D01*
X140225400Y-112747605D01*
X140225400Y-112873591D01*
X139997741Y-113110743D01*
X139123600Y-113110743D01*
X139024015Y-113120551D01*
X138928257Y-113149599D01*
X138840005Y-113196771D01*
X138762652Y-113260252D01*
X138699171Y-113337605D01*
X138651999Y-113425857D01*
X138622951Y-113521615D01*
X138613143Y-113621200D01*
X138613143Y-115121200D01*
X138622951Y-115220785D01*
X138651999Y-115316543D01*
X138699171Y-115404795D01*
X138736844Y-115450700D01*
X138699171Y-115496605D01*
X138651999Y-115584857D01*
X138622951Y-115680615D01*
X138613143Y-115780200D01*
X138613143Y-117280200D01*
X138622951Y-117379785D01*
X138651999Y-117475543D01*
X138699171Y-117563795D01*
X138762652Y-117641148D01*
X138770424Y-117647526D01*
X138725617Y-117666086D01*
X138559997Y-117776749D01*
X138419149Y-117917597D01*
X138308486Y-118083217D01*
X138232260Y-118267244D01*
X138193400Y-118462605D01*
X138193400Y-118661795D01*
X138232260Y-118857156D01*
X138308486Y-119041183D01*
X138419149Y-119206803D01*
X138559997Y-119347651D01*
X138725617Y-119458314D01*
X138909644Y-119534540D01*
X139105005Y-119573400D01*
X139304195Y-119573400D01*
X139499556Y-119534540D01*
X139683583Y-119458314D01*
X139849203Y-119347651D01*
X139974254Y-119222600D01*
X140713413Y-119222600D01*
X139926013Y-120010000D01*
X139923454Y-120010000D01*
X139849203Y-119935749D01*
X139683583Y-119825086D01*
X139499556Y-119748860D01*
X139304195Y-119710000D01*
X139105005Y-119710000D01*
X138909644Y-119748860D01*
X138725617Y-119825086D01*
X138559997Y-119935749D01*
X138419149Y-120076597D01*
X138308486Y-120242217D01*
X138232260Y-120426244D01*
X138193400Y-120621605D01*
X138193400Y-120820795D01*
X138232260Y-121016156D01*
X138308486Y-121200183D01*
X138419149Y-121365803D01*
X138557144Y-121503798D01*
X138432997Y-121586749D01*
X138292149Y-121727597D01*
X138181486Y-121893217D01*
X138105260Y-122077244D01*
X138066400Y-122272605D01*
X138066400Y-122471795D01*
X138105260Y-122667156D01*
X138181486Y-122851183D01*
X138292149Y-123016803D01*
X138432997Y-123157651D01*
X138598617Y-123268314D01*
X138782644Y-123344540D01*
X138978005Y-123383400D01*
X139177195Y-123383400D01*
X139372556Y-123344540D01*
X139556583Y-123268314D01*
X139722203Y-123157651D01*
X139793336Y-123086518D01*
X144900603Y-123108724D01*
X151403511Y-123428165D01*
X151513997Y-123538651D01*
X151679617Y-123649314D01*
X151863644Y-123725540D01*
X152059005Y-123764400D01*
X152258195Y-123764400D01*
X152453556Y-123725540D01*
X152637583Y-123649314D01*
X152740617Y-123580470D01*
X152762171Y-123620795D01*
X152825652Y-123698148D01*
X152903005Y-123761629D01*
X152991257Y-123808801D01*
X153087015Y-123837849D01*
X153186600Y-123847657D01*
X154686600Y-123847657D01*
X154786185Y-123837849D01*
X154881943Y-123808801D01*
X154970195Y-123761629D01*
X155047548Y-123698148D01*
X155111029Y-123620795D01*
X155158201Y-123532543D01*
X155187249Y-123436785D01*
X155197057Y-123337200D01*
X155197057Y-122037200D01*
X155187249Y-121937615D01*
X155158201Y-121841857D01*
X155111029Y-121753605D01*
X155097566Y-121737200D01*
X155111029Y-121720795D01*
X155158201Y-121632543D01*
X155187249Y-121536785D01*
X155197057Y-121437200D01*
X155197057Y-120137200D01*
X155187249Y-120037615D01*
X155158201Y-119941857D01*
X155111029Y-119853605D01*
X155047548Y-119776252D01*
X154970195Y-119712771D01*
X154881943Y-119665599D01*
X154786185Y-119636551D01*
X154686600Y-119626743D01*
X154647800Y-119626743D01*
X154647800Y-116184125D01*
X154651240Y-116149199D01*
X154647800Y-116114273D01*
X154647800Y-116114264D01*
X154637509Y-116009780D01*
X154596842Y-115875719D01*
X154581181Y-115846419D01*
X154583600Y-115846657D01*
X156002110Y-115846657D01*
X156113686Y-115958233D01*
X156134367Y-115983433D01*
X156201142Y-116038233D01*
X156232143Y-116063675D01*
X156232143Y-116098200D01*
X156241951Y-116197785D01*
X156270999Y-116293543D01*
X156318171Y-116381795D01*
X156381652Y-116459148D01*
X156459005Y-116522629D01*
X156547257Y-116569801D01*
X156643015Y-116598849D01*
X156654401Y-116599970D01*
X156654400Y-125258274D01*
X156650960Y-125293200D01*
X156654400Y-125328126D01*
X156654400Y-125328135D01*
X156664691Y-125432619D01*
X156705358Y-125566680D01*
X156771398Y-125690232D01*
X156860273Y-125798526D01*
X156887410Y-125820797D01*
X158495143Y-127428532D01*
X158495143Y-127947200D01*
X158504951Y-128046785D01*
X158533999Y-128142543D01*
X158581171Y-128230795D01*
X158644652Y-128308148D01*
X158722005Y-128371629D01*
X158810257Y-128418801D01*
X158906015Y-128447849D01*
X159005600Y-128457657D01*
X160805600Y-128457657D01*
X160905185Y-128447849D01*
X160921600Y-128442870D01*
X160938015Y-128447849D01*
X161037600Y-128457657D01*
X162837600Y-128457657D01*
X162937185Y-128447849D01*
X163032943Y-128418801D01*
X163121195Y-128371629D01*
X163198548Y-128308148D01*
X163262029Y-128230795D01*
X163309201Y-128142543D01*
X163338249Y-128046785D01*
X163348057Y-127947200D01*
X163348057Y-126547200D01*
X163338249Y-126447615D01*
X163309201Y-126351857D01*
X163262029Y-126263605D01*
X163198548Y-126186252D01*
X163121195Y-126122771D01*
X163032943Y-126075599D01*
X162937185Y-126046551D01*
X162837600Y-126036743D01*
X161037600Y-126036743D01*
X160938015Y-126046551D01*
X160921600Y-126051530D01*
X160905185Y-126046551D01*
X160805600Y-126036743D01*
X159114931Y-126036743D01*
X158076800Y-124998613D01*
X158076800Y-121594200D01*
X158495143Y-121594200D01*
X158495143Y-122994200D01*
X158502677Y-123070700D01*
X158495143Y-123147200D01*
X158495143Y-124547200D01*
X158504951Y-124646785D01*
X158533999Y-124742543D01*
X158581171Y-124830795D01*
X158644652Y-124908148D01*
X158722005Y-124971629D01*
X158810257Y-125018801D01*
X158906015Y-125047849D01*
X159005600Y-125057657D01*
X160805600Y-125057657D01*
X160905185Y-125047849D01*
X160921600Y-125042870D01*
X160938015Y-125047849D01*
X161037600Y-125057657D01*
X162837600Y-125057657D01*
X162937185Y-125047849D01*
X163032943Y-125018801D01*
X163121195Y-124971629D01*
X163198548Y-124908148D01*
X163262029Y-124830795D01*
X163309201Y-124742543D01*
X163338249Y-124646785D01*
X163348057Y-124547200D01*
X163348057Y-123147200D01*
X163340523Y-123070700D01*
X163348057Y-122994200D01*
X163348057Y-121594200D01*
X163338249Y-121494615D01*
X163309201Y-121398857D01*
X163262029Y-121310605D01*
X163198548Y-121233252D01*
X163121195Y-121169771D01*
X163032943Y-121122599D01*
X162937185Y-121093551D01*
X162837600Y-121083743D01*
X161037600Y-121083743D01*
X160938015Y-121093551D01*
X160921600Y-121098530D01*
X160905185Y-121093551D01*
X160805600Y-121083743D01*
X159005600Y-121083743D01*
X158906015Y-121093551D01*
X158810257Y-121122599D01*
X158722005Y-121169771D01*
X158644652Y-121233252D01*
X158581171Y-121310605D01*
X158533999Y-121398857D01*
X158504951Y-121494615D01*
X158495143Y-121594200D01*
X158076800Y-121594200D01*
X158076800Y-116608657D01*
X158242600Y-116608657D01*
X158342185Y-116598849D01*
X158437943Y-116569801D01*
X158495143Y-116539227D01*
X158495143Y-117914200D01*
X158504951Y-118013785D01*
X158517211Y-118054200D01*
X158504951Y-118094615D01*
X158495143Y-118194200D01*
X158495143Y-119594200D01*
X158504951Y-119693785D01*
X158533999Y-119789543D01*
X158581171Y-119877795D01*
X158644652Y-119955148D01*
X158722005Y-120018629D01*
X158810257Y-120065801D01*
X158906015Y-120094849D01*
X159005600Y-120104657D01*
X160805600Y-120104657D01*
X160905185Y-120094849D01*
X160921600Y-120089870D01*
X160938015Y-120094849D01*
X161037600Y-120104657D01*
X162837600Y-120104657D01*
X162937185Y-120094849D01*
X163032943Y-120065801D01*
X163121195Y-120018629D01*
X163198548Y-119955148D01*
X163262029Y-119877795D01*
X163309201Y-119789543D01*
X163338249Y-119693785D01*
X163348057Y-119594200D01*
X163348057Y-118194200D01*
X163338249Y-118094615D01*
X163325989Y-118054200D01*
X163338249Y-118013785D01*
X163348057Y-117914200D01*
X163348057Y-116514200D01*
X163338249Y-116414615D01*
X163319376Y-116352400D01*
X163553664Y-116352400D01*
X163588600Y-116355841D01*
X163623536Y-116352400D01*
X163728020Y-116342109D01*
X163862081Y-116301442D01*
X163985633Y-116235402D01*
X164093927Y-116146527D01*
X164182802Y-116038233D01*
X164248842Y-115914681D01*
X164289509Y-115780620D01*
X164303241Y-115641200D01*
X164299800Y-115606264D01*
X164299800Y-106023757D01*
X164303240Y-105988452D01*
X164296400Y-105919743D01*
X164289509Y-105849780D01*
X164289399Y-105849417D01*
X164289362Y-105849047D01*
X164269270Y-105783061D01*
X164248842Y-105715719D01*
X164248663Y-105715385D01*
X164248555Y-105715029D01*
X164215920Y-105654127D01*
X164182802Y-105592167D01*
X164182562Y-105591875D01*
X164182386Y-105591546D01*
X164138134Y-105537740D01*
X164093926Y-105483873D01*
X164093638Y-105483636D01*
X164093398Y-105483345D01*
X164039080Y-105438862D01*
X163985632Y-105394998D01*
X163954348Y-105378276D01*
X163855122Y-105312126D01*
X163925940Y-105141156D01*
X163964800Y-104945795D01*
X163964800Y-104746605D01*
X163925940Y-104551244D01*
X163849714Y-104367217D01*
X163739051Y-104201597D01*
X163598203Y-104060749D01*
X163432583Y-103950086D01*
X163248556Y-103873860D01*
X163053195Y-103835000D01*
X162854005Y-103835000D01*
X162658644Y-103873860D01*
X162648800Y-103877937D01*
X162648800Y-103611125D01*
X162652240Y-103576199D01*
X162648800Y-103541273D01*
X162648800Y-103541264D01*
X162638509Y-103436780D01*
X162597842Y-103302719D01*
X162531802Y-103179167D01*
X162518338Y-103162761D01*
X162465197Y-103098008D01*
X162465188Y-103097999D01*
X162442926Y-103070873D01*
X162415800Y-103048612D01*
X161678800Y-102311612D01*
X161678800Y-102206605D01*
X161663244Y-102128400D01*
X162029674Y-102128400D01*
X162064600Y-102131840D01*
X162099526Y-102128400D01*
X162099536Y-102128400D01*
X162204020Y-102118109D01*
X162338081Y-102077442D01*
X162461633Y-102011402D01*
X162569927Y-101922527D01*
X162592201Y-101895386D01*
X163050800Y-101436789D01*
X163077926Y-101414527D01*
X163100188Y-101387401D01*
X163100197Y-101387392D01*
X163166801Y-101306234D01*
X163166802Y-101306233D01*
X163232842Y-101182681D01*
X163241646Y-101153657D01*
X163283600Y-101153657D01*
X163383185Y-101143849D01*
X163478943Y-101114801D01*
X163567195Y-101067629D01*
X163644548Y-101004148D01*
X163708029Y-100926795D01*
X163755201Y-100838543D01*
X163784249Y-100742785D01*
X163794057Y-100643200D01*
X163794057Y-99143200D01*
X163784249Y-99043615D01*
X163755201Y-98947857D01*
X163708029Y-98859605D01*
X163644548Y-98782252D01*
X163567195Y-98718771D01*
X163478943Y-98671599D01*
X163383185Y-98642551D01*
X163283600Y-98632743D01*
X161983600Y-98632743D01*
X161884015Y-98642551D01*
X161788257Y-98671599D01*
X161700005Y-98718771D01*
X161683600Y-98732234D01*
X161667195Y-98718771D01*
X161578943Y-98671599D01*
X161483185Y-98642551D01*
X161446879Y-98638975D01*
X161453051Y-98632803D01*
X161563714Y-98467183D01*
X161639940Y-98283156D01*
X161678800Y-98087795D01*
X161678800Y-97888605D01*
X161639940Y-97693244D01*
X161563714Y-97509217D01*
X161453051Y-97343597D01*
X161312203Y-97202749D01*
X161146583Y-97092086D01*
X160962556Y-97015860D01*
X160767195Y-96977000D01*
X160568005Y-96977000D01*
X160372644Y-97015860D01*
X160188617Y-97092086D01*
X160022997Y-97202749D01*
X159882149Y-97343597D01*
X159771486Y-97509217D01*
X159695260Y-97693244D01*
X159656400Y-97888605D01*
X159656400Y-98087795D01*
X159695260Y-98283156D01*
X159771486Y-98467183D01*
X159882149Y-98632803D01*
X159913337Y-98663991D01*
X159888257Y-98671599D01*
X159800005Y-98718771D01*
X159722652Y-98782252D01*
X159659171Y-98859605D01*
X159651600Y-98873769D01*
X159644029Y-98859605D01*
X159580548Y-98782252D01*
X159503195Y-98718771D01*
X159414943Y-98671599D01*
X159319185Y-98642551D01*
X159219600Y-98632743D01*
X157919600Y-98632743D01*
X157820015Y-98642551D01*
X157724257Y-98671599D01*
X157636005Y-98718771D01*
X157619600Y-98732234D01*
X157603195Y-98718771D01*
X157514943Y-98671599D01*
X157419185Y-98642551D01*
X157319600Y-98632743D01*
X156019600Y-98632743D01*
X155920015Y-98642551D01*
X155824257Y-98671599D01*
X155736005Y-98718771D01*
X155658652Y-98782252D01*
X155595171Y-98859605D01*
X155587600Y-98873769D01*
X155580029Y-98859605D01*
X155516548Y-98782252D01*
X155439195Y-98718771D01*
X155350943Y-98671599D01*
X155255185Y-98642551D01*
X155155600Y-98632743D01*
X153855600Y-98632743D01*
X153756015Y-98642551D01*
X153660257Y-98671599D01*
X153572005Y-98718771D01*
X153555600Y-98732234D01*
X153539195Y-98718771D01*
X153450943Y-98671599D01*
X153355185Y-98642551D01*
X153255600Y-98632743D01*
X151955600Y-98632743D01*
X151856015Y-98642551D01*
X151760257Y-98671599D01*
X151672005Y-98718771D01*
X151594652Y-98782252D01*
X151531171Y-98859605D01*
X151483999Y-98947857D01*
X151454951Y-99043615D01*
X151445143Y-99143200D01*
X151445143Y-100643200D01*
X151454951Y-100742785D01*
X151483999Y-100838543D01*
X151531171Y-100926795D01*
X151567238Y-100970744D01*
X151555652Y-100980252D01*
X151492171Y-101057605D01*
X151449306Y-101137800D01*
X148861297Y-101137800D01*
X148863714Y-101134183D01*
X148939940Y-100950156D01*
X148978800Y-100754795D01*
X148978800Y-100555605D01*
X148939940Y-100360244D01*
X148863714Y-100176217D01*
X148753051Y-100010597D01*
X148612203Y-99869749D01*
X148446583Y-99759086D01*
X148262556Y-99682860D01*
X148067195Y-99644000D01*
X147868005Y-99644000D01*
X147672644Y-99682860D01*
X147488617Y-99759086D01*
X147322997Y-99869749D01*
X147197946Y-99994800D01*
X142201757Y-99994800D01*
X142293556Y-99976540D01*
X142477583Y-99900314D01*
X142643203Y-99789651D01*
X142784051Y-99648803D01*
X142894714Y-99483183D01*
X142970940Y-99299156D01*
X143009800Y-99103795D01*
X143009800Y-98953400D01*
X143692746Y-98953400D01*
X143766997Y-99027651D01*
X143932617Y-99138314D01*
X144116644Y-99214540D01*
X144312005Y-99253400D01*
X144511195Y-99253400D01*
X144706556Y-99214540D01*
X144890583Y-99138314D01*
X145056203Y-99027651D01*
X145197051Y-98886803D01*
X145237100Y-98826865D01*
X145277149Y-98886803D01*
X145417997Y-99027651D01*
X145583617Y-99138314D01*
X145767644Y-99214540D01*
X145963005Y-99253400D01*
X146162195Y-99253400D01*
X146357556Y-99214540D01*
X146541583Y-99138314D01*
X146707203Y-99027651D01*
X146848051Y-98886803D01*
X146958714Y-98721183D01*
X147034940Y-98537156D01*
X147073800Y-98341795D01*
X147073800Y-98175098D01*
X147573014Y-97613482D01*
X147583926Y-97604527D01*
X147619448Y-97561244D01*
X147633368Y-97545584D01*
X147641631Y-97534214D01*
X147672802Y-97496233D01*
X147682721Y-97477675D01*
X147695091Y-97460655D01*
X147715673Y-97416027D01*
X147738842Y-97372681D01*
X147744950Y-97352547D01*
X147753762Y-97333439D01*
X147765242Y-97285653D01*
X147779509Y-97238620D01*
X147781572Y-97217676D01*
X147786486Y-97197220D01*
X147788422Y-97148123D01*
X147789800Y-97134136D01*
X147789800Y-97113194D01*
X147790733Y-97089545D01*
X147889185Y-97079849D01*
X147984943Y-97050801D01*
X148073195Y-97003629D01*
X148150548Y-96940148D01*
X148214029Y-96862795D01*
X148261201Y-96774543D01*
X148290249Y-96678785D01*
X148300057Y-96579200D01*
X148300057Y-95079200D01*
X148290249Y-94979615D01*
X148261201Y-94883857D01*
X148214029Y-94795605D01*
X148150548Y-94718252D01*
X148073195Y-94654771D01*
X147984943Y-94607599D01*
X147889185Y-94578551D01*
X147789600Y-94568743D01*
X146489600Y-94568743D01*
X146390015Y-94578551D01*
X146294257Y-94607599D01*
X146206005Y-94654771D01*
X146128652Y-94718252D01*
X146065171Y-94795605D01*
X146017999Y-94883857D01*
X145988951Y-94979615D01*
X145979143Y-95079200D01*
X145979143Y-96579200D01*
X145988951Y-96678785D01*
X146017999Y-96774543D01*
X146065171Y-96862795D01*
X146128652Y-96940148D01*
X146206005Y-97003629D01*
X146210068Y-97005801D01*
X146009891Y-97231000D01*
X145963005Y-97231000D01*
X145767644Y-97269860D01*
X145583617Y-97346086D01*
X145417997Y-97456749D01*
X145277149Y-97597597D01*
X145237100Y-97657535D01*
X145197051Y-97597597D01*
X145056203Y-97456749D01*
X144890583Y-97346086D01*
X144706556Y-97269860D01*
X144511195Y-97231000D01*
X144312005Y-97231000D01*
X144148057Y-97263612D01*
X144148057Y-96002200D01*
X144138249Y-95902615D01*
X144109201Y-95806857D01*
X144062029Y-95718605D01*
X143998548Y-95641252D01*
X143921195Y-95577771D01*
X143832943Y-95530599D01*
X143737185Y-95501551D01*
X143637600Y-95491743D01*
X142137600Y-95491743D01*
X142038015Y-95501551D01*
X141942257Y-95530599D01*
X141854005Y-95577771D01*
X141776652Y-95641252D01*
X141713171Y-95718605D01*
X141665999Y-95806857D01*
X141636951Y-95902615D01*
X141627143Y-96002200D01*
X141627143Y-97302200D01*
X141636951Y-97401785D01*
X141665999Y-97497543D01*
X141713171Y-97585795D01*
X141776652Y-97663148D01*
X141854005Y-97726629D01*
X141942257Y-97773801D01*
X142038015Y-97802849D01*
X142137600Y-97812657D01*
X142176400Y-97812657D01*
X142176400Y-98008556D01*
X142098195Y-97993000D01*
X141899005Y-97993000D01*
X141717234Y-98029157D01*
X141700940Y-97947244D01*
X141624714Y-97763217D01*
X141514051Y-97597597D01*
X141373203Y-97456749D01*
X141207583Y-97346086D01*
X141023556Y-97269860D01*
X140828195Y-97231000D01*
X140629005Y-97231000D01*
X140433644Y-97269860D01*
X140249617Y-97346086D01*
X140083997Y-97456749D01*
X140009746Y-97531000D01*
X139946577Y-97531000D01*
X139947249Y-97528785D01*
X139957057Y-97429200D01*
X139957057Y-96129200D01*
X139947249Y-96029615D01*
X139918201Y-95933857D01*
X139871029Y-95845605D01*
X139807548Y-95768252D01*
X139730195Y-95704771D01*
X139641943Y-95657599D01*
X139546185Y-95628551D01*
X139446600Y-95618743D01*
X137946600Y-95618743D01*
X137847015Y-95628551D01*
X137751257Y-95657599D01*
X137663005Y-95704771D01*
X137617100Y-95742444D01*
X137571195Y-95704771D01*
X137482943Y-95657599D01*
X137387185Y-95628551D01*
X137287600Y-95618743D01*
X135787600Y-95618743D01*
X135688015Y-95628551D01*
X135592257Y-95657599D01*
X135504005Y-95704771D01*
X135426652Y-95768252D01*
X135363171Y-95845605D01*
X135315999Y-95933857D01*
X135286951Y-96029615D01*
X135277143Y-96129200D01*
X135277143Y-97429200D01*
X135286951Y-97528785D01*
X135315999Y-97624543D01*
X135363171Y-97712795D01*
X135426652Y-97790148D01*
X135504005Y-97853629D01*
X135592257Y-97900801D01*
X135688015Y-97929849D01*
X135787600Y-97939657D01*
X136118270Y-97939657D01*
X137788007Y-99609396D01*
X137810273Y-99636527D01*
X137837404Y-99658793D01*
X137837409Y-99658798D01*
X137918567Y-99725402D01*
X138042118Y-99791442D01*
X138119054Y-99814780D01*
X138176180Y-99832109D01*
X138280664Y-99842400D01*
X138280671Y-99842400D01*
X138315600Y-99845840D01*
X138350528Y-99842400D01*
X141432942Y-99842400D01*
X141519617Y-99900314D01*
X141703644Y-99976540D01*
X141795443Y-99994800D01*
X134030039Y-99994800D01*
X133997600Y-99991605D01*
X133965161Y-99994800D01*
X133868139Y-100004356D01*
X133743653Y-100042118D01*
X133628926Y-100103441D01*
X133528367Y-100185967D01*
X133445841Y-100286526D01*
X133384518Y-100401253D01*
X133346756Y-100525739D01*
X133334005Y-100655200D01*
X133337201Y-100687649D01*
X133337201Y-103783361D01*
X133206583Y-103696086D01*
X133022556Y-103619860D01*
X132827195Y-103581000D01*
X132628005Y-103581000D01*
X132499000Y-103606661D01*
X132499000Y-89872200D01*
X139634143Y-89872200D01*
X139634143Y-91372200D01*
X139643951Y-91471785D01*
X139672999Y-91567543D01*
X139720171Y-91655795D01*
X139783652Y-91733148D01*
X139861005Y-91796629D01*
X139949257Y-91843801D01*
X139974337Y-91851409D01*
X139943149Y-91882597D01*
X139832486Y-92048217D01*
X139756260Y-92232244D01*
X139717400Y-92427605D01*
X139717400Y-92626795D01*
X139756260Y-92822156D01*
X139832486Y-93006183D01*
X139943149Y-93171803D01*
X140083997Y-93312651D01*
X140249617Y-93423314D01*
X140433644Y-93499540D01*
X140629005Y-93538400D01*
X140828195Y-93538400D01*
X141023556Y-93499540D01*
X141207583Y-93423314D01*
X141373203Y-93312651D01*
X141447454Y-93238400D01*
X141914746Y-93238400D01*
X141988997Y-93312651D01*
X142154617Y-93423314D01*
X142338644Y-93499540D01*
X142534005Y-93538400D01*
X142733195Y-93538400D01*
X142928556Y-93499540D01*
X143112583Y-93423314D01*
X143278203Y-93312651D01*
X143352454Y-93238400D01*
X145724746Y-93238400D01*
X145798997Y-93312651D01*
X145964617Y-93423314D01*
X146148644Y-93499540D01*
X146344005Y-93538400D01*
X146543195Y-93538400D01*
X146738556Y-93499540D01*
X146922583Y-93423314D01*
X147088203Y-93312651D01*
X147229051Y-93171803D01*
X147339714Y-93006183D01*
X147415940Y-92822156D01*
X147454800Y-92626795D01*
X147454800Y-92427605D01*
X147415940Y-92232244D01*
X147339714Y-92048217D01*
X147229051Y-91882597D01*
X147199027Y-91852573D01*
X147227943Y-91843801D01*
X147316195Y-91796629D01*
X147393548Y-91733148D01*
X147457029Y-91655795D01*
X147504201Y-91567543D01*
X147533249Y-91471785D01*
X147543057Y-91372200D01*
X147543057Y-89872200D01*
X147533249Y-89772615D01*
X147504201Y-89676857D01*
X147457029Y-89588605D01*
X147393548Y-89511252D01*
X147316195Y-89447771D01*
X147227943Y-89400599D01*
X147132185Y-89371551D01*
X147032600Y-89361743D01*
X145732600Y-89361743D01*
X145633015Y-89371551D01*
X145537257Y-89400599D01*
X145449005Y-89447771D01*
X145371652Y-89511252D01*
X145308171Y-89588605D01*
X145260999Y-89676857D01*
X145231951Y-89772615D01*
X145222143Y-89872200D01*
X145222143Y-91372200D01*
X145231951Y-91471785D01*
X145260999Y-91567543D01*
X145308171Y-91655795D01*
X145371652Y-91733148D01*
X145449005Y-91796629D01*
X145485245Y-91816000D01*
X143352454Y-91816000D01*
X143278203Y-91741749D01*
X143112583Y-91631086D01*
X142928556Y-91554860D01*
X142733195Y-91516000D01*
X142534005Y-91516000D01*
X142338644Y-91554860D01*
X142154617Y-91631086D01*
X141988997Y-91741749D01*
X141914746Y-91816000D01*
X141691955Y-91816000D01*
X141728195Y-91796629D01*
X141805548Y-91733148D01*
X141869029Y-91655795D01*
X141916201Y-91567543D01*
X141945249Y-91471785D01*
X141955057Y-91372200D01*
X141955057Y-89872200D01*
X141945249Y-89772615D01*
X141916201Y-89676857D01*
X141869029Y-89588605D01*
X141805548Y-89511252D01*
X141728195Y-89447771D01*
X141639943Y-89400599D01*
X141544185Y-89371551D01*
X141444600Y-89361743D01*
X140144600Y-89361743D01*
X140045015Y-89371551D01*
X139949257Y-89400599D01*
X139861005Y-89447771D01*
X139783652Y-89511252D01*
X139720171Y-89588605D01*
X139672999Y-89676857D01*
X139643951Y-89772615D01*
X139634143Y-89872200D01*
X132499000Y-89872200D01*
X132499000Y-85696605D01*
X136923400Y-85696605D01*
X136923400Y-85895795D01*
X136962260Y-86091156D01*
X137038486Y-86275183D01*
X137149149Y-86440803D01*
X137289997Y-86581651D01*
X137455617Y-86692314D01*
X137639644Y-86768540D01*
X137835005Y-86807400D01*
X138034195Y-86807400D01*
X138229556Y-86768540D01*
X138369436Y-86710600D01*
X152151914Y-86710600D01*
X152314617Y-86819314D01*
X152498644Y-86895540D01*
X152694005Y-86934400D01*
X152893195Y-86934400D01*
X153088556Y-86895540D01*
X153272583Y-86819314D01*
X153438203Y-86708651D01*
X153579051Y-86567803D01*
X153689714Y-86402183D01*
X153765940Y-86218156D01*
X153804800Y-86022795D01*
X153804800Y-85823605D01*
X153765940Y-85628244D01*
X153689714Y-85444217D01*
X153579051Y-85278597D01*
X153438203Y-85137749D01*
X153408332Y-85117790D01*
X153304071Y-85032226D01*
X153145219Y-84947317D01*
X152972854Y-84895031D01*
X152838518Y-84881800D01*
X152838517Y-84881800D01*
X152793600Y-84877376D01*
X152748682Y-84881800D01*
X138369436Y-84881800D01*
X138229556Y-84823860D01*
X138034195Y-84785000D01*
X137835005Y-84785000D01*
X137639644Y-84823860D01*
X137455617Y-84900086D01*
X137289997Y-85010749D01*
X137149149Y-85151597D01*
X137038486Y-85317217D01*
X136962260Y-85501244D01*
X136923400Y-85696605D01*
X132499000Y-85696605D01*
X132499000Y-81071800D01*
X164680800Y-81071800D01*
X164680800Y-128798400D01*
G36*
X148632409Y-111176603D02*
G01*
X148605274Y-111198873D01*
X148583004Y-111226009D01*
X148583003Y-111226010D01*
X148516398Y-111307168D01*
X148495294Y-111346651D01*
X148450359Y-111430719D01*
X148409692Y-111564780D01*
X148408732Y-111574527D01*
X148395960Y-111704200D01*
X148399401Y-111739135D01*
X148399400Y-113066274D01*
X148395960Y-113101200D01*
X148399400Y-113136126D01*
X148399400Y-113136135D01*
X148409691Y-113240619D01*
X148450358Y-113374680D01*
X148516398Y-113498232D01*
X148605273Y-113606526D01*
X148632410Y-113628797D01*
X149345007Y-114341396D01*
X149367273Y-114368527D01*
X149394404Y-114390793D01*
X149394409Y-114390798D01*
X149475567Y-114457402D01*
X149599118Y-114523442D01*
X149708884Y-114556739D01*
X149733180Y-114564109D01*
X149837664Y-114574400D01*
X149837671Y-114574400D01*
X149872600Y-114577840D01*
X149907528Y-114574400D01*
X151356013Y-114574400D01*
X153225401Y-116443790D01*
X153225400Y-119626743D01*
X153186600Y-119626743D01*
X153087015Y-119636551D01*
X152991257Y-119665599D01*
X152903005Y-119712771D01*
X152825652Y-119776252D01*
X152762171Y-119853605D01*
X152714999Y-119941857D01*
X152685951Y-120037615D01*
X152676143Y-120137200D01*
X152676143Y-121437200D01*
X152685951Y-121536785D01*
X152714999Y-121632543D01*
X152762171Y-121720795D01*
X152775634Y-121737200D01*
X152762171Y-121753605D01*
X152714999Y-121841857D01*
X152698111Y-121897529D01*
X152637583Y-121857086D01*
X152453556Y-121780860D01*
X152258195Y-121742000D01*
X152059005Y-121742000D01*
X151863644Y-121780860D01*
X151679617Y-121857086D01*
X151513997Y-121967749D01*
X151474222Y-122007524D01*
X146542578Y-121765268D01*
X146563049Y-121697785D01*
X146572857Y-121598200D01*
X146572857Y-120098200D01*
X146563049Y-119998615D01*
X146534001Y-119902857D01*
X146486829Y-119814605D01*
X146423348Y-119737252D01*
X146345995Y-119673771D01*
X146268238Y-119632209D01*
X146323714Y-119549183D01*
X146399940Y-119365156D01*
X146438800Y-119169795D01*
X146438800Y-118970605D01*
X146399940Y-118775244D01*
X146323714Y-118591217D01*
X146213051Y-118425597D01*
X146072203Y-118284749D01*
X145906583Y-118174086D01*
X145722556Y-118097860D01*
X145527195Y-118059000D01*
X145328005Y-118059000D01*
X145132644Y-118097860D01*
X144948617Y-118174086D01*
X144782997Y-118284749D01*
X144642149Y-118425597D01*
X144531486Y-118591217D01*
X144455260Y-118775244D01*
X144416400Y-118970605D01*
X144416400Y-119169795D01*
X144455260Y-119365156D01*
X144531486Y-119549183D01*
X144580491Y-119622524D01*
X144567057Y-119626599D01*
X144478805Y-119673771D01*
X144401452Y-119737252D01*
X144337971Y-119814605D01*
X144290799Y-119902857D01*
X144261751Y-119998615D01*
X144251943Y-120098200D01*
X144251943Y-121598200D01*
X144260347Y-121683527D01*
X139799587Y-121664133D01*
X139725056Y-121589602D01*
X139849203Y-121506651D01*
X139923454Y-121432400D01*
X140185674Y-121432400D01*
X140220600Y-121435840D01*
X140255526Y-121432400D01*
X140255536Y-121432400D01*
X140360020Y-121422109D01*
X140494081Y-121381442D01*
X140617633Y-121315402D01*
X140725927Y-121226527D01*
X140748202Y-121199385D01*
X147048795Y-114898793D01*
X147075926Y-114876527D01*
X147098193Y-114849395D01*
X147098197Y-114849391D01*
X147164802Y-114768233D01*
X147196646Y-114708657D01*
X147230842Y-114644681D01*
X147271509Y-114510620D01*
X147281800Y-114406136D01*
X147281800Y-114406127D01*
X147285240Y-114371201D01*
X147281800Y-114336275D01*
X147281800Y-113185054D01*
X147356051Y-113110803D01*
X147466714Y-112945183D01*
X147542940Y-112761156D01*
X147581800Y-112565795D01*
X147581800Y-112366605D01*
X147542940Y-112171244D01*
X147466714Y-111987217D01*
X147356051Y-111821597D01*
X147215203Y-111680749D01*
X147049583Y-111570086D01*
X146865556Y-111493860D01*
X146670195Y-111455000D01*
X146471005Y-111455000D01*
X146275644Y-111493860D01*
X146091617Y-111570086D01*
X146088000Y-111572503D01*
X146088000Y-110713600D01*
X149095412Y-110713600D01*
X148632409Y-111176603D01*
X148632409Y-111176603D01*
G37*
X148632409Y-111176603D02*
X148605274Y-111198873D01*
X148583004Y-111226009D01*
X148583003Y-111226010D01*
X148516398Y-111307168D01*
X148495294Y-111346651D01*
X148450359Y-111430719D01*
X148409692Y-111564780D01*
X148408732Y-111574527D01*
X148395960Y-111704200D01*
X148399401Y-111739135D01*
X148399400Y-113066274D01*
X148395960Y-113101200D01*
X148399400Y-113136126D01*
X148399400Y-113136135D01*
X148409691Y-113240619D01*
X148450358Y-113374680D01*
X148516398Y-113498232D01*
X148605273Y-113606526D01*
X148632410Y-113628797D01*
X149345007Y-114341396D01*
X149367273Y-114368527D01*
X149394404Y-114390793D01*
X149394409Y-114390798D01*
X149475567Y-114457402D01*
X149599118Y-114523442D01*
X149708884Y-114556739D01*
X149733180Y-114564109D01*
X149837664Y-114574400D01*
X149837671Y-114574400D01*
X149872600Y-114577840D01*
X149907528Y-114574400D01*
X151356013Y-114574400D01*
X153225401Y-116443790D01*
X153225400Y-119626743D01*
X153186600Y-119626743D01*
X153087015Y-119636551D01*
X152991257Y-119665599D01*
X152903005Y-119712771D01*
X152825652Y-119776252D01*
X152762171Y-119853605D01*
X152714999Y-119941857D01*
X152685951Y-120037615D01*
X152676143Y-120137200D01*
X152676143Y-121437200D01*
X152685951Y-121536785D01*
X152714999Y-121632543D01*
X152762171Y-121720795D01*
X152775634Y-121737200D01*
X152762171Y-121753605D01*
X152714999Y-121841857D01*
X152698111Y-121897529D01*
X152637583Y-121857086D01*
X152453556Y-121780860D01*
X152258195Y-121742000D01*
X152059005Y-121742000D01*
X151863644Y-121780860D01*
X151679617Y-121857086D01*
X151513997Y-121967749D01*
X151474222Y-122007524D01*
X146542578Y-121765268D01*
X146563049Y-121697785D01*
X146572857Y-121598200D01*
X146572857Y-120098200D01*
X146563049Y-119998615D01*
X146534001Y-119902857D01*
X146486829Y-119814605D01*
X146423348Y-119737252D01*
X146345995Y-119673771D01*
X146268238Y-119632209D01*
X146323714Y-119549183D01*
X146399940Y-119365156D01*
X146438800Y-119169795D01*
X146438800Y-118970605D01*
X146399940Y-118775244D01*
X146323714Y-118591217D01*
X146213051Y-118425597D01*
X146072203Y-118284749D01*
X145906583Y-118174086D01*
X145722556Y-118097860D01*
X145527195Y-118059000D01*
X145328005Y-118059000D01*
X145132644Y-118097860D01*
X144948617Y-118174086D01*
X144782997Y-118284749D01*
X144642149Y-118425597D01*
X144531486Y-118591217D01*
X144455260Y-118775244D01*
X144416400Y-118970605D01*
X144416400Y-119169795D01*
X144455260Y-119365156D01*
X144531486Y-119549183D01*
X144580491Y-119622524D01*
X144567057Y-119626599D01*
X144478805Y-119673771D01*
X144401452Y-119737252D01*
X144337971Y-119814605D01*
X144290799Y-119902857D01*
X144261751Y-119998615D01*
X144251943Y-120098200D01*
X144251943Y-121598200D01*
X144260347Y-121683527D01*
X139799587Y-121664133D01*
X139725056Y-121589602D01*
X139849203Y-121506651D01*
X139923454Y-121432400D01*
X140185674Y-121432400D01*
X140220600Y-121435840D01*
X140255526Y-121432400D01*
X140255536Y-121432400D01*
X140360020Y-121422109D01*
X140494081Y-121381442D01*
X140617633Y-121315402D01*
X140725927Y-121226527D01*
X140748202Y-121199385D01*
X147048795Y-114898793D01*
X147075926Y-114876527D01*
X147098193Y-114849395D01*
X147098197Y-114849391D01*
X147164802Y-114768233D01*
X147196646Y-114708657D01*
X147230842Y-114644681D01*
X147271509Y-114510620D01*
X147281800Y-114406136D01*
X147281800Y-114406127D01*
X147285240Y-114371201D01*
X147281800Y-114336275D01*
X147281800Y-113185054D01*
X147356051Y-113110803D01*
X147466714Y-112945183D01*
X147542940Y-112761156D01*
X147581800Y-112565795D01*
X147581800Y-112366605D01*
X147542940Y-112171244D01*
X147466714Y-111987217D01*
X147356051Y-111821597D01*
X147215203Y-111680749D01*
X147049583Y-111570086D01*
X146865556Y-111493860D01*
X146670195Y-111455000D01*
X146471005Y-111455000D01*
X146275644Y-111493860D01*
X146091617Y-111570086D01*
X146088000Y-111572503D01*
X146088000Y-110713600D01*
X149095412Y-110713600D01*
X148632409Y-111176603D01*
G36*
X160022997Y-103091651D02*
G01*
X160188617Y-103202314D01*
X160372644Y-103278540D01*
X160568005Y-103317400D01*
X160673012Y-103317400D01*
X161226400Y-103870789D01*
X161226401Y-105700264D01*
X161222960Y-105735200D01*
X161226401Y-105770136D01*
X161236692Y-105874620D01*
X161271466Y-105989253D01*
X161277359Y-106008681D01*
X161343398Y-106132232D01*
X161398555Y-106199441D01*
X161432274Y-106240527D01*
X161459410Y-106262797D01*
X162242400Y-107045788D01*
X162242401Y-112503611D01*
X162142269Y-112603743D01*
X161037600Y-112603743D01*
X160938015Y-112613551D01*
X160921600Y-112618530D01*
X160905185Y-112613551D01*
X160805600Y-112603743D01*
X159005600Y-112603743D01*
X158906015Y-112613551D01*
X158810257Y-112642599D01*
X158722005Y-112689771D01*
X158711719Y-112698213D01*
X158667029Y-112614605D01*
X158603548Y-112537252D01*
X158526195Y-112473771D01*
X158437943Y-112426599D01*
X158342185Y-112397551D01*
X158242600Y-112387743D01*
X157266089Y-112387743D01*
X157220518Y-112342172D01*
X157199833Y-112316967D01*
X157099274Y-112234441D01*
X156984547Y-112173118D01*
X156860061Y-112135356D01*
X156763039Y-112125800D01*
X156730600Y-112122605D01*
X156698161Y-112125800D01*
X156593033Y-112125800D01*
X156584249Y-112036615D01*
X156555201Y-111940857D01*
X156508029Y-111852605D01*
X156444548Y-111775252D01*
X156367195Y-111711771D01*
X156278943Y-111664599D01*
X156183185Y-111635551D01*
X156083600Y-111625743D01*
X155178930Y-111625743D01*
X154652202Y-111099015D01*
X154629927Y-111071873D01*
X154521633Y-110982998D01*
X154398081Y-110916958D01*
X154264020Y-110876291D01*
X154159536Y-110866000D01*
X154159526Y-110866000D01*
X154124600Y-110862560D01*
X154089674Y-110866000D01*
X153651272Y-110866000D01*
X153692203Y-110838651D01*
X153833051Y-110697803D01*
X153943714Y-110532183D01*
X154019940Y-110348156D01*
X154058800Y-110152795D01*
X154058800Y-109953605D01*
X154033139Y-109824600D01*
X155314054Y-109824600D01*
X156494682Y-111005228D01*
X156515367Y-111030433D01*
X156615926Y-111112959D01*
X156730653Y-111174282D01*
X156855139Y-111212044D01*
X156984599Y-111224795D01*
X157017038Y-111221600D01*
X159516946Y-111221600D01*
X159641997Y-111346651D01*
X159807617Y-111457314D01*
X159991644Y-111533540D01*
X160187005Y-111572400D01*
X160386195Y-111572400D01*
X160581556Y-111533540D01*
X160765583Y-111457314D01*
X160931203Y-111346651D01*
X161072051Y-111205803D01*
X161182714Y-111040183D01*
X161258940Y-110856156D01*
X161297800Y-110660795D01*
X161297800Y-110461605D01*
X161258940Y-110266244D01*
X161182714Y-110082217D01*
X161072051Y-109916597D01*
X160931203Y-109775749D01*
X160765583Y-109665086D01*
X160581556Y-109588860D01*
X160386195Y-109550000D01*
X160187005Y-109550000D01*
X159991644Y-109588860D01*
X159807617Y-109665086D01*
X159641997Y-109775749D01*
X159516946Y-109900800D01*
X158566821Y-109900800D01*
X158591940Y-109840156D01*
X158630800Y-109644795D01*
X158630800Y-109445605D01*
X158591940Y-109250244D01*
X158515714Y-109066217D01*
X158405051Y-108900597D01*
X158264203Y-108759749D01*
X158098583Y-108649086D01*
X157914556Y-108572860D01*
X157719195Y-108534000D01*
X157542346Y-108534000D01*
X157093518Y-108085172D01*
X157072833Y-108059967D01*
X156972274Y-107977441D01*
X156857547Y-107916118D01*
X156733061Y-107878356D01*
X156636039Y-107868800D01*
X156603600Y-107865605D01*
X156571161Y-107868800D01*
X154514946Y-107868800D01*
X155777629Y-106606117D01*
X155802833Y-106585433D01*
X155885359Y-106484874D01*
X155946682Y-106370147D01*
X155977486Y-106268600D01*
X156468946Y-106268600D01*
X156593997Y-106393651D01*
X156759617Y-106504314D01*
X156943644Y-106580540D01*
X157139005Y-106619400D01*
X157338195Y-106619400D01*
X157533556Y-106580540D01*
X157624400Y-106542911D01*
X157624400Y-106596795D01*
X157663260Y-106792156D01*
X157739486Y-106976183D01*
X157850149Y-107141803D01*
X157990997Y-107282651D01*
X158156617Y-107393314D01*
X158340644Y-107469540D01*
X158536005Y-107508400D01*
X158735195Y-107508400D01*
X158930556Y-107469540D01*
X159114583Y-107393314D01*
X159280203Y-107282651D01*
X159421051Y-107141803D01*
X159531714Y-106976183D01*
X159607940Y-106792156D01*
X159646800Y-106596795D01*
X159646800Y-106397605D01*
X159607940Y-106202244D01*
X159531714Y-106018217D01*
X159421051Y-105852597D01*
X159346800Y-105778346D01*
X159346800Y-104803054D01*
X159421051Y-104728803D01*
X159531714Y-104563183D01*
X159607940Y-104379156D01*
X159646800Y-104183795D01*
X159646800Y-103984605D01*
X159607940Y-103789244D01*
X159531714Y-103605217D01*
X159421051Y-103439597D01*
X159280203Y-103298749D01*
X159114583Y-103188086D01*
X158930556Y-103111860D01*
X158735195Y-103073000D01*
X158536005Y-103073000D01*
X158340644Y-103111860D01*
X158156617Y-103188086D01*
X157990997Y-103298749D01*
X157850149Y-103439597D01*
X157739486Y-103605217D01*
X157663260Y-103789244D01*
X157624400Y-103984605D01*
X157624400Y-104183795D01*
X157663260Y-104379156D01*
X157739486Y-104563183D01*
X157850149Y-104728803D01*
X157924401Y-104803055D01*
X157924401Y-104863947D01*
X157883203Y-104822749D01*
X157717583Y-104712086D01*
X157533556Y-104635860D01*
X157338195Y-104597000D01*
X157139005Y-104597000D01*
X156943644Y-104635860D01*
X156759617Y-104712086D01*
X156593997Y-104822749D01*
X156468946Y-104947800D01*
X156294545Y-104947800D01*
X156310833Y-104934433D01*
X156331518Y-104909228D01*
X156793629Y-104447117D01*
X156818833Y-104426433D01*
X156901359Y-104325874D01*
X156962682Y-104211147D01*
X157000444Y-104086661D01*
X157004127Y-104049264D01*
X157013195Y-103957201D01*
X157010000Y-103924762D01*
X157010000Y-103712086D01*
X157111547Y-103681282D01*
X157226274Y-103619959D01*
X157326833Y-103537433D01*
X157347518Y-103512228D01*
X157893147Y-102966600D01*
X159897946Y-102966600D01*
X160022997Y-103091651D01*
X160022997Y-103091651D01*
G37*
X160022997Y-103091651D02*
X160188617Y-103202314D01*
X160372644Y-103278540D01*
X160568005Y-103317400D01*
X160673012Y-103317400D01*
X161226400Y-103870789D01*
X161226401Y-105700264D01*
X161222960Y-105735200D01*
X161226401Y-105770136D01*
X161236692Y-105874620D01*
X161271466Y-105989253D01*
X161277359Y-106008681D01*
X161343398Y-106132232D01*
X161398555Y-106199441D01*
X161432274Y-106240527D01*
X161459410Y-106262797D01*
X162242400Y-107045788D01*
X162242401Y-112503611D01*
X162142269Y-112603743D01*
X161037600Y-112603743D01*
X160938015Y-112613551D01*
X160921600Y-112618530D01*
X160905185Y-112613551D01*
X160805600Y-112603743D01*
X159005600Y-112603743D01*
X158906015Y-112613551D01*
X158810257Y-112642599D01*
X158722005Y-112689771D01*
X158711719Y-112698213D01*
X158667029Y-112614605D01*
X158603548Y-112537252D01*
X158526195Y-112473771D01*
X158437943Y-112426599D01*
X158342185Y-112397551D01*
X158242600Y-112387743D01*
X157266089Y-112387743D01*
X157220518Y-112342172D01*
X157199833Y-112316967D01*
X157099274Y-112234441D01*
X156984547Y-112173118D01*
X156860061Y-112135356D01*
X156763039Y-112125800D01*
X156730600Y-112122605D01*
X156698161Y-112125800D01*
X156593033Y-112125800D01*
X156584249Y-112036615D01*
X156555201Y-111940857D01*
X156508029Y-111852605D01*
X156444548Y-111775252D01*
X156367195Y-111711771D01*
X156278943Y-111664599D01*
X156183185Y-111635551D01*
X156083600Y-111625743D01*
X155178930Y-111625743D01*
X154652202Y-111099015D01*
X154629927Y-111071873D01*
X154521633Y-110982998D01*
X154398081Y-110916958D01*
X154264020Y-110876291D01*
X154159536Y-110866000D01*
X154159526Y-110866000D01*
X154124600Y-110862560D01*
X154089674Y-110866000D01*
X153651272Y-110866000D01*
X153692203Y-110838651D01*
X153833051Y-110697803D01*
X153943714Y-110532183D01*
X154019940Y-110348156D01*
X154058800Y-110152795D01*
X154058800Y-109953605D01*
X154033139Y-109824600D01*
X155314054Y-109824600D01*
X156494682Y-111005228D01*
X156515367Y-111030433D01*
X156615926Y-111112959D01*
X156730653Y-111174282D01*
X156855139Y-111212044D01*
X156984599Y-111224795D01*
X157017038Y-111221600D01*
X159516946Y-111221600D01*
X159641997Y-111346651D01*
X159807617Y-111457314D01*
X159991644Y-111533540D01*
X160187005Y-111572400D01*
X160386195Y-111572400D01*
X160581556Y-111533540D01*
X160765583Y-111457314D01*
X160931203Y-111346651D01*
X161072051Y-111205803D01*
X161182714Y-111040183D01*
X161258940Y-110856156D01*
X161297800Y-110660795D01*
X161297800Y-110461605D01*
X161258940Y-110266244D01*
X161182714Y-110082217D01*
X161072051Y-109916597D01*
X160931203Y-109775749D01*
X160765583Y-109665086D01*
X160581556Y-109588860D01*
X160386195Y-109550000D01*
X160187005Y-109550000D01*
X159991644Y-109588860D01*
X159807617Y-109665086D01*
X159641997Y-109775749D01*
X159516946Y-109900800D01*
X158566821Y-109900800D01*
X158591940Y-109840156D01*
X158630800Y-109644795D01*
X158630800Y-109445605D01*
X158591940Y-109250244D01*
X158515714Y-109066217D01*
X158405051Y-108900597D01*
X158264203Y-108759749D01*
X158098583Y-108649086D01*
X157914556Y-108572860D01*
X157719195Y-108534000D01*
X157542346Y-108534000D01*
X157093518Y-108085172D01*
X157072833Y-108059967D01*
X156972274Y-107977441D01*
X156857547Y-107916118D01*
X156733061Y-107878356D01*
X156636039Y-107868800D01*
X156603600Y-107865605D01*
X156571161Y-107868800D01*
X154514946Y-107868800D01*
X155777629Y-106606117D01*
X155802833Y-106585433D01*
X155885359Y-106484874D01*
X155946682Y-106370147D01*
X155977486Y-106268600D01*
X156468946Y-106268600D01*
X156593997Y-106393651D01*
X156759617Y-106504314D01*
X156943644Y-106580540D01*
X157139005Y-106619400D01*
X157338195Y-106619400D01*
X157533556Y-106580540D01*
X157624400Y-106542911D01*
X157624400Y-106596795D01*
X157663260Y-106792156D01*
X157739486Y-106976183D01*
X157850149Y-107141803D01*
X157990997Y-107282651D01*
X158156617Y-107393314D01*
X158340644Y-107469540D01*
X158536005Y-107508400D01*
X158735195Y-107508400D01*
X158930556Y-107469540D01*
X159114583Y-107393314D01*
X159280203Y-107282651D01*
X159421051Y-107141803D01*
X159531714Y-106976183D01*
X159607940Y-106792156D01*
X159646800Y-106596795D01*
X159646800Y-106397605D01*
X159607940Y-106202244D01*
X159531714Y-106018217D01*
X159421051Y-105852597D01*
X159346800Y-105778346D01*
X159346800Y-104803054D01*
X159421051Y-104728803D01*
X159531714Y-104563183D01*
X159607940Y-104379156D01*
X159646800Y-104183795D01*
X159646800Y-103984605D01*
X159607940Y-103789244D01*
X159531714Y-103605217D01*
X159421051Y-103439597D01*
X159280203Y-103298749D01*
X159114583Y-103188086D01*
X158930556Y-103111860D01*
X158735195Y-103073000D01*
X158536005Y-103073000D01*
X158340644Y-103111860D01*
X158156617Y-103188086D01*
X157990997Y-103298749D01*
X157850149Y-103439597D01*
X157739486Y-103605217D01*
X157663260Y-103789244D01*
X157624400Y-103984605D01*
X157624400Y-104183795D01*
X157663260Y-104379156D01*
X157739486Y-104563183D01*
X157850149Y-104728803D01*
X157924401Y-104803055D01*
X157924401Y-104863947D01*
X157883203Y-104822749D01*
X157717583Y-104712086D01*
X157533556Y-104635860D01*
X157338195Y-104597000D01*
X157139005Y-104597000D01*
X156943644Y-104635860D01*
X156759617Y-104712086D01*
X156593997Y-104822749D01*
X156468946Y-104947800D01*
X156294545Y-104947800D01*
X156310833Y-104934433D01*
X156331518Y-104909228D01*
X156793629Y-104447117D01*
X156818833Y-104426433D01*
X156901359Y-104325874D01*
X156962682Y-104211147D01*
X157000444Y-104086661D01*
X157004127Y-104049264D01*
X157013195Y-103957201D01*
X157010000Y-103924762D01*
X157010000Y-103712086D01*
X157111547Y-103681282D01*
X157226274Y-103619959D01*
X157326833Y-103537433D01*
X157347518Y-103512228D01*
X157893147Y-102966600D01*
X159897946Y-102966600D01*
X160022997Y-103091651D01*
M02*
