G04 #@! TF.GenerationSoftware,KiCad,Pcbnew,(5.1.0)-1*
G04 #@! TF.CreationDate,2019-05-30T14:49:56+02:00*
G04 #@! TF.ProjectId,UWED,55574544-2e6b-4696-9361-645f70636258,rev?*
G04 #@! TF.SameCoordinates,Original*
G04 #@! TF.FileFunction,Legend,Top*
G04 #@! TF.FilePolarity,Positive*
%FSLAX46Y46*%
G04 Gerber Fmt 4.6, Leading zero omitted, Abs format (unit mm)*
G04 Created by KiCad (PCBNEW (5.1.0)-1) date 2019-05-30 14:49:56*
%MOMM*%
%LPD*%
G04 APERTURE LIST*
%ADD10C,0.125000*%
%ADD11C,0.063400*%
%ADD12C,0.127000*%
%ADD13C,0.406400*%
%ADD14C,0.101600*%
%ADD15C,0.081280*%
%ADD16R,1.703200X1.503200*%
%ADD17R,1.503200X1.703200*%
%ADD18R,1.403200X1.403200*%
%ADD19R,1.473200X0.622300*%
%ADD20R,0.711200X1.473200*%
%ADD21R,1.703200X0.623200*%
%ADD22R,1.473200X0.711200*%
%ADD23R,1.219200X2.235200*%
%ADD24R,4.013200X2.235200*%
%ADD25R,2.235200X2.235200*%
%ADD26R,1.703200X3.203200*%
%ADD27R,3.203200X1.703200*%
%ADD28R,1.703200X0.503200*%
%ADD29R,2.203200X2.703200*%
%ADD30R,1.703200X3.703200*%
%ADD31R,2.503200X3.703200*%
%ADD32C,0.100000*%
%ADD33C,1.016000*%
G04 APERTURE END LIST*
D10*
X153816900Y-92190600D02*
G75*
G03X153816900Y-92190600I-62500J0D01*
G01*
D11*
X153504400Y-91615600D02*
X153654400Y-91765600D01*
X153329400Y-91790600D02*
X153504400Y-91615600D01*
X153479400Y-91940600D02*
X153329400Y-91790600D01*
X153654400Y-91765600D02*
X153479400Y-91940600D01*
D12*
X155460600Y-108762640D02*
X155460600Y-103560960D01*
X160012040Y-108762640D02*
X155460600Y-108762640D01*
X160012040Y-103560960D02*
X160012040Y-108762640D01*
X155460600Y-103560960D02*
X160012040Y-103560960D01*
X156593840Y-104109600D02*
G75*
G03X156593840Y-104109600I-193440J0D01*
G01*
X143103500Y-94864000D02*
G75*
G03X143103500Y-94864000I-469900J0D01*
G01*
X140284100Y-94394100D02*
X143103500Y-94394100D01*
X140284100Y-96273700D02*
X140284100Y-94394100D01*
X143103500Y-96273700D02*
X140284100Y-96273700D01*
X143103500Y-94394100D02*
X143103500Y-96273700D01*
X146786500Y-94864000D02*
G75*
G03X146786500Y-94864000I-469900J0D01*
G01*
X143967100Y-94394100D02*
X146786500Y-94394100D01*
X143967100Y-96273700D02*
X143967100Y-94394100D01*
X146786500Y-96273700D02*
X143967100Y-96273700D01*
X146786500Y-94394100D02*
X146786500Y-96273700D01*
X149689600Y-105314200D02*
X146689600Y-105314200D01*
X146689600Y-102314200D02*
X149689600Y-102314200D01*
X148107300Y-109164200D02*
G75*
G03X148107300Y-109164200I-469900J0D01*
G01*
X147167500Y-111513700D02*
X147167500Y-108694300D01*
X149047100Y-111513700D02*
X147167500Y-111513700D01*
X149047100Y-108694300D02*
X149047100Y-111513700D01*
X147167500Y-108694300D02*
X149047100Y-108694300D01*
X136918600Y-106334640D02*
X136918600Y-101782960D01*
X140820040Y-106334640D02*
X136918600Y-106334640D01*
X140820040Y-101782960D02*
X140820040Y-106334640D01*
X136918600Y-101782960D02*
X140820040Y-101782960D01*
X138051840Y-102331600D02*
G75*
G03X138051840Y-102331600I-193440J0D01*
G01*
X138034206Y-109445200D02*
G75*
G03X138034206Y-109445200I-223606J0D01*
G01*
X137410600Y-112045200D02*
X137410600Y-109045200D01*
X140410600Y-112045200D02*
X137410600Y-112045200D01*
X137410600Y-109045200D02*
X140410600Y-109045200D01*
D13*
X149745600Y-113482200D02*
X149745600Y-128722200D01*
X134505600Y-113482200D02*
X149745600Y-113482200D01*
X134505600Y-128722200D02*
X134505600Y-113482200D01*
X134505600Y-128722200D02*
X149745600Y-128722200D01*
D14*
X151732242Y-102025469D02*
X151789695Y-102082921D01*
X151847147Y-102255279D01*
X151847147Y-102370183D01*
X151789695Y-102542540D01*
X151674790Y-102657445D01*
X151559885Y-102714898D01*
X151330076Y-102772350D01*
X151157719Y-102772350D01*
X150927909Y-102714898D01*
X150813004Y-102657445D01*
X150698100Y-102542540D01*
X150640647Y-102370183D01*
X150640647Y-102255279D01*
X150698100Y-102082921D01*
X150755552Y-102025469D01*
X151847147Y-100876421D02*
X151847147Y-101565850D01*
X151847147Y-101221136D02*
X150640647Y-101221136D01*
X150813004Y-101336040D01*
X150927909Y-101450945D01*
X150985361Y-101565850D01*
X150640647Y-100129540D02*
X150640647Y-100014636D01*
X150698100Y-99899731D01*
X150755552Y-99842279D01*
X150870457Y-99784826D01*
X151100266Y-99727374D01*
X151387528Y-99727374D01*
X151617338Y-99784826D01*
X151732242Y-99842279D01*
X151789695Y-99899731D01*
X151847147Y-100014636D01*
X151847147Y-100129540D01*
X151789695Y-100244445D01*
X151732242Y-100301898D01*
X151617338Y-100359350D01*
X151387528Y-100416802D01*
X151100266Y-100416802D01*
X150870457Y-100359350D01*
X150755552Y-100301898D01*
X150698100Y-100244445D01*
X150640647Y-100129540D01*
X159551330Y-98704842D02*
X159493878Y-98762295D01*
X159321520Y-98819747D01*
X159206616Y-98819747D01*
X159034259Y-98762295D01*
X158919354Y-98647390D01*
X158861901Y-98532485D01*
X158804449Y-98302676D01*
X158804449Y-98130319D01*
X158861901Y-97900509D01*
X158919354Y-97785604D01*
X159034259Y-97670700D01*
X159206616Y-97613247D01*
X159321520Y-97613247D01*
X159493878Y-97670700D01*
X159551330Y-97728152D01*
X160700378Y-98819747D02*
X160010949Y-98819747D01*
X160355663Y-98819747D02*
X160355663Y-97613247D01*
X160240759Y-97785604D01*
X160125854Y-97900509D01*
X160010949Y-97957961D01*
X161849425Y-98819747D02*
X161159997Y-98819747D01*
X161504711Y-98819747D02*
X161504711Y-97613247D01*
X161389806Y-97785604D01*
X161274901Y-97900509D01*
X161159997Y-97957961D01*
X154653242Y-98088469D02*
X154710695Y-98145921D01*
X154768147Y-98318279D01*
X154768147Y-98433183D01*
X154710695Y-98605540D01*
X154595790Y-98720445D01*
X154480885Y-98777898D01*
X154251076Y-98835350D01*
X154078719Y-98835350D01*
X153848909Y-98777898D01*
X153734004Y-98720445D01*
X153619100Y-98605540D01*
X153561647Y-98433183D01*
X153561647Y-98318279D01*
X153619100Y-98145921D01*
X153676552Y-98088469D01*
X154768147Y-96939421D02*
X154768147Y-97628850D01*
X154768147Y-97284136D02*
X153561647Y-97284136D01*
X153734004Y-97399040D01*
X153848909Y-97513945D01*
X153906361Y-97628850D01*
X153676552Y-96479802D02*
X153619100Y-96422350D01*
X153561647Y-96307445D01*
X153561647Y-96020183D01*
X153619100Y-95905279D01*
X153676552Y-95847826D01*
X153791457Y-95790374D01*
X153906361Y-95790374D01*
X154078719Y-95847826D01*
X154768147Y-96537255D01*
X154768147Y-95790374D01*
X137508242Y-99612469D02*
X137565695Y-99669921D01*
X137623147Y-99842279D01*
X137623147Y-99957183D01*
X137565695Y-100129540D01*
X137450790Y-100244445D01*
X137335885Y-100301898D01*
X137106076Y-100359350D01*
X136933719Y-100359350D01*
X136703909Y-100301898D01*
X136589004Y-100244445D01*
X136474100Y-100129540D01*
X136416647Y-99957183D01*
X136416647Y-99842279D01*
X136474100Y-99669921D01*
X136531552Y-99612469D01*
X137623147Y-98463421D02*
X137623147Y-99152850D01*
X137623147Y-98808136D02*
X136416647Y-98808136D01*
X136589004Y-98923040D01*
X136703909Y-99037945D01*
X136761361Y-99152850D01*
X136818814Y-97429279D02*
X137623147Y-97429279D01*
X136359195Y-97716540D02*
X137220980Y-98003802D01*
X137220980Y-97256921D01*
X135349242Y-99739469D02*
X135406695Y-99796921D01*
X135464147Y-99969279D01*
X135464147Y-100084183D01*
X135406695Y-100256540D01*
X135291790Y-100371445D01*
X135176885Y-100428898D01*
X134947076Y-100486350D01*
X134774719Y-100486350D01*
X134544909Y-100428898D01*
X134430004Y-100371445D01*
X134315100Y-100256540D01*
X134257647Y-100084183D01*
X134257647Y-99969279D01*
X134315100Y-99796921D01*
X134372552Y-99739469D01*
X135464147Y-98590421D02*
X135464147Y-99279850D01*
X135464147Y-98935136D02*
X134257647Y-98935136D01*
X134430004Y-99050040D01*
X134544909Y-99164945D01*
X134602361Y-99279850D01*
X134257647Y-97498826D02*
X134257647Y-98073350D01*
X134832171Y-98130802D01*
X134774719Y-98073350D01*
X134717266Y-97958445D01*
X134717266Y-97671183D01*
X134774719Y-97556279D01*
X134832171Y-97498826D01*
X134947076Y-97441374D01*
X135234338Y-97441374D01*
X135349242Y-97498826D01*
X135406695Y-97556279D01*
X135464147Y-97671183D01*
X135464147Y-97958445D01*
X135406695Y-98073350D01*
X135349242Y-98130802D01*
X154979330Y-110515842D02*
X154921878Y-110573295D01*
X154749520Y-110630747D01*
X154634616Y-110630747D01*
X154462259Y-110573295D01*
X154347354Y-110458390D01*
X154289901Y-110343485D01*
X154232449Y-110113676D01*
X154232449Y-109941319D01*
X154289901Y-109711509D01*
X154347354Y-109596604D01*
X154462259Y-109481700D01*
X154634616Y-109424247D01*
X154749520Y-109424247D01*
X154921878Y-109481700D01*
X154979330Y-109539152D01*
X155668759Y-109941319D02*
X155553854Y-109883866D01*
X155496401Y-109826414D01*
X155438949Y-109711509D01*
X155438949Y-109654057D01*
X155496401Y-109539152D01*
X155553854Y-109481700D01*
X155668759Y-109424247D01*
X155898568Y-109424247D01*
X156013473Y-109481700D01*
X156070925Y-109539152D01*
X156128378Y-109654057D01*
X156128378Y-109711509D01*
X156070925Y-109826414D01*
X156013473Y-109883866D01*
X155898568Y-109941319D01*
X155668759Y-109941319D01*
X155553854Y-109998771D01*
X155496401Y-110056223D01*
X155438949Y-110171128D01*
X155438949Y-110400938D01*
X155496401Y-110515842D01*
X155553854Y-110573295D01*
X155668759Y-110630747D01*
X155898568Y-110630747D01*
X156013473Y-110573295D01*
X156070925Y-110515842D01*
X156128378Y-110400938D01*
X156128378Y-110171128D01*
X156070925Y-110056223D01*
X156013473Y-109998771D01*
X155898568Y-109941319D01*
X151351312Y-93939647D02*
X150776788Y-93939647D01*
X150776788Y-92733147D01*
X151753479Y-93307671D02*
X152155645Y-93307671D01*
X152328002Y-93939647D02*
X151753479Y-93939647D01*
X151753479Y-92733147D01*
X152328002Y-92733147D01*
X152845074Y-93939647D02*
X152845074Y-92733147D01*
X153132336Y-92733147D01*
X153304693Y-92790600D01*
X153419598Y-92905504D01*
X153477050Y-93020409D01*
X153534502Y-93250219D01*
X153534502Y-93422576D01*
X153477050Y-93652385D01*
X153419598Y-93767290D01*
X153304693Y-93882195D01*
X153132336Y-93939647D01*
X152845074Y-93939647D01*
X154683550Y-93939647D02*
X153994121Y-93939647D01*
X154338836Y-93939647D02*
X154338836Y-92733147D01*
X154223931Y-92905504D01*
X154109026Y-93020409D01*
X153994121Y-93077861D01*
X147405655Y-94184247D02*
X147003488Y-93609723D01*
X146716226Y-94184247D02*
X146716226Y-92977747D01*
X147175845Y-92977747D01*
X147290750Y-93035200D01*
X147348202Y-93092652D01*
X147405655Y-93207557D01*
X147405655Y-93379914D01*
X147348202Y-93494819D01*
X147290750Y-93552271D01*
X147175845Y-93609723D01*
X146716226Y-93609723D01*
X148554702Y-94184247D02*
X147865274Y-94184247D01*
X148209988Y-94184247D02*
X148209988Y-92977747D01*
X148095083Y-93150104D01*
X147980179Y-93265009D01*
X147865274Y-93322461D01*
X149301583Y-92977747D02*
X149416488Y-92977747D01*
X149531393Y-93035200D01*
X149588845Y-93092652D01*
X149646298Y-93207557D01*
X149703750Y-93437366D01*
X149703750Y-93724628D01*
X149646298Y-93954438D01*
X149588845Y-94069342D01*
X149531393Y-94126795D01*
X149416488Y-94184247D01*
X149301583Y-94184247D01*
X149186679Y-94126795D01*
X149129226Y-94069342D01*
X149071774Y-93954438D01*
X149014321Y-93724628D01*
X149014321Y-93437366D01*
X149071774Y-93207557D01*
X149129226Y-93092652D01*
X149186679Y-93035200D01*
X149301583Y-92977747D01*
X141950702Y-110694247D02*
X141548536Y-110119723D01*
X141261274Y-110694247D02*
X141261274Y-109487747D01*
X141720893Y-109487747D01*
X141835798Y-109545200D01*
X141893250Y-109602652D01*
X141950702Y-109717557D01*
X141950702Y-109889914D01*
X141893250Y-110004819D01*
X141835798Y-110062271D01*
X141720893Y-110119723D01*
X141261274Y-110119723D01*
X142984845Y-109487747D02*
X142755036Y-109487747D01*
X142640131Y-109545200D01*
X142582679Y-109602652D01*
X142467774Y-109775009D01*
X142410321Y-110004819D01*
X142410321Y-110464438D01*
X142467774Y-110579342D01*
X142525226Y-110636795D01*
X142640131Y-110694247D01*
X142869940Y-110694247D01*
X142984845Y-110636795D01*
X143042298Y-110579342D01*
X143099750Y-110464438D01*
X143099750Y-110177176D01*
X143042298Y-110062271D01*
X142984845Y-110004819D01*
X142869940Y-109947366D01*
X142640131Y-109947366D01*
X142525226Y-110004819D01*
X142467774Y-110062271D01*
X142410321Y-110177176D01*
X135781647Y-97274097D02*
X135207123Y-97676263D01*
X135781647Y-97963525D02*
X134575147Y-97963525D01*
X134575147Y-97503906D01*
X134632600Y-97389001D01*
X134690052Y-97331549D01*
X134804957Y-97274097D01*
X134977314Y-97274097D01*
X135092219Y-97331549D01*
X135149671Y-97389001D01*
X135207123Y-97503906D01*
X135207123Y-97963525D01*
X135092219Y-96584668D02*
X135034766Y-96699573D01*
X134977314Y-96757025D01*
X134862409Y-96814478D01*
X134804957Y-96814478D01*
X134690052Y-96757025D01*
X134632600Y-96699573D01*
X134575147Y-96584668D01*
X134575147Y-96354859D01*
X134632600Y-96239954D01*
X134690052Y-96182501D01*
X134804957Y-96125049D01*
X134862409Y-96125049D01*
X134977314Y-96182501D01*
X135034766Y-96239954D01*
X135092219Y-96354859D01*
X135092219Y-96584668D01*
X135149671Y-96699573D01*
X135207123Y-96757025D01*
X135322028Y-96814478D01*
X135551838Y-96814478D01*
X135666742Y-96757025D01*
X135724195Y-96699573D01*
X135781647Y-96584668D01*
X135781647Y-96354859D01*
X135724195Y-96239954D01*
X135666742Y-96182501D01*
X135551838Y-96125049D01*
X135322028Y-96125049D01*
X135207123Y-96182501D01*
X135149671Y-96239954D01*
X135092219Y-96354859D01*
X135781647Y-93210097D02*
X135207123Y-93612263D01*
X135781647Y-93899525D02*
X134575147Y-93899525D01*
X134575147Y-93439906D01*
X134632600Y-93325001D01*
X134690052Y-93267549D01*
X134804957Y-93210097D01*
X134977314Y-93210097D01*
X135092219Y-93267549D01*
X135149671Y-93325001D01*
X135207123Y-93439906D01*
X135207123Y-93899525D01*
X135781647Y-92635573D02*
X135781647Y-92405763D01*
X135724195Y-92290859D01*
X135666742Y-92233406D01*
X135494385Y-92118501D01*
X135264576Y-92061049D01*
X134804957Y-92061049D01*
X134690052Y-92118501D01*
X134632600Y-92175954D01*
X134575147Y-92290859D01*
X134575147Y-92520668D01*
X134632600Y-92635573D01*
X134690052Y-92693025D01*
X134804957Y-92750478D01*
X135092219Y-92750478D01*
X135207123Y-92693025D01*
X135264576Y-92635573D01*
X135322028Y-92520668D01*
X135322028Y-92290859D01*
X135264576Y-92175954D01*
X135207123Y-92118501D01*
X135092219Y-92061049D01*
D15*
X133772241Y-110439038D02*
X133772241Y-111220390D01*
X133818203Y-111312314D01*
X133864165Y-111358276D01*
X133956089Y-111404238D01*
X134139936Y-111404238D01*
X134231860Y-111358276D01*
X134277822Y-111312314D01*
X134323784Y-111220390D01*
X134323784Y-110439038D01*
X135288984Y-111404238D02*
X134737441Y-111404238D01*
X135013212Y-111404238D02*
X135013212Y-110439038D01*
X134921289Y-110576923D01*
X134829365Y-110668847D01*
X134737441Y-110714809D01*
%LPC*%
D16*
X153174600Y-100848200D03*
X153174600Y-102748200D03*
D17*
X160728600Y-100147200D03*
X158828600Y-100147200D03*
D16*
X156095600Y-96911200D03*
X156095600Y-98811200D03*
X138950600Y-98435200D03*
X138950600Y-100335200D03*
X136791600Y-98562200D03*
X136791600Y-100462200D03*
D17*
X156156600Y-111958200D03*
X154256600Y-111958200D03*
D18*
X152429400Y-91790600D03*
X154529400Y-91790600D03*
D17*
X148414600Y-91765200D03*
X150314600Y-91765200D03*
X141810600Y-108275200D03*
X143710600Y-108275200D03*
D16*
X133362600Y-97414200D03*
X133362600Y-95514200D03*
X133362600Y-93350200D03*
X133362600Y-91450200D03*
D19*
X160662040Y-104211200D03*
X160662040Y-104861200D03*
X160662040Y-105511200D03*
X160662040Y-106161440D03*
X160662040Y-106811681D03*
X160662040Y-107461918D03*
X160662040Y-108112159D03*
X154812041Y-108112400D03*
X154810600Y-107462400D03*
X154810600Y-106812159D03*
X154810600Y-106161918D03*
X154810600Y-105511681D03*
X154810600Y-104861440D03*
X154810600Y-104211200D03*
D20*
X142633600Y-96743600D03*
X141693800Y-96743600D03*
X140754000Y-96743600D03*
X140754000Y-93924200D03*
X141693800Y-93924200D03*
X142633600Y-93924200D03*
X146316600Y-96743600D03*
X145376800Y-96743600D03*
X144437000Y-96743600D03*
X144437000Y-93924200D03*
X145376800Y-93924200D03*
X146316600Y-93924200D03*
D21*
X150089600Y-102814200D03*
X150089600Y-103464200D03*
X150089600Y-104114200D03*
X150089600Y-104764200D03*
X146189600Y-104764200D03*
X146189600Y-104114200D03*
X146189600Y-103464200D03*
X146189600Y-102814200D03*
D22*
X149517000Y-109164200D03*
X149517000Y-110104000D03*
X149517000Y-111043800D03*
X146697600Y-111043800D03*
X146697600Y-110104000D03*
X146697600Y-109164200D03*
D23*
X148983600Y-89352200D03*
D24*
X152793600Y-89352200D03*
X145173600Y-89352200D03*
D25*
X150761600Y-81732200D03*
X147205600Y-81732200D03*
D26*
X152174600Y-126817200D03*
X154174600Y-126817200D03*
D19*
X140820040Y-102433200D03*
X140820040Y-103083440D03*
X140820040Y-103733681D03*
X140820040Y-104383918D03*
X140820040Y-105034159D03*
X140820040Y-105684400D03*
X136918600Y-105684400D03*
X136918600Y-105034159D03*
X136918600Y-104383918D03*
X136918600Y-103733681D03*
X136918600Y-103083440D03*
X136918600Y-102433200D03*
D27*
X157365600Y-84002200D03*
X157365600Y-82002200D03*
D26*
X158238600Y-126817200D03*
X156238600Y-126817200D03*
X162429600Y-126817200D03*
X160429600Y-126817200D03*
D27*
X161302600Y-121213200D03*
X161302600Y-119213200D03*
X161302600Y-115022200D03*
X161302600Y-117022200D03*
D28*
X141410600Y-109545200D03*
X141410600Y-110045200D03*
X141410600Y-110545200D03*
X141410600Y-111045200D03*
X141410600Y-111545200D03*
X136410600Y-111545200D03*
X136410600Y-111045200D03*
X136410600Y-110545200D03*
X136410600Y-110045200D03*
X136410600Y-109545200D03*
D29*
X137045600Y-91492200D03*
D30*
X133545600Y-83692200D03*
X140645600Y-82692200D03*
D31*
X133445600Y-88192200D03*
X140745600Y-89192200D03*
D32*
G36*
X150196813Y-126946402D02*
G01*
X150241195Y-126952985D01*
X150284718Y-126963887D01*
X150326963Y-126979002D01*
X150367523Y-126998186D01*
X150406007Y-127021252D01*
X150442045Y-127047980D01*
X150475289Y-127078111D01*
X150505420Y-127111355D01*
X150532148Y-127147393D01*
X150555214Y-127185877D01*
X150574398Y-127226437D01*
X150589513Y-127268682D01*
X150600415Y-127312205D01*
X150606998Y-127356587D01*
X150609200Y-127401400D01*
X150609200Y-127503000D01*
X150606998Y-127547813D01*
X150600415Y-127592195D01*
X150589513Y-127635718D01*
X150574398Y-127677963D01*
X150555214Y-127718523D01*
X150532148Y-127757007D01*
X150505420Y-127793045D01*
X150475289Y-127826289D01*
X150442045Y-127856420D01*
X150406007Y-127883148D01*
X150367523Y-127906214D01*
X150326963Y-127925398D01*
X150284718Y-127940513D01*
X150241195Y-127951415D01*
X150196813Y-127957998D01*
X150152000Y-127960200D01*
X147510400Y-127960200D01*
X147465587Y-127957998D01*
X147421205Y-127951415D01*
X147377682Y-127940513D01*
X147335437Y-127925398D01*
X147294877Y-127906214D01*
X147256393Y-127883148D01*
X147220355Y-127856420D01*
X147187111Y-127826289D01*
X147156980Y-127793045D01*
X147130252Y-127757007D01*
X147107186Y-127718523D01*
X147088002Y-127677963D01*
X147072887Y-127635718D01*
X147061985Y-127592195D01*
X147055402Y-127547813D01*
X147053200Y-127503000D01*
X147053200Y-127401400D01*
X147055402Y-127356587D01*
X147061985Y-127312205D01*
X147072887Y-127268682D01*
X147088002Y-127226437D01*
X147107186Y-127185877D01*
X147130252Y-127147393D01*
X147156980Y-127111355D01*
X147187111Y-127078111D01*
X147220355Y-127047980D01*
X147256393Y-127021252D01*
X147294877Y-126998186D01*
X147335437Y-126979002D01*
X147377682Y-126963887D01*
X147421205Y-126952985D01*
X147465587Y-126946402D01*
X147510400Y-126944200D01*
X150152000Y-126944200D01*
X150196813Y-126946402D01*
X150196813Y-126946402D01*
G37*
D33*
X148831200Y-127452200D03*
D32*
G36*
X150196813Y-125676402D02*
G01*
X150241195Y-125682985D01*
X150284718Y-125693887D01*
X150326963Y-125709002D01*
X150367523Y-125728186D01*
X150406007Y-125751252D01*
X150442045Y-125777980D01*
X150475289Y-125808111D01*
X150505420Y-125841355D01*
X150532148Y-125877393D01*
X150555214Y-125915877D01*
X150574398Y-125956437D01*
X150589513Y-125998682D01*
X150600415Y-126042205D01*
X150606998Y-126086587D01*
X150609200Y-126131400D01*
X150609200Y-126233000D01*
X150606998Y-126277813D01*
X150600415Y-126322195D01*
X150589513Y-126365718D01*
X150574398Y-126407963D01*
X150555214Y-126448523D01*
X150532148Y-126487007D01*
X150505420Y-126523045D01*
X150475289Y-126556289D01*
X150442045Y-126586420D01*
X150406007Y-126613148D01*
X150367523Y-126636214D01*
X150326963Y-126655398D01*
X150284718Y-126670513D01*
X150241195Y-126681415D01*
X150196813Y-126687998D01*
X150152000Y-126690200D01*
X147510400Y-126690200D01*
X147465587Y-126687998D01*
X147421205Y-126681415D01*
X147377682Y-126670513D01*
X147335437Y-126655398D01*
X147294877Y-126636214D01*
X147256393Y-126613148D01*
X147220355Y-126586420D01*
X147187111Y-126556289D01*
X147156980Y-126523045D01*
X147130252Y-126487007D01*
X147107186Y-126448523D01*
X147088002Y-126407963D01*
X147072887Y-126365718D01*
X147061985Y-126322195D01*
X147055402Y-126277813D01*
X147053200Y-126233000D01*
X147053200Y-126131400D01*
X147055402Y-126086587D01*
X147061985Y-126042205D01*
X147072887Y-125998682D01*
X147088002Y-125956437D01*
X147107186Y-125915877D01*
X147130252Y-125877393D01*
X147156980Y-125841355D01*
X147187111Y-125808111D01*
X147220355Y-125777980D01*
X147256393Y-125751252D01*
X147294877Y-125728186D01*
X147335437Y-125709002D01*
X147377682Y-125693887D01*
X147421205Y-125682985D01*
X147465587Y-125676402D01*
X147510400Y-125674200D01*
X150152000Y-125674200D01*
X150196813Y-125676402D01*
X150196813Y-125676402D01*
G37*
D33*
X148831200Y-126182200D03*
D32*
G36*
X150196813Y-124406402D02*
G01*
X150241195Y-124412985D01*
X150284718Y-124423887D01*
X150326963Y-124439002D01*
X150367523Y-124458186D01*
X150406007Y-124481252D01*
X150442045Y-124507980D01*
X150475289Y-124538111D01*
X150505420Y-124571355D01*
X150532148Y-124607393D01*
X150555214Y-124645877D01*
X150574398Y-124686437D01*
X150589513Y-124728682D01*
X150600415Y-124772205D01*
X150606998Y-124816587D01*
X150609200Y-124861400D01*
X150609200Y-124963000D01*
X150606998Y-125007813D01*
X150600415Y-125052195D01*
X150589513Y-125095718D01*
X150574398Y-125137963D01*
X150555214Y-125178523D01*
X150532148Y-125217007D01*
X150505420Y-125253045D01*
X150475289Y-125286289D01*
X150442045Y-125316420D01*
X150406007Y-125343148D01*
X150367523Y-125366214D01*
X150326963Y-125385398D01*
X150284718Y-125400513D01*
X150241195Y-125411415D01*
X150196813Y-125417998D01*
X150152000Y-125420200D01*
X147510400Y-125420200D01*
X147465587Y-125417998D01*
X147421205Y-125411415D01*
X147377682Y-125400513D01*
X147335437Y-125385398D01*
X147294877Y-125366214D01*
X147256393Y-125343148D01*
X147220355Y-125316420D01*
X147187111Y-125286289D01*
X147156980Y-125253045D01*
X147130252Y-125217007D01*
X147107186Y-125178523D01*
X147088002Y-125137963D01*
X147072887Y-125095718D01*
X147061985Y-125052195D01*
X147055402Y-125007813D01*
X147053200Y-124963000D01*
X147053200Y-124861400D01*
X147055402Y-124816587D01*
X147061985Y-124772205D01*
X147072887Y-124728682D01*
X147088002Y-124686437D01*
X147107186Y-124645877D01*
X147130252Y-124607393D01*
X147156980Y-124571355D01*
X147187111Y-124538111D01*
X147220355Y-124507980D01*
X147256393Y-124481252D01*
X147294877Y-124458186D01*
X147335437Y-124439002D01*
X147377682Y-124423887D01*
X147421205Y-124412985D01*
X147465587Y-124406402D01*
X147510400Y-124404200D01*
X150152000Y-124404200D01*
X150196813Y-124406402D01*
X150196813Y-124406402D01*
G37*
D33*
X148831200Y-124912200D03*
D32*
G36*
X150196813Y-123136402D02*
G01*
X150241195Y-123142985D01*
X150284718Y-123153887D01*
X150326963Y-123169002D01*
X150367523Y-123188186D01*
X150406007Y-123211252D01*
X150442045Y-123237980D01*
X150475289Y-123268111D01*
X150505420Y-123301355D01*
X150532148Y-123337393D01*
X150555214Y-123375877D01*
X150574398Y-123416437D01*
X150589513Y-123458682D01*
X150600415Y-123502205D01*
X150606998Y-123546587D01*
X150609200Y-123591400D01*
X150609200Y-123693000D01*
X150606998Y-123737813D01*
X150600415Y-123782195D01*
X150589513Y-123825718D01*
X150574398Y-123867963D01*
X150555214Y-123908523D01*
X150532148Y-123947007D01*
X150505420Y-123983045D01*
X150475289Y-124016289D01*
X150442045Y-124046420D01*
X150406007Y-124073148D01*
X150367523Y-124096214D01*
X150326963Y-124115398D01*
X150284718Y-124130513D01*
X150241195Y-124141415D01*
X150196813Y-124147998D01*
X150152000Y-124150200D01*
X147510400Y-124150200D01*
X147465587Y-124147998D01*
X147421205Y-124141415D01*
X147377682Y-124130513D01*
X147335437Y-124115398D01*
X147294877Y-124096214D01*
X147256393Y-124073148D01*
X147220355Y-124046420D01*
X147187111Y-124016289D01*
X147156980Y-123983045D01*
X147130252Y-123947007D01*
X147107186Y-123908523D01*
X147088002Y-123867963D01*
X147072887Y-123825718D01*
X147061985Y-123782195D01*
X147055402Y-123737813D01*
X147053200Y-123693000D01*
X147053200Y-123591400D01*
X147055402Y-123546587D01*
X147061985Y-123502205D01*
X147072887Y-123458682D01*
X147088002Y-123416437D01*
X147107186Y-123375877D01*
X147130252Y-123337393D01*
X147156980Y-123301355D01*
X147187111Y-123268111D01*
X147220355Y-123237980D01*
X147256393Y-123211252D01*
X147294877Y-123188186D01*
X147335437Y-123169002D01*
X147377682Y-123153887D01*
X147421205Y-123142985D01*
X147465587Y-123136402D01*
X147510400Y-123134200D01*
X150152000Y-123134200D01*
X150196813Y-123136402D01*
X150196813Y-123136402D01*
G37*
D33*
X148831200Y-123642200D03*
D32*
G36*
X150196813Y-121866402D02*
G01*
X150241195Y-121872985D01*
X150284718Y-121883887D01*
X150326963Y-121899002D01*
X150367523Y-121918186D01*
X150406007Y-121941252D01*
X150442045Y-121967980D01*
X150475289Y-121998111D01*
X150505420Y-122031355D01*
X150532148Y-122067393D01*
X150555214Y-122105877D01*
X150574398Y-122146437D01*
X150589513Y-122188682D01*
X150600415Y-122232205D01*
X150606998Y-122276587D01*
X150609200Y-122321400D01*
X150609200Y-122423000D01*
X150606998Y-122467813D01*
X150600415Y-122512195D01*
X150589513Y-122555718D01*
X150574398Y-122597963D01*
X150555214Y-122638523D01*
X150532148Y-122677007D01*
X150505420Y-122713045D01*
X150475289Y-122746289D01*
X150442045Y-122776420D01*
X150406007Y-122803148D01*
X150367523Y-122826214D01*
X150326963Y-122845398D01*
X150284718Y-122860513D01*
X150241195Y-122871415D01*
X150196813Y-122877998D01*
X150152000Y-122880200D01*
X147510400Y-122880200D01*
X147465587Y-122877998D01*
X147421205Y-122871415D01*
X147377682Y-122860513D01*
X147335437Y-122845398D01*
X147294877Y-122826214D01*
X147256393Y-122803148D01*
X147220355Y-122776420D01*
X147187111Y-122746289D01*
X147156980Y-122713045D01*
X147130252Y-122677007D01*
X147107186Y-122638523D01*
X147088002Y-122597963D01*
X147072887Y-122555718D01*
X147061985Y-122512195D01*
X147055402Y-122467813D01*
X147053200Y-122423000D01*
X147053200Y-122321400D01*
X147055402Y-122276587D01*
X147061985Y-122232205D01*
X147072887Y-122188682D01*
X147088002Y-122146437D01*
X147107186Y-122105877D01*
X147130252Y-122067393D01*
X147156980Y-122031355D01*
X147187111Y-121998111D01*
X147220355Y-121967980D01*
X147256393Y-121941252D01*
X147294877Y-121918186D01*
X147335437Y-121899002D01*
X147377682Y-121883887D01*
X147421205Y-121872985D01*
X147465587Y-121866402D01*
X147510400Y-121864200D01*
X150152000Y-121864200D01*
X150196813Y-121866402D01*
X150196813Y-121866402D01*
G37*
D33*
X148831200Y-122372200D03*
D32*
G36*
X150196813Y-120596402D02*
G01*
X150241195Y-120602985D01*
X150284718Y-120613887D01*
X150326963Y-120629002D01*
X150367523Y-120648186D01*
X150406007Y-120671252D01*
X150442045Y-120697980D01*
X150475289Y-120728111D01*
X150505420Y-120761355D01*
X150532148Y-120797393D01*
X150555214Y-120835877D01*
X150574398Y-120876437D01*
X150589513Y-120918682D01*
X150600415Y-120962205D01*
X150606998Y-121006587D01*
X150609200Y-121051400D01*
X150609200Y-121153000D01*
X150606998Y-121197813D01*
X150600415Y-121242195D01*
X150589513Y-121285718D01*
X150574398Y-121327963D01*
X150555214Y-121368523D01*
X150532148Y-121407007D01*
X150505420Y-121443045D01*
X150475289Y-121476289D01*
X150442045Y-121506420D01*
X150406007Y-121533148D01*
X150367523Y-121556214D01*
X150326963Y-121575398D01*
X150284718Y-121590513D01*
X150241195Y-121601415D01*
X150196813Y-121607998D01*
X150152000Y-121610200D01*
X147510400Y-121610200D01*
X147465587Y-121607998D01*
X147421205Y-121601415D01*
X147377682Y-121590513D01*
X147335437Y-121575398D01*
X147294877Y-121556214D01*
X147256393Y-121533148D01*
X147220355Y-121506420D01*
X147187111Y-121476289D01*
X147156980Y-121443045D01*
X147130252Y-121407007D01*
X147107186Y-121368523D01*
X147088002Y-121327963D01*
X147072887Y-121285718D01*
X147061985Y-121242195D01*
X147055402Y-121197813D01*
X147053200Y-121153000D01*
X147053200Y-121051400D01*
X147055402Y-121006587D01*
X147061985Y-120962205D01*
X147072887Y-120918682D01*
X147088002Y-120876437D01*
X147107186Y-120835877D01*
X147130252Y-120797393D01*
X147156980Y-120761355D01*
X147187111Y-120728111D01*
X147220355Y-120697980D01*
X147256393Y-120671252D01*
X147294877Y-120648186D01*
X147335437Y-120629002D01*
X147377682Y-120613887D01*
X147421205Y-120602985D01*
X147465587Y-120596402D01*
X147510400Y-120594200D01*
X150152000Y-120594200D01*
X150196813Y-120596402D01*
X150196813Y-120596402D01*
G37*
D33*
X148831200Y-121102200D03*
D32*
G36*
X150196813Y-119326402D02*
G01*
X150241195Y-119332985D01*
X150284718Y-119343887D01*
X150326963Y-119359002D01*
X150367523Y-119378186D01*
X150406007Y-119401252D01*
X150442045Y-119427980D01*
X150475289Y-119458111D01*
X150505420Y-119491355D01*
X150532148Y-119527393D01*
X150555214Y-119565877D01*
X150574398Y-119606437D01*
X150589513Y-119648682D01*
X150600415Y-119692205D01*
X150606998Y-119736587D01*
X150609200Y-119781400D01*
X150609200Y-119883000D01*
X150606998Y-119927813D01*
X150600415Y-119972195D01*
X150589513Y-120015718D01*
X150574398Y-120057963D01*
X150555214Y-120098523D01*
X150532148Y-120137007D01*
X150505420Y-120173045D01*
X150475289Y-120206289D01*
X150442045Y-120236420D01*
X150406007Y-120263148D01*
X150367523Y-120286214D01*
X150326963Y-120305398D01*
X150284718Y-120320513D01*
X150241195Y-120331415D01*
X150196813Y-120337998D01*
X150152000Y-120340200D01*
X147510400Y-120340200D01*
X147465587Y-120337998D01*
X147421205Y-120331415D01*
X147377682Y-120320513D01*
X147335437Y-120305398D01*
X147294877Y-120286214D01*
X147256393Y-120263148D01*
X147220355Y-120236420D01*
X147187111Y-120206289D01*
X147156980Y-120173045D01*
X147130252Y-120137007D01*
X147107186Y-120098523D01*
X147088002Y-120057963D01*
X147072887Y-120015718D01*
X147061985Y-119972195D01*
X147055402Y-119927813D01*
X147053200Y-119883000D01*
X147053200Y-119781400D01*
X147055402Y-119736587D01*
X147061985Y-119692205D01*
X147072887Y-119648682D01*
X147088002Y-119606437D01*
X147107186Y-119565877D01*
X147130252Y-119527393D01*
X147156980Y-119491355D01*
X147187111Y-119458111D01*
X147220355Y-119427980D01*
X147256393Y-119401252D01*
X147294877Y-119378186D01*
X147335437Y-119359002D01*
X147377682Y-119343887D01*
X147421205Y-119332985D01*
X147465587Y-119326402D01*
X147510400Y-119324200D01*
X150152000Y-119324200D01*
X150196813Y-119326402D01*
X150196813Y-119326402D01*
G37*
D33*
X148831200Y-119832200D03*
D32*
G36*
X150196813Y-118056402D02*
G01*
X150241195Y-118062985D01*
X150284718Y-118073887D01*
X150326963Y-118089002D01*
X150367523Y-118108186D01*
X150406007Y-118131252D01*
X150442045Y-118157980D01*
X150475289Y-118188111D01*
X150505420Y-118221355D01*
X150532148Y-118257393D01*
X150555214Y-118295877D01*
X150574398Y-118336437D01*
X150589513Y-118378682D01*
X150600415Y-118422205D01*
X150606998Y-118466587D01*
X150609200Y-118511400D01*
X150609200Y-118613000D01*
X150606998Y-118657813D01*
X150600415Y-118702195D01*
X150589513Y-118745718D01*
X150574398Y-118787963D01*
X150555214Y-118828523D01*
X150532148Y-118867007D01*
X150505420Y-118903045D01*
X150475289Y-118936289D01*
X150442045Y-118966420D01*
X150406007Y-118993148D01*
X150367523Y-119016214D01*
X150326963Y-119035398D01*
X150284718Y-119050513D01*
X150241195Y-119061415D01*
X150196813Y-119067998D01*
X150152000Y-119070200D01*
X147510400Y-119070200D01*
X147465587Y-119067998D01*
X147421205Y-119061415D01*
X147377682Y-119050513D01*
X147335437Y-119035398D01*
X147294877Y-119016214D01*
X147256393Y-118993148D01*
X147220355Y-118966420D01*
X147187111Y-118936289D01*
X147156980Y-118903045D01*
X147130252Y-118867007D01*
X147107186Y-118828523D01*
X147088002Y-118787963D01*
X147072887Y-118745718D01*
X147061985Y-118702195D01*
X147055402Y-118657813D01*
X147053200Y-118613000D01*
X147053200Y-118511400D01*
X147055402Y-118466587D01*
X147061985Y-118422205D01*
X147072887Y-118378682D01*
X147088002Y-118336437D01*
X147107186Y-118295877D01*
X147130252Y-118257393D01*
X147156980Y-118221355D01*
X147187111Y-118188111D01*
X147220355Y-118157980D01*
X147256393Y-118131252D01*
X147294877Y-118108186D01*
X147335437Y-118089002D01*
X147377682Y-118073887D01*
X147421205Y-118062985D01*
X147465587Y-118056402D01*
X147510400Y-118054200D01*
X150152000Y-118054200D01*
X150196813Y-118056402D01*
X150196813Y-118056402D01*
G37*
D33*
X148831200Y-118562200D03*
D32*
G36*
X150196813Y-116786402D02*
G01*
X150241195Y-116792985D01*
X150284718Y-116803887D01*
X150326963Y-116819002D01*
X150367523Y-116838186D01*
X150406007Y-116861252D01*
X150442045Y-116887980D01*
X150475289Y-116918111D01*
X150505420Y-116951355D01*
X150532148Y-116987393D01*
X150555214Y-117025877D01*
X150574398Y-117066437D01*
X150589513Y-117108682D01*
X150600415Y-117152205D01*
X150606998Y-117196587D01*
X150609200Y-117241400D01*
X150609200Y-117343000D01*
X150606998Y-117387813D01*
X150600415Y-117432195D01*
X150589513Y-117475718D01*
X150574398Y-117517963D01*
X150555214Y-117558523D01*
X150532148Y-117597007D01*
X150505420Y-117633045D01*
X150475289Y-117666289D01*
X150442045Y-117696420D01*
X150406007Y-117723148D01*
X150367523Y-117746214D01*
X150326963Y-117765398D01*
X150284718Y-117780513D01*
X150241195Y-117791415D01*
X150196813Y-117797998D01*
X150152000Y-117800200D01*
X147510400Y-117800200D01*
X147465587Y-117797998D01*
X147421205Y-117791415D01*
X147377682Y-117780513D01*
X147335437Y-117765398D01*
X147294877Y-117746214D01*
X147256393Y-117723148D01*
X147220355Y-117696420D01*
X147187111Y-117666289D01*
X147156980Y-117633045D01*
X147130252Y-117597007D01*
X147107186Y-117558523D01*
X147088002Y-117517963D01*
X147072887Y-117475718D01*
X147061985Y-117432195D01*
X147055402Y-117387813D01*
X147053200Y-117343000D01*
X147053200Y-117241400D01*
X147055402Y-117196587D01*
X147061985Y-117152205D01*
X147072887Y-117108682D01*
X147088002Y-117066437D01*
X147107186Y-117025877D01*
X147130252Y-116987393D01*
X147156980Y-116951355D01*
X147187111Y-116918111D01*
X147220355Y-116887980D01*
X147256393Y-116861252D01*
X147294877Y-116838186D01*
X147335437Y-116819002D01*
X147377682Y-116803887D01*
X147421205Y-116792985D01*
X147465587Y-116786402D01*
X147510400Y-116784200D01*
X150152000Y-116784200D01*
X150196813Y-116786402D01*
X150196813Y-116786402D01*
G37*
D33*
X148831200Y-117292200D03*
D32*
G36*
X150196813Y-115516402D02*
G01*
X150241195Y-115522985D01*
X150284718Y-115533887D01*
X150326963Y-115549002D01*
X150367523Y-115568186D01*
X150406007Y-115591252D01*
X150442045Y-115617980D01*
X150475289Y-115648111D01*
X150505420Y-115681355D01*
X150532148Y-115717393D01*
X150555214Y-115755877D01*
X150574398Y-115796437D01*
X150589513Y-115838682D01*
X150600415Y-115882205D01*
X150606998Y-115926587D01*
X150609200Y-115971400D01*
X150609200Y-116073000D01*
X150606998Y-116117813D01*
X150600415Y-116162195D01*
X150589513Y-116205718D01*
X150574398Y-116247963D01*
X150555214Y-116288523D01*
X150532148Y-116327007D01*
X150505420Y-116363045D01*
X150475289Y-116396289D01*
X150442045Y-116426420D01*
X150406007Y-116453148D01*
X150367523Y-116476214D01*
X150326963Y-116495398D01*
X150284718Y-116510513D01*
X150241195Y-116521415D01*
X150196813Y-116527998D01*
X150152000Y-116530200D01*
X147510400Y-116530200D01*
X147465587Y-116527998D01*
X147421205Y-116521415D01*
X147377682Y-116510513D01*
X147335437Y-116495398D01*
X147294877Y-116476214D01*
X147256393Y-116453148D01*
X147220355Y-116426420D01*
X147187111Y-116396289D01*
X147156980Y-116363045D01*
X147130252Y-116327007D01*
X147107186Y-116288523D01*
X147088002Y-116247963D01*
X147072887Y-116205718D01*
X147061985Y-116162195D01*
X147055402Y-116117813D01*
X147053200Y-116073000D01*
X147053200Y-115971400D01*
X147055402Y-115926587D01*
X147061985Y-115882205D01*
X147072887Y-115838682D01*
X147088002Y-115796437D01*
X147107186Y-115755877D01*
X147130252Y-115717393D01*
X147156980Y-115681355D01*
X147187111Y-115648111D01*
X147220355Y-115617980D01*
X147256393Y-115591252D01*
X147294877Y-115568186D01*
X147335437Y-115549002D01*
X147377682Y-115533887D01*
X147421205Y-115522985D01*
X147465587Y-115516402D01*
X147510400Y-115514200D01*
X150152000Y-115514200D01*
X150196813Y-115516402D01*
X150196813Y-115516402D01*
G37*
D33*
X148831200Y-116022200D03*
D32*
G36*
X150196813Y-114246402D02*
G01*
X150241195Y-114252985D01*
X150284718Y-114263887D01*
X150326963Y-114279002D01*
X150367523Y-114298186D01*
X150406007Y-114321252D01*
X150442045Y-114347980D01*
X150475289Y-114378111D01*
X150505420Y-114411355D01*
X150532148Y-114447393D01*
X150555214Y-114485877D01*
X150574398Y-114526437D01*
X150589513Y-114568682D01*
X150600415Y-114612205D01*
X150606998Y-114656587D01*
X150609200Y-114701400D01*
X150609200Y-114803000D01*
X150606998Y-114847813D01*
X150600415Y-114892195D01*
X150589513Y-114935718D01*
X150574398Y-114977963D01*
X150555214Y-115018523D01*
X150532148Y-115057007D01*
X150505420Y-115093045D01*
X150475289Y-115126289D01*
X150442045Y-115156420D01*
X150406007Y-115183148D01*
X150367523Y-115206214D01*
X150326963Y-115225398D01*
X150284718Y-115240513D01*
X150241195Y-115251415D01*
X150196813Y-115257998D01*
X150152000Y-115260200D01*
X147510400Y-115260200D01*
X147465587Y-115257998D01*
X147421205Y-115251415D01*
X147377682Y-115240513D01*
X147335437Y-115225398D01*
X147294877Y-115206214D01*
X147256393Y-115183148D01*
X147220355Y-115156420D01*
X147187111Y-115126289D01*
X147156980Y-115093045D01*
X147130252Y-115057007D01*
X147107186Y-115018523D01*
X147088002Y-114977963D01*
X147072887Y-114935718D01*
X147061985Y-114892195D01*
X147055402Y-114847813D01*
X147053200Y-114803000D01*
X147053200Y-114701400D01*
X147055402Y-114656587D01*
X147061985Y-114612205D01*
X147072887Y-114568682D01*
X147088002Y-114526437D01*
X147107186Y-114485877D01*
X147130252Y-114447393D01*
X147156980Y-114411355D01*
X147187111Y-114378111D01*
X147220355Y-114347980D01*
X147256393Y-114321252D01*
X147294877Y-114298186D01*
X147335437Y-114279002D01*
X147377682Y-114263887D01*
X147421205Y-114252985D01*
X147465587Y-114246402D01*
X147510400Y-114244200D01*
X150152000Y-114244200D01*
X150196813Y-114246402D01*
X150196813Y-114246402D01*
G37*
D33*
X148831200Y-114752200D03*
D32*
G36*
X136785613Y-123136402D02*
G01*
X136829995Y-123142985D01*
X136873518Y-123153887D01*
X136915763Y-123169002D01*
X136956323Y-123188186D01*
X136994807Y-123211252D01*
X137030845Y-123237980D01*
X137064089Y-123268111D01*
X137094220Y-123301355D01*
X137120948Y-123337393D01*
X137144014Y-123375877D01*
X137163198Y-123416437D01*
X137178313Y-123458682D01*
X137189215Y-123502205D01*
X137195798Y-123546587D01*
X137198000Y-123591400D01*
X137198000Y-123693000D01*
X137195798Y-123737813D01*
X137189215Y-123782195D01*
X137178313Y-123825718D01*
X137163198Y-123867963D01*
X137144014Y-123908523D01*
X137120948Y-123947007D01*
X137094220Y-123983045D01*
X137064089Y-124016289D01*
X137030845Y-124046420D01*
X136994807Y-124073148D01*
X136956323Y-124096214D01*
X136915763Y-124115398D01*
X136873518Y-124130513D01*
X136829995Y-124141415D01*
X136785613Y-124147998D01*
X136740800Y-124150200D01*
X134099200Y-124150200D01*
X134054387Y-124147998D01*
X134010005Y-124141415D01*
X133966482Y-124130513D01*
X133924237Y-124115398D01*
X133883677Y-124096214D01*
X133845193Y-124073148D01*
X133809155Y-124046420D01*
X133775911Y-124016289D01*
X133745780Y-123983045D01*
X133719052Y-123947007D01*
X133695986Y-123908523D01*
X133676802Y-123867963D01*
X133661687Y-123825718D01*
X133650785Y-123782195D01*
X133644202Y-123737813D01*
X133642000Y-123693000D01*
X133642000Y-123591400D01*
X133644202Y-123546587D01*
X133650785Y-123502205D01*
X133661687Y-123458682D01*
X133676802Y-123416437D01*
X133695986Y-123375877D01*
X133719052Y-123337393D01*
X133745780Y-123301355D01*
X133775911Y-123268111D01*
X133809155Y-123237980D01*
X133845193Y-123211252D01*
X133883677Y-123188186D01*
X133924237Y-123169002D01*
X133966482Y-123153887D01*
X134010005Y-123142985D01*
X134054387Y-123136402D01*
X134099200Y-123134200D01*
X136740800Y-123134200D01*
X136785613Y-123136402D01*
X136785613Y-123136402D01*
G37*
D33*
X135420000Y-123642200D03*
D32*
G36*
X136785613Y-121866402D02*
G01*
X136829995Y-121872985D01*
X136873518Y-121883887D01*
X136915763Y-121899002D01*
X136956323Y-121918186D01*
X136994807Y-121941252D01*
X137030845Y-121967980D01*
X137064089Y-121998111D01*
X137094220Y-122031355D01*
X137120948Y-122067393D01*
X137144014Y-122105877D01*
X137163198Y-122146437D01*
X137178313Y-122188682D01*
X137189215Y-122232205D01*
X137195798Y-122276587D01*
X137198000Y-122321400D01*
X137198000Y-122423000D01*
X137195798Y-122467813D01*
X137189215Y-122512195D01*
X137178313Y-122555718D01*
X137163198Y-122597963D01*
X137144014Y-122638523D01*
X137120948Y-122677007D01*
X137094220Y-122713045D01*
X137064089Y-122746289D01*
X137030845Y-122776420D01*
X136994807Y-122803148D01*
X136956323Y-122826214D01*
X136915763Y-122845398D01*
X136873518Y-122860513D01*
X136829995Y-122871415D01*
X136785613Y-122877998D01*
X136740800Y-122880200D01*
X134099200Y-122880200D01*
X134054387Y-122877998D01*
X134010005Y-122871415D01*
X133966482Y-122860513D01*
X133924237Y-122845398D01*
X133883677Y-122826214D01*
X133845193Y-122803148D01*
X133809155Y-122776420D01*
X133775911Y-122746289D01*
X133745780Y-122713045D01*
X133719052Y-122677007D01*
X133695986Y-122638523D01*
X133676802Y-122597963D01*
X133661687Y-122555718D01*
X133650785Y-122512195D01*
X133644202Y-122467813D01*
X133642000Y-122423000D01*
X133642000Y-122321400D01*
X133644202Y-122276587D01*
X133650785Y-122232205D01*
X133661687Y-122188682D01*
X133676802Y-122146437D01*
X133695986Y-122105877D01*
X133719052Y-122067393D01*
X133745780Y-122031355D01*
X133775911Y-121998111D01*
X133809155Y-121967980D01*
X133845193Y-121941252D01*
X133883677Y-121918186D01*
X133924237Y-121899002D01*
X133966482Y-121883887D01*
X134010005Y-121872985D01*
X134054387Y-121866402D01*
X134099200Y-121864200D01*
X136740800Y-121864200D01*
X136785613Y-121866402D01*
X136785613Y-121866402D01*
G37*
D33*
X135420000Y-122372200D03*
D32*
G36*
X136785613Y-120596402D02*
G01*
X136829995Y-120602985D01*
X136873518Y-120613887D01*
X136915763Y-120629002D01*
X136956323Y-120648186D01*
X136994807Y-120671252D01*
X137030845Y-120697980D01*
X137064089Y-120728111D01*
X137094220Y-120761355D01*
X137120948Y-120797393D01*
X137144014Y-120835877D01*
X137163198Y-120876437D01*
X137178313Y-120918682D01*
X137189215Y-120962205D01*
X137195798Y-121006587D01*
X137198000Y-121051400D01*
X137198000Y-121153000D01*
X137195798Y-121197813D01*
X137189215Y-121242195D01*
X137178313Y-121285718D01*
X137163198Y-121327963D01*
X137144014Y-121368523D01*
X137120948Y-121407007D01*
X137094220Y-121443045D01*
X137064089Y-121476289D01*
X137030845Y-121506420D01*
X136994807Y-121533148D01*
X136956323Y-121556214D01*
X136915763Y-121575398D01*
X136873518Y-121590513D01*
X136829995Y-121601415D01*
X136785613Y-121607998D01*
X136740800Y-121610200D01*
X134099200Y-121610200D01*
X134054387Y-121607998D01*
X134010005Y-121601415D01*
X133966482Y-121590513D01*
X133924237Y-121575398D01*
X133883677Y-121556214D01*
X133845193Y-121533148D01*
X133809155Y-121506420D01*
X133775911Y-121476289D01*
X133745780Y-121443045D01*
X133719052Y-121407007D01*
X133695986Y-121368523D01*
X133676802Y-121327963D01*
X133661687Y-121285718D01*
X133650785Y-121242195D01*
X133644202Y-121197813D01*
X133642000Y-121153000D01*
X133642000Y-121051400D01*
X133644202Y-121006587D01*
X133650785Y-120962205D01*
X133661687Y-120918682D01*
X133676802Y-120876437D01*
X133695986Y-120835877D01*
X133719052Y-120797393D01*
X133745780Y-120761355D01*
X133775911Y-120728111D01*
X133809155Y-120697980D01*
X133845193Y-120671252D01*
X133883677Y-120648186D01*
X133924237Y-120629002D01*
X133966482Y-120613887D01*
X134010005Y-120602985D01*
X134054387Y-120596402D01*
X134099200Y-120594200D01*
X136740800Y-120594200D01*
X136785613Y-120596402D01*
X136785613Y-120596402D01*
G37*
D33*
X135420000Y-121102200D03*
D32*
G36*
X136785613Y-119326402D02*
G01*
X136829995Y-119332985D01*
X136873518Y-119343887D01*
X136915763Y-119359002D01*
X136956323Y-119378186D01*
X136994807Y-119401252D01*
X137030845Y-119427980D01*
X137064089Y-119458111D01*
X137094220Y-119491355D01*
X137120948Y-119527393D01*
X137144014Y-119565877D01*
X137163198Y-119606437D01*
X137178313Y-119648682D01*
X137189215Y-119692205D01*
X137195798Y-119736587D01*
X137198000Y-119781400D01*
X137198000Y-119883000D01*
X137195798Y-119927813D01*
X137189215Y-119972195D01*
X137178313Y-120015718D01*
X137163198Y-120057963D01*
X137144014Y-120098523D01*
X137120948Y-120137007D01*
X137094220Y-120173045D01*
X137064089Y-120206289D01*
X137030845Y-120236420D01*
X136994807Y-120263148D01*
X136956323Y-120286214D01*
X136915763Y-120305398D01*
X136873518Y-120320513D01*
X136829995Y-120331415D01*
X136785613Y-120337998D01*
X136740800Y-120340200D01*
X134099200Y-120340200D01*
X134054387Y-120337998D01*
X134010005Y-120331415D01*
X133966482Y-120320513D01*
X133924237Y-120305398D01*
X133883677Y-120286214D01*
X133845193Y-120263148D01*
X133809155Y-120236420D01*
X133775911Y-120206289D01*
X133745780Y-120173045D01*
X133719052Y-120137007D01*
X133695986Y-120098523D01*
X133676802Y-120057963D01*
X133661687Y-120015718D01*
X133650785Y-119972195D01*
X133644202Y-119927813D01*
X133642000Y-119883000D01*
X133642000Y-119781400D01*
X133644202Y-119736587D01*
X133650785Y-119692205D01*
X133661687Y-119648682D01*
X133676802Y-119606437D01*
X133695986Y-119565877D01*
X133719052Y-119527393D01*
X133745780Y-119491355D01*
X133775911Y-119458111D01*
X133809155Y-119427980D01*
X133845193Y-119401252D01*
X133883677Y-119378186D01*
X133924237Y-119359002D01*
X133966482Y-119343887D01*
X134010005Y-119332985D01*
X134054387Y-119326402D01*
X134099200Y-119324200D01*
X136740800Y-119324200D01*
X136785613Y-119326402D01*
X136785613Y-119326402D01*
G37*
D33*
X135420000Y-119832200D03*
D32*
G36*
X136785613Y-118056402D02*
G01*
X136829995Y-118062985D01*
X136873518Y-118073887D01*
X136915763Y-118089002D01*
X136956323Y-118108186D01*
X136994807Y-118131252D01*
X137030845Y-118157980D01*
X137064089Y-118188111D01*
X137094220Y-118221355D01*
X137120948Y-118257393D01*
X137144014Y-118295877D01*
X137163198Y-118336437D01*
X137178313Y-118378682D01*
X137189215Y-118422205D01*
X137195798Y-118466587D01*
X137198000Y-118511400D01*
X137198000Y-118613000D01*
X137195798Y-118657813D01*
X137189215Y-118702195D01*
X137178313Y-118745718D01*
X137163198Y-118787963D01*
X137144014Y-118828523D01*
X137120948Y-118867007D01*
X137094220Y-118903045D01*
X137064089Y-118936289D01*
X137030845Y-118966420D01*
X136994807Y-118993148D01*
X136956323Y-119016214D01*
X136915763Y-119035398D01*
X136873518Y-119050513D01*
X136829995Y-119061415D01*
X136785613Y-119067998D01*
X136740800Y-119070200D01*
X134099200Y-119070200D01*
X134054387Y-119067998D01*
X134010005Y-119061415D01*
X133966482Y-119050513D01*
X133924237Y-119035398D01*
X133883677Y-119016214D01*
X133845193Y-118993148D01*
X133809155Y-118966420D01*
X133775911Y-118936289D01*
X133745780Y-118903045D01*
X133719052Y-118867007D01*
X133695986Y-118828523D01*
X133676802Y-118787963D01*
X133661687Y-118745718D01*
X133650785Y-118702195D01*
X133644202Y-118657813D01*
X133642000Y-118613000D01*
X133642000Y-118511400D01*
X133644202Y-118466587D01*
X133650785Y-118422205D01*
X133661687Y-118378682D01*
X133676802Y-118336437D01*
X133695986Y-118295877D01*
X133719052Y-118257393D01*
X133745780Y-118221355D01*
X133775911Y-118188111D01*
X133809155Y-118157980D01*
X133845193Y-118131252D01*
X133883677Y-118108186D01*
X133924237Y-118089002D01*
X133966482Y-118073887D01*
X134010005Y-118062985D01*
X134054387Y-118056402D01*
X134099200Y-118054200D01*
X136740800Y-118054200D01*
X136785613Y-118056402D01*
X136785613Y-118056402D01*
G37*
D33*
X135420000Y-118562200D03*
D32*
G36*
X136785613Y-116786402D02*
G01*
X136829995Y-116792985D01*
X136873518Y-116803887D01*
X136915763Y-116819002D01*
X136956323Y-116838186D01*
X136994807Y-116861252D01*
X137030845Y-116887980D01*
X137064089Y-116918111D01*
X137094220Y-116951355D01*
X137120948Y-116987393D01*
X137144014Y-117025877D01*
X137163198Y-117066437D01*
X137178313Y-117108682D01*
X137189215Y-117152205D01*
X137195798Y-117196587D01*
X137198000Y-117241400D01*
X137198000Y-117343000D01*
X137195798Y-117387813D01*
X137189215Y-117432195D01*
X137178313Y-117475718D01*
X137163198Y-117517963D01*
X137144014Y-117558523D01*
X137120948Y-117597007D01*
X137094220Y-117633045D01*
X137064089Y-117666289D01*
X137030845Y-117696420D01*
X136994807Y-117723148D01*
X136956323Y-117746214D01*
X136915763Y-117765398D01*
X136873518Y-117780513D01*
X136829995Y-117791415D01*
X136785613Y-117797998D01*
X136740800Y-117800200D01*
X134099200Y-117800200D01*
X134054387Y-117797998D01*
X134010005Y-117791415D01*
X133966482Y-117780513D01*
X133924237Y-117765398D01*
X133883677Y-117746214D01*
X133845193Y-117723148D01*
X133809155Y-117696420D01*
X133775911Y-117666289D01*
X133745780Y-117633045D01*
X133719052Y-117597007D01*
X133695986Y-117558523D01*
X133676802Y-117517963D01*
X133661687Y-117475718D01*
X133650785Y-117432195D01*
X133644202Y-117387813D01*
X133642000Y-117343000D01*
X133642000Y-117241400D01*
X133644202Y-117196587D01*
X133650785Y-117152205D01*
X133661687Y-117108682D01*
X133676802Y-117066437D01*
X133695986Y-117025877D01*
X133719052Y-116987393D01*
X133745780Y-116951355D01*
X133775911Y-116918111D01*
X133809155Y-116887980D01*
X133845193Y-116861252D01*
X133883677Y-116838186D01*
X133924237Y-116819002D01*
X133966482Y-116803887D01*
X134010005Y-116792985D01*
X134054387Y-116786402D01*
X134099200Y-116784200D01*
X136740800Y-116784200D01*
X136785613Y-116786402D01*
X136785613Y-116786402D01*
G37*
D33*
X135420000Y-117292200D03*
D32*
G36*
X136785613Y-115516402D02*
G01*
X136829995Y-115522985D01*
X136873518Y-115533887D01*
X136915763Y-115549002D01*
X136956323Y-115568186D01*
X136994807Y-115591252D01*
X137030845Y-115617980D01*
X137064089Y-115648111D01*
X137094220Y-115681355D01*
X137120948Y-115717393D01*
X137144014Y-115755877D01*
X137163198Y-115796437D01*
X137178313Y-115838682D01*
X137189215Y-115882205D01*
X137195798Y-115926587D01*
X137198000Y-115971400D01*
X137198000Y-116073000D01*
X137195798Y-116117813D01*
X137189215Y-116162195D01*
X137178313Y-116205718D01*
X137163198Y-116247963D01*
X137144014Y-116288523D01*
X137120948Y-116327007D01*
X137094220Y-116363045D01*
X137064089Y-116396289D01*
X137030845Y-116426420D01*
X136994807Y-116453148D01*
X136956323Y-116476214D01*
X136915763Y-116495398D01*
X136873518Y-116510513D01*
X136829995Y-116521415D01*
X136785613Y-116527998D01*
X136740800Y-116530200D01*
X134099200Y-116530200D01*
X134054387Y-116527998D01*
X134010005Y-116521415D01*
X133966482Y-116510513D01*
X133924237Y-116495398D01*
X133883677Y-116476214D01*
X133845193Y-116453148D01*
X133809155Y-116426420D01*
X133775911Y-116396289D01*
X133745780Y-116363045D01*
X133719052Y-116327007D01*
X133695986Y-116288523D01*
X133676802Y-116247963D01*
X133661687Y-116205718D01*
X133650785Y-116162195D01*
X133644202Y-116117813D01*
X133642000Y-116073000D01*
X133642000Y-115971400D01*
X133644202Y-115926587D01*
X133650785Y-115882205D01*
X133661687Y-115838682D01*
X133676802Y-115796437D01*
X133695986Y-115755877D01*
X133719052Y-115717393D01*
X133745780Y-115681355D01*
X133775911Y-115648111D01*
X133809155Y-115617980D01*
X133845193Y-115591252D01*
X133883677Y-115568186D01*
X133924237Y-115549002D01*
X133966482Y-115533887D01*
X134010005Y-115522985D01*
X134054387Y-115516402D01*
X134099200Y-115514200D01*
X136740800Y-115514200D01*
X136785613Y-115516402D01*
X136785613Y-115516402D01*
G37*
D33*
X135420000Y-116022200D03*
D32*
G36*
X136785613Y-114246402D02*
G01*
X136829995Y-114252985D01*
X136873518Y-114263887D01*
X136915763Y-114279002D01*
X136956323Y-114298186D01*
X136994807Y-114321252D01*
X137030845Y-114347980D01*
X137064089Y-114378111D01*
X137094220Y-114411355D01*
X137120948Y-114447393D01*
X137144014Y-114485877D01*
X137163198Y-114526437D01*
X137178313Y-114568682D01*
X137189215Y-114612205D01*
X137195798Y-114656587D01*
X137198000Y-114701400D01*
X137198000Y-114803000D01*
X137195798Y-114847813D01*
X137189215Y-114892195D01*
X137178313Y-114935718D01*
X137163198Y-114977963D01*
X137144014Y-115018523D01*
X137120948Y-115057007D01*
X137094220Y-115093045D01*
X137064089Y-115126289D01*
X137030845Y-115156420D01*
X136994807Y-115183148D01*
X136956323Y-115206214D01*
X136915763Y-115225398D01*
X136873518Y-115240513D01*
X136829995Y-115251415D01*
X136785613Y-115257998D01*
X136740800Y-115260200D01*
X134099200Y-115260200D01*
X134054387Y-115257998D01*
X134010005Y-115251415D01*
X133966482Y-115240513D01*
X133924237Y-115225398D01*
X133883677Y-115206214D01*
X133845193Y-115183148D01*
X133809155Y-115156420D01*
X133775911Y-115126289D01*
X133745780Y-115093045D01*
X133719052Y-115057007D01*
X133695986Y-115018523D01*
X133676802Y-114977963D01*
X133661687Y-114935718D01*
X133650785Y-114892195D01*
X133644202Y-114847813D01*
X133642000Y-114803000D01*
X133642000Y-114701400D01*
X133644202Y-114656587D01*
X133650785Y-114612205D01*
X133661687Y-114568682D01*
X133676802Y-114526437D01*
X133695986Y-114485877D01*
X133719052Y-114447393D01*
X133745780Y-114411355D01*
X133775911Y-114378111D01*
X133809155Y-114347980D01*
X133845193Y-114321252D01*
X133883677Y-114298186D01*
X133924237Y-114279002D01*
X133966482Y-114263887D01*
X134010005Y-114252985D01*
X134054387Y-114246402D01*
X134099200Y-114244200D01*
X136740800Y-114244200D01*
X136785613Y-114246402D01*
X136785613Y-114246402D01*
G37*
D33*
X135420000Y-114752200D03*
M02*
