%FSLAX45Y45*%
G04 Gerber Fmt 4.5, Leading zero omitted, Abs format (unit mm)*
G04 Created by KiCad (PCBNEW (5.1.0)-1) date 2019-05-30 14:50:00*
%MOMM*%
%LPD*%
G04 APERTURE LIST*
%ADD10C,0.150000*%
%ADD11C,0.200000*%
%ADD12C,0.300000*%
G04 APERTURE END LIST*
D10*
X13148300Y-12976360D02*
X16551920Y-12976360D01*
X16551920Y-12976360D02*
X16551920Y-8024360D01*
X16551920Y-8024360D02*
X13148300Y-8024360D01*
X13148300Y-8024360D02*
X13148300Y-12976360D01*
D11*
D12*
X13427228Y-13449574D02*
X13427228Y-13149574D01*
X13498657Y-13149574D01*
X13541514Y-13163860D01*
X13570086Y-13192431D01*
X13584371Y-13221003D01*
X13598657Y-13278146D01*
X13598657Y-13321003D01*
X13584371Y-13378146D01*
X13570086Y-13406717D01*
X13541514Y-13435289D01*
X13498657Y-13449574D01*
X13427228Y-13449574D01*
X13727228Y-13449574D02*
X13727228Y-13249574D01*
X13727228Y-13306717D02*
X13741514Y-13278146D01*
X13755800Y-13263860D01*
X13784371Y-13249574D01*
X13812943Y-13249574D01*
X13912943Y-13449574D02*
X13912943Y-13249574D01*
X13912943Y-13149574D02*
X13898657Y-13163860D01*
X13912943Y-13178146D01*
X13927228Y-13163860D01*
X13912943Y-13149574D01*
X13912943Y-13178146D01*
X14098657Y-13449574D02*
X14070086Y-13435289D01*
X14055800Y-13406717D01*
X14055800Y-13149574D01*
X14255800Y-13449574D02*
X14227228Y-13435289D01*
X14212943Y-13406717D01*
X14212943Y-13149574D01*
X14598657Y-13449574D02*
X14598657Y-13149574D01*
X14698657Y-13363860D01*
X14798657Y-13149574D01*
X14798657Y-13449574D01*
X15070086Y-13449574D02*
X15070086Y-13292431D01*
X15055800Y-13263860D01*
X15027228Y-13249574D01*
X14970086Y-13249574D01*
X14941514Y-13263860D01*
X15070086Y-13435289D02*
X15041514Y-13449574D01*
X14970086Y-13449574D01*
X14941514Y-13435289D01*
X14927228Y-13406717D01*
X14927228Y-13378146D01*
X14941514Y-13349574D01*
X14970086Y-13335289D01*
X15041514Y-13335289D01*
X15070086Y-13321003D01*
X15212943Y-13249574D02*
X15212943Y-13549574D01*
X15212943Y-13263860D02*
X15241514Y-13249574D01*
X15298657Y-13249574D01*
X15327228Y-13263860D01*
X15341514Y-13278146D01*
X15355800Y-13306717D01*
X15355800Y-13392431D01*
X15341514Y-13421003D01*
X15327228Y-13435289D01*
X15298657Y-13449574D01*
X15241514Y-13449574D01*
X15212943Y-13435289D01*
X15484371Y-13421003D02*
X15498657Y-13435289D01*
X15484371Y-13449574D01*
X15470086Y-13435289D01*
X15484371Y-13421003D01*
X15484371Y-13449574D01*
X15484371Y-13263860D02*
X15498657Y-13278146D01*
X15484371Y-13292431D01*
X15470086Y-13278146D01*
X15484371Y-13263860D01*
X15484371Y-13292431D01*
M02*
