G04 #@! TF.GenerationSoftware,KiCad,Pcbnew,(5.1.0)-1*
G04 #@! TF.CreationDate,2019-05-30T14:49:56+02:00*
G04 #@! TF.ProjectId,UWED,55574544-2e6b-4696-9361-645f70636258,rev?*
G04 #@! TF.SameCoordinates,Original*
G04 #@! TF.FileFunction,Legend,Bot*
G04 #@! TF.FilePolarity,Positive*
%FSLAX46Y46*%
G04 Gerber Fmt 4.6, Leading zero omitted, Abs format (unit mm)*
G04 Created by KiCad (PCBNEW (5.1.0)-1) date 2019-05-30 14:49:56*
%MOMM*%
%LPD*%
G04 APERTURE LIST*
%ADD10C,0.100000*%
%ADD11C,0.203200*%
%ADD12C,0.127000*%
%ADD13C,0.101600*%
%ADD14R,1.503200X1.703200*%
%ADD15R,1.703200X1.503200*%
%ADD16R,2.003200X1.603200*%
G04 APERTURE END LIST*
D10*
G36*
X162725000Y-124683600D02*
G01*
X162725000Y-125293200D01*
X161150200Y-125293200D01*
X161150200Y-124683600D01*
X162725000Y-124683600D01*
G37*
D11*
X162537600Y-126174200D02*
X161337600Y-126174200D01*
X161937600Y-125174200D02*
X162537600Y-126174200D01*
X161337600Y-126174200D02*
X161937600Y-125174200D01*
D10*
G36*
X162725000Y-119730600D02*
G01*
X162725000Y-120340200D01*
X161150200Y-120340200D01*
X161150200Y-119730600D01*
X162725000Y-119730600D01*
G37*
D11*
X162537600Y-121221200D02*
X161337600Y-121221200D01*
X161937600Y-120221200D02*
X162537600Y-121221200D01*
X161337600Y-121221200D02*
X161937600Y-120221200D01*
D10*
G36*
X159118200Y-126410800D02*
G01*
X159118200Y-125801200D01*
X160693000Y-125801200D01*
X160693000Y-126410800D01*
X159118200Y-126410800D01*
G37*
D11*
X159305600Y-124920200D02*
X160505600Y-124920200D01*
X159905600Y-125920200D02*
X159305600Y-124920200D01*
X160505600Y-124920200D02*
X159905600Y-125920200D01*
D10*
G36*
X162725000Y-114650600D02*
G01*
X162725000Y-115260200D01*
X161150200Y-115260200D01*
X161150200Y-114650600D01*
X162725000Y-114650600D01*
G37*
D11*
X162537600Y-116141200D02*
X161337600Y-116141200D01*
X161937600Y-115141200D02*
X162537600Y-116141200D01*
X161337600Y-116141200D02*
X161937600Y-115141200D01*
D10*
G36*
X159118200Y-121457800D02*
G01*
X159118200Y-120848200D01*
X160693000Y-120848200D01*
X160693000Y-121457800D01*
X159118200Y-121457800D01*
G37*
D11*
X159305600Y-119967200D02*
X160505600Y-119967200D01*
X159905600Y-120967200D02*
X159305600Y-119967200D01*
X160505600Y-119967200D02*
X159905600Y-120967200D01*
D10*
G36*
X159118200Y-116377800D02*
G01*
X159118200Y-115768200D01*
X160693000Y-115768200D01*
X160693000Y-116377800D01*
X159118200Y-116377800D01*
G37*
D11*
X159305600Y-114887200D02*
X160505600Y-114887200D01*
X159905600Y-115887200D02*
X159305600Y-114887200D01*
X160505600Y-114887200D02*
X159905600Y-115887200D01*
D12*
X147513206Y-102814200D02*
G75*
G03X147513206Y-102814200I-223606J0D01*
G01*
X146689600Y-105314200D02*
X146689600Y-102314200D01*
X149689600Y-102314200D02*
X149689600Y-105314200D01*
X140410600Y-109045200D02*
X140410600Y-112045200D01*
D13*
X145019869Y-91719842D02*
X145077321Y-91777295D01*
X145249679Y-91834747D01*
X145364583Y-91834747D01*
X145536940Y-91777295D01*
X145651845Y-91662390D01*
X145709298Y-91547485D01*
X145766750Y-91317676D01*
X145766750Y-91145319D01*
X145709298Y-90915509D01*
X145651845Y-90800604D01*
X145536940Y-90685700D01*
X145364583Y-90628247D01*
X145249679Y-90628247D01*
X145077321Y-90685700D01*
X145019869Y-90743152D01*
X143870821Y-91834747D02*
X144560250Y-91834747D01*
X144215536Y-91834747D02*
X144215536Y-90628247D01*
X144330440Y-90800604D01*
X144445345Y-90915509D01*
X144560250Y-90972961D01*
X156431242Y-116048930D02*
X156488695Y-115991478D01*
X156546147Y-115819120D01*
X156546147Y-115704216D01*
X156488695Y-115531859D01*
X156373790Y-115416954D01*
X156258885Y-115359501D01*
X156029076Y-115302049D01*
X155856719Y-115302049D01*
X155626909Y-115359501D01*
X155512004Y-115416954D01*
X155397100Y-115531859D01*
X155339647Y-115704216D01*
X155339647Y-115819120D01*
X155397100Y-115991478D01*
X155454552Y-116048930D01*
X156546147Y-117197978D02*
X156546147Y-116508549D01*
X156546147Y-116853263D02*
X155339647Y-116853263D01*
X155512004Y-116738359D01*
X155626909Y-116623454D01*
X155684361Y-116508549D01*
X155339647Y-117600144D02*
X155339647Y-118347025D01*
X155799266Y-117944859D01*
X155799266Y-118117216D01*
X155856719Y-118232120D01*
X155914171Y-118289573D01*
X156029076Y-118347025D01*
X156316338Y-118347025D01*
X156431242Y-118289573D01*
X156488695Y-118232120D01*
X156546147Y-118117216D01*
X156546147Y-117772501D01*
X156488695Y-117657597D01*
X156431242Y-117600144D01*
X139050869Y-112928842D02*
X139108321Y-112986295D01*
X139280679Y-113043747D01*
X139395583Y-113043747D01*
X139567940Y-112986295D01*
X139682845Y-112871390D01*
X139740298Y-112756485D01*
X139797750Y-112526676D01*
X139797750Y-112354319D01*
X139740298Y-112124509D01*
X139682845Y-112009604D01*
X139567940Y-111894700D01*
X139395583Y-111837247D01*
X139280679Y-111837247D01*
X139108321Y-111894700D01*
X139050869Y-111952152D01*
X137901821Y-113043747D02*
X138591250Y-113043747D01*
X138246536Y-113043747D02*
X138246536Y-111837247D01*
X138361440Y-112009604D01*
X138476345Y-112124509D01*
X138591250Y-112181961D01*
X136867679Y-111837247D02*
X137097488Y-111837247D01*
X137212393Y-111894700D01*
X137269845Y-111952152D01*
X137384750Y-112124509D01*
X137442202Y-112354319D01*
X137442202Y-112813938D01*
X137384750Y-112928842D01*
X137327298Y-112986295D01*
X137212393Y-113043747D01*
X136982583Y-113043747D01*
X136867679Y-112986295D01*
X136810226Y-112928842D01*
X136752774Y-112813938D01*
X136752774Y-112526676D01*
X136810226Y-112411771D01*
X136867679Y-112354319D01*
X136982583Y-112296866D01*
X137212393Y-112296866D01*
X137327298Y-112354319D01*
X137384750Y-112411771D01*
X137442202Y-112526676D01*
X139050869Y-115087842D02*
X139108321Y-115145295D01*
X139280679Y-115202747D01*
X139395583Y-115202747D01*
X139567940Y-115145295D01*
X139682845Y-115030390D01*
X139740298Y-114915485D01*
X139797750Y-114685676D01*
X139797750Y-114513319D01*
X139740298Y-114283509D01*
X139682845Y-114168604D01*
X139567940Y-114053700D01*
X139395583Y-113996247D01*
X139280679Y-113996247D01*
X139108321Y-114053700D01*
X139050869Y-114111152D01*
X137901821Y-115202747D02*
X138591250Y-115202747D01*
X138246536Y-115202747D02*
X138246536Y-113996247D01*
X138361440Y-114168604D01*
X138476345Y-114283509D01*
X138591250Y-114340961D01*
X137499655Y-113996247D02*
X136695321Y-113996247D01*
X137212393Y-115202747D01*
X136891869Y-104292842D02*
X136949321Y-104350295D01*
X137121679Y-104407747D01*
X137236583Y-104407747D01*
X137408940Y-104350295D01*
X137523845Y-104235390D01*
X137581298Y-104120485D01*
X137638750Y-103890676D01*
X137638750Y-103718319D01*
X137581298Y-103488509D01*
X137523845Y-103373604D01*
X137408940Y-103258700D01*
X137236583Y-103201247D01*
X137121679Y-103201247D01*
X136949321Y-103258700D01*
X136891869Y-103316152D01*
X135742821Y-104407747D02*
X136432250Y-104407747D01*
X136087536Y-104407747D02*
X136087536Y-103201247D01*
X136202440Y-103373604D01*
X136317345Y-103488509D01*
X136432250Y-103545961D01*
X135053393Y-103718319D02*
X135168298Y-103660866D01*
X135225750Y-103603414D01*
X135283202Y-103488509D01*
X135283202Y-103431057D01*
X135225750Y-103316152D01*
X135168298Y-103258700D01*
X135053393Y-103201247D01*
X134823583Y-103201247D01*
X134708679Y-103258700D01*
X134651226Y-103316152D01*
X134593774Y-103431057D01*
X134593774Y-103488509D01*
X134651226Y-103603414D01*
X134708679Y-103660866D01*
X134823583Y-103718319D01*
X135053393Y-103718319D01*
X135168298Y-103775771D01*
X135225750Y-103833223D01*
X135283202Y-103948128D01*
X135283202Y-104177938D01*
X135225750Y-104292842D01*
X135168298Y-104350295D01*
X135053393Y-104407747D01*
X134823583Y-104407747D01*
X134708679Y-104350295D01*
X134651226Y-104292842D01*
X134593774Y-104177938D01*
X134593774Y-103948128D01*
X134651226Y-103833223D01*
X134708679Y-103775771D01*
X134823583Y-103718319D01*
X136891869Y-106324842D02*
X136949321Y-106382295D01*
X137121679Y-106439747D01*
X137236583Y-106439747D01*
X137408940Y-106382295D01*
X137523845Y-106267390D01*
X137581298Y-106152485D01*
X137638750Y-105922676D01*
X137638750Y-105750319D01*
X137581298Y-105520509D01*
X137523845Y-105405604D01*
X137408940Y-105290700D01*
X137236583Y-105233247D01*
X137121679Y-105233247D01*
X136949321Y-105290700D01*
X136891869Y-105348152D01*
X135742821Y-106439747D02*
X136432250Y-106439747D01*
X136087536Y-106439747D02*
X136087536Y-105233247D01*
X136202440Y-105405604D01*
X136317345Y-105520509D01*
X136432250Y-105577961D01*
X135168298Y-106439747D02*
X134938488Y-106439747D01*
X134823583Y-106382295D01*
X134766131Y-106324842D01*
X134651226Y-106152485D01*
X134593774Y-105922676D01*
X134593774Y-105463057D01*
X134651226Y-105348152D01*
X134708679Y-105290700D01*
X134823583Y-105233247D01*
X135053393Y-105233247D01*
X135168298Y-105290700D01*
X135225750Y-105348152D01*
X135283202Y-105463057D01*
X135283202Y-105750319D01*
X135225750Y-105865223D01*
X135168298Y-105922676D01*
X135053393Y-105980128D01*
X134823583Y-105980128D01*
X134708679Y-105922676D01*
X134651226Y-105865223D01*
X134593774Y-105750319D01*
X139431869Y-91719842D02*
X139489321Y-91777295D01*
X139661679Y-91834747D01*
X139776583Y-91834747D01*
X139948940Y-91777295D01*
X140063845Y-91662390D01*
X140121298Y-91547485D01*
X140178750Y-91317676D01*
X140178750Y-91145319D01*
X140121298Y-90915509D01*
X140063845Y-90800604D01*
X139948940Y-90685700D01*
X139776583Y-90628247D01*
X139661679Y-90628247D01*
X139489321Y-90685700D01*
X139431869Y-90743152D01*
X138972250Y-90743152D02*
X138914798Y-90685700D01*
X138799893Y-90628247D01*
X138512631Y-90628247D01*
X138397726Y-90685700D01*
X138340274Y-90743152D01*
X138282821Y-90858057D01*
X138282821Y-90972961D01*
X138340274Y-91145319D01*
X139029702Y-91834747D01*
X138282821Y-91834747D01*
X139794242Y-98141930D02*
X139851695Y-98084478D01*
X139909147Y-97912120D01*
X139909147Y-97797216D01*
X139851695Y-97624859D01*
X139736790Y-97509954D01*
X139621885Y-97452501D01*
X139392076Y-97395049D01*
X139219719Y-97395049D01*
X138989909Y-97452501D01*
X138875004Y-97509954D01*
X138760100Y-97624859D01*
X138702647Y-97797216D01*
X138702647Y-97912120D01*
X138760100Y-98084478D01*
X138817552Y-98141930D01*
X138702647Y-98544097D02*
X138702647Y-99290978D01*
X139162266Y-98888811D01*
X139162266Y-99061168D01*
X139219719Y-99176073D01*
X139277171Y-99233525D01*
X139392076Y-99290978D01*
X139679338Y-99290978D01*
X139794242Y-99233525D01*
X139851695Y-99176073D01*
X139909147Y-99061168D01*
X139909147Y-98716454D01*
X139851695Y-98601549D01*
X139794242Y-98544097D01*
X143985242Y-98014930D02*
X144042695Y-97957478D01*
X144100147Y-97785120D01*
X144100147Y-97670216D01*
X144042695Y-97497859D01*
X143927790Y-97382954D01*
X143812885Y-97325501D01*
X143583076Y-97268049D01*
X143410719Y-97268049D01*
X143180909Y-97325501D01*
X143066004Y-97382954D01*
X142951100Y-97497859D01*
X142893647Y-97670216D01*
X142893647Y-97785120D01*
X142951100Y-97957478D01*
X143008552Y-98014930D01*
X143295814Y-99049073D02*
X144100147Y-99049073D01*
X142836195Y-98761811D02*
X143697980Y-98474549D01*
X143697980Y-99221430D01*
X137635242Y-98141930D02*
X137692695Y-98084478D01*
X137750147Y-97912120D01*
X137750147Y-97797216D01*
X137692695Y-97624859D01*
X137577790Y-97509954D01*
X137462885Y-97452501D01*
X137233076Y-97395049D01*
X137060719Y-97395049D01*
X136830909Y-97452501D01*
X136716004Y-97509954D01*
X136601100Y-97624859D01*
X136543647Y-97797216D01*
X136543647Y-97912120D01*
X136601100Y-98084478D01*
X136658552Y-98141930D01*
X136543647Y-99233525D02*
X136543647Y-98659001D01*
X137118171Y-98601549D01*
X137060719Y-98659001D01*
X137003266Y-98773906D01*
X137003266Y-99061168D01*
X137060719Y-99176073D01*
X137118171Y-99233525D01*
X137233076Y-99290978D01*
X137520338Y-99290978D01*
X137635242Y-99233525D01*
X137692695Y-99176073D01*
X137750147Y-99061168D01*
X137750147Y-98773906D01*
X137692695Y-98659001D01*
X137635242Y-98601549D01*
X146416869Y-94386842D02*
X146474321Y-94444295D01*
X146646679Y-94501747D01*
X146761583Y-94501747D01*
X146933940Y-94444295D01*
X147048845Y-94329390D01*
X147106298Y-94214485D01*
X147163750Y-93984676D01*
X147163750Y-93812319D01*
X147106298Y-93582509D01*
X147048845Y-93467604D01*
X146933940Y-93352700D01*
X146761583Y-93295247D01*
X146646679Y-93295247D01*
X146474321Y-93352700D01*
X146416869Y-93410152D01*
X145382726Y-93295247D02*
X145612536Y-93295247D01*
X145727440Y-93352700D01*
X145784893Y-93410152D01*
X145899798Y-93582509D01*
X145957250Y-93812319D01*
X145957250Y-94271938D01*
X145899798Y-94386842D01*
X145842345Y-94444295D01*
X145727440Y-94501747D01*
X145497631Y-94501747D01*
X145382726Y-94444295D01*
X145325274Y-94386842D01*
X145267821Y-94271938D01*
X145267821Y-93984676D01*
X145325274Y-93869771D01*
X145382726Y-93812319D01*
X145497631Y-93754866D01*
X145727440Y-93754866D01*
X145842345Y-93812319D01*
X145899798Y-93869771D01*
X145957250Y-93984676D01*
X144689669Y-119405842D02*
X144747121Y-119463295D01*
X144919479Y-119520747D01*
X145034383Y-119520747D01*
X145206740Y-119463295D01*
X145321645Y-119348390D01*
X145379098Y-119233485D01*
X145436550Y-119003676D01*
X145436550Y-118831319D01*
X145379098Y-118601509D01*
X145321645Y-118486604D01*
X145206740Y-118371700D01*
X145034383Y-118314247D01*
X144919479Y-118314247D01*
X144747121Y-118371700D01*
X144689669Y-118429152D01*
X144287502Y-118314247D02*
X143483169Y-118314247D01*
X144000240Y-119520747D01*
X153782869Y-98450842D02*
X153840321Y-98508295D01*
X154012679Y-98565747D01*
X154127583Y-98565747D01*
X154299940Y-98508295D01*
X154414845Y-98393390D01*
X154472298Y-98278485D01*
X154529750Y-98048676D01*
X154529750Y-97876319D01*
X154472298Y-97646509D01*
X154414845Y-97531604D01*
X154299940Y-97416700D01*
X154127583Y-97359247D01*
X154012679Y-97359247D01*
X153840321Y-97416700D01*
X153782869Y-97474152D01*
X153208345Y-98565747D02*
X152978536Y-98565747D01*
X152863631Y-98508295D01*
X152806179Y-98450842D01*
X152691274Y-98278485D01*
X152633821Y-98048676D01*
X152633821Y-97589057D01*
X152691274Y-97474152D01*
X152748726Y-97416700D01*
X152863631Y-97359247D01*
X153093440Y-97359247D01*
X153208345Y-97416700D01*
X153265798Y-97474152D01*
X153323250Y-97589057D01*
X153323250Y-97876319D01*
X153265798Y-97991223D01*
X153208345Y-98048676D01*
X153093440Y-98106128D01*
X152863631Y-98106128D01*
X152748726Y-98048676D01*
X152691274Y-97991223D01*
X152633821Y-97876319D01*
X160737147Y-124376501D02*
X159530647Y-124376501D01*
X159530647Y-124663763D01*
X159588100Y-124836120D01*
X159703004Y-124951025D01*
X159817909Y-125008478D01*
X160047719Y-125065930D01*
X160220076Y-125065930D01*
X160449885Y-125008478D01*
X160564790Y-124951025D01*
X160679695Y-124836120D01*
X160737147Y-124663763D01*
X160737147Y-124376501D01*
X160737147Y-126214978D02*
X160737147Y-125525549D01*
X160737147Y-125870263D02*
X159530647Y-125870263D01*
X159703004Y-125755359D01*
X159817909Y-125640454D01*
X159875361Y-125525549D01*
X160737147Y-119423501D02*
X159530647Y-119423501D01*
X159530647Y-119710763D01*
X159588100Y-119883120D01*
X159703004Y-119998025D01*
X159817909Y-120055478D01*
X160047719Y-120112930D01*
X160220076Y-120112930D01*
X160449885Y-120055478D01*
X160564790Y-119998025D01*
X160679695Y-119883120D01*
X160737147Y-119710763D01*
X160737147Y-119423501D01*
X159645552Y-120572549D02*
X159588100Y-120630001D01*
X159530647Y-120744906D01*
X159530647Y-121032168D01*
X159588100Y-121147073D01*
X159645552Y-121204525D01*
X159760457Y-121261978D01*
X159875361Y-121261978D01*
X160047719Y-121204525D01*
X160737147Y-120515097D01*
X160737147Y-121261978D01*
X160991147Y-127424501D02*
X159784647Y-127424501D01*
X159784647Y-127711763D01*
X159842100Y-127884120D01*
X159957004Y-127999025D01*
X160071909Y-128056478D01*
X160301719Y-128113930D01*
X160474076Y-128113930D01*
X160703885Y-128056478D01*
X160818790Y-127999025D01*
X160933695Y-127884120D01*
X160991147Y-127711763D01*
X160991147Y-127424501D01*
X159784647Y-128516097D02*
X159784647Y-129262978D01*
X160244266Y-128860811D01*
X160244266Y-129033168D01*
X160301719Y-129148073D01*
X160359171Y-129205525D01*
X160474076Y-129262978D01*
X160761338Y-129262978D01*
X160876242Y-129205525D01*
X160933695Y-129148073D01*
X160991147Y-129033168D01*
X160991147Y-128688454D01*
X160933695Y-128573549D01*
X160876242Y-128516097D01*
X160737147Y-114343501D02*
X159530647Y-114343501D01*
X159530647Y-114630763D01*
X159588100Y-114803120D01*
X159703004Y-114918025D01*
X159817909Y-114975478D01*
X160047719Y-115032930D01*
X160220076Y-115032930D01*
X160449885Y-114975478D01*
X160564790Y-114918025D01*
X160679695Y-114803120D01*
X160737147Y-114630763D01*
X160737147Y-114343501D01*
X159932814Y-116067073D02*
X160737147Y-116067073D01*
X159473195Y-115779811D02*
X160334980Y-115492549D01*
X160334980Y-116239430D01*
X160991147Y-122471501D02*
X159784647Y-122471501D01*
X159784647Y-122758763D01*
X159842100Y-122931120D01*
X159957004Y-123046025D01*
X160071909Y-123103478D01*
X160301719Y-123160930D01*
X160474076Y-123160930D01*
X160703885Y-123103478D01*
X160818790Y-123046025D01*
X160933695Y-122931120D01*
X160991147Y-122758763D01*
X160991147Y-122471501D01*
X159784647Y-124252525D02*
X159784647Y-123678001D01*
X160359171Y-123620549D01*
X160301719Y-123678001D01*
X160244266Y-123792906D01*
X160244266Y-124080168D01*
X160301719Y-124195073D01*
X160359171Y-124252525D01*
X160474076Y-124309978D01*
X160761338Y-124309978D01*
X160876242Y-124252525D01*
X160933695Y-124195073D01*
X160991147Y-124080168D01*
X160991147Y-123792906D01*
X160933695Y-123678001D01*
X160876242Y-123620549D01*
X160991147Y-117391501D02*
X159784647Y-117391501D01*
X159784647Y-117678763D01*
X159842100Y-117851120D01*
X159957004Y-117966025D01*
X160071909Y-118023478D01*
X160301719Y-118080930D01*
X160474076Y-118080930D01*
X160703885Y-118023478D01*
X160818790Y-117966025D01*
X160933695Y-117851120D01*
X160991147Y-117678763D01*
X160991147Y-117391501D01*
X159784647Y-119115073D02*
X159784647Y-118885263D01*
X159842100Y-118770359D01*
X159899552Y-118712906D01*
X160071909Y-118598001D01*
X160301719Y-118540549D01*
X160761338Y-118540549D01*
X160876242Y-118598001D01*
X160933695Y-118655454D01*
X160991147Y-118770359D01*
X160991147Y-119000168D01*
X160933695Y-119115073D01*
X160876242Y-119172525D01*
X160761338Y-119229978D01*
X160474076Y-119229978D01*
X160359171Y-119172525D01*
X160301719Y-119115073D01*
X160244266Y-119000168D01*
X160244266Y-118770359D01*
X160301719Y-118655454D01*
X160359171Y-118598001D01*
X160474076Y-118540549D01*
X136607147Y-104872930D02*
X136032623Y-104470763D01*
X136607147Y-104183501D02*
X135400647Y-104183501D01*
X135400647Y-104643120D01*
X135458100Y-104758025D01*
X135515552Y-104815478D01*
X135630457Y-104872930D01*
X135802814Y-104872930D01*
X135917719Y-104815478D01*
X135975171Y-104758025D01*
X136032623Y-104643120D01*
X136032623Y-104183501D01*
X136607147Y-106021978D02*
X136607147Y-105332549D01*
X136607147Y-105677263D02*
X135400647Y-105677263D01*
X135573004Y-105562359D01*
X135687909Y-105447454D01*
X135745361Y-105332549D01*
X151339147Y-103348930D02*
X150764623Y-102946763D01*
X151339147Y-102659501D02*
X150132647Y-102659501D01*
X150132647Y-103119120D01*
X150190100Y-103234025D01*
X150247552Y-103291478D01*
X150362457Y-103348930D01*
X150534814Y-103348930D01*
X150649719Y-103291478D01*
X150707171Y-103234025D01*
X150764623Y-103119120D01*
X150764623Y-102659501D01*
X150247552Y-103808549D02*
X150190100Y-103866001D01*
X150132647Y-103980906D01*
X150132647Y-104268168D01*
X150190100Y-104383073D01*
X150247552Y-104440525D01*
X150362457Y-104497978D01*
X150477361Y-104497978D01*
X150649719Y-104440525D01*
X151339147Y-103751097D01*
X151339147Y-104497978D01*
X155941869Y-101105747D02*
X156344036Y-100531223D01*
X156631298Y-101105747D02*
X156631298Y-99899247D01*
X156171679Y-99899247D01*
X156056774Y-99956700D01*
X155999321Y-100014152D01*
X155941869Y-100129057D01*
X155941869Y-100301414D01*
X155999321Y-100416319D01*
X156056774Y-100473771D01*
X156171679Y-100531223D01*
X156631298Y-100531223D01*
X155539702Y-99899247D02*
X154792821Y-99899247D01*
X155194988Y-100358866D01*
X155022631Y-100358866D01*
X154907726Y-100416319D01*
X154850274Y-100473771D01*
X154792821Y-100588676D01*
X154792821Y-100875938D01*
X154850274Y-100990842D01*
X154907726Y-101048295D01*
X155022631Y-101105747D01*
X155367345Y-101105747D01*
X155482250Y-101048295D01*
X155539702Y-100990842D01*
X160005869Y-101105747D02*
X160408036Y-100531223D01*
X160695298Y-101105747D02*
X160695298Y-99899247D01*
X160235679Y-99899247D01*
X160120774Y-99956700D01*
X160063321Y-100014152D01*
X160005869Y-100129057D01*
X160005869Y-100301414D01*
X160063321Y-100416319D01*
X160120774Y-100473771D01*
X160235679Y-100531223D01*
X160695298Y-100531223D01*
X158971726Y-100301414D02*
X158971726Y-101105747D01*
X159258988Y-99841795D02*
X159546250Y-100703580D01*
X158799369Y-100703580D01*
X158705147Y-116175930D02*
X158130623Y-115773763D01*
X158705147Y-115486501D02*
X157498647Y-115486501D01*
X157498647Y-115946120D01*
X157556100Y-116061025D01*
X157613552Y-116118478D01*
X157728457Y-116175930D01*
X157900814Y-116175930D01*
X158015719Y-116118478D01*
X158073171Y-116061025D01*
X158130623Y-115946120D01*
X158130623Y-115486501D01*
X157498647Y-117267525D02*
X157498647Y-116693001D01*
X158073171Y-116635549D01*
X158015719Y-116693001D01*
X157958266Y-116807906D01*
X157958266Y-117095168D01*
X158015719Y-117210073D01*
X158073171Y-117267525D01*
X158188076Y-117324978D01*
X158475338Y-117324978D01*
X158590242Y-117267525D01*
X158647695Y-117210073D01*
X158705147Y-117095168D01*
X158705147Y-116807906D01*
X158647695Y-116693001D01*
X158590242Y-116635549D01*
X152609147Y-122144930D02*
X152034623Y-121742763D01*
X152609147Y-121455501D02*
X151402647Y-121455501D01*
X151402647Y-121915120D01*
X151460100Y-122030025D01*
X151517552Y-122087478D01*
X151632457Y-122144930D01*
X151804814Y-122144930D01*
X151919719Y-122087478D01*
X151977171Y-122030025D01*
X152034623Y-121915120D01*
X152034623Y-121455501D01*
X151402647Y-122547097D02*
X151402647Y-123351430D01*
X152609147Y-122834359D01*
%LPC*%
D14*
X148282600Y-90622200D03*
X146382600Y-90622200D03*
D15*
X155333600Y-112786200D03*
X155333600Y-114686200D03*
D14*
X137873600Y-114371200D03*
X139773600Y-114371200D03*
X137873600Y-116530200D03*
X139773600Y-116530200D03*
X140154600Y-103195200D03*
X138254600Y-103195200D03*
X140154600Y-105227200D03*
X138254600Y-105227200D03*
X142694600Y-90622200D03*
X140794600Y-90622200D03*
D15*
X138696600Y-94879200D03*
X138696600Y-96779200D03*
X142887600Y-94752200D03*
X142887600Y-96652200D03*
X136537600Y-94879200D03*
X136537600Y-96779200D03*
D14*
X145239600Y-95829200D03*
X147139600Y-95829200D03*
X143512400Y-120848200D03*
X145412400Y-120848200D03*
X152605600Y-99893200D03*
X154505600Y-99893200D03*
D16*
X161937600Y-127247200D03*
X161937600Y-123847200D03*
X161937600Y-122294200D03*
X161937600Y-118894200D03*
X159905600Y-123847200D03*
X159905600Y-127247200D03*
X161937600Y-117214200D03*
X161937600Y-113814200D03*
X159905600Y-118894200D03*
X159905600Y-122294200D03*
X159905600Y-113814200D03*
X159905600Y-117214200D03*
D15*
X135394600Y-102245200D03*
X135394600Y-104145200D03*
X152666600Y-103891200D03*
X152666600Y-101991200D03*
D14*
X158569600Y-99893200D03*
X156669600Y-99893200D03*
X162633600Y-99893200D03*
X160733600Y-99893200D03*
D15*
X157492600Y-113548200D03*
X157492600Y-115448200D03*
X153936600Y-122687200D03*
X153936600Y-120787200D03*
M02*
