G04 #@! TF.GenerationSoftware,KiCad,Pcbnew,(5.1.0)-1*
G04 #@! TF.CreationDate,2019-05-30T14:49:56+02:00*
G04 #@! TF.ProjectId,UWED,55574544-2e6b-4696-9361-645f70636258,rev?*
G04 #@! TF.SameCoordinates,Original*
G04 #@! TF.FileFunction,Copper,L1,Top*
G04 #@! TF.FilePolarity,Positive*
%FSLAX46Y46*%
G04 Gerber Fmt 4.6, Leading zero omitted, Abs format (unit mm)*
G04 Created by KiCad (PCBNEW (5.1.0)-1) date 2019-05-30 14:49:56*
%MOMM*%
%LPD*%
G04 APERTURE LIST*
%ADD10C,0.177800*%
%ADD11C,0.203200*%
%ADD12R,1.500000X1.300000*%
%ADD13R,1.300000X1.500000*%
%ADD14R,1.200000X1.200000*%
%ADD15R,1.270000X0.419100*%
%ADD16R,0.508000X1.270000*%
%ADD17R,1.500000X0.420000*%
%ADD18R,1.270000X0.508000*%
%ADD19R,1.016000X2.032000*%
%ADD20R,3.810000X2.032000*%
%ADD21R,2.032000X2.032000*%
%ADD22R,1.500000X3.000000*%
%ADD23R,3.000000X1.500000*%
%ADD24R,1.500000X0.300000*%
%ADD25R,2.000000X2.500000*%
%ADD26R,1.500000X3.500000*%
%ADD27R,2.300000X3.500000*%
%ADD28C,0.100000*%
%ADD29C,0.812800*%
%ADD30C,1.006400*%
%ADD31C,0.812800*%
%ADD32C,0.406400*%
%ADD33C,0.304800*%
%ADD34C,1.016000*%
%ADD35C,0.609600*%
G04 APERTURE END LIST*
D10*
X156459666Y-94193863D02*
X157827033Y-94193863D01*
X157987900Y-94113430D01*
X158068333Y-94032996D01*
X158148766Y-93872130D01*
X158148766Y-93550396D01*
X158068333Y-93389530D01*
X157987900Y-93309096D01*
X157827033Y-93228663D01*
X156459666Y-93228663D01*
X156459666Y-92585196D02*
X158148766Y-92183030D01*
X156942266Y-91861296D01*
X158148766Y-91539563D01*
X156459666Y-91137396D01*
X157264000Y-90493930D02*
X157264000Y-89930896D01*
X158148766Y-89689596D02*
X158148766Y-90493930D01*
X156459666Y-90493930D01*
X156459666Y-89689596D01*
X158148766Y-88965696D02*
X156459666Y-88965696D01*
X156459666Y-88563530D01*
X156540100Y-88322230D01*
X156700966Y-88161363D01*
X156861833Y-88080930D01*
X157183566Y-88000496D01*
X157424866Y-88000496D01*
X157746600Y-88080930D01*
X157907466Y-88161363D01*
X158068333Y-88322230D01*
X158148766Y-88563530D01*
X158148766Y-88965696D01*
D11*
X160646433Y-94375110D02*
X160646433Y-93800586D01*
X160991147Y-94490015D02*
X159784647Y-94087848D01*
X160991147Y-93685681D01*
X160991147Y-93111158D02*
X160933695Y-93226062D01*
X160818790Y-93283515D01*
X159784647Y-93283515D01*
X160991147Y-92134467D02*
X160359171Y-92134467D01*
X160244266Y-92191920D01*
X160186814Y-92306824D01*
X160186814Y-92536634D01*
X160244266Y-92651539D01*
X160933695Y-92134467D02*
X160991147Y-92249372D01*
X160991147Y-92536634D01*
X160933695Y-92651539D01*
X160818790Y-92708991D01*
X160703885Y-92708991D01*
X160588980Y-92651539D01*
X160531528Y-92536634D01*
X160531528Y-92249372D01*
X160474076Y-92134467D01*
X160991147Y-91559943D02*
X160186814Y-91559943D01*
X160416623Y-91559943D02*
X160301719Y-91502491D01*
X160244266Y-91445039D01*
X160186814Y-91330134D01*
X160186814Y-91215229D01*
X160646433Y-89951277D02*
X160646433Y-89376753D01*
X160991147Y-90066181D02*
X159784647Y-89664015D01*
X160991147Y-89261848D01*
X160991147Y-88859681D02*
X160186814Y-88859681D01*
X159784647Y-88859681D02*
X159842100Y-88917134D01*
X159899552Y-88859681D01*
X159842100Y-88802229D01*
X159784647Y-88859681D01*
X159899552Y-88859681D01*
X160186814Y-88285158D02*
X160991147Y-88285158D01*
X160301719Y-88285158D02*
X160244266Y-88227705D01*
X160186814Y-88112800D01*
X160186814Y-87940443D01*
X160244266Y-87825539D01*
X160359171Y-87768086D01*
X160991147Y-87768086D01*
X160991147Y-87021205D02*
X160933695Y-87136110D01*
X160818790Y-87193562D01*
X159784647Y-87193562D01*
X160991147Y-86044515D02*
X160359171Y-86044515D01*
X160244266Y-86101967D01*
X160186814Y-86216872D01*
X160186814Y-86446681D01*
X160244266Y-86561586D01*
X160933695Y-86044515D02*
X160991147Y-86159420D01*
X160991147Y-86446681D01*
X160933695Y-86561586D01*
X160818790Y-86619039D01*
X160703885Y-86619039D01*
X160588980Y-86561586D01*
X160531528Y-86446681D01*
X160531528Y-86159420D01*
X160474076Y-86044515D01*
D10*
X161816950Y-94006991D02*
X161759497Y-94121896D01*
X161759497Y-94294253D01*
X161816950Y-94466610D01*
X161931854Y-94581515D01*
X162046759Y-94638968D01*
X162276569Y-94696420D01*
X162448926Y-94696420D01*
X162678735Y-94638968D01*
X162793640Y-94581515D01*
X162908545Y-94466610D01*
X162965997Y-94294253D01*
X162965997Y-94179349D01*
X162908545Y-94006991D01*
X162851092Y-93949539D01*
X162448926Y-93949539D01*
X162448926Y-94179349D01*
X162965997Y-93432468D02*
X161759497Y-93432468D01*
X162621283Y-93030301D01*
X161759497Y-92628134D01*
X162965997Y-92628134D01*
X161759497Y-92168515D02*
X162965997Y-91881253D01*
X162104211Y-91651444D01*
X162965997Y-91421634D01*
X161759497Y-91134372D01*
X161816950Y-89123539D02*
X161759497Y-89238444D01*
X161759497Y-89410801D01*
X161816950Y-89583158D01*
X161931854Y-89698063D01*
X162046759Y-89755515D01*
X162276569Y-89812968D01*
X162448926Y-89812968D01*
X162678735Y-89755515D01*
X162793640Y-89698063D01*
X162908545Y-89583158D01*
X162965997Y-89410801D01*
X162965997Y-89295896D01*
X162908545Y-89123539D01*
X162851092Y-89066087D01*
X162448926Y-89066087D01*
X162448926Y-89295896D01*
X162965997Y-88549015D02*
X162161664Y-88549015D01*
X162391473Y-88549015D02*
X162276569Y-88491563D01*
X162219116Y-88434110D01*
X162161664Y-88319206D01*
X162161664Y-88204301D01*
X162965997Y-87629777D02*
X162908545Y-87744682D01*
X162851092Y-87802134D01*
X162736188Y-87859587D01*
X162391473Y-87859587D01*
X162276569Y-87802134D01*
X162219116Y-87744682D01*
X162161664Y-87629777D01*
X162161664Y-87457420D01*
X162219116Y-87342515D01*
X162276569Y-87285063D01*
X162391473Y-87227610D01*
X162736188Y-87227610D01*
X162851092Y-87285063D01*
X162908545Y-87342515D01*
X162965997Y-87457420D01*
X162965997Y-87629777D01*
X162161664Y-86193468D02*
X162965997Y-86193468D01*
X162161664Y-86710539D02*
X162793640Y-86710539D01*
X162908545Y-86653087D01*
X162965997Y-86538182D01*
X162965997Y-86365825D01*
X162908545Y-86250920D01*
X162851092Y-86193468D01*
X162161664Y-85618944D02*
X163368164Y-85618944D01*
X162219116Y-85618944D02*
X162161664Y-85504039D01*
X162161664Y-85274230D01*
X162219116Y-85159325D01*
X162276569Y-85101872D01*
X162391473Y-85044420D01*
X162736188Y-85044420D01*
X162851092Y-85101872D01*
X162908545Y-85159325D01*
X162965997Y-85274230D01*
X162965997Y-85504039D01*
X162908545Y-85618944D01*
X164953547Y-94638968D02*
X163747047Y-94638968D01*
X164321571Y-94638968D02*
X164321571Y-93949539D01*
X164953547Y-93949539D02*
X163747047Y-93949539D01*
X164953547Y-92857944D02*
X164321571Y-92857944D01*
X164206666Y-92915396D01*
X164149214Y-93030301D01*
X164149214Y-93260110D01*
X164206666Y-93375015D01*
X164896095Y-92857944D02*
X164953547Y-92972849D01*
X164953547Y-93260110D01*
X164896095Y-93375015D01*
X164781190Y-93432468D01*
X164666285Y-93432468D01*
X164551380Y-93375015D01*
X164493928Y-93260110D01*
X164493928Y-92972849D01*
X164436476Y-92857944D01*
X164953547Y-92283420D02*
X164149214Y-92283420D01*
X164379023Y-92283420D02*
X164264119Y-92225968D01*
X164206666Y-92168515D01*
X164149214Y-92053610D01*
X164149214Y-91938706D01*
X164149214Y-91651444D02*
X164953547Y-91364182D01*
X164149214Y-91076920D01*
X164953547Y-90100230D02*
X164321571Y-90100230D01*
X164206666Y-90157682D01*
X164149214Y-90272587D01*
X164149214Y-90502396D01*
X164206666Y-90617301D01*
X164896095Y-90100230D02*
X164953547Y-90215134D01*
X164953547Y-90502396D01*
X164896095Y-90617301D01*
X164781190Y-90674753D01*
X164666285Y-90674753D01*
X164551380Y-90617301D01*
X164493928Y-90502396D01*
X164493928Y-90215134D01*
X164436476Y-90100230D01*
X164953547Y-89525706D02*
X164149214Y-89525706D01*
X164379023Y-89525706D02*
X164264119Y-89468253D01*
X164206666Y-89410801D01*
X164149214Y-89295896D01*
X164149214Y-89180991D01*
X164953547Y-88261753D02*
X163747047Y-88261753D01*
X164896095Y-88261753D02*
X164953547Y-88376658D01*
X164953547Y-88606468D01*
X164896095Y-88721372D01*
X164838642Y-88778825D01*
X164723738Y-88836277D01*
X164379023Y-88836277D01*
X164264119Y-88778825D01*
X164206666Y-88721372D01*
X164149214Y-88606468D01*
X164149214Y-88376658D01*
X164206666Y-88261753D01*
X163747047Y-86767991D02*
X164723738Y-86767991D01*
X164838642Y-86710539D01*
X164896095Y-86653087D01*
X164953547Y-86538182D01*
X164953547Y-86308372D01*
X164896095Y-86193468D01*
X164838642Y-86136015D01*
X164723738Y-86078563D01*
X163747047Y-86078563D01*
X164149214Y-85504039D02*
X164953547Y-85504039D01*
X164264119Y-85504039D02*
X164206666Y-85446587D01*
X164149214Y-85331682D01*
X164149214Y-85159325D01*
X164206666Y-85044420D01*
X164321571Y-84986968D01*
X164953547Y-84986968D01*
X164953547Y-84412444D02*
X164149214Y-84412444D01*
X163747047Y-84412444D02*
X163804500Y-84469896D01*
X163861952Y-84412444D01*
X163804500Y-84354991D01*
X163747047Y-84412444D01*
X163861952Y-84412444D01*
X164149214Y-83952825D02*
X164953547Y-83665563D01*
X164149214Y-83378301D01*
D12*
X153174600Y-100848200D03*
X153174600Y-102748200D03*
D13*
X160728600Y-100147200D03*
X158828600Y-100147200D03*
D12*
X156095600Y-96911200D03*
X156095600Y-98811200D03*
X138950600Y-98435200D03*
X138950600Y-100335200D03*
X136791600Y-98562200D03*
X136791600Y-100462200D03*
D13*
X156156600Y-111958200D03*
X154256600Y-111958200D03*
D14*
X152429400Y-91790600D03*
X154529400Y-91790600D03*
D13*
X148414600Y-91765200D03*
X150314600Y-91765200D03*
X141810600Y-108275200D03*
X143710600Y-108275200D03*
D12*
X133362600Y-97414200D03*
X133362600Y-95514200D03*
X133362600Y-93350200D03*
X133362600Y-91450200D03*
D15*
X160662040Y-104211200D03*
X160662040Y-104861200D03*
X160662040Y-105511200D03*
X160662040Y-106161440D03*
X160662040Y-106811681D03*
X160662040Y-107461918D03*
X160662040Y-108112159D03*
X154812041Y-108112400D03*
X154810600Y-107462400D03*
X154810600Y-106812159D03*
X154810600Y-106161918D03*
X154810600Y-105511681D03*
X154810600Y-104861440D03*
X154810600Y-104211200D03*
D16*
X142633600Y-96743600D03*
X141693800Y-96743600D03*
X140754000Y-96743600D03*
X140754000Y-93924200D03*
X141693800Y-93924200D03*
X142633600Y-93924200D03*
X146316600Y-96743600D03*
X145376800Y-96743600D03*
X144437000Y-96743600D03*
X144437000Y-93924200D03*
X145376800Y-93924200D03*
X146316600Y-93924200D03*
D17*
X150089600Y-102814200D03*
X150089600Y-103464200D03*
X150089600Y-104114200D03*
X150089600Y-104764200D03*
X146189600Y-104764200D03*
X146189600Y-104114200D03*
X146189600Y-103464200D03*
X146189600Y-102814200D03*
D18*
X149517000Y-109164200D03*
X149517000Y-110104000D03*
X149517000Y-111043800D03*
X146697600Y-111043800D03*
X146697600Y-110104000D03*
X146697600Y-109164200D03*
D19*
X148983600Y-89352200D03*
D20*
X152793600Y-89352200D03*
X145173600Y-89352200D03*
D21*
X150761600Y-81732200D03*
X147205600Y-81732200D03*
D22*
X152174600Y-126817200D03*
X154174600Y-126817200D03*
D15*
X140820040Y-102433200D03*
X140820040Y-103083440D03*
X140820040Y-103733681D03*
X140820040Y-104383918D03*
X140820040Y-105034159D03*
X140820040Y-105684400D03*
X136918600Y-105684400D03*
X136918600Y-105034159D03*
X136918600Y-104383918D03*
X136918600Y-103733681D03*
X136918600Y-103083440D03*
X136918600Y-102433200D03*
D23*
X157365600Y-84002200D03*
X157365600Y-82002200D03*
D22*
X158238600Y-126817200D03*
X156238600Y-126817200D03*
X162429600Y-126817200D03*
X160429600Y-126817200D03*
D23*
X161302600Y-121213200D03*
X161302600Y-119213200D03*
X161302600Y-115022200D03*
X161302600Y-117022200D03*
D24*
X141410600Y-109545200D03*
X141410600Y-110045200D03*
X141410600Y-110545200D03*
X141410600Y-111045200D03*
X141410600Y-111545200D03*
X136410600Y-111545200D03*
X136410600Y-111045200D03*
X136410600Y-110545200D03*
X136410600Y-110045200D03*
X136410600Y-109545200D03*
D25*
X137045600Y-91492200D03*
D26*
X133545600Y-83692200D03*
X140645600Y-82692200D03*
D27*
X133445600Y-88192200D03*
X140745600Y-89192200D03*
D28*
G36*
X150177691Y-127047561D02*
G01*
X150213196Y-127052828D01*
X150248015Y-127061550D01*
X150281810Y-127073642D01*
X150314258Y-127088988D01*
X150345045Y-127107442D01*
X150373876Y-127128824D01*
X150400471Y-127152929D01*
X150424576Y-127179524D01*
X150445958Y-127208355D01*
X150464412Y-127239142D01*
X150479758Y-127271590D01*
X150491850Y-127305385D01*
X150500572Y-127340204D01*
X150505839Y-127375709D01*
X150507600Y-127411560D01*
X150507600Y-127492840D01*
X150505839Y-127528691D01*
X150500572Y-127564196D01*
X150491850Y-127599015D01*
X150479758Y-127632810D01*
X150464412Y-127665258D01*
X150445958Y-127696045D01*
X150424576Y-127724876D01*
X150400471Y-127751471D01*
X150373876Y-127775576D01*
X150345045Y-127796958D01*
X150314258Y-127815412D01*
X150281810Y-127830758D01*
X150248015Y-127842850D01*
X150213196Y-127851572D01*
X150177691Y-127856839D01*
X150141840Y-127858600D01*
X147520560Y-127858600D01*
X147484709Y-127856839D01*
X147449204Y-127851572D01*
X147414385Y-127842850D01*
X147380590Y-127830758D01*
X147348142Y-127815412D01*
X147317355Y-127796958D01*
X147288524Y-127775576D01*
X147261929Y-127751471D01*
X147237824Y-127724876D01*
X147216442Y-127696045D01*
X147197988Y-127665258D01*
X147182642Y-127632810D01*
X147170550Y-127599015D01*
X147161828Y-127564196D01*
X147156561Y-127528691D01*
X147154800Y-127492840D01*
X147154800Y-127411560D01*
X147156561Y-127375709D01*
X147161828Y-127340204D01*
X147170550Y-127305385D01*
X147182642Y-127271590D01*
X147197988Y-127239142D01*
X147216442Y-127208355D01*
X147237824Y-127179524D01*
X147261929Y-127152929D01*
X147288524Y-127128824D01*
X147317355Y-127107442D01*
X147348142Y-127088988D01*
X147380590Y-127073642D01*
X147414385Y-127061550D01*
X147449204Y-127052828D01*
X147484709Y-127047561D01*
X147520560Y-127045800D01*
X150141840Y-127045800D01*
X150177691Y-127047561D01*
X150177691Y-127047561D01*
G37*
D29*
X148831200Y-127452200D03*
D28*
G36*
X150177691Y-125777561D02*
G01*
X150213196Y-125782828D01*
X150248015Y-125791550D01*
X150281810Y-125803642D01*
X150314258Y-125818988D01*
X150345045Y-125837442D01*
X150373876Y-125858824D01*
X150400471Y-125882929D01*
X150424576Y-125909524D01*
X150445958Y-125938355D01*
X150464412Y-125969142D01*
X150479758Y-126001590D01*
X150491850Y-126035385D01*
X150500572Y-126070204D01*
X150505839Y-126105709D01*
X150507600Y-126141560D01*
X150507600Y-126222840D01*
X150505839Y-126258691D01*
X150500572Y-126294196D01*
X150491850Y-126329015D01*
X150479758Y-126362810D01*
X150464412Y-126395258D01*
X150445958Y-126426045D01*
X150424576Y-126454876D01*
X150400471Y-126481471D01*
X150373876Y-126505576D01*
X150345045Y-126526958D01*
X150314258Y-126545412D01*
X150281810Y-126560758D01*
X150248015Y-126572850D01*
X150213196Y-126581572D01*
X150177691Y-126586839D01*
X150141840Y-126588600D01*
X147520560Y-126588600D01*
X147484709Y-126586839D01*
X147449204Y-126581572D01*
X147414385Y-126572850D01*
X147380590Y-126560758D01*
X147348142Y-126545412D01*
X147317355Y-126526958D01*
X147288524Y-126505576D01*
X147261929Y-126481471D01*
X147237824Y-126454876D01*
X147216442Y-126426045D01*
X147197988Y-126395258D01*
X147182642Y-126362810D01*
X147170550Y-126329015D01*
X147161828Y-126294196D01*
X147156561Y-126258691D01*
X147154800Y-126222840D01*
X147154800Y-126141560D01*
X147156561Y-126105709D01*
X147161828Y-126070204D01*
X147170550Y-126035385D01*
X147182642Y-126001590D01*
X147197988Y-125969142D01*
X147216442Y-125938355D01*
X147237824Y-125909524D01*
X147261929Y-125882929D01*
X147288524Y-125858824D01*
X147317355Y-125837442D01*
X147348142Y-125818988D01*
X147380590Y-125803642D01*
X147414385Y-125791550D01*
X147449204Y-125782828D01*
X147484709Y-125777561D01*
X147520560Y-125775800D01*
X150141840Y-125775800D01*
X150177691Y-125777561D01*
X150177691Y-125777561D01*
G37*
D29*
X148831200Y-126182200D03*
D28*
G36*
X150177691Y-124507561D02*
G01*
X150213196Y-124512828D01*
X150248015Y-124521550D01*
X150281810Y-124533642D01*
X150314258Y-124548988D01*
X150345045Y-124567442D01*
X150373876Y-124588824D01*
X150400471Y-124612929D01*
X150424576Y-124639524D01*
X150445958Y-124668355D01*
X150464412Y-124699142D01*
X150479758Y-124731590D01*
X150491850Y-124765385D01*
X150500572Y-124800204D01*
X150505839Y-124835709D01*
X150507600Y-124871560D01*
X150507600Y-124952840D01*
X150505839Y-124988691D01*
X150500572Y-125024196D01*
X150491850Y-125059015D01*
X150479758Y-125092810D01*
X150464412Y-125125258D01*
X150445958Y-125156045D01*
X150424576Y-125184876D01*
X150400471Y-125211471D01*
X150373876Y-125235576D01*
X150345045Y-125256958D01*
X150314258Y-125275412D01*
X150281810Y-125290758D01*
X150248015Y-125302850D01*
X150213196Y-125311572D01*
X150177691Y-125316839D01*
X150141840Y-125318600D01*
X147520560Y-125318600D01*
X147484709Y-125316839D01*
X147449204Y-125311572D01*
X147414385Y-125302850D01*
X147380590Y-125290758D01*
X147348142Y-125275412D01*
X147317355Y-125256958D01*
X147288524Y-125235576D01*
X147261929Y-125211471D01*
X147237824Y-125184876D01*
X147216442Y-125156045D01*
X147197988Y-125125258D01*
X147182642Y-125092810D01*
X147170550Y-125059015D01*
X147161828Y-125024196D01*
X147156561Y-124988691D01*
X147154800Y-124952840D01*
X147154800Y-124871560D01*
X147156561Y-124835709D01*
X147161828Y-124800204D01*
X147170550Y-124765385D01*
X147182642Y-124731590D01*
X147197988Y-124699142D01*
X147216442Y-124668355D01*
X147237824Y-124639524D01*
X147261929Y-124612929D01*
X147288524Y-124588824D01*
X147317355Y-124567442D01*
X147348142Y-124548988D01*
X147380590Y-124533642D01*
X147414385Y-124521550D01*
X147449204Y-124512828D01*
X147484709Y-124507561D01*
X147520560Y-124505800D01*
X150141840Y-124505800D01*
X150177691Y-124507561D01*
X150177691Y-124507561D01*
G37*
D29*
X148831200Y-124912200D03*
D28*
G36*
X150177691Y-123237561D02*
G01*
X150213196Y-123242828D01*
X150248015Y-123251550D01*
X150281810Y-123263642D01*
X150314258Y-123278988D01*
X150345045Y-123297442D01*
X150373876Y-123318824D01*
X150400471Y-123342929D01*
X150424576Y-123369524D01*
X150445958Y-123398355D01*
X150464412Y-123429142D01*
X150479758Y-123461590D01*
X150491850Y-123495385D01*
X150500572Y-123530204D01*
X150505839Y-123565709D01*
X150507600Y-123601560D01*
X150507600Y-123682840D01*
X150505839Y-123718691D01*
X150500572Y-123754196D01*
X150491850Y-123789015D01*
X150479758Y-123822810D01*
X150464412Y-123855258D01*
X150445958Y-123886045D01*
X150424576Y-123914876D01*
X150400471Y-123941471D01*
X150373876Y-123965576D01*
X150345045Y-123986958D01*
X150314258Y-124005412D01*
X150281810Y-124020758D01*
X150248015Y-124032850D01*
X150213196Y-124041572D01*
X150177691Y-124046839D01*
X150141840Y-124048600D01*
X147520560Y-124048600D01*
X147484709Y-124046839D01*
X147449204Y-124041572D01*
X147414385Y-124032850D01*
X147380590Y-124020758D01*
X147348142Y-124005412D01*
X147317355Y-123986958D01*
X147288524Y-123965576D01*
X147261929Y-123941471D01*
X147237824Y-123914876D01*
X147216442Y-123886045D01*
X147197988Y-123855258D01*
X147182642Y-123822810D01*
X147170550Y-123789015D01*
X147161828Y-123754196D01*
X147156561Y-123718691D01*
X147154800Y-123682840D01*
X147154800Y-123601560D01*
X147156561Y-123565709D01*
X147161828Y-123530204D01*
X147170550Y-123495385D01*
X147182642Y-123461590D01*
X147197988Y-123429142D01*
X147216442Y-123398355D01*
X147237824Y-123369524D01*
X147261929Y-123342929D01*
X147288524Y-123318824D01*
X147317355Y-123297442D01*
X147348142Y-123278988D01*
X147380590Y-123263642D01*
X147414385Y-123251550D01*
X147449204Y-123242828D01*
X147484709Y-123237561D01*
X147520560Y-123235800D01*
X150141840Y-123235800D01*
X150177691Y-123237561D01*
X150177691Y-123237561D01*
G37*
D29*
X148831200Y-123642200D03*
D28*
G36*
X150177691Y-121967561D02*
G01*
X150213196Y-121972828D01*
X150248015Y-121981550D01*
X150281810Y-121993642D01*
X150314258Y-122008988D01*
X150345045Y-122027442D01*
X150373876Y-122048824D01*
X150400471Y-122072929D01*
X150424576Y-122099524D01*
X150445958Y-122128355D01*
X150464412Y-122159142D01*
X150479758Y-122191590D01*
X150491850Y-122225385D01*
X150500572Y-122260204D01*
X150505839Y-122295709D01*
X150507600Y-122331560D01*
X150507600Y-122412840D01*
X150505839Y-122448691D01*
X150500572Y-122484196D01*
X150491850Y-122519015D01*
X150479758Y-122552810D01*
X150464412Y-122585258D01*
X150445958Y-122616045D01*
X150424576Y-122644876D01*
X150400471Y-122671471D01*
X150373876Y-122695576D01*
X150345045Y-122716958D01*
X150314258Y-122735412D01*
X150281810Y-122750758D01*
X150248015Y-122762850D01*
X150213196Y-122771572D01*
X150177691Y-122776839D01*
X150141840Y-122778600D01*
X147520560Y-122778600D01*
X147484709Y-122776839D01*
X147449204Y-122771572D01*
X147414385Y-122762850D01*
X147380590Y-122750758D01*
X147348142Y-122735412D01*
X147317355Y-122716958D01*
X147288524Y-122695576D01*
X147261929Y-122671471D01*
X147237824Y-122644876D01*
X147216442Y-122616045D01*
X147197988Y-122585258D01*
X147182642Y-122552810D01*
X147170550Y-122519015D01*
X147161828Y-122484196D01*
X147156561Y-122448691D01*
X147154800Y-122412840D01*
X147154800Y-122331560D01*
X147156561Y-122295709D01*
X147161828Y-122260204D01*
X147170550Y-122225385D01*
X147182642Y-122191590D01*
X147197988Y-122159142D01*
X147216442Y-122128355D01*
X147237824Y-122099524D01*
X147261929Y-122072929D01*
X147288524Y-122048824D01*
X147317355Y-122027442D01*
X147348142Y-122008988D01*
X147380590Y-121993642D01*
X147414385Y-121981550D01*
X147449204Y-121972828D01*
X147484709Y-121967561D01*
X147520560Y-121965800D01*
X150141840Y-121965800D01*
X150177691Y-121967561D01*
X150177691Y-121967561D01*
G37*
D29*
X148831200Y-122372200D03*
D28*
G36*
X150177691Y-120697561D02*
G01*
X150213196Y-120702828D01*
X150248015Y-120711550D01*
X150281810Y-120723642D01*
X150314258Y-120738988D01*
X150345045Y-120757442D01*
X150373876Y-120778824D01*
X150400471Y-120802929D01*
X150424576Y-120829524D01*
X150445958Y-120858355D01*
X150464412Y-120889142D01*
X150479758Y-120921590D01*
X150491850Y-120955385D01*
X150500572Y-120990204D01*
X150505839Y-121025709D01*
X150507600Y-121061560D01*
X150507600Y-121142840D01*
X150505839Y-121178691D01*
X150500572Y-121214196D01*
X150491850Y-121249015D01*
X150479758Y-121282810D01*
X150464412Y-121315258D01*
X150445958Y-121346045D01*
X150424576Y-121374876D01*
X150400471Y-121401471D01*
X150373876Y-121425576D01*
X150345045Y-121446958D01*
X150314258Y-121465412D01*
X150281810Y-121480758D01*
X150248015Y-121492850D01*
X150213196Y-121501572D01*
X150177691Y-121506839D01*
X150141840Y-121508600D01*
X147520560Y-121508600D01*
X147484709Y-121506839D01*
X147449204Y-121501572D01*
X147414385Y-121492850D01*
X147380590Y-121480758D01*
X147348142Y-121465412D01*
X147317355Y-121446958D01*
X147288524Y-121425576D01*
X147261929Y-121401471D01*
X147237824Y-121374876D01*
X147216442Y-121346045D01*
X147197988Y-121315258D01*
X147182642Y-121282810D01*
X147170550Y-121249015D01*
X147161828Y-121214196D01*
X147156561Y-121178691D01*
X147154800Y-121142840D01*
X147154800Y-121061560D01*
X147156561Y-121025709D01*
X147161828Y-120990204D01*
X147170550Y-120955385D01*
X147182642Y-120921590D01*
X147197988Y-120889142D01*
X147216442Y-120858355D01*
X147237824Y-120829524D01*
X147261929Y-120802929D01*
X147288524Y-120778824D01*
X147317355Y-120757442D01*
X147348142Y-120738988D01*
X147380590Y-120723642D01*
X147414385Y-120711550D01*
X147449204Y-120702828D01*
X147484709Y-120697561D01*
X147520560Y-120695800D01*
X150141840Y-120695800D01*
X150177691Y-120697561D01*
X150177691Y-120697561D01*
G37*
D29*
X148831200Y-121102200D03*
D28*
G36*
X150177691Y-119427561D02*
G01*
X150213196Y-119432828D01*
X150248015Y-119441550D01*
X150281810Y-119453642D01*
X150314258Y-119468988D01*
X150345045Y-119487442D01*
X150373876Y-119508824D01*
X150400471Y-119532929D01*
X150424576Y-119559524D01*
X150445958Y-119588355D01*
X150464412Y-119619142D01*
X150479758Y-119651590D01*
X150491850Y-119685385D01*
X150500572Y-119720204D01*
X150505839Y-119755709D01*
X150507600Y-119791560D01*
X150507600Y-119872840D01*
X150505839Y-119908691D01*
X150500572Y-119944196D01*
X150491850Y-119979015D01*
X150479758Y-120012810D01*
X150464412Y-120045258D01*
X150445958Y-120076045D01*
X150424576Y-120104876D01*
X150400471Y-120131471D01*
X150373876Y-120155576D01*
X150345045Y-120176958D01*
X150314258Y-120195412D01*
X150281810Y-120210758D01*
X150248015Y-120222850D01*
X150213196Y-120231572D01*
X150177691Y-120236839D01*
X150141840Y-120238600D01*
X147520560Y-120238600D01*
X147484709Y-120236839D01*
X147449204Y-120231572D01*
X147414385Y-120222850D01*
X147380590Y-120210758D01*
X147348142Y-120195412D01*
X147317355Y-120176958D01*
X147288524Y-120155576D01*
X147261929Y-120131471D01*
X147237824Y-120104876D01*
X147216442Y-120076045D01*
X147197988Y-120045258D01*
X147182642Y-120012810D01*
X147170550Y-119979015D01*
X147161828Y-119944196D01*
X147156561Y-119908691D01*
X147154800Y-119872840D01*
X147154800Y-119791560D01*
X147156561Y-119755709D01*
X147161828Y-119720204D01*
X147170550Y-119685385D01*
X147182642Y-119651590D01*
X147197988Y-119619142D01*
X147216442Y-119588355D01*
X147237824Y-119559524D01*
X147261929Y-119532929D01*
X147288524Y-119508824D01*
X147317355Y-119487442D01*
X147348142Y-119468988D01*
X147380590Y-119453642D01*
X147414385Y-119441550D01*
X147449204Y-119432828D01*
X147484709Y-119427561D01*
X147520560Y-119425800D01*
X150141840Y-119425800D01*
X150177691Y-119427561D01*
X150177691Y-119427561D01*
G37*
D29*
X148831200Y-119832200D03*
D28*
G36*
X150177691Y-118157561D02*
G01*
X150213196Y-118162828D01*
X150248015Y-118171550D01*
X150281810Y-118183642D01*
X150314258Y-118198988D01*
X150345045Y-118217442D01*
X150373876Y-118238824D01*
X150400471Y-118262929D01*
X150424576Y-118289524D01*
X150445958Y-118318355D01*
X150464412Y-118349142D01*
X150479758Y-118381590D01*
X150491850Y-118415385D01*
X150500572Y-118450204D01*
X150505839Y-118485709D01*
X150507600Y-118521560D01*
X150507600Y-118602840D01*
X150505839Y-118638691D01*
X150500572Y-118674196D01*
X150491850Y-118709015D01*
X150479758Y-118742810D01*
X150464412Y-118775258D01*
X150445958Y-118806045D01*
X150424576Y-118834876D01*
X150400471Y-118861471D01*
X150373876Y-118885576D01*
X150345045Y-118906958D01*
X150314258Y-118925412D01*
X150281810Y-118940758D01*
X150248015Y-118952850D01*
X150213196Y-118961572D01*
X150177691Y-118966839D01*
X150141840Y-118968600D01*
X147520560Y-118968600D01*
X147484709Y-118966839D01*
X147449204Y-118961572D01*
X147414385Y-118952850D01*
X147380590Y-118940758D01*
X147348142Y-118925412D01*
X147317355Y-118906958D01*
X147288524Y-118885576D01*
X147261929Y-118861471D01*
X147237824Y-118834876D01*
X147216442Y-118806045D01*
X147197988Y-118775258D01*
X147182642Y-118742810D01*
X147170550Y-118709015D01*
X147161828Y-118674196D01*
X147156561Y-118638691D01*
X147154800Y-118602840D01*
X147154800Y-118521560D01*
X147156561Y-118485709D01*
X147161828Y-118450204D01*
X147170550Y-118415385D01*
X147182642Y-118381590D01*
X147197988Y-118349142D01*
X147216442Y-118318355D01*
X147237824Y-118289524D01*
X147261929Y-118262929D01*
X147288524Y-118238824D01*
X147317355Y-118217442D01*
X147348142Y-118198988D01*
X147380590Y-118183642D01*
X147414385Y-118171550D01*
X147449204Y-118162828D01*
X147484709Y-118157561D01*
X147520560Y-118155800D01*
X150141840Y-118155800D01*
X150177691Y-118157561D01*
X150177691Y-118157561D01*
G37*
D29*
X148831200Y-118562200D03*
D28*
G36*
X150177691Y-116887561D02*
G01*
X150213196Y-116892828D01*
X150248015Y-116901550D01*
X150281810Y-116913642D01*
X150314258Y-116928988D01*
X150345045Y-116947442D01*
X150373876Y-116968824D01*
X150400471Y-116992929D01*
X150424576Y-117019524D01*
X150445958Y-117048355D01*
X150464412Y-117079142D01*
X150479758Y-117111590D01*
X150491850Y-117145385D01*
X150500572Y-117180204D01*
X150505839Y-117215709D01*
X150507600Y-117251560D01*
X150507600Y-117332840D01*
X150505839Y-117368691D01*
X150500572Y-117404196D01*
X150491850Y-117439015D01*
X150479758Y-117472810D01*
X150464412Y-117505258D01*
X150445958Y-117536045D01*
X150424576Y-117564876D01*
X150400471Y-117591471D01*
X150373876Y-117615576D01*
X150345045Y-117636958D01*
X150314258Y-117655412D01*
X150281810Y-117670758D01*
X150248015Y-117682850D01*
X150213196Y-117691572D01*
X150177691Y-117696839D01*
X150141840Y-117698600D01*
X147520560Y-117698600D01*
X147484709Y-117696839D01*
X147449204Y-117691572D01*
X147414385Y-117682850D01*
X147380590Y-117670758D01*
X147348142Y-117655412D01*
X147317355Y-117636958D01*
X147288524Y-117615576D01*
X147261929Y-117591471D01*
X147237824Y-117564876D01*
X147216442Y-117536045D01*
X147197988Y-117505258D01*
X147182642Y-117472810D01*
X147170550Y-117439015D01*
X147161828Y-117404196D01*
X147156561Y-117368691D01*
X147154800Y-117332840D01*
X147154800Y-117251560D01*
X147156561Y-117215709D01*
X147161828Y-117180204D01*
X147170550Y-117145385D01*
X147182642Y-117111590D01*
X147197988Y-117079142D01*
X147216442Y-117048355D01*
X147237824Y-117019524D01*
X147261929Y-116992929D01*
X147288524Y-116968824D01*
X147317355Y-116947442D01*
X147348142Y-116928988D01*
X147380590Y-116913642D01*
X147414385Y-116901550D01*
X147449204Y-116892828D01*
X147484709Y-116887561D01*
X147520560Y-116885800D01*
X150141840Y-116885800D01*
X150177691Y-116887561D01*
X150177691Y-116887561D01*
G37*
D29*
X148831200Y-117292200D03*
D28*
G36*
X150177691Y-115617561D02*
G01*
X150213196Y-115622828D01*
X150248015Y-115631550D01*
X150281810Y-115643642D01*
X150314258Y-115658988D01*
X150345045Y-115677442D01*
X150373876Y-115698824D01*
X150400471Y-115722929D01*
X150424576Y-115749524D01*
X150445958Y-115778355D01*
X150464412Y-115809142D01*
X150479758Y-115841590D01*
X150491850Y-115875385D01*
X150500572Y-115910204D01*
X150505839Y-115945709D01*
X150507600Y-115981560D01*
X150507600Y-116062840D01*
X150505839Y-116098691D01*
X150500572Y-116134196D01*
X150491850Y-116169015D01*
X150479758Y-116202810D01*
X150464412Y-116235258D01*
X150445958Y-116266045D01*
X150424576Y-116294876D01*
X150400471Y-116321471D01*
X150373876Y-116345576D01*
X150345045Y-116366958D01*
X150314258Y-116385412D01*
X150281810Y-116400758D01*
X150248015Y-116412850D01*
X150213196Y-116421572D01*
X150177691Y-116426839D01*
X150141840Y-116428600D01*
X147520560Y-116428600D01*
X147484709Y-116426839D01*
X147449204Y-116421572D01*
X147414385Y-116412850D01*
X147380590Y-116400758D01*
X147348142Y-116385412D01*
X147317355Y-116366958D01*
X147288524Y-116345576D01*
X147261929Y-116321471D01*
X147237824Y-116294876D01*
X147216442Y-116266045D01*
X147197988Y-116235258D01*
X147182642Y-116202810D01*
X147170550Y-116169015D01*
X147161828Y-116134196D01*
X147156561Y-116098691D01*
X147154800Y-116062840D01*
X147154800Y-115981560D01*
X147156561Y-115945709D01*
X147161828Y-115910204D01*
X147170550Y-115875385D01*
X147182642Y-115841590D01*
X147197988Y-115809142D01*
X147216442Y-115778355D01*
X147237824Y-115749524D01*
X147261929Y-115722929D01*
X147288524Y-115698824D01*
X147317355Y-115677442D01*
X147348142Y-115658988D01*
X147380590Y-115643642D01*
X147414385Y-115631550D01*
X147449204Y-115622828D01*
X147484709Y-115617561D01*
X147520560Y-115615800D01*
X150141840Y-115615800D01*
X150177691Y-115617561D01*
X150177691Y-115617561D01*
G37*
D29*
X148831200Y-116022200D03*
D28*
G36*
X150177691Y-114347561D02*
G01*
X150213196Y-114352828D01*
X150248015Y-114361550D01*
X150281810Y-114373642D01*
X150314258Y-114388988D01*
X150345045Y-114407442D01*
X150373876Y-114428824D01*
X150400471Y-114452929D01*
X150424576Y-114479524D01*
X150445958Y-114508355D01*
X150464412Y-114539142D01*
X150479758Y-114571590D01*
X150491850Y-114605385D01*
X150500572Y-114640204D01*
X150505839Y-114675709D01*
X150507600Y-114711560D01*
X150507600Y-114792840D01*
X150505839Y-114828691D01*
X150500572Y-114864196D01*
X150491850Y-114899015D01*
X150479758Y-114932810D01*
X150464412Y-114965258D01*
X150445958Y-114996045D01*
X150424576Y-115024876D01*
X150400471Y-115051471D01*
X150373876Y-115075576D01*
X150345045Y-115096958D01*
X150314258Y-115115412D01*
X150281810Y-115130758D01*
X150248015Y-115142850D01*
X150213196Y-115151572D01*
X150177691Y-115156839D01*
X150141840Y-115158600D01*
X147520560Y-115158600D01*
X147484709Y-115156839D01*
X147449204Y-115151572D01*
X147414385Y-115142850D01*
X147380590Y-115130758D01*
X147348142Y-115115412D01*
X147317355Y-115096958D01*
X147288524Y-115075576D01*
X147261929Y-115051471D01*
X147237824Y-115024876D01*
X147216442Y-114996045D01*
X147197988Y-114965258D01*
X147182642Y-114932810D01*
X147170550Y-114899015D01*
X147161828Y-114864196D01*
X147156561Y-114828691D01*
X147154800Y-114792840D01*
X147154800Y-114711560D01*
X147156561Y-114675709D01*
X147161828Y-114640204D01*
X147170550Y-114605385D01*
X147182642Y-114571590D01*
X147197988Y-114539142D01*
X147216442Y-114508355D01*
X147237824Y-114479524D01*
X147261929Y-114452929D01*
X147288524Y-114428824D01*
X147317355Y-114407442D01*
X147348142Y-114388988D01*
X147380590Y-114373642D01*
X147414385Y-114361550D01*
X147449204Y-114352828D01*
X147484709Y-114347561D01*
X147520560Y-114345800D01*
X150141840Y-114345800D01*
X150177691Y-114347561D01*
X150177691Y-114347561D01*
G37*
D29*
X148831200Y-114752200D03*
D28*
G36*
X136766491Y-123237561D02*
G01*
X136801996Y-123242828D01*
X136836815Y-123251550D01*
X136870610Y-123263642D01*
X136903058Y-123278988D01*
X136933845Y-123297442D01*
X136962676Y-123318824D01*
X136989271Y-123342929D01*
X137013376Y-123369524D01*
X137034758Y-123398355D01*
X137053212Y-123429142D01*
X137068558Y-123461590D01*
X137080650Y-123495385D01*
X137089372Y-123530204D01*
X137094639Y-123565709D01*
X137096400Y-123601560D01*
X137096400Y-123682840D01*
X137094639Y-123718691D01*
X137089372Y-123754196D01*
X137080650Y-123789015D01*
X137068558Y-123822810D01*
X137053212Y-123855258D01*
X137034758Y-123886045D01*
X137013376Y-123914876D01*
X136989271Y-123941471D01*
X136962676Y-123965576D01*
X136933845Y-123986958D01*
X136903058Y-124005412D01*
X136870610Y-124020758D01*
X136836815Y-124032850D01*
X136801996Y-124041572D01*
X136766491Y-124046839D01*
X136730640Y-124048600D01*
X134109360Y-124048600D01*
X134073509Y-124046839D01*
X134038004Y-124041572D01*
X134003185Y-124032850D01*
X133969390Y-124020758D01*
X133936942Y-124005412D01*
X133906155Y-123986958D01*
X133877324Y-123965576D01*
X133850729Y-123941471D01*
X133826624Y-123914876D01*
X133805242Y-123886045D01*
X133786788Y-123855258D01*
X133771442Y-123822810D01*
X133759350Y-123789015D01*
X133750628Y-123754196D01*
X133745361Y-123718691D01*
X133743600Y-123682840D01*
X133743600Y-123601560D01*
X133745361Y-123565709D01*
X133750628Y-123530204D01*
X133759350Y-123495385D01*
X133771442Y-123461590D01*
X133786788Y-123429142D01*
X133805242Y-123398355D01*
X133826624Y-123369524D01*
X133850729Y-123342929D01*
X133877324Y-123318824D01*
X133906155Y-123297442D01*
X133936942Y-123278988D01*
X133969390Y-123263642D01*
X134003185Y-123251550D01*
X134038004Y-123242828D01*
X134073509Y-123237561D01*
X134109360Y-123235800D01*
X136730640Y-123235800D01*
X136766491Y-123237561D01*
X136766491Y-123237561D01*
G37*
D29*
X135420000Y-123642200D03*
D28*
G36*
X136766491Y-121967561D02*
G01*
X136801996Y-121972828D01*
X136836815Y-121981550D01*
X136870610Y-121993642D01*
X136903058Y-122008988D01*
X136933845Y-122027442D01*
X136962676Y-122048824D01*
X136989271Y-122072929D01*
X137013376Y-122099524D01*
X137034758Y-122128355D01*
X137053212Y-122159142D01*
X137068558Y-122191590D01*
X137080650Y-122225385D01*
X137089372Y-122260204D01*
X137094639Y-122295709D01*
X137096400Y-122331560D01*
X137096400Y-122412840D01*
X137094639Y-122448691D01*
X137089372Y-122484196D01*
X137080650Y-122519015D01*
X137068558Y-122552810D01*
X137053212Y-122585258D01*
X137034758Y-122616045D01*
X137013376Y-122644876D01*
X136989271Y-122671471D01*
X136962676Y-122695576D01*
X136933845Y-122716958D01*
X136903058Y-122735412D01*
X136870610Y-122750758D01*
X136836815Y-122762850D01*
X136801996Y-122771572D01*
X136766491Y-122776839D01*
X136730640Y-122778600D01*
X134109360Y-122778600D01*
X134073509Y-122776839D01*
X134038004Y-122771572D01*
X134003185Y-122762850D01*
X133969390Y-122750758D01*
X133936942Y-122735412D01*
X133906155Y-122716958D01*
X133877324Y-122695576D01*
X133850729Y-122671471D01*
X133826624Y-122644876D01*
X133805242Y-122616045D01*
X133786788Y-122585258D01*
X133771442Y-122552810D01*
X133759350Y-122519015D01*
X133750628Y-122484196D01*
X133745361Y-122448691D01*
X133743600Y-122412840D01*
X133743600Y-122331560D01*
X133745361Y-122295709D01*
X133750628Y-122260204D01*
X133759350Y-122225385D01*
X133771442Y-122191590D01*
X133786788Y-122159142D01*
X133805242Y-122128355D01*
X133826624Y-122099524D01*
X133850729Y-122072929D01*
X133877324Y-122048824D01*
X133906155Y-122027442D01*
X133936942Y-122008988D01*
X133969390Y-121993642D01*
X134003185Y-121981550D01*
X134038004Y-121972828D01*
X134073509Y-121967561D01*
X134109360Y-121965800D01*
X136730640Y-121965800D01*
X136766491Y-121967561D01*
X136766491Y-121967561D01*
G37*
D29*
X135420000Y-122372200D03*
D28*
G36*
X136766491Y-120697561D02*
G01*
X136801996Y-120702828D01*
X136836815Y-120711550D01*
X136870610Y-120723642D01*
X136903058Y-120738988D01*
X136933845Y-120757442D01*
X136962676Y-120778824D01*
X136989271Y-120802929D01*
X137013376Y-120829524D01*
X137034758Y-120858355D01*
X137053212Y-120889142D01*
X137068558Y-120921590D01*
X137080650Y-120955385D01*
X137089372Y-120990204D01*
X137094639Y-121025709D01*
X137096400Y-121061560D01*
X137096400Y-121142840D01*
X137094639Y-121178691D01*
X137089372Y-121214196D01*
X137080650Y-121249015D01*
X137068558Y-121282810D01*
X137053212Y-121315258D01*
X137034758Y-121346045D01*
X137013376Y-121374876D01*
X136989271Y-121401471D01*
X136962676Y-121425576D01*
X136933845Y-121446958D01*
X136903058Y-121465412D01*
X136870610Y-121480758D01*
X136836815Y-121492850D01*
X136801996Y-121501572D01*
X136766491Y-121506839D01*
X136730640Y-121508600D01*
X134109360Y-121508600D01*
X134073509Y-121506839D01*
X134038004Y-121501572D01*
X134003185Y-121492850D01*
X133969390Y-121480758D01*
X133936942Y-121465412D01*
X133906155Y-121446958D01*
X133877324Y-121425576D01*
X133850729Y-121401471D01*
X133826624Y-121374876D01*
X133805242Y-121346045D01*
X133786788Y-121315258D01*
X133771442Y-121282810D01*
X133759350Y-121249015D01*
X133750628Y-121214196D01*
X133745361Y-121178691D01*
X133743600Y-121142840D01*
X133743600Y-121061560D01*
X133745361Y-121025709D01*
X133750628Y-120990204D01*
X133759350Y-120955385D01*
X133771442Y-120921590D01*
X133786788Y-120889142D01*
X133805242Y-120858355D01*
X133826624Y-120829524D01*
X133850729Y-120802929D01*
X133877324Y-120778824D01*
X133906155Y-120757442D01*
X133936942Y-120738988D01*
X133969390Y-120723642D01*
X134003185Y-120711550D01*
X134038004Y-120702828D01*
X134073509Y-120697561D01*
X134109360Y-120695800D01*
X136730640Y-120695800D01*
X136766491Y-120697561D01*
X136766491Y-120697561D01*
G37*
D29*
X135420000Y-121102200D03*
D28*
G36*
X136766491Y-119427561D02*
G01*
X136801996Y-119432828D01*
X136836815Y-119441550D01*
X136870610Y-119453642D01*
X136903058Y-119468988D01*
X136933845Y-119487442D01*
X136962676Y-119508824D01*
X136989271Y-119532929D01*
X137013376Y-119559524D01*
X137034758Y-119588355D01*
X137053212Y-119619142D01*
X137068558Y-119651590D01*
X137080650Y-119685385D01*
X137089372Y-119720204D01*
X137094639Y-119755709D01*
X137096400Y-119791560D01*
X137096400Y-119872840D01*
X137094639Y-119908691D01*
X137089372Y-119944196D01*
X137080650Y-119979015D01*
X137068558Y-120012810D01*
X137053212Y-120045258D01*
X137034758Y-120076045D01*
X137013376Y-120104876D01*
X136989271Y-120131471D01*
X136962676Y-120155576D01*
X136933845Y-120176958D01*
X136903058Y-120195412D01*
X136870610Y-120210758D01*
X136836815Y-120222850D01*
X136801996Y-120231572D01*
X136766491Y-120236839D01*
X136730640Y-120238600D01*
X134109360Y-120238600D01*
X134073509Y-120236839D01*
X134038004Y-120231572D01*
X134003185Y-120222850D01*
X133969390Y-120210758D01*
X133936942Y-120195412D01*
X133906155Y-120176958D01*
X133877324Y-120155576D01*
X133850729Y-120131471D01*
X133826624Y-120104876D01*
X133805242Y-120076045D01*
X133786788Y-120045258D01*
X133771442Y-120012810D01*
X133759350Y-119979015D01*
X133750628Y-119944196D01*
X133745361Y-119908691D01*
X133743600Y-119872840D01*
X133743600Y-119791560D01*
X133745361Y-119755709D01*
X133750628Y-119720204D01*
X133759350Y-119685385D01*
X133771442Y-119651590D01*
X133786788Y-119619142D01*
X133805242Y-119588355D01*
X133826624Y-119559524D01*
X133850729Y-119532929D01*
X133877324Y-119508824D01*
X133906155Y-119487442D01*
X133936942Y-119468988D01*
X133969390Y-119453642D01*
X134003185Y-119441550D01*
X134038004Y-119432828D01*
X134073509Y-119427561D01*
X134109360Y-119425800D01*
X136730640Y-119425800D01*
X136766491Y-119427561D01*
X136766491Y-119427561D01*
G37*
D29*
X135420000Y-119832200D03*
D28*
G36*
X136766491Y-118157561D02*
G01*
X136801996Y-118162828D01*
X136836815Y-118171550D01*
X136870610Y-118183642D01*
X136903058Y-118198988D01*
X136933845Y-118217442D01*
X136962676Y-118238824D01*
X136989271Y-118262929D01*
X137013376Y-118289524D01*
X137034758Y-118318355D01*
X137053212Y-118349142D01*
X137068558Y-118381590D01*
X137080650Y-118415385D01*
X137089372Y-118450204D01*
X137094639Y-118485709D01*
X137096400Y-118521560D01*
X137096400Y-118602840D01*
X137094639Y-118638691D01*
X137089372Y-118674196D01*
X137080650Y-118709015D01*
X137068558Y-118742810D01*
X137053212Y-118775258D01*
X137034758Y-118806045D01*
X137013376Y-118834876D01*
X136989271Y-118861471D01*
X136962676Y-118885576D01*
X136933845Y-118906958D01*
X136903058Y-118925412D01*
X136870610Y-118940758D01*
X136836815Y-118952850D01*
X136801996Y-118961572D01*
X136766491Y-118966839D01*
X136730640Y-118968600D01*
X134109360Y-118968600D01*
X134073509Y-118966839D01*
X134038004Y-118961572D01*
X134003185Y-118952850D01*
X133969390Y-118940758D01*
X133936942Y-118925412D01*
X133906155Y-118906958D01*
X133877324Y-118885576D01*
X133850729Y-118861471D01*
X133826624Y-118834876D01*
X133805242Y-118806045D01*
X133786788Y-118775258D01*
X133771442Y-118742810D01*
X133759350Y-118709015D01*
X133750628Y-118674196D01*
X133745361Y-118638691D01*
X133743600Y-118602840D01*
X133743600Y-118521560D01*
X133745361Y-118485709D01*
X133750628Y-118450204D01*
X133759350Y-118415385D01*
X133771442Y-118381590D01*
X133786788Y-118349142D01*
X133805242Y-118318355D01*
X133826624Y-118289524D01*
X133850729Y-118262929D01*
X133877324Y-118238824D01*
X133906155Y-118217442D01*
X133936942Y-118198988D01*
X133969390Y-118183642D01*
X134003185Y-118171550D01*
X134038004Y-118162828D01*
X134073509Y-118157561D01*
X134109360Y-118155800D01*
X136730640Y-118155800D01*
X136766491Y-118157561D01*
X136766491Y-118157561D01*
G37*
D29*
X135420000Y-118562200D03*
D28*
G36*
X136766491Y-116887561D02*
G01*
X136801996Y-116892828D01*
X136836815Y-116901550D01*
X136870610Y-116913642D01*
X136903058Y-116928988D01*
X136933845Y-116947442D01*
X136962676Y-116968824D01*
X136989271Y-116992929D01*
X137013376Y-117019524D01*
X137034758Y-117048355D01*
X137053212Y-117079142D01*
X137068558Y-117111590D01*
X137080650Y-117145385D01*
X137089372Y-117180204D01*
X137094639Y-117215709D01*
X137096400Y-117251560D01*
X137096400Y-117332840D01*
X137094639Y-117368691D01*
X137089372Y-117404196D01*
X137080650Y-117439015D01*
X137068558Y-117472810D01*
X137053212Y-117505258D01*
X137034758Y-117536045D01*
X137013376Y-117564876D01*
X136989271Y-117591471D01*
X136962676Y-117615576D01*
X136933845Y-117636958D01*
X136903058Y-117655412D01*
X136870610Y-117670758D01*
X136836815Y-117682850D01*
X136801996Y-117691572D01*
X136766491Y-117696839D01*
X136730640Y-117698600D01*
X134109360Y-117698600D01*
X134073509Y-117696839D01*
X134038004Y-117691572D01*
X134003185Y-117682850D01*
X133969390Y-117670758D01*
X133936942Y-117655412D01*
X133906155Y-117636958D01*
X133877324Y-117615576D01*
X133850729Y-117591471D01*
X133826624Y-117564876D01*
X133805242Y-117536045D01*
X133786788Y-117505258D01*
X133771442Y-117472810D01*
X133759350Y-117439015D01*
X133750628Y-117404196D01*
X133745361Y-117368691D01*
X133743600Y-117332840D01*
X133743600Y-117251560D01*
X133745361Y-117215709D01*
X133750628Y-117180204D01*
X133759350Y-117145385D01*
X133771442Y-117111590D01*
X133786788Y-117079142D01*
X133805242Y-117048355D01*
X133826624Y-117019524D01*
X133850729Y-116992929D01*
X133877324Y-116968824D01*
X133906155Y-116947442D01*
X133936942Y-116928988D01*
X133969390Y-116913642D01*
X134003185Y-116901550D01*
X134038004Y-116892828D01*
X134073509Y-116887561D01*
X134109360Y-116885800D01*
X136730640Y-116885800D01*
X136766491Y-116887561D01*
X136766491Y-116887561D01*
G37*
D29*
X135420000Y-117292200D03*
D28*
G36*
X136766491Y-115617561D02*
G01*
X136801996Y-115622828D01*
X136836815Y-115631550D01*
X136870610Y-115643642D01*
X136903058Y-115658988D01*
X136933845Y-115677442D01*
X136962676Y-115698824D01*
X136989271Y-115722929D01*
X137013376Y-115749524D01*
X137034758Y-115778355D01*
X137053212Y-115809142D01*
X137068558Y-115841590D01*
X137080650Y-115875385D01*
X137089372Y-115910204D01*
X137094639Y-115945709D01*
X137096400Y-115981560D01*
X137096400Y-116062840D01*
X137094639Y-116098691D01*
X137089372Y-116134196D01*
X137080650Y-116169015D01*
X137068558Y-116202810D01*
X137053212Y-116235258D01*
X137034758Y-116266045D01*
X137013376Y-116294876D01*
X136989271Y-116321471D01*
X136962676Y-116345576D01*
X136933845Y-116366958D01*
X136903058Y-116385412D01*
X136870610Y-116400758D01*
X136836815Y-116412850D01*
X136801996Y-116421572D01*
X136766491Y-116426839D01*
X136730640Y-116428600D01*
X134109360Y-116428600D01*
X134073509Y-116426839D01*
X134038004Y-116421572D01*
X134003185Y-116412850D01*
X133969390Y-116400758D01*
X133936942Y-116385412D01*
X133906155Y-116366958D01*
X133877324Y-116345576D01*
X133850729Y-116321471D01*
X133826624Y-116294876D01*
X133805242Y-116266045D01*
X133786788Y-116235258D01*
X133771442Y-116202810D01*
X133759350Y-116169015D01*
X133750628Y-116134196D01*
X133745361Y-116098691D01*
X133743600Y-116062840D01*
X133743600Y-115981560D01*
X133745361Y-115945709D01*
X133750628Y-115910204D01*
X133759350Y-115875385D01*
X133771442Y-115841590D01*
X133786788Y-115809142D01*
X133805242Y-115778355D01*
X133826624Y-115749524D01*
X133850729Y-115722929D01*
X133877324Y-115698824D01*
X133906155Y-115677442D01*
X133936942Y-115658988D01*
X133969390Y-115643642D01*
X134003185Y-115631550D01*
X134038004Y-115622828D01*
X134073509Y-115617561D01*
X134109360Y-115615800D01*
X136730640Y-115615800D01*
X136766491Y-115617561D01*
X136766491Y-115617561D01*
G37*
D29*
X135420000Y-116022200D03*
D28*
G36*
X136766491Y-114347561D02*
G01*
X136801996Y-114352828D01*
X136836815Y-114361550D01*
X136870610Y-114373642D01*
X136903058Y-114388988D01*
X136933845Y-114407442D01*
X136962676Y-114428824D01*
X136989271Y-114452929D01*
X137013376Y-114479524D01*
X137034758Y-114508355D01*
X137053212Y-114539142D01*
X137068558Y-114571590D01*
X137080650Y-114605385D01*
X137089372Y-114640204D01*
X137094639Y-114675709D01*
X137096400Y-114711560D01*
X137096400Y-114792840D01*
X137094639Y-114828691D01*
X137089372Y-114864196D01*
X137080650Y-114899015D01*
X137068558Y-114932810D01*
X137053212Y-114965258D01*
X137034758Y-114996045D01*
X137013376Y-115024876D01*
X136989271Y-115051471D01*
X136962676Y-115075576D01*
X136933845Y-115096958D01*
X136903058Y-115115412D01*
X136870610Y-115130758D01*
X136836815Y-115142850D01*
X136801996Y-115151572D01*
X136766491Y-115156839D01*
X136730640Y-115158600D01*
X134109360Y-115158600D01*
X134073509Y-115156839D01*
X134038004Y-115151572D01*
X134003185Y-115142850D01*
X133969390Y-115130758D01*
X133936942Y-115115412D01*
X133906155Y-115096958D01*
X133877324Y-115075576D01*
X133850729Y-115051471D01*
X133826624Y-115024876D01*
X133805242Y-114996045D01*
X133786788Y-114965258D01*
X133771442Y-114932810D01*
X133759350Y-114899015D01*
X133750628Y-114864196D01*
X133745361Y-114828691D01*
X133743600Y-114792840D01*
X133743600Y-114711560D01*
X133745361Y-114675709D01*
X133750628Y-114640204D01*
X133759350Y-114605385D01*
X133771442Y-114571590D01*
X133786788Y-114539142D01*
X133805242Y-114508355D01*
X133826624Y-114479524D01*
X133850729Y-114452929D01*
X133877324Y-114428824D01*
X133906155Y-114407442D01*
X133936942Y-114388988D01*
X133969390Y-114373642D01*
X134003185Y-114361550D01*
X134038004Y-114352828D01*
X134073509Y-114347561D01*
X134109360Y-114345800D01*
X136730640Y-114345800D01*
X136766491Y-114347561D01*
X136766491Y-114347561D01*
G37*
D29*
X135420000Y-114752200D03*
D30*
X155206600Y-85923200D03*
X142506600Y-81986200D03*
X142379600Y-105608200D03*
X142379600Y-114244200D03*
X146189600Y-105862200D03*
X135394600Y-113609200D03*
X158000600Y-111577200D03*
X162064600Y-111577200D03*
X158508600Y-97734200D03*
X143522600Y-119171800D03*
X141998600Y-99004200D03*
X145427600Y-119070200D03*
X152158600Y-122753200D03*
X139077600Y-122372200D03*
X132727600Y-120848200D03*
X132727600Y-104592200D03*
X139204600Y-120721200D03*
X146570600Y-112466200D03*
X153047600Y-110053200D03*
X139204600Y-118562200D03*
X136918600Y-108122800D03*
X139814200Y-108122800D03*
X142252600Y-103068200D03*
X160667600Y-102306200D03*
X150634600Y-112466200D03*
X162953600Y-104846200D03*
X150380600Y-105735200D03*
X157238600Y-105608200D03*
X158635600Y-106497200D03*
X158635600Y-104084200D03*
X148094600Y-106243200D03*
X157619600Y-109545200D03*
X160286600Y-110561200D03*
X144538600Y-106243200D03*
X156222600Y-101798200D03*
X146062600Y-98242200D03*
X141236600Y-112847200D03*
X139966600Y-106878200D03*
X152920600Y-105481200D03*
X154825600Y-103322200D03*
X133997600Y-110434200D03*
X147967600Y-100655200D03*
X135394600Y-108021200D03*
X137934600Y-85796200D03*
X152793600Y-85923200D03*
X140728600Y-98242200D03*
X142633600Y-92527200D03*
X146443600Y-92527200D03*
X140728600Y-92527200D03*
X144411600Y-98242200D03*
X160667600Y-97988200D03*
D31*
X140645600Y-82692200D02*
X133545600Y-82692200D01*
X133545600Y-82692200D02*
X133545600Y-83692200D01*
X133545600Y-83692200D02*
X133445600Y-83692200D01*
X133445600Y-83692200D02*
X133445600Y-88192200D01*
X140645600Y-82692200D02*
X140745600Y-82692200D01*
X140745600Y-82692200D02*
X140745600Y-84018200D01*
X140745600Y-84018200D02*
X140745600Y-89192200D01*
X157365600Y-84002200D02*
X155206600Y-84002200D01*
X155206600Y-84002200D02*
X155206600Y-85923200D01*
X142506600Y-81986200D02*
X142506600Y-84018200D01*
X142506600Y-84018200D02*
X140745600Y-84018200D01*
D32*
X141693800Y-93924200D02*
X141744600Y-93924200D01*
X141744600Y-93924200D02*
X141744600Y-91511200D01*
X141744600Y-91511200D02*
X141744600Y-89098200D01*
X141744600Y-89098200D02*
X140745600Y-89098200D01*
X140745600Y-89098200D02*
X140745600Y-89192200D01*
X145376800Y-93924200D02*
X145300600Y-93924200D01*
X145300600Y-93924200D02*
X145300600Y-91511200D01*
X145300600Y-91511200D02*
X141744600Y-91511200D01*
X140820040Y-103083441D02*
X140820040Y-103733682D01*
X140820040Y-103733682D02*
X139204600Y-103733682D01*
X139204600Y-103733682D02*
X136918600Y-103733682D01*
X136918600Y-103733682D02*
X136918600Y-104383919D01*
X140820040Y-105684400D02*
X140820040Y-105034160D01*
X140820040Y-105684400D02*
X139280800Y-105684400D01*
X139280800Y-105684400D02*
X139204600Y-105608200D01*
X139204600Y-105608200D02*
X139204600Y-103733682D01*
D33*
X136410600Y-110545200D02*
X136410600Y-111045200D01*
X136410600Y-111045200D02*
X136410600Y-111545200D01*
X136410600Y-111545200D02*
X141410600Y-111545200D01*
D34*
X136410600Y-111545200D02*
X136410600Y-111577200D01*
X136410600Y-111577200D02*
X135394600Y-112593200D01*
X135394600Y-112593200D02*
X135394600Y-115996800D01*
X135394600Y-115996800D02*
X135420000Y-116022200D01*
D35*
X135420000Y-114752200D02*
X135420000Y-116022200D01*
X135420000Y-116022200D02*
X135420000Y-115488800D01*
X135420000Y-115488800D02*
X135521600Y-115387200D01*
D34*
X135521600Y-115387200D02*
X141236600Y-115387200D01*
X141236600Y-115387200D02*
X142252600Y-115387200D01*
X142252600Y-115387200D02*
X146189600Y-115387200D01*
X146189600Y-115387200D02*
X148856600Y-115387200D01*
D35*
X148856600Y-115387200D02*
X148856600Y-114777600D01*
X148856600Y-114777600D02*
X148831200Y-114752200D01*
X148856600Y-115387200D02*
X148856600Y-115996800D01*
X148856600Y-115996800D02*
X148831200Y-116022200D01*
X148831200Y-127452200D02*
X148831200Y-126182200D01*
X148831200Y-126182200D02*
X146824600Y-126182200D01*
X146824600Y-126182200D02*
X146443600Y-125801200D01*
X146443600Y-125801200D02*
X146443600Y-123642200D01*
X146443600Y-123642200D02*
X146570600Y-123515200D01*
X146570600Y-123515200D02*
X148704200Y-123515200D01*
X148704200Y-123515200D02*
X148831200Y-123642200D01*
X148831200Y-123642200D02*
X143268600Y-123642200D01*
X143268600Y-123642200D02*
X135420000Y-123642200D01*
X146570600Y-123515200D02*
X143471800Y-123515200D01*
X143471800Y-123515200D02*
X143471800Y-123566000D01*
X141211200Y-123566000D02*
X141236600Y-115387200D01*
X141236600Y-115387200D02*
X146189600Y-115387200D01*
X154174600Y-126817200D02*
X154174600Y-128992200D01*
X154174600Y-128992200D02*
X154063600Y-129103200D01*
X154063600Y-129103200D02*
X148983600Y-129103200D01*
X148983600Y-129103200D02*
X148729600Y-128849200D01*
X148729600Y-128849200D02*
X148729600Y-127553800D01*
X148729600Y-127553800D02*
X148831200Y-127452200D01*
X148856600Y-115996800D02*
X150990200Y-115996800D01*
X150990200Y-115996800D02*
X152285600Y-117292200D01*
X152285600Y-117292200D02*
X154952600Y-117292200D01*
X154952600Y-117292200D02*
X158889600Y-121229200D01*
X158889600Y-121229200D02*
X161286600Y-121229200D01*
X161286600Y-121229200D02*
X161302600Y-121213200D01*
X161302600Y-121213200D02*
X163350600Y-121213200D01*
X163350600Y-121213200D02*
X163588600Y-120975200D01*
X163588600Y-120975200D02*
X163588600Y-106878200D01*
D32*
X163588600Y-106878200D02*
X162445600Y-106878200D01*
X162445600Y-106878200D02*
X162278259Y-106734766D01*
X162278259Y-106734766D02*
X161556600Y-106243200D01*
D33*
X161556600Y-106243200D02*
X161596281Y-106243200D01*
D32*
X161596281Y-106243200D02*
X160662040Y-106161441D01*
X133362600Y-91450200D02*
X133362600Y-88275200D01*
X133362600Y-88275200D02*
X133445600Y-88192200D01*
X155257400Y-91790600D02*
X155841600Y-91130200D01*
X155841600Y-91130200D02*
X155841600Y-86558200D01*
X155841600Y-86558200D02*
X155206600Y-85923200D01*
X138950600Y-98435200D02*
X136918600Y-98435200D01*
X136918600Y-98435200D02*
X136791600Y-98562200D01*
X138950600Y-98435200D02*
X138950600Y-96464200D01*
X138950600Y-96464200D02*
X139839600Y-95575200D01*
X139839600Y-95575200D02*
X141617600Y-95575200D01*
X141617600Y-95575200D02*
X141744600Y-95448200D01*
X141744600Y-95448200D02*
X141744600Y-93975000D01*
X141744600Y-93975000D02*
X141693800Y-93924200D01*
X140820040Y-105034160D02*
X141805559Y-105034160D01*
X141805559Y-105034160D02*
X142379600Y-105608200D01*
X142379600Y-114244200D02*
X142379600Y-115260200D01*
X142379600Y-115260200D02*
X142252600Y-115387200D01*
X146189600Y-104764200D02*
X146189600Y-105862200D01*
D33*
X143471800Y-123566000D02*
X143141600Y-123515200D01*
X143141600Y-123515200D02*
X143268600Y-123642200D01*
D32*
X148831200Y-114752200D02*
X145808600Y-114752200D01*
X145808600Y-114752200D02*
X144919600Y-113863200D01*
X144919600Y-113863200D02*
X144919600Y-112085200D01*
X144919600Y-112085200D02*
X145935600Y-111069200D01*
X145935600Y-111069200D02*
X146672200Y-111069200D01*
X146672200Y-111069200D02*
X146697600Y-111043800D01*
X153174600Y-100848200D02*
X154378600Y-100848200D01*
X154378600Y-100848200D02*
X154698600Y-100782200D01*
X154698600Y-100782200D02*
X154698600Y-96845200D01*
X157365600Y-96845200D02*
X157492600Y-97353200D01*
X158127600Y-97353200D02*
X159397600Y-97353200D01*
X159397600Y-97353200D02*
X159651600Y-96845200D01*
X159651600Y-96845200D02*
X161683600Y-96845200D01*
X161683600Y-96845200D02*
X162191600Y-97353200D01*
X162191600Y-97353200D02*
X162191600Y-98242200D01*
X162191600Y-98242200D02*
X162318600Y-98369200D01*
X162318600Y-98369200D02*
X163969600Y-98369200D01*
X163969600Y-98369200D02*
X163969600Y-106116200D01*
X163969600Y-106116200D02*
X163588600Y-106878200D01*
X156095600Y-96911200D02*
X157299600Y-96911200D01*
X157299600Y-96911200D02*
X157365600Y-96845200D01*
X135394600Y-113609200D02*
X135394600Y-112593200D01*
X156156600Y-111958200D02*
X157619600Y-111958200D01*
X157619600Y-111958200D02*
X158000600Y-111577200D01*
X162064600Y-111577200D02*
X162064600Y-106948425D01*
X162064600Y-106948425D02*
X162278259Y-106734766D01*
X154698600Y-96845200D02*
X157365600Y-96845200D01*
X157365600Y-96845200D02*
X157365600Y-97226200D01*
X157365600Y-97226200D02*
X157492600Y-97353200D01*
X157492600Y-97353200D02*
X158127600Y-97353200D01*
X158127600Y-97353200D02*
X158508600Y-97734200D01*
D33*
X155257400Y-91790600D02*
X154529400Y-91790600D01*
D31*
X143522600Y-119171800D02*
X143471800Y-119171800D01*
X143471800Y-119171800D02*
X143471800Y-123515200D01*
D32*
X142633600Y-96743600D02*
X142633600Y-98242200D01*
X142633600Y-98242200D02*
X141998600Y-99004200D01*
D35*
X148831200Y-122372200D02*
X150507600Y-122372200D01*
X150507600Y-122372200D02*
X151269600Y-121610200D01*
X151269600Y-121610200D02*
X153174600Y-121610200D01*
X153174600Y-121610200D02*
X156222600Y-124658200D01*
X156222600Y-124658200D02*
X156222600Y-126801200D01*
X156222600Y-126801200D02*
X156238600Y-126817200D01*
D33*
X145427600Y-119070200D02*
X146672200Y-119070200D01*
X146672200Y-119070200D02*
X146672200Y-121737200D01*
X146672200Y-121737200D02*
X146824600Y-122245200D01*
X146824600Y-122245200D02*
X148704200Y-122245200D01*
X148704200Y-122245200D02*
X148831200Y-122372200D01*
D35*
X156171800Y-126893400D02*
X156197200Y-128976200D01*
X156197200Y-128976200D02*
X163842600Y-128976200D01*
X163842600Y-128976200D02*
X164350600Y-128468200D01*
X164350600Y-128468200D02*
X164350600Y-121483200D01*
X164350600Y-121483200D02*
X164731600Y-121102200D01*
X164731600Y-121102200D02*
X164731600Y-97988200D01*
X164731600Y-97988200D02*
X163842600Y-97099200D01*
X163842600Y-97099200D02*
X163461600Y-97099200D01*
X163461600Y-97099200D02*
X162191600Y-95829200D01*
X162191600Y-95829200D02*
X157746600Y-95829200D01*
X157746600Y-95829200D02*
X157365600Y-95448200D01*
X157365600Y-95448200D02*
X154825600Y-95448200D01*
X154825600Y-95448200D02*
X152920600Y-97353200D01*
X152920600Y-97353200D02*
X152920600Y-98242200D01*
X152920600Y-98242200D02*
X152793600Y-98369200D01*
X152793600Y-98369200D02*
X148221600Y-98369200D01*
X148221600Y-98369200D02*
X147713600Y-97861200D01*
D32*
X147713600Y-97861200D02*
X147713600Y-95575200D01*
X147713600Y-95575200D02*
X147459600Y-95321200D01*
X147459600Y-95321200D02*
X143522600Y-95321200D01*
X143522600Y-95321200D02*
X143141600Y-95702200D01*
X143141600Y-95702200D02*
X143141600Y-96235600D01*
X143141600Y-96235600D02*
X142633600Y-96743600D01*
D35*
X148831200Y-121102200D02*
X150380600Y-121102200D01*
X150380600Y-121102200D02*
X150888600Y-120594200D01*
X150888600Y-120594200D02*
X153555600Y-120594200D01*
X153555600Y-120594200D02*
X158254600Y-125293200D01*
X158254600Y-125293200D02*
X158254600Y-126801200D01*
X158254600Y-126801200D02*
X158238600Y-126817200D01*
X148831200Y-118562200D02*
X150380600Y-118562200D01*
X150380600Y-118562200D02*
X151523600Y-119705200D01*
X151523600Y-119705200D02*
X154190600Y-119705200D01*
X154190600Y-119705200D02*
X159016600Y-124531200D01*
X159016600Y-124531200D02*
X159778600Y-124531200D01*
X159778600Y-124531200D02*
X160413600Y-125166200D01*
X160413600Y-125166200D02*
X160413600Y-126801200D01*
X160413600Y-126801200D02*
X160429600Y-126817200D01*
X148831200Y-117292200D02*
X150634600Y-117292200D01*
X150634600Y-117292200D02*
X151904600Y-118562200D01*
X151904600Y-118562200D02*
X154444600Y-118562200D01*
X154444600Y-118562200D02*
X159397600Y-123515200D01*
X159397600Y-123515200D02*
X160413600Y-123515200D01*
X160413600Y-123515200D02*
X162445600Y-125547200D01*
X162445600Y-125547200D02*
X162445600Y-126801200D01*
X162445600Y-126801200D02*
X162429600Y-126817200D01*
D32*
X152174600Y-126817200D02*
X152174600Y-122769200D01*
X152174600Y-122769200D02*
X152158600Y-122753200D01*
X139077600Y-122372200D02*
X135420000Y-122372200D01*
X133362600Y-93350200D02*
X133362600Y-94432200D01*
X133362600Y-94432200D02*
X133362600Y-95514200D01*
X135420000Y-122372200D02*
X133616600Y-122372200D01*
X133616600Y-122372200D02*
X132727600Y-121483200D01*
X132727600Y-121483200D02*
X132727600Y-120848200D01*
X132727600Y-104592200D02*
X132727600Y-99131200D01*
X132727600Y-99131200D02*
X132219600Y-98623200D01*
X132219600Y-98623200D02*
X132219600Y-94432200D01*
X132219600Y-94432200D02*
X133362600Y-94432200D01*
X135420000Y-121102200D02*
X138823600Y-121102200D01*
X138823600Y-121102200D02*
X139204600Y-120721200D01*
X148094600Y-109291200D02*
X147967600Y-109164200D01*
X147967600Y-109164200D02*
X146697600Y-109164200D01*
X146570600Y-112466200D02*
X147967600Y-112466200D01*
X147967600Y-112466200D02*
X147967600Y-109418200D01*
X147967600Y-109418200D02*
X148094600Y-109291200D01*
X146189600Y-104114200D02*
X147235600Y-104114200D01*
X147235600Y-104114200D02*
X147459600Y-104338200D01*
X147459600Y-104338200D02*
X147459600Y-105227200D01*
X147459600Y-105227200D02*
X147205600Y-105481200D01*
D33*
X147205600Y-105481200D02*
X147205600Y-105608200D01*
X147205600Y-105608200D02*
X147078600Y-105735200D01*
X147078600Y-105735200D02*
X147078600Y-108783200D01*
X147078600Y-108783200D02*
X146697600Y-109164200D01*
X150089600Y-103464200D02*
X151157600Y-103464200D01*
X151157600Y-103464200D02*
X151269600Y-103576200D01*
X151269600Y-103576200D02*
X151269600Y-108910200D01*
X151269600Y-108910200D02*
X153047600Y-110053200D01*
X139204600Y-118562200D02*
X137807600Y-119959200D01*
X137807600Y-119959200D02*
X135547000Y-119959200D01*
X135547000Y-119959200D02*
X135420000Y-119832200D01*
D32*
X136918600Y-105034160D02*
X137995559Y-105034160D01*
X137995559Y-105034160D02*
X138315600Y-105100200D01*
X138315600Y-105100200D02*
X138315600Y-106243200D01*
X138315600Y-106243200D02*
X138341000Y-107614800D01*
D33*
X138341000Y-107614800D02*
X138341000Y-111043800D01*
X138341000Y-111043800D02*
X141386600Y-111043800D01*
X141386600Y-111043800D02*
X141410600Y-111045200D01*
X136918600Y-105034160D02*
X134571640Y-105034160D01*
X134571640Y-105034160D02*
X134505600Y-105100200D01*
D32*
X134505600Y-105100200D02*
X134378600Y-105100200D01*
X134378600Y-105100200D02*
X132219600Y-107259200D01*
X132219600Y-107259200D02*
X132219600Y-117927200D01*
X132219600Y-117927200D02*
X132981600Y-118562200D01*
X132981600Y-118562200D02*
X135420000Y-118562200D01*
X136918600Y-105684400D02*
X136918600Y-108122800D01*
X139814200Y-108122800D02*
X139814200Y-109799200D01*
D33*
X139814200Y-109799200D02*
X139814200Y-110535800D01*
X139814200Y-110535800D02*
X139808600Y-110561200D01*
X139808600Y-110561200D02*
X141410600Y-110545200D01*
D32*
X136918600Y-105684400D02*
X134937400Y-105684400D01*
X134937400Y-105684400D02*
X132981600Y-107640200D01*
X132981600Y-107640200D02*
X132981600Y-116911200D01*
X132981600Y-116911200D02*
X133362600Y-117292200D01*
X133362600Y-117292200D02*
X135420000Y-117292200D01*
D33*
X140820040Y-104383919D02*
X141952881Y-104383919D01*
X141952881Y-104383919D02*
X142252600Y-103957200D01*
X142252600Y-103957200D02*
X142252600Y-103068200D01*
X160667600Y-102306200D02*
X160667600Y-104205641D01*
X160667600Y-104205641D02*
X160662040Y-104211200D01*
X149517000Y-111043800D02*
X149517000Y-111348600D01*
X149517000Y-111348600D02*
X150634600Y-111323200D01*
X150634600Y-111323200D02*
X150634600Y-112466200D01*
D32*
X160662040Y-104861200D02*
X163065600Y-104861200D01*
X163065600Y-104861200D02*
X162953600Y-104846200D01*
D33*
X149517000Y-109164200D02*
X149517000Y-105336800D01*
X149517000Y-105336800D02*
X150089600Y-104764200D01*
X150089600Y-104764200D02*
X150089600Y-105444200D01*
X150089600Y-105444200D02*
X150380600Y-105735200D01*
X157238600Y-105608200D02*
X160759040Y-105481200D01*
X160759040Y-105481200D02*
X160662040Y-105511200D01*
D32*
X154812040Y-108112400D02*
X154812040Y-107463841D01*
X154812040Y-107463841D02*
X154810600Y-107462400D01*
X154810600Y-107462400D02*
X157289400Y-107462400D01*
X157289400Y-107462400D02*
X158000600Y-106751200D01*
X158000600Y-106751200D02*
X158635600Y-106751200D01*
X158635600Y-106751200D02*
X159651600Y-106751200D01*
D33*
X159651600Y-106751200D02*
X160601559Y-106751200D01*
X160601559Y-106751200D02*
X160662040Y-106811682D01*
D32*
X158828600Y-100147200D02*
X158828600Y-103256200D01*
X158828600Y-103256200D02*
X158635600Y-103449200D01*
X158635600Y-106751200D02*
X158635600Y-106497200D01*
X158635600Y-104084200D02*
X158635600Y-103449200D01*
X161302600Y-117022200D02*
X159635600Y-117022200D01*
X159635600Y-117022200D02*
X159016600Y-116403200D01*
X159016600Y-116403200D02*
X159016600Y-109545200D01*
X159016600Y-109545200D02*
X159016600Y-107513200D01*
X159016600Y-107513200D02*
X160610759Y-107513200D01*
X160610759Y-107513200D02*
X160662040Y-107461919D01*
D33*
X146189600Y-103464200D02*
X147347600Y-103464200D01*
X147347600Y-103464200D02*
X148094600Y-103576200D01*
X148094600Y-103576200D02*
X148094600Y-106243200D01*
X157619600Y-109545200D02*
X159016600Y-109545200D01*
D32*
X161302600Y-115022200D02*
X161175600Y-112212200D01*
X161175600Y-112212200D02*
X161175600Y-108752719D01*
X161175600Y-108752719D02*
X160662040Y-108112160D01*
D33*
X161175600Y-112212200D02*
X160286600Y-110561200D01*
X144538600Y-106243200D02*
X144538600Y-103347600D01*
X144538600Y-103347600D02*
X144792600Y-102941200D01*
X144792600Y-102941200D02*
X144919600Y-102941200D01*
X144919600Y-102941200D02*
X145046600Y-102814200D01*
X145046600Y-102814200D02*
X146189600Y-102814200D01*
D32*
X154810600Y-106812160D02*
X156034640Y-106812160D01*
X156034640Y-106812160D02*
X156222600Y-106624200D01*
X156222600Y-106624200D02*
X156222600Y-101798200D01*
X156095600Y-98811200D02*
X156095600Y-101671200D01*
X156095600Y-101671200D02*
X156222600Y-101798200D01*
X146316600Y-96743600D02*
X146316600Y-97861200D01*
X146316600Y-97861200D02*
X146062600Y-98242200D01*
X140820040Y-102433200D02*
X141236600Y-102433200D01*
X141236600Y-102433200D02*
X143583600Y-100213200D01*
X144030600Y-99639200D02*
X145554600Y-99639200D01*
X145554600Y-99639200D02*
X146062600Y-99131200D01*
X146062600Y-99131200D02*
X146062600Y-99004200D01*
X146062600Y-99004200D02*
X146062600Y-98242200D01*
X154810600Y-106161919D02*
X154144881Y-106161919D01*
X154144881Y-106161919D02*
X153301600Y-106624200D01*
X153301600Y-106624200D02*
X152158600Y-106624200D01*
X152158600Y-106624200D02*
X151904600Y-106370200D01*
X151904600Y-106370200D02*
X151904600Y-102814200D01*
X151904600Y-102814200D02*
X150089600Y-102814200D01*
D33*
X143710600Y-108275200D02*
X143583600Y-108021200D01*
X143583600Y-108021200D02*
X143583600Y-108595200D01*
X143583600Y-108595200D02*
X143332100Y-109989700D01*
X143268600Y-110053200D02*
X142688600Y-110053200D01*
X142688600Y-110053200D02*
X141410600Y-110045200D01*
D32*
X143710600Y-108275200D02*
X143583600Y-106624200D01*
X143583600Y-106624200D02*
X143583600Y-100213200D01*
X143583600Y-100213200D02*
X144030600Y-99639200D01*
X146697600Y-110104000D02*
X145732400Y-110104000D01*
X145732400Y-110104000D02*
X144284600Y-108656200D01*
X144284600Y-108656200D02*
X144218600Y-108656200D01*
X144218600Y-108656200D02*
X143583600Y-108021200D01*
X150089600Y-102814200D02*
X149999600Y-102814200D01*
X149999600Y-102814200D02*
X149237600Y-102052200D01*
X149237600Y-102052200D02*
X149237600Y-99639200D01*
X149237600Y-99639200D02*
X148856600Y-99258200D01*
X148856600Y-99258200D02*
X146316600Y-99258200D01*
X146316600Y-99258200D02*
X146062600Y-99004200D01*
X141236600Y-112847200D02*
X143268600Y-112847200D01*
X143268600Y-112847200D02*
X143268600Y-110053200D01*
X143268600Y-110053200D02*
X143332100Y-109989700D01*
X139966600Y-106878200D02*
X143456600Y-106878200D01*
X143456600Y-106878200D02*
X143583600Y-106624200D01*
X154256600Y-111958200D02*
X154256600Y-109484200D01*
X154256600Y-109484200D02*
X153936600Y-109037200D01*
X153936600Y-109037200D02*
X153682600Y-109037200D01*
X153682600Y-109037200D02*
X153301600Y-108656200D01*
X153301600Y-108656200D02*
X153301600Y-106624200D01*
D33*
X154810600Y-105511682D02*
X153078081Y-105511682D01*
X153078081Y-105511682D02*
X153174600Y-105481200D01*
X153174600Y-105481200D02*
X152920600Y-105481200D01*
D32*
X153174600Y-102748200D02*
X153174600Y-105227200D01*
X153174600Y-105227200D02*
X152920600Y-105481200D01*
D33*
X154810600Y-104211200D02*
X154810600Y-104861441D01*
X154810600Y-104211200D02*
X154810600Y-103337200D01*
X154810600Y-103337200D02*
X154825600Y-103322200D01*
D32*
X136918600Y-103083441D02*
X138681359Y-103083441D01*
X138681359Y-103083441D02*
X138950600Y-102814200D01*
X138950600Y-102814200D02*
X138950600Y-100335200D01*
X136918600Y-102433200D02*
X136918600Y-100589200D01*
X136918600Y-100589200D02*
X136791600Y-100462200D01*
D31*
X148983600Y-89352200D02*
X148983600Y-84018200D01*
X148983600Y-84018200D02*
X153174600Y-84018200D01*
X153174600Y-84018200D02*
X153174600Y-81986200D01*
X153174600Y-81986200D02*
X157365600Y-81986200D01*
X157365600Y-81986200D02*
X157365600Y-82002200D01*
D32*
X161302600Y-119213200D02*
X158397600Y-119213200D01*
X158397600Y-119213200D02*
X155460600Y-116276200D01*
X155460600Y-116276200D02*
X152793600Y-116276200D01*
X152793600Y-116276200D02*
X151650600Y-114879200D01*
X151650600Y-114879200D02*
X151650600Y-110942200D01*
X151650600Y-110942200D02*
X150634600Y-110180200D01*
X150634600Y-110180200D02*
X149593200Y-110180200D01*
X149593200Y-110180200D02*
X149517000Y-110104000D01*
D33*
X141410600Y-109545200D02*
X141410600Y-107786200D01*
X141410600Y-107786200D02*
X141810600Y-108275200D01*
X136410600Y-110045200D02*
X134005600Y-110045200D01*
X134005600Y-110045200D02*
X133997600Y-110434200D01*
X147967600Y-100655200D02*
X147967600Y-101925200D01*
X147967600Y-101925200D02*
X148729600Y-102433200D01*
X148729600Y-102433200D02*
X148729600Y-104084200D01*
X148729600Y-104084200D02*
X150059600Y-104084200D01*
X150059600Y-104084200D02*
X150089600Y-104114200D01*
X136410600Y-109545200D02*
X135394600Y-108021200D01*
D31*
X137045600Y-91492200D02*
X137045600Y-85796200D01*
X137045600Y-85796200D02*
X137934600Y-85796200D01*
X152793600Y-85923200D02*
X152793600Y-89352200D01*
D32*
X140754000Y-96743600D02*
X140728600Y-96743600D01*
X140728600Y-96743600D02*
X140728600Y-98242200D01*
X142633600Y-93924200D02*
X142633600Y-92527200D01*
X146443600Y-92527200D02*
X146316600Y-92527200D01*
X146316600Y-92527200D02*
X146316600Y-93924200D01*
X140754000Y-93924200D02*
X140728600Y-93924200D01*
X140728600Y-93924200D02*
X140728600Y-92527200D01*
X144437000Y-93924200D02*
X142633600Y-93924200D01*
X145173600Y-89352200D02*
X146443600Y-89352200D01*
X146443600Y-89352200D02*
X146443600Y-91511200D01*
X146443600Y-91511200D02*
X146443600Y-92527200D01*
X133362600Y-97414200D02*
X134063600Y-97414200D01*
X134063600Y-97414200D02*
X135013600Y-96464200D01*
X135013600Y-96464200D02*
X135013600Y-93416200D01*
X135013600Y-93416200D02*
X140246000Y-93416200D01*
X140246000Y-93416200D02*
X140754000Y-93924200D01*
X148414600Y-91765200D02*
X146697600Y-91765200D01*
X146697600Y-91765200D02*
X146443600Y-91511200D01*
X144437000Y-96743600D02*
X144411600Y-96743600D01*
X144411600Y-96743600D02*
X144411600Y-98242200D01*
X160728600Y-100147200D02*
X160728600Y-98049200D01*
X160728600Y-98049200D02*
X160667600Y-97988200D01*
D33*
X150314600Y-91765200D02*
X152429400Y-91765200D01*
X152429400Y-91765200D02*
X152429400Y-91790600D01*
M02*
