G04 #@! TF.GenerationSoftware,KiCad,Pcbnew,(5.1.0)-1*
G04 #@! TF.CreationDate,2019-05-30T14:49:56+02:00*
G04 #@! TF.ProjectId,UWED,55574544-2e6b-4696-9361-645f70636258,rev?*
G04 #@! TF.SameCoordinates,Original*
G04 #@! TF.FileFunction,Soldermask,Bot*
G04 #@! TF.FilePolarity,Negative*
%FSLAX46Y46*%
G04 Gerber Fmt 4.6, Leading zero omitted, Abs format (unit mm)*
G04 Created by KiCad (PCBNEW (5.1.0)-1) date 2019-05-30 14:49:56*
%MOMM*%
%LPD*%
G04 APERTURE LIST*
%ADD10C,0.100000*%
G04 APERTURE END LIST*
D10*
G36*
X162939200Y-128048800D02*
G01*
X158904000Y-128048800D01*
X158904000Y-126445600D01*
X162939200Y-126445600D01*
X162939200Y-128048800D01*
X162939200Y-128048800D01*
G37*
G36*
X162939200Y-124648800D02*
G01*
X158904000Y-124648800D01*
X158904000Y-121492600D01*
X162939200Y-121492600D01*
X162939200Y-124648800D01*
X162939200Y-124648800D01*
G37*
G36*
X154788200Y-123438800D02*
G01*
X153085000Y-123438800D01*
X153085000Y-121935600D01*
X154788200Y-121935600D01*
X154788200Y-123438800D01*
X154788200Y-123438800D01*
G37*
G36*
X146164000Y-121699800D02*
G01*
X144660800Y-121699800D01*
X144660800Y-119996600D01*
X146164000Y-119996600D01*
X146164000Y-121699800D01*
X146164000Y-121699800D01*
G37*
G36*
X144264000Y-121699800D02*
G01*
X142760800Y-121699800D01*
X142760800Y-119996600D01*
X144264000Y-119996600D01*
X144264000Y-121699800D01*
X144264000Y-121699800D01*
G37*
G36*
X154788200Y-121538800D02*
G01*
X153085000Y-121538800D01*
X153085000Y-120035600D01*
X154788200Y-120035600D01*
X154788200Y-121538800D01*
X154788200Y-121538800D01*
G37*
G36*
X162939200Y-119695800D02*
G01*
X158904000Y-119695800D01*
X158904000Y-116412600D01*
X162939200Y-116412600D01*
X162939200Y-119695800D01*
X162939200Y-119695800D01*
G37*
G36*
X140525200Y-117381800D02*
G01*
X139022000Y-117381800D01*
X139022000Y-115678600D01*
X140525200Y-115678600D01*
X140525200Y-117381800D01*
X140525200Y-117381800D01*
G37*
G36*
X138625200Y-117381800D02*
G01*
X137122000Y-117381800D01*
X137122000Y-115678600D01*
X138625200Y-115678600D01*
X138625200Y-117381800D01*
X138625200Y-117381800D01*
G37*
G36*
X158344200Y-116199800D02*
G01*
X156641000Y-116199800D01*
X156641000Y-114696600D01*
X158344200Y-114696600D01*
X158344200Y-116199800D01*
X158344200Y-116199800D01*
G37*
G36*
X156185200Y-115437800D02*
G01*
X154482000Y-115437800D01*
X154482000Y-113934600D01*
X156185200Y-113934600D01*
X156185200Y-115437800D01*
X156185200Y-115437800D01*
G37*
G36*
X140525200Y-115222800D02*
G01*
X139022000Y-115222800D01*
X139022000Y-113519600D01*
X140525200Y-113519600D01*
X140525200Y-115222800D01*
X140525200Y-115222800D01*
G37*
G36*
X138625200Y-115222800D02*
G01*
X137122000Y-115222800D01*
X137122000Y-113519600D01*
X138625200Y-113519600D01*
X138625200Y-115222800D01*
X138625200Y-115222800D01*
G37*
G36*
X162939200Y-114615800D02*
G01*
X158904000Y-114615800D01*
X158904000Y-113012600D01*
X162939200Y-113012600D01*
X162939200Y-114615800D01*
X162939200Y-114615800D01*
G37*
G36*
X158344200Y-114299800D02*
G01*
X156641000Y-114299800D01*
X156641000Y-112796600D01*
X158344200Y-112796600D01*
X158344200Y-114299800D01*
X158344200Y-114299800D01*
G37*
G36*
X156185200Y-113537800D02*
G01*
X154482000Y-113537800D01*
X154482000Y-112034600D01*
X156185200Y-112034600D01*
X156185200Y-113537800D01*
X156185200Y-113537800D01*
G37*
G36*
X140906200Y-106078800D02*
G01*
X139403000Y-106078800D01*
X139403000Y-104375600D01*
X140906200Y-104375600D01*
X140906200Y-106078800D01*
X140906200Y-106078800D01*
G37*
G36*
X139006200Y-106078800D02*
G01*
X137503000Y-106078800D01*
X137503000Y-104375600D01*
X139006200Y-104375600D01*
X139006200Y-106078800D01*
X139006200Y-106078800D01*
G37*
G36*
X136246200Y-104896800D02*
G01*
X134543000Y-104896800D01*
X134543000Y-103393600D01*
X136246200Y-103393600D01*
X136246200Y-104896800D01*
X136246200Y-104896800D01*
G37*
G36*
X153518200Y-104642800D02*
G01*
X151815000Y-104642800D01*
X151815000Y-103139600D01*
X153518200Y-103139600D01*
X153518200Y-104642800D01*
X153518200Y-104642800D01*
G37*
G36*
X139006200Y-104046800D02*
G01*
X137503000Y-104046800D01*
X137503000Y-102343600D01*
X139006200Y-102343600D01*
X139006200Y-104046800D01*
X139006200Y-104046800D01*
G37*
G36*
X140906200Y-104046800D02*
G01*
X139403000Y-104046800D01*
X139403000Y-102343600D01*
X140906200Y-102343600D01*
X140906200Y-104046800D01*
X140906200Y-104046800D01*
G37*
G36*
X136246200Y-102996800D02*
G01*
X134543000Y-102996800D01*
X134543000Y-101493600D01*
X136246200Y-101493600D01*
X136246200Y-102996800D01*
X136246200Y-102996800D01*
G37*
G36*
X153518200Y-102742800D02*
G01*
X151815000Y-102742800D01*
X151815000Y-101239600D01*
X153518200Y-101239600D01*
X153518200Y-102742800D01*
X153518200Y-102742800D01*
G37*
G36*
X153357200Y-100744800D02*
G01*
X151854000Y-100744800D01*
X151854000Y-99041600D01*
X153357200Y-99041600D01*
X153357200Y-100744800D01*
X153357200Y-100744800D01*
G37*
G36*
X161485200Y-100744800D02*
G01*
X159982000Y-100744800D01*
X159982000Y-99041600D01*
X161485200Y-99041600D01*
X161485200Y-100744800D01*
X161485200Y-100744800D01*
G37*
G36*
X155257200Y-100744800D02*
G01*
X153754000Y-100744800D01*
X153754000Y-99041600D01*
X155257200Y-99041600D01*
X155257200Y-100744800D01*
X155257200Y-100744800D01*
G37*
G36*
X157421200Y-100744800D02*
G01*
X155918000Y-100744800D01*
X155918000Y-99041600D01*
X157421200Y-99041600D01*
X157421200Y-100744800D01*
X157421200Y-100744800D01*
G37*
G36*
X159321200Y-100744800D02*
G01*
X157818000Y-100744800D01*
X157818000Y-99041600D01*
X159321200Y-99041600D01*
X159321200Y-100744800D01*
X159321200Y-100744800D01*
G37*
G36*
X163385200Y-100744800D02*
G01*
X161882000Y-100744800D01*
X161882000Y-99041600D01*
X163385200Y-99041600D01*
X163385200Y-100744800D01*
X163385200Y-100744800D01*
G37*
G36*
X139548200Y-97530800D02*
G01*
X137845000Y-97530800D01*
X137845000Y-96027600D01*
X139548200Y-96027600D01*
X139548200Y-97530800D01*
X139548200Y-97530800D01*
G37*
G36*
X137389200Y-97530800D02*
G01*
X135686000Y-97530800D01*
X135686000Y-96027600D01*
X137389200Y-96027600D01*
X137389200Y-97530800D01*
X137389200Y-97530800D01*
G37*
G36*
X143739200Y-97403800D02*
G01*
X142036000Y-97403800D01*
X142036000Y-95900600D01*
X143739200Y-95900600D01*
X143739200Y-97403800D01*
X143739200Y-97403800D01*
G37*
G36*
X147891200Y-96680800D02*
G01*
X146388000Y-96680800D01*
X146388000Y-94977600D01*
X147891200Y-94977600D01*
X147891200Y-96680800D01*
X147891200Y-96680800D01*
G37*
G36*
X145991200Y-96680800D02*
G01*
X144488000Y-96680800D01*
X144488000Y-94977600D01*
X145991200Y-94977600D01*
X145991200Y-96680800D01*
X145991200Y-96680800D01*
G37*
G36*
X137389200Y-95630800D02*
G01*
X135686000Y-95630800D01*
X135686000Y-94127600D01*
X137389200Y-94127600D01*
X137389200Y-95630800D01*
X137389200Y-95630800D01*
G37*
G36*
X139548200Y-95630800D02*
G01*
X137845000Y-95630800D01*
X137845000Y-94127600D01*
X139548200Y-94127600D01*
X139548200Y-95630800D01*
X139548200Y-95630800D01*
G37*
G36*
X143739200Y-95503800D02*
G01*
X142036000Y-95503800D01*
X142036000Y-94000600D01*
X143739200Y-94000600D01*
X143739200Y-95503800D01*
X143739200Y-95503800D01*
G37*
G36*
X141546200Y-91473800D02*
G01*
X140043000Y-91473800D01*
X140043000Y-89770600D01*
X141546200Y-89770600D01*
X141546200Y-91473800D01*
X141546200Y-91473800D01*
G37*
G36*
X143446200Y-91473800D02*
G01*
X141943000Y-91473800D01*
X141943000Y-89770600D01*
X143446200Y-89770600D01*
X143446200Y-91473800D01*
X143446200Y-91473800D01*
G37*
G36*
X147134200Y-91473800D02*
G01*
X145631000Y-91473800D01*
X145631000Y-89770600D01*
X147134200Y-89770600D01*
X147134200Y-91473800D01*
X147134200Y-91473800D01*
G37*
G36*
X149034200Y-91473800D02*
G01*
X147531000Y-91473800D01*
X147531000Y-89770600D01*
X149034200Y-89770600D01*
X149034200Y-91473800D01*
X149034200Y-91473800D01*
G37*
M02*
