<?xml version="1.0" standalone="no"?>
 <!DOCTYPE svg PUBLIC "-//W3C//DTD SVG 1.1//EN" 
 "http://www.w3.org/Graphics/SVG/1.1/DTD/svg11.dtd"> 
<svg xmlns="http://www.w3.org/2000/svg" version="1.1" 
    width="29.7002cm" height="21.0007cm" viewBox="0 0 116930 82680 ">
<title>SVG Picture created as UWED-PTH-drl_map.svg date 2019/05/26 23:57:37 </title>
  <desc>Picture generated by PCBNEW </desc>
<g style="fill:#000000; fill-opacity:1;stroke:#000000; stroke-opacity:1;
stroke-linecap:round; stroke-linejoin:round; "
 transform="translate(0 0) scale(1 1)">
</g>
<g style="fill:#000000; fill-opacity:0.0; 
stroke:#000000; stroke-width:-0.000393701; stroke-opacity:1; 
stroke-linecap:round; stroke-linejoin:round;">
</g>
<g style="fill:#000000; fill-opacity:0.0; 
stroke:#000000; stroke-width:59.0551; stroke-opacity:1; 
stroke-linecap:round; stroke-linejoin:round;">
<path d="M51764 52269
L65165 52269
" />
<path d="M65165 52269
L65165 31591
" />
<path d="M65165 31591
L51764 31591
" />
<path d="M51764 31591
L51764 52269
" />
</g>
<g style="fill:#000000; fill-opacity:0.0; 
stroke:#000000; stroke-width:78.7402; stroke-opacity:1; 
stroke-linecap:round; stroke-linejoin:round;">
<path d="M52136 39119
L52373 39356
" />
<path d="M52373 39119
L52136 39356
" />
<path d="M52231 44531
L52468 44768
" />
<path d="M52468 44531
L52231 44768
" />
<path d="M52574 41781
L52810 42018
" />
<path d="M52810 41781
L52574 42018
" />
<path d="M52579 45303
L52815 45540
" />
<path d="M52815 45303
L52579 45540
" />
<path d="M52631 44831
L52868 45068
" />
<path d="M52868 44831
L52631 45068
" />
<path d="M52631 51631
L52868 51868
" />
<path d="M52868 51631
L52631 51868
" />
<path d="M53031 38831
L53268 39068
" />
<path d="M53268 38831
L53031 39068
" />
<path d="M53038 43206
L53274 43442
" />
<path d="M53274 43206
L53038 43442
" />
<path d="M53381 42431
L53618 42668
" />
<path d="M53618 42431
L53381 42668
" />
<path d="M53531 32731
L53768 32968
" />
<path d="M53768 32731
L53531 32968
" />
<path d="M53975 41931
L54211 42168
" />
<path d="M54211 41931
L53975 42168
" />
<path d="M54081 50631
L54318 50868
" />
<path d="M54318 50631
L54081 50868
" />
<path d="M54186 33659
L54423 33896
" />
<path d="M54423 33659
L54186 33896
" />
<path d="M54247 43797
L54483 44033
" />
<path d="M54483 43797
L54247 44033
" />
<path d="M54281 46955
L54518 47192
" />
<path d="M54518 46955
L54281 47192
" />
<path d="M54281 47631
L54518 47868
" />
<path d="M54518 47631
L54281 47868
" />
<path d="M54281 48131
L54518 48368
" />
<path d="M54518 48131
L54281 48368
" />
<path d="M54331 49031
L54568 49268
" />
<path d="M54568 49031
L54331 49268
" />
<path d="M54331 51631
L54568 51868
" />
<path d="M54568 51631
L54331 51868
" />
<path d="M54431 34931
L54668 35168
" />
<path d="M54668 34931
L54431 35168
" />
<path d="M54481 42682
L54717 42918
" />
<path d="M54717 42682
L54481 42918
" />
<path d="M54992 42416
L55228 42652
" />
<path d="M55228 42416
L54992 42652
" />
<path d="M54993 41941
L55230 42177
" />
<path d="M55230 41941
L54993 42177
" />
<path d="M55286 36309
L55523 36546
" />
<path d="M55523 36309
L55286 36546
" />
<path d="M55331 46431
L55568 46668
" />
<path d="M55568 46431
L55331 46668
" />
<path d="M55407 47106
L55643 47342
" />
<path d="M55643 47106
L55407 47342
" />
<path d="M55418 45495
L55654 45731
" />
<path d="M55654 45495
L55418 45731
" />
<path d="M55631 51631
L55868 51868
" />
<path d="M55868 51631
L55631 51868
" />
<path d="M55641 38537
L55877 38773
" />
<path d="M55877 38537
L55641 38773
" />
<path d="M55893 45409
L56129 45645
" />
<path d="M56129 45409
L55893 45645
" />
<path d="M55936 41459
L56173 41696
" />
<path d="M56173 41459
L55936 41696
" />
<path d="M55981 50481
L56218 50718
" />
<path d="M56218 50481
L55981 50718
" />
<path d="M55986 32159
L56223 32396
" />
<path d="M56223 32159
L55986 32396
" />
<path d="M56031 39281
L56268 39518
" />
<path d="M56268 39281
L56031 39518
" />
<path d="M56031 40681
L56268 40918
" />
<path d="M56268 40681
L56031 40918
" />
<path d="M56036 36309
L56273 36546
" />
<path d="M56273 36309
L56036 36546
" />
<path d="M56181 38631
L56418 38868
" />
<path d="M56418 38631
L56181 38868
" />
<path d="M56231 43231
L56468 43468
" />
<path d="M56468 43231
L56231 43468
" />
<path d="M56431 43981
L56668 44218
" />
<path d="M56668 43981
L56431 44218
" />
<path d="M56681 51631
L56918 51868
" />
<path d="M56918 51631
L56681 51868
" />
<path d="M56703 35909
L56940 36146
" />
<path d="M56940 35909
L56703 36146
" />
<path d="M56736 38559
L56973 38796
" />
<path d="M56973 38559
L56736 38796
" />
<path d="M56787 41709
L57023 41946
" />
<path d="M57023 41709
L56787 41946
" />
<path d="M56831 39531
L57068 39768
" />
<path d="M57068 39531
L56831 39768
" />
<path d="M56992 42281
L57228 42518
" />
<path d="M57228 42281
L56992 42518
" />
<path d="M57081 42789
L57318 43025
" />
<path d="M57318 42789
L57081 43025
" />
<path d="M57386 38559
L57623 38796
" />
<path d="M57623 38559
L57386 38796
" />
<path d="M57436 41559
L57673 41796
" />
<path d="M57673 41559
L57436 41796
" />
<path d="M57536 36309
L57773 36546
" />
<path d="M57773 36309
L57536 36546
" />
<path d="M57831 46631
L58068 46868
" />
<path d="M58068 46631
L57831 46868
" />
<path d="M57981 51631
L58218 51868
" />
<path d="M58218 51631
L57981 51868
" />
<path d="M58186 41709
L58423 41946
" />
<path d="M58423 41709
L58186 41946
" />
<path d="M58213 43699
L58450 43936
" />
<path d="M58450 43699
L58213 43936
" />
<path d="M58631 36831
L58868 37068
" />
<path d="M58868 36831
L58631 37068
" />
<path d="M58631 38081
L58868 38318
" />
<path d="M58868 38081
L58631 38318
" />
<path d="M58631 50381
L58868 50618
" />
<path d="M58868 50381
L58631 50618
" />
<path d="M59031 41981
L59268 42218
" />
<path d="M59268 41981
L59031 42218
" />
<path d="M59174 39844
L59410 40080
" />
<path d="M59410 39844
L59174 40080
" />
<path d="M59231 39173
L59468 39409
" />
<path d="M59468 39173
L59231 39409
" />
<path d="M59231 51631
L59468 51868
" />
<path d="M59468 51631
L59231 51868
" />
<path d="M59281 46681
L59518 46918
" />
<path d="M59518 46681
L59281 46918
" />
<path d="M59281 50631
L59518 50868
" />
<path d="M59518 50631
L59281 50868
" />
<path d="M59800 41954
L60036 42190
" />
<path d="M60036 41954
L59800 42190
" />
<path d="M59803 43506
L60039 43742
" />
<path d="M60039 43506
L59803 43742
" />
<path d="M60036 33936
L60273 34173
" />
<path d="M60273 33936
L60036 34173
" />
<path d="M60131 32031
L60368 32268
" />
<path d="M60368 32031
L60131 32268
" />
<path d="M60225 41271
L60461 41507
" />
<path d="M60461 41271
L60225 41507
" />
<path d="M60481 43681
L60718 43918
" />
<path d="M60718 43681
L60481 43918
" />
<path d="M60731 36831
L60968 37068
" />
<path d="M60968 36831
L60731 37068
" />
<path d="M60781 51531
L61018 51768
" />
<path d="M61018 51531
L60781 51768
" />
<path d="M60802 47677
L61038 47913
" />
<path d="M61038 47677
L60802 47913
" />
<path d="M60836 40559
L61073 40796
" />
<path d="M61073 40559
L60836 40796
" />
<path d="M60953 32154
L61190 32390
" />
<path d="M61190 32154
L60953 32390
" />
<path d="M60986 32953
L61223 33189
" />
<path d="M61223 32953
L60986 33189
" />
<path d="M61386 39959
L61623 40196
" />
<path d="M61623 39959
L61386 40196
" />
<path d="M61781 49381
L62018 49618
" />
<path d="M62018 49381
L61781 49618
" />
<path d="M61875 40731
L62111 40968
" />
<path d="M62111 40731
L61875 40968
" />
<path d="M61931 46131
L62168 46368
" />
<path d="M62168 46131
L61931 46368
" />
<path d="M61966 49996
L62203 50233
" />
<path d="M62203 49996
L61966 50233
" />
<path d="M62031 51031
L62268 51268
" />
<path d="M62268 51031
L62031 51268
" />
<path d="M62065 51635
L62301 51871
" />
<path d="M62301 51635
L62065 51871
" />
<path d="M62286 38359
L62523 38596
" />
<path d="M62523 38359
L62286 38596
" />
<path d="M62423 42239
L62659 42475
" />
<path d="M62659 42239
L62423 42475
" />
<path d="M62427 42756
L62664 42992
" />
<path d="M62664 42756
L62427 42992
" />
<path d="M62521 41421
L62757 41657
" />
<path d="M62757 41421
L62521 41657
" />
<path d="M62688 40631
L62925 40867
" />
<path d="M62925 40631
L62688 40867
" />
<path d="M63081 43031
L63318 43268
" />
<path d="M63318 43031
L63081 43268
" />
<path d="M63136 38459
L63373 38696
" />
<path d="M63373 38459
L63136 38696
" />
<path d="M63201 40457
L63438 40693
" />
<path d="M63438 40457
L63201 40693
" />
<path d="M63689 41165
L63925 41402
" />
<path d="M63925 41165
L63689 41402
" />
<path d="M63786 42031
L64022 42268
" />
<path d="M64022 42031
L63786 42268
" />
<path d="M63789 43531
L64025 43768
" />
<path d="M64025 43531
L63789 43768
" />
<path d="M63997 41602
L64234 41838
" />
<path d="M64234 41602
L63997 41838
" />
<path d="M64131 50531
L64368 50768
" />
<path d="M64368 50531
L64131 50768
" />
<path d="M64231 51331
L64468 51568
" />
<path d="M64468 51331
L64231 51568
" />
<circle cx="63150" cy="32250" r="196.85" /> 
<circle cx="63150" cy="33250" r="196.85" /> 
<circle cx="52350" cy="46050" r="196.85" /> 
<circle cx="52350" cy="47050" r="196.85" /> 
<circle cx="52350" cy="48050" r="196.85" /> 
<circle cx="52350" cy="49050" r="196.85" /> 
<circle cx="52350" cy="50050" r="196.85" /> 
<circle cx="52350" cy="51050" r="196.85" /> 
</g>
<g style="fill:#000000; fill-opacity:0.0; 
stroke:#000000; stroke-width:118.11; stroke-opacity:1; 
stroke-linecap:round; stroke-linejoin:round;">
<path d="M52863 54132
L52863 52951
L53144 52951
L53313 53007
L53425 53119
L53481 53232
L53538 53457
L53538 53625
L53481 53850
L53425 53963
L53313 54075
L53144 54132
L52863 54132
" />
<path d="M54044 54132
L54044 53344
" />
<path d="M54044 53569
L54100 53457
L54156 53401
L54269 53344
L54381 53344
" />
<path d="M54775 54132
L54775 53344
" />
<path d="M54775 52951
L54719 53007
L54775 53063
L54831 53007
L54775 52951
L54775 53063
" />
<path d="M55506 54132
L55394 54075
L55337 53963
L55337 52951
" />
<path d="M56125 54132
L56012 54075
L55956 53963
L55956 52951
" />
<path d="M57475 54132
L57475 52951
L57868 53794
L58262 52951
L58262 54132
" />
<path d="M59331 54132
L59331 53513
L59274 53401
L59162 53344
L58937 53344
L58824 53401
" />
<path d="M59331 54075
L59218 54132
L58937 54132
L58824 54075
L58768 53963
L58768 53850
L58824 53738
L58937 53682
L59218 53682
L59331 53625
" />
<path d="M59893 53344
L59893 54525
" />
<path d="M59893 53401
L60005 53344
L60230 53344
L60343 53401
L60399 53457
L60455 53569
L60455 53907
L60399 54019
L60343 54075
L60230 54132
L60005 54132
L59893 54075
" />
<path d="M60962 54019
L61018 54075
L60962 54132
L60905 54075
L60962 54019
L60962 54132
" />
<path d="M60962 53401
L61018 53457
L60962 53513
L60905 53457
L60962 53401
L60962 53513
" />
<path d="M51499 55960
L51735 56196
" />
<path d="M51735 55960
L51499 56196
" />
<path d="M53088 55431
L53200 55431
L53313 55487
L53369 55543
L53425 55656
L53481 55881
L53481 56162
L53425 56387
L53369 56500
L53313 56556
L53200 56612
L53088 56612
L52975 56556
L52919 56500
L52863 56387
L52806 56162
L52806 55881
L52863 55656
L52919 55543
L52975 55487
L53088 55431
" />
<path d="M53987 56500
L54044 56556
L53987 56612
L53931 56556
L53987 56500
L53987 56612
" />
<path d="M55056 55431
L54831 55431
L54719 55487
L54662 55543
L54550 55712
L54494 55937
L54494 56387
L54550 56500
L54606 56556
L54719 56612
L54944 56612
L55056 56556
L55112 56500
L55169 56387
L55169 56106
L55112 55993
L55056 55937
L54944 55881
L54719 55881
L54606 55937
L54550 55993
L54494 56106
" />
<path d="M55900 55431
L56012 55431
L56125 55487
L56181 55543
L56237 55656
L56293 55881
L56293 56162
L56237 56387
L56181 56500
L56125 56556
L56012 56612
L55900 56612
L55787 56556
L55731 56500
L55675 56387
L55619 56162
L55619 55881
L55675 55656
L55731 55543
L55787 55487
L55900 55431
" />
<path d="M56800 56612
L56800 55825
" />
<path d="M56800 55937
L56856 55881
L56968 55825
L57137 55825
L57250 55881
L57306 55993
L57306 56612
" />
<path d="M57306 55993
L57362 55881
L57475 55825
L57643 55825
L57756 55881
L57812 55993
L57812 56612
" />
<path d="M58374 56612
L58374 55825
" />
<path d="M58374 55937
L58431 55881
L58543 55825
L58712 55825
L58824 55881
L58881 55993
L58881 56612
" />
<path d="M58881 55993
L58937 55881
L59049 55825
L59218 55825
L59331 55881
L59387 55993
L59387 56612
" />
<path d="M61693 55375
L60680 56893
" />
<path d="M63211 55431
L63324 55431
L63436 55487
L63493 55543
L63549 55656
L63605 55881
L63605 56162
L63549 56387
L63493 56500
L63436 56556
L63324 56612
L63211 56612
L63099 56556
L63043 56500
L62986 56387
L62930 56162
L62930 55881
L62986 55656
L63043 55543
L63099 55487
L63211 55431
" />
<path d="M64111 56500
L64167 56556
L64111 56612
L64055 56556
L64111 56500
L64111 56612
" />
<path d="M64899 55431
L65011 55431
L65124 55487
L65180 55543
L65236 55656
L65292 55881
L65292 56162
L65236 56387
L65180 56500
L65124 56556
L65011 56612
L64899 56612
L64786 56556
L64730 56500
L64674 56387
L64617 56162
L64617 55881
L64674 55656
L64730 55543
L64786 55487
L64899 55431
" />
<path d="M65742 55543
L65798 55487
L65911 55431
L66192 55431
L66305 55487
L66361 55543
L66417 55656
L66417 55768
L66361 55937
L65686 56612
L66417 56612
" />
<path d="M67430 55825
L67430 56612
" />
<path d="M67148 55375
L66867 56218
L67598 56218
" />
<path d="M67992 55431
L67992 55656
" />
<path d="M68442 55431
L68442 55656
" />
<path d="M70185 57062
L70129 57006
L70017 56837
L69960 56724
L69904 56556
L69848 56275
L69848 56050
L69904 55768
L69960 55600
L70017 55487
L70129 55318
L70185 55262
" />
<path d="M70692 56612
L70917 56612
L71029 56556
L71085 56500
L71198 56331
L71254 56106
L71254 55656
L71198 55543
L71142 55487
L71029 55431
L70804 55431
L70692 55487
L70635 55543
L70579 55656
L70579 55937
L70635 56050
L70692 56106
L70804 56162
L71029 56162
L71142 56106
L71198 56050
L71254 55937
" />
<path d="M72323 55431
L71760 55431
L71704 55993
L71760 55937
L71873 55881
L72154 55881
L72266 55937
L72323 55993
L72379 56106
L72379 56387
L72323 56500
L72266 56556
L72154 56612
L71873 56612
L71760 56556
L71704 56500
" />
<path d="M73785 56612
L73785 55431
" />
<path d="M74291 56612
L74291 55993
L74235 55881
L74122 55825
L73954 55825
L73841 55881
L73785 55937
" />
<path d="M75022 56612
L74910 56556
L74854 56500
L74797 56387
L74797 56050
L74854 55937
L74910 55881
L75022 55825
L75191 55825
L75304 55881
L75360 55937
L75416 56050
L75416 56387
L75360 56500
L75304 56556
L75191 56612
L75022 56612
" />
<path d="M76091 56612
L75978 56556
L75922 56443
L75922 55431
" />
<path d="M76991 56556
L76878 56612
L76653 56612
L76541 56556
L76485 56443
L76485 55993
L76541 55881
L76653 55825
L76878 55825
L76991 55881
L77047 55993
L77047 56106
L76485 56218
" />
<path d="M77497 56556
L77610 56612
L77834 56612
L77947 56556
L78003 56443
L78003 56387
L77947 56275
L77834 56218
L77666 56218
L77553 56162
L77497 56050
L77497 55993
L77553 55881
L77666 55825
L77834 55825
L77947 55881
" />
<path d="M78397 57062
L78453 57006
L78566 56837
L78622 56724
L78678 56556
L78734 56275
L78734 56050
L78678 55768
L78622 55600
L78566 55487
L78453 55318
L78397 55262
" />
<circle cx="51538.6" cy="57637.2" r="196.85" /> 
<path d="M53481 58171
L52806 58171
" />
<path d="M53144 58171
L53144 56990
L53031 57159
L52919 57271
L52806 57327
" />
<path d="M53987 58059
L54044 58115
L53987 58171
L53931 58115
L53987 58059
L53987 58171
" />
<path d="M54775 56990
L54887 56990
L55000 57046
L55056 57102
L55112 57215
L55169 57440
L55169 57721
L55112 57946
L55056 58059
L55000 58115
L54887 58171
L54775 58171
L54662 58115
L54606 58059
L54550 57946
L54494 57721
L54494 57440
L54550 57215
L54606 57102
L54662 57046
L54775 56990
" />
<path d="M55900 56990
L56012 56990
L56125 57046
L56181 57102
L56237 57215
L56293 57440
L56293 57721
L56237 57946
L56181 58059
L56125 58115
L56012 58171
L55900 58171
L55787 58115
L55731 58059
L55675 57946
L55619 57721
L55619 57440
L55675 57215
L55731 57102
L55787 57046
L55900 56990
" />
<path d="M56800 58171
L56800 57384
" />
<path d="M56800 57496
L56856 57440
L56968 57384
L57137 57384
L57250 57440
L57306 57552
L57306 58171
" />
<path d="M57306 57552
L57362 57440
L57475 57384
L57643 57384
L57756 57440
L57812 57552
L57812 58171
" />
<path d="M58374 58171
L58374 57384
" />
<path d="M58374 57496
L58431 57440
L58543 57384
L58712 57384
L58824 57440
L58881 57552
L58881 58171
" />
<path d="M58881 57552
L58937 57440
L59049 57384
L59218 57384
L59331 57440
L59387 57552
L59387 58171
" />
<path d="M61693 56934
L60680 58452
" />
<path d="M63211 56990
L63324 56990
L63436 57046
L63493 57102
L63549 57215
L63605 57440
L63605 57721
L63549 57946
L63493 58059
L63436 58115
L63324 58171
L63211 58171
L63099 58115
L63043 58059
L62986 57946
L62930 57721
L62930 57440
L62986 57215
L63043 57102
L63099 57046
L63211 56990
" />
<path d="M64111 58059
L64167 58115
L64111 58171
L64055 58115
L64111 58059
L64111 58171
" />
<path d="M64899 56990
L65011 56990
L65124 57046
L65180 57102
L65236 57215
L65292 57440
L65292 57721
L65236 57946
L65180 58059
L65124 58115
L65011 58171
L64899 58171
L64786 58115
L64730 58059
L64674 57946
L64617 57721
L64617 57440
L64674 57215
L64730 57102
L64786 57046
L64899 56990
" />
<path d="M65686 56990
L66417 56990
L66023 57440
L66192 57440
L66305 57496
L66361 57552
L66417 57665
L66417 57946
L66361 58059
L66305 58115
L66192 58171
L65855 58171
L65742 58115
L65686 58059
" />
<path d="M66980 58171
L67205 58171
L67317 58115
L67373 58059
L67486 57890
L67542 57665
L67542 57215
L67486 57102
L67430 57046
L67317 56990
L67092 56990
L66980 57046
L66923 57102
L66867 57215
L66867 57496
L66923 57609
L66980 57665
L67092 57721
L67317 57721
L67430 57665
L67486 57609
L67542 57496
" />
<path d="M67992 56990
L67992 57215
" />
<path d="M68442 56990
L68442 57215
" />
<path d="M70185 58621
L70129 58565
L70017 58396
L69960 58284
L69904 58115
L69848 57834
L69848 57609
L69904 57327
L69960 57159
L70017 57046
L70129 56877
L70185 56821
" />
<path d="M70804 57496
L70692 57440
L70635 57384
L70579 57271
L70579 57215
L70635 57102
L70692 57046
L70804 56990
L71029 56990
L71142 57046
L71198 57102
L71254 57215
L71254 57271
L71198 57384
L71142 57440
L71029 57496
L70804 57496
L70692 57552
L70635 57609
L70579 57721
L70579 57946
L70635 58059
L70692 58115
L70804 58171
L71029 58171
L71142 58115
L71198 58059
L71254 57946
L71254 57721
L71198 57609
L71142 57552
L71029 57496
" />
<path d="M72660 58171
L72660 56990
" />
<path d="M73166 58171
L73166 57552
L73110 57440
L72998 57384
L72829 57384
L72716 57440
L72660 57496
" />
<path d="M73897 58171
L73785 58115
L73729 58059
L73673 57946
L73673 57609
L73729 57496
L73785 57440
L73897 57384
L74066 57384
L74179 57440
L74235 57496
L74291 57609
L74291 57946
L74235 58059
L74179 58115
L74066 58171
L73897 58171
" />
<path d="M74966 58171
L74854 58115
L74797 58002
L74797 56990
" />
<path d="M75866 58115
L75753 58171
L75529 58171
L75416 58115
L75360 58002
L75360 57552
L75416 57440
L75529 57384
L75753 57384
L75866 57440
L75922 57552
L75922 57665
L75360 57777
" />
<path d="M76372 58115
L76485 58171
L76710 58171
L76822 58115
L76878 58002
L76878 57946
L76822 57834
L76710 57777
L76541 57777
L76428 57721
L76372 57609
L76372 57552
L76428 57440
L76541 57384
L76710 57384
L76822 57440
" />
<path d="M77272 58621
L77328 58565
L77441 58396
L77497 58284
L77553 58115
L77610 57834
L77610 57609
L77553 57327
L77497 57159
L77441 57046
L77328 56877
L77272 56821
" />
</g> 
</svg>
