%FSLAX45Y45*%
G04 Gerber Fmt 4.5, Leading zero omitted, Abs format (unit mm)*
G04 Created by KiCad (PCBNEW (5.1.0)-1) date 2019-05-26 23:57:45*
%MOMM*%
%LPD*%
G04 APERTURE LIST*
%ADD10C,0.150000*%
%ADD11C,0.200000*%
%ADD12C,0.300000*%
G04 APERTURE END LIST*
D10*
X13148300Y-13276360D02*
X16551920Y-13276360D01*
X16551920Y-13276360D02*
X16551920Y-8024360D01*
X16551920Y-8024360D02*
X13148300Y-8024360D01*
X13148300Y-8024360D02*
X13148300Y-13276360D01*
D11*
D12*
X13427228Y-13749574D02*
X13427228Y-13449574D01*
X13498657Y-13449574D01*
X13541514Y-13463860D01*
X13570086Y-13492431D01*
X13584371Y-13521003D01*
X13598657Y-13578146D01*
X13598657Y-13621003D01*
X13584371Y-13678146D01*
X13570086Y-13706717D01*
X13541514Y-13735289D01*
X13498657Y-13749574D01*
X13427228Y-13749574D01*
X13727228Y-13749574D02*
X13727228Y-13549574D01*
X13727228Y-13606717D02*
X13741514Y-13578146D01*
X13755800Y-13563860D01*
X13784371Y-13549574D01*
X13812943Y-13549574D01*
X13912943Y-13749574D02*
X13912943Y-13549574D01*
X13912943Y-13449574D02*
X13898657Y-13463860D01*
X13912943Y-13478146D01*
X13927228Y-13463860D01*
X13912943Y-13449574D01*
X13912943Y-13478146D01*
X14098657Y-13749574D02*
X14070086Y-13735289D01*
X14055800Y-13706717D01*
X14055800Y-13449574D01*
X14255800Y-13749574D02*
X14227228Y-13735289D01*
X14212943Y-13706717D01*
X14212943Y-13449574D01*
X14598657Y-13749574D02*
X14598657Y-13449574D01*
X14698657Y-13663860D01*
X14798657Y-13449574D01*
X14798657Y-13749574D01*
X15070086Y-13749574D02*
X15070086Y-13592431D01*
X15055800Y-13563860D01*
X15027228Y-13549574D01*
X14970086Y-13549574D01*
X14941514Y-13563860D01*
X15070086Y-13735289D02*
X15041514Y-13749574D01*
X14970086Y-13749574D01*
X14941514Y-13735289D01*
X14927228Y-13706717D01*
X14927228Y-13678146D01*
X14941514Y-13649574D01*
X14970086Y-13635289D01*
X15041514Y-13635289D01*
X15070086Y-13621003D01*
X15212943Y-13549574D02*
X15212943Y-13849574D01*
X15212943Y-13563860D02*
X15241514Y-13549574D01*
X15298657Y-13549574D01*
X15327228Y-13563860D01*
X15341514Y-13578146D01*
X15355800Y-13606717D01*
X15355800Y-13692431D01*
X15341514Y-13721003D01*
X15327228Y-13735289D01*
X15298657Y-13749574D01*
X15241514Y-13749574D01*
X15212943Y-13735289D01*
X15484371Y-13721003D02*
X15498657Y-13735289D01*
X15484371Y-13749574D01*
X15470086Y-13735289D01*
X15484371Y-13721003D01*
X15484371Y-13749574D01*
X15484371Y-13563860D02*
X15498657Y-13578146D01*
X15484371Y-13592431D01*
X15470086Y-13578146D01*
X15484371Y-13563860D01*
X15484371Y-13592431D01*
M02*
