M48
; DRILL file {KiCad (5.1.0)-1} date 26/05/2019 23:57:35
; FORMAT={-:-/ absolute / metric / decimal}
; #@! TF.CreationDate,2019-05-26T23:57:35+02:00
; #@! TF.GenerationSoftware,Kicad,Pcbnew,(5.1.0)-1
; #@! TF.FileFunction,Plated,1,2,PTH
FMAT,2
METRIC
T1C0.600
T2C1.000
%
G90
G05
T1
X132.728Y-99.665
X132.969Y-113.411
X133.838Y-106.426
X133.852Y-115.372
X133.985Y-114.173
X133.985Y-131.445
X135.001Y-98.933
X135.018Y-110.044
X135.89Y-108.077
X136.271Y-83.439
X137.397Y-106.807
X137.668Y-128.905
X137.935Y-85.796
X138.088Y-111.545
X138.176Y-119.568
X138.176Y-121.285
X138.176Y-122.555
X138.303Y-124.841
X138.303Y-131.445
X138.557Y-89.027
X138.683Y-108.713
X139.98Y-108.037
X139.985Y-106.83
X140.729Y-92.527
X140.843Y-118.237
X141.034Y-119.949
X141.064Y-115.857
X141.605Y-131.445
X141.628Y-98.185
X142.269Y-115.64
X142.38Y-105.608
X142.494Y-128.524
X142.507Y-81.986
X142.621Y-100.076
X142.621Y-103.632
X142.634Y-92.527
X143.002Y-98.425
X143.129Y-110.109
X143.637Y-112.014
X144.272Y-131.445
X144.328Y-91.511
X144.412Y-98.242
X144.541Y-106.243
X144.653Y-100.711
X145.061Y-107.696
X145.288Y-108.986
X146.063Y-98.242
X146.19Y-105.862
X146.444Y-92.527
X147.193Y-118.745
X147.574Y-131.445
X148.095Y-106.243
X148.163Y-111.298
X149.225Y-93.853
X149.225Y-97.028
X149.225Y-128.27
X150.241Y-106.934
X150.603Y-101.505
X150.749Y-99.801
X150.749Y-131.445
X150.876Y-118.872
X150.876Y-128.905
X152.192Y-106.865
X152.201Y-110.806
X152.794Y-86.5
X153.035Y-81.661
X153.273Y-105.128
X153.924Y-111.252
X154.559Y-93.853
X154.686Y-131.191
X154.738Y-121.401
X154.826Y-103.322
X155.123Y-81.972
X155.207Y-84.002
X156.223Y-101.798
X157.226Y-125.73
X157.463Y-103.759
X157.607Y-117.475
X157.696Y-127.292
X157.861Y-129.921
X157.946Y-131.453
X158.509Y-97.734
X158.855Y-107.589
X158.867Y-108.901
X159.105Y-105.511
X159.53Y-103.505
X160.528Y-109.601
X160.668Y-97.988
X160.833Y-103.062
X162.07Y-104.861
X162.317Y-107.061
X162.326Y-110.871
X162.854Y-105.97
X163.195Y-128.651
X163.449Y-130.683
T2
X160.401Y-81.915
X160.401Y-84.455
X132.969Y-116.967
X132.969Y-119.507
X132.969Y-122.047
X132.969Y-124.587
X132.969Y-127.127
X132.969Y-129.667
T0
M30
