%FSLAX45Y45*%
G04 Gerber Fmt 4.5, Leading zero omitted, Abs format (unit mm)*
G04 Created by KiCad (PCBNEW (5.1.0)-1) date 2019-05-26 23:57:45*
%MOMM*%
%LPD*%
G04 APERTURE LIST*
%ADD10C,0.150000*%
%ADD11C,0.200000*%
%ADD12C,0.300000*%
G04 APERTURE END LIST*
D10*
X13148300Y-13276360D02*
X16551920Y-13276360D01*
X16551920Y-13276360D02*
X16551920Y-8024360D01*
X16551920Y-8024360D02*
X13148300Y-8024360D01*
X13148300Y-8024360D02*
X13148300Y-13276360D01*
D11*
X13242760Y-9936462D02*
X13302760Y-9996462D01*
X13302760Y-9936462D02*
X13242760Y-9996462D01*
X13266900Y-11311100D02*
X13326900Y-11371100D01*
X13326900Y-11311100D02*
X13266900Y-11371100D01*
X13353799Y-10612600D02*
X13413799Y-10672600D01*
X13413799Y-10612600D02*
X13353799Y-10672600D01*
X13355156Y-11507161D02*
X13415156Y-11567161D01*
X13415156Y-11507161D02*
X13355156Y-11567161D01*
X13368500Y-11387300D02*
X13428500Y-11447300D01*
X13428500Y-11387300D02*
X13368500Y-11447300D01*
X13368500Y-13114500D02*
X13428500Y-13174500D01*
X13428500Y-13114500D02*
X13368500Y-13174500D01*
X13470100Y-9863300D02*
X13530100Y-9923300D01*
X13530100Y-9863300D02*
X13470100Y-9923300D01*
X13471822Y-10974393D02*
X13531822Y-11034393D01*
X13531822Y-10974393D02*
X13471822Y-11034393D01*
X13559000Y-10777700D02*
X13619000Y-10837700D01*
X13619000Y-10777700D02*
X13559000Y-10837700D01*
X13597100Y-8313900D02*
X13657100Y-8373900D01*
X13657100Y-8313900D02*
X13597100Y-8373900D01*
X13709659Y-10650700D02*
X13769659Y-10710700D01*
X13769659Y-10650700D02*
X13709659Y-10710700D01*
X13736800Y-12860500D02*
X13796800Y-12920500D01*
X13796800Y-12860500D02*
X13736800Y-12920500D01*
X13763460Y-8549620D02*
X13823460Y-8609620D01*
X13823460Y-8549620D02*
X13763460Y-8609620D01*
X13778820Y-11124520D02*
X13838820Y-11184520D01*
X13838820Y-11124520D02*
X13778820Y-11184520D01*
X13787600Y-11926800D02*
X13847600Y-11986800D01*
X13847600Y-11926800D02*
X13787600Y-11986800D01*
X13787600Y-12098500D02*
X13847600Y-12158500D01*
X13847600Y-12098500D02*
X13787600Y-12158500D01*
X13787600Y-12225500D02*
X13847600Y-12285500D01*
X13847600Y-12225500D02*
X13787600Y-12285500D01*
X13800300Y-12454100D02*
X13860300Y-12514100D01*
X13860300Y-12454100D02*
X13800300Y-12514100D01*
X13800300Y-13114500D02*
X13860300Y-13174500D01*
X13860300Y-13114500D02*
X13800300Y-13174500D01*
X13825700Y-8872700D02*
X13885700Y-8932700D01*
X13885700Y-8872700D02*
X13825700Y-8932700D01*
X13838330Y-10841280D02*
X13898330Y-10901280D01*
X13898330Y-10841280D02*
X13838330Y-10901280D01*
X13968019Y-10773669D02*
X14028019Y-10833669D01*
X14028019Y-10773669D02*
X13968019Y-10833669D01*
X13968461Y-10653028D02*
X14028461Y-10713028D01*
X14028461Y-10653028D02*
X13968461Y-10713028D01*
X14042860Y-9222720D02*
X14102860Y-9282720D01*
X14102860Y-9222720D02*
X14042860Y-9282720D01*
X14054300Y-11793700D02*
X14114300Y-11853700D01*
X14114300Y-11793700D02*
X14054300Y-11853700D01*
X14073418Y-11964938D02*
X14133418Y-12024938D01*
X14133418Y-11964938D02*
X14073418Y-12024938D01*
X14076356Y-11555744D02*
X14136356Y-11615744D01*
X14136356Y-11555744D02*
X14076356Y-11615744D01*
X14130500Y-13114500D02*
X14190500Y-13174500D01*
X14190500Y-13114500D02*
X14130500Y-13174500D01*
X14132828Y-9788540D02*
X14192828Y-9848540D01*
X14192828Y-9788540D02*
X14132828Y-9848540D01*
X14196867Y-11534006D02*
X14256867Y-11594006D01*
X14256867Y-11534006D02*
X14196867Y-11594006D01*
X14207960Y-10530820D02*
X14267960Y-10590820D01*
X14267960Y-10530820D02*
X14207960Y-10590820D01*
X14219400Y-12822400D02*
X14279400Y-12882400D01*
X14279400Y-12822400D02*
X14219400Y-12882400D01*
X14220660Y-8168620D02*
X14280660Y-8228620D01*
X14280660Y-8168620D02*
X14220660Y-8228620D01*
X14232100Y-9977600D02*
X14292100Y-10037600D01*
X14292100Y-9977600D02*
X14232100Y-10037600D01*
X14232100Y-10333199D02*
X14292100Y-10393199D01*
X14292100Y-10333199D02*
X14232100Y-10393199D01*
X14233359Y-9222720D02*
X14293359Y-9282720D01*
X14293359Y-9222720D02*
X14233359Y-9282720D01*
X14270200Y-9812500D02*
X14330200Y-9872500D01*
X14330200Y-9812500D02*
X14270200Y-9872500D01*
X14282900Y-10980901D02*
X14342900Y-11040901D01*
X14342900Y-10980901D02*
X14282900Y-11040901D01*
X14333700Y-11171400D02*
X14393700Y-11231400D01*
X14393700Y-11171400D02*
X14333700Y-11231400D01*
X14397200Y-13114500D02*
X14457200Y-13174500D01*
X14457200Y-13114500D02*
X14397200Y-13174500D01*
X14402780Y-9121120D02*
X14462780Y-9181120D01*
X14462780Y-9121120D02*
X14402780Y-9181120D01*
X14411160Y-9794220D02*
X14471160Y-9854220D01*
X14471160Y-9794220D02*
X14411160Y-9854220D01*
X14424081Y-10594320D02*
X14484081Y-10654320D01*
X14484081Y-10594320D02*
X14424081Y-10654320D01*
X14435300Y-10041100D02*
X14495300Y-10101100D01*
X14495300Y-10041100D02*
X14435300Y-10101100D01*
X14476060Y-10739600D02*
X14536060Y-10799600D01*
X14536060Y-10739600D02*
X14476060Y-10799600D01*
X14498800Y-10868601D02*
X14558800Y-10928601D01*
X14558800Y-10868601D02*
X14498800Y-10928601D01*
X14576260Y-9794220D02*
X14636260Y-9854220D01*
X14636260Y-9794220D02*
X14576260Y-9854220D01*
X14588960Y-10556220D02*
X14648960Y-10616220D01*
X14648960Y-10556220D02*
X14588960Y-10616220D01*
X14614360Y-9222720D02*
X14674360Y-9282720D01*
X14674360Y-9222720D02*
X14614360Y-9282720D01*
X14689300Y-11844500D02*
X14749300Y-11904500D01*
X14749300Y-11844500D02*
X14689300Y-11904500D01*
X14727400Y-13114500D02*
X14787400Y-13174500D01*
X14787400Y-13114500D02*
X14727400Y-13174500D01*
X14779460Y-10594320D02*
X14839460Y-10654320D01*
X14839460Y-10594320D02*
X14779460Y-10654320D01*
X14786330Y-11099772D02*
X14846330Y-11159772D01*
X14846330Y-11099772D02*
X14786330Y-11159772D01*
X14892500Y-9355300D02*
X14952500Y-9415300D01*
X14952500Y-9355300D02*
X14892500Y-9415300D01*
X14892500Y-9672800D02*
X14952500Y-9732800D01*
X14952500Y-9672800D02*
X14892500Y-9732800D01*
X14892500Y-12797000D02*
X14952500Y-12857000D01*
X14952500Y-12797000D02*
X14892500Y-12857000D01*
X14994100Y-10663400D02*
X15054100Y-10723400D01*
X15054100Y-10663400D02*
X14994100Y-10723400D01*
X15030306Y-10120532D02*
X15090306Y-10180532D01*
X15090306Y-10120532D02*
X15030306Y-10180532D01*
X15044900Y-9950051D02*
X15104900Y-10010051D01*
X15104900Y-9950051D02*
X15044900Y-10010051D01*
X15044900Y-13114500D02*
X15104900Y-13174500D01*
X15104900Y-13114500D02*
X15044900Y-13174500D01*
X15057600Y-11857200D02*
X15117600Y-11917200D01*
X15117600Y-11857200D02*
X15057600Y-11917200D01*
X15057600Y-12860500D02*
X15117600Y-12920500D01*
X15117600Y-12860500D02*
X15057600Y-12920500D01*
X15189224Y-10656481D02*
X15249224Y-10716481D01*
X15249224Y-10656481D02*
X15189224Y-10716481D01*
X15190107Y-11050612D02*
X15250107Y-11110612D01*
X15250107Y-11050612D02*
X15190107Y-11110612D01*
X15249360Y-8619960D02*
X15309360Y-8679960D01*
X15309360Y-8619960D02*
X15249360Y-8679960D01*
X15273500Y-8136100D02*
X15333500Y-8196100D01*
X15333500Y-8136100D02*
X15273500Y-8196100D01*
X15297332Y-10482847D02*
X15357332Y-10542847D01*
X15357332Y-10482847D02*
X15297332Y-10542847D01*
X15362400Y-11095200D02*
X15422400Y-11155200D01*
X15422400Y-11095200D02*
X15362400Y-11155200D01*
X15425900Y-9355300D02*
X15485900Y-9415300D01*
X15485900Y-9355300D02*
X15425900Y-9415300D01*
X15438600Y-13089100D02*
X15498600Y-13149100D01*
X15498600Y-13089100D02*
X15438600Y-13149100D01*
X15443801Y-12110076D02*
X15503801Y-12170076D01*
X15503801Y-12110076D02*
X15443801Y-12170076D01*
X15452560Y-10302220D02*
X15512560Y-10362220D01*
X15512560Y-10302220D02*
X15452560Y-10362220D01*
X15482280Y-8167178D02*
X15542280Y-8227178D01*
X15542280Y-8167178D02*
X15482280Y-8227178D01*
X15490661Y-8370220D02*
X15550661Y-8430220D01*
X15550661Y-8370220D02*
X15490661Y-8430220D01*
X15592260Y-10149820D02*
X15652260Y-10209820D01*
X15652260Y-10149820D02*
X15592260Y-10209820D01*
X15692600Y-12543000D02*
X15752600Y-12603000D01*
X15752600Y-12543000D02*
X15692600Y-12603000D01*
X15716279Y-10345900D02*
X15776279Y-10405900D01*
X15776279Y-10345900D02*
X15716279Y-10405900D01*
X15730700Y-11717500D02*
X15790700Y-11777500D01*
X15790700Y-11717500D02*
X15730700Y-11777500D01*
X15739600Y-12699200D02*
X15799600Y-12759200D01*
X15799600Y-12699200D02*
X15739600Y-12759200D01*
X15756100Y-12962099D02*
X15816100Y-13022099D01*
X15816100Y-12962099D02*
X15756100Y-13022099D01*
X15764601Y-13115313D02*
X15824601Y-13175313D01*
X15824601Y-13115313D02*
X15764601Y-13175313D01*
X15820860Y-9743420D02*
X15880860Y-9803420D01*
X15880860Y-9743420D02*
X15820860Y-9803420D01*
X15855451Y-10728901D02*
X15915451Y-10788901D01*
X15915451Y-10728901D02*
X15855451Y-10788901D01*
X15856711Y-10860117D02*
X15916711Y-10920117D01*
X15916711Y-10860117D02*
X15856711Y-10920117D01*
X15880520Y-10521120D02*
X15940520Y-10581120D01*
X15940520Y-10521120D02*
X15880520Y-10581120D01*
X15922992Y-10320457D02*
X15982992Y-10380457D01*
X15982992Y-10320457D02*
X15922992Y-10380457D01*
X16022800Y-10930100D02*
X16082800Y-10990100D01*
X16082800Y-10930100D02*
X16022800Y-10990100D01*
X16036760Y-9768820D02*
X16096760Y-9828820D01*
X16096760Y-9768820D02*
X16036760Y-9828820D01*
X16053260Y-10276170D02*
X16113260Y-10336170D01*
X16113260Y-10276170D02*
X16053260Y-10336170D01*
X16177022Y-10456120D02*
X16237022Y-10516120D01*
X16237022Y-10456120D02*
X16177022Y-10516120D01*
X16201738Y-10676100D02*
X16261738Y-10736100D01*
X16261738Y-10676100D02*
X16201738Y-10736100D01*
X16202601Y-11057100D02*
X16262601Y-11117100D01*
X16262601Y-11057100D02*
X16202601Y-11117100D01*
X16255438Y-10566996D02*
X16315438Y-10626996D01*
X16315438Y-10566996D02*
X16255438Y-10626996D01*
X16289500Y-12835100D02*
X16349500Y-12895100D01*
X16349500Y-12835100D02*
X16289500Y-12895100D01*
X16314900Y-13038299D02*
X16374900Y-13098299D01*
X16374900Y-13038299D02*
X16314900Y-13098299D01*
X16090100Y-8191500D02*
G75*
G03X16090100Y-8191500I-50000J0D01*
G01*
X16090100Y-8445500D02*
G75*
G03X16090100Y-8445500I-50000J0D01*
G01*
X13346900Y-11696700D02*
G75*
G03X13346900Y-11696700I-50000J0D01*
G01*
X13346900Y-11950700D02*
G75*
G03X13346900Y-11950700I-50000J0D01*
G01*
X13346900Y-12204700D02*
G75*
G03X13346900Y-12204700I-50000J0D01*
G01*
X13346900Y-12458700D02*
G75*
G03X13346900Y-12458700I-50000J0D01*
G01*
X13346900Y-12712700D02*
G75*
G03X13346900Y-12712700I-50000J0D01*
G01*
X13346900Y-12966700D02*
G75*
G03X13346900Y-12966700I-50000J0D01*
G01*
D12*
X13427228Y-13749574D02*
X13427228Y-13449574D01*
X13498657Y-13449574D01*
X13541514Y-13463860D01*
X13570086Y-13492431D01*
X13584371Y-13521003D01*
X13598657Y-13578146D01*
X13598657Y-13621003D01*
X13584371Y-13678146D01*
X13570086Y-13706717D01*
X13541514Y-13735289D01*
X13498657Y-13749574D01*
X13427228Y-13749574D01*
X13727228Y-13749574D02*
X13727228Y-13549574D01*
X13727228Y-13606717D02*
X13741514Y-13578146D01*
X13755800Y-13563860D01*
X13784371Y-13549574D01*
X13812943Y-13549574D01*
X13912943Y-13749574D02*
X13912943Y-13549574D01*
X13912943Y-13449574D02*
X13898657Y-13463860D01*
X13912943Y-13478146D01*
X13927228Y-13463860D01*
X13912943Y-13449574D01*
X13912943Y-13478146D01*
X14098657Y-13749574D02*
X14070086Y-13735289D01*
X14055800Y-13706717D01*
X14055800Y-13449574D01*
X14255800Y-13749574D02*
X14227228Y-13735289D01*
X14212943Y-13706717D01*
X14212943Y-13449574D01*
X14598657Y-13749574D02*
X14598657Y-13449574D01*
X14698657Y-13663860D01*
X14798657Y-13449574D01*
X14798657Y-13749574D01*
X15070086Y-13749574D02*
X15070086Y-13592431D01*
X15055800Y-13563860D01*
X15027228Y-13549574D01*
X14970086Y-13549574D01*
X14941514Y-13563860D01*
X15070086Y-13735289D02*
X15041514Y-13749574D01*
X14970086Y-13749574D01*
X14941514Y-13735289D01*
X14927228Y-13706717D01*
X14927228Y-13678146D01*
X14941514Y-13649574D01*
X14970086Y-13635289D01*
X15041514Y-13635289D01*
X15070086Y-13621003D01*
X15212943Y-13549574D02*
X15212943Y-13849574D01*
X15212943Y-13563860D02*
X15241514Y-13549574D01*
X15298657Y-13549574D01*
X15327228Y-13563860D01*
X15341514Y-13578146D01*
X15355800Y-13606717D01*
X15355800Y-13692431D01*
X15341514Y-13721003D01*
X15327228Y-13735289D01*
X15298657Y-13749574D01*
X15241514Y-13749574D01*
X15212943Y-13735289D01*
X15484371Y-13721003D02*
X15498657Y-13735289D01*
X15484371Y-13749574D01*
X15470086Y-13735289D01*
X15484371Y-13721003D01*
X15484371Y-13749574D01*
X15484371Y-13563860D02*
X15498657Y-13578146D01*
X15484371Y-13592431D01*
X15470086Y-13578146D01*
X15484371Y-13563860D01*
X15484371Y-13592431D01*
X13080800Y-14213860D02*
X13140800Y-14273860D01*
X13140800Y-14213860D02*
X13080800Y-14273860D01*
X13484371Y-14079574D02*
X13512943Y-14079574D01*
X13541514Y-14093860D01*
X13555800Y-14108146D01*
X13570086Y-14136717D01*
X13584371Y-14193860D01*
X13584371Y-14265289D01*
X13570086Y-14322431D01*
X13555800Y-14351003D01*
X13541514Y-14365289D01*
X13512943Y-14379574D01*
X13484371Y-14379574D01*
X13455800Y-14365289D01*
X13441514Y-14351003D01*
X13427228Y-14322431D01*
X13412943Y-14265289D01*
X13412943Y-14193860D01*
X13427228Y-14136717D01*
X13441514Y-14108146D01*
X13455800Y-14093860D01*
X13484371Y-14079574D01*
X13712943Y-14351003D02*
X13727228Y-14365289D01*
X13712943Y-14379574D01*
X13698657Y-14365289D01*
X13712943Y-14351003D01*
X13712943Y-14379574D01*
X13984371Y-14079574D02*
X13927228Y-14079574D01*
X13898657Y-14093860D01*
X13884371Y-14108146D01*
X13855800Y-14151003D01*
X13841514Y-14208146D01*
X13841514Y-14322431D01*
X13855800Y-14351003D01*
X13870086Y-14365289D01*
X13898657Y-14379574D01*
X13955800Y-14379574D01*
X13984371Y-14365289D01*
X13998657Y-14351003D01*
X14012943Y-14322431D01*
X14012943Y-14251003D01*
X13998657Y-14222431D01*
X13984371Y-14208146D01*
X13955800Y-14193860D01*
X13898657Y-14193860D01*
X13870086Y-14208146D01*
X13855800Y-14222431D01*
X13841514Y-14251003D01*
X14198657Y-14079574D02*
X14227228Y-14079574D01*
X14255800Y-14093860D01*
X14270086Y-14108146D01*
X14284371Y-14136717D01*
X14298657Y-14193860D01*
X14298657Y-14265289D01*
X14284371Y-14322431D01*
X14270086Y-14351003D01*
X14255800Y-14365289D01*
X14227228Y-14379574D01*
X14198657Y-14379574D01*
X14170086Y-14365289D01*
X14155800Y-14351003D01*
X14141514Y-14322431D01*
X14127228Y-14265289D01*
X14127228Y-14193860D01*
X14141514Y-14136717D01*
X14155800Y-14108146D01*
X14170086Y-14093860D01*
X14198657Y-14079574D01*
X14427228Y-14379574D02*
X14427228Y-14179574D01*
X14427228Y-14208146D02*
X14441514Y-14193860D01*
X14470086Y-14179574D01*
X14512943Y-14179574D01*
X14541514Y-14193860D01*
X14555800Y-14222431D01*
X14555800Y-14379574D01*
X14555800Y-14222431D02*
X14570086Y-14193860D01*
X14598657Y-14179574D01*
X14641514Y-14179574D01*
X14670086Y-14193860D01*
X14684371Y-14222431D01*
X14684371Y-14379574D01*
X14827228Y-14379574D02*
X14827228Y-14179574D01*
X14827228Y-14208146D02*
X14841514Y-14193860D01*
X14870086Y-14179574D01*
X14912943Y-14179574D01*
X14941514Y-14193860D01*
X14955800Y-14222431D01*
X14955800Y-14379574D01*
X14955800Y-14222431D02*
X14970086Y-14193860D01*
X14998657Y-14179574D01*
X15041514Y-14179574D01*
X15070086Y-14193860D01*
X15084371Y-14222431D01*
X15084371Y-14379574D01*
X15670086Y-14065289D02*
X15412943Y-14451003D01*
X16055800Y-14079574D02*
X16084371Y-14079574D01*
X16112943Y-14093860D01*
X16127228Y-14108146D01*
X16141514Y-14136717D01*
X16155800Y-14193860D01*
X16155800Y-14265289D01*
X16141514Y-14322431D01*
X16127228Y-14351003D01*
X16112943Y-14365289D01*
X16084371Y-14379574D01*
X16055800Y-14379574D01*
X16027228Y-14365289D01*
X16012943Y-14351003D01*
X15998657Y-14322431D01*
X15984371Y-14265289D01*
X15984371Y-14193860D01*
X15998657Y-14136717D01*
X16012943Y-14108146D01*
X16027228Y-14093860D01*
X16055800Y-14079574D01*
X16284371Y-14351003D02*
X16298657Y-14365289D01*
X16284371Y-14379574D01*
X16270086Y-14365289D01*
X16284371Y-14351003D01*
X16284371Y-14379574D01*
X16484371Y-14079574D02*
X16512943Y-14079574D01*
X16541514Y-14093860D01*
X16555800Y-14108146D01*
X16570086Y-14136717D01*
X16584371Y-14193860D01*
X16584371Y-14265289D01*
X16570086Y-14322431D01*
X16555800Y-14351003D01*
X16541514Y-14365289D01*
X16512943Y-14379574D01*
X16484371Y-14379574D01*
X16455800Y-14365289D01*
X16441514Y-14351003D01*
X16427228Y-14322431D01*
X16412943Y-14265289D01*
X16412943Y-14193860D01*
X16427228Y-14136717D01*
X16441514Y-14108146D01*
X16455800Y-14093860D01*
X16484371Y-14079574D01*
X16698657Y-14108146D02*
X16712943Y-14093860D01*
X16741514Y-14079574D01*
X16812943Y-14079574D01*
X16841514Y-14093860D01*
X16855800Y-14108146D01*
X16870086Y-14136717D01*
X16870086Y-14165289D01*
X16855800Y-14208146D01*
X16684371Y-14379574D01*
X16870086Y-14379574D01*
X17127228Y-14179574D02*
X17127228Y-14379574D01*
X17055800Y-14065289D02*
X16984371Y-14279574D01*
X17170086Y-14279574D01*
X17270086Y-14079574D02*
X17270086Y-14136717D01*
X17384371Y-14079574D02*
X17384371Y-14136717D01*
X17827228Y-14493860D02*
X17812943Y-14479574D01*
X17784371Y-14436717D01*
X17770086Y-14408146D01*
X17755800Y-14365289D01*
X17741514Y-14293860D01*
X17741514Y-14236717D01*
X17755800Y-14165289D01*
X17770086Y-14122431D01*
X17784371Y-14093860D01*
X17812943Y-14051003D01*
X17827228Y-14036717D01*
X17955800Y-14379574D02*
X18012943Y-14379574D01*
X18041514Y-14365289D01*
X18055800Y-14351003D01*
X18084371Y-14308146D01*
X18098657Y-14251003D01*
X18098657Y-14136717D01*
X18084371Y-14108146D01*
X18070086Y-14093860D01*
X18041514Y-14079574D01*
X17984371Y-14079574D01*
X17955800Y-14093860D01*
X17941514Y-14108146D01*
X17927228Y-14136717D01*
X17927228Y-14208146D01*
X17941514Y-14236717D01*
X17955800Y-14251003D01*
X17984371Y-14265289D01*
X18041514Y-14265289D01*
X18070086Y-14251003D01*
X18084371Y-14236717D01*
X18098657Y-14208146D01*
X18370086Y-14079574D02*
X18227228Y-14079574D01*
X18212943Y-14222431D01*
X18227228Y-14208146D01*
X18255800Y-14193860D01*
X18327228Y-14193860D01*
X18355800Y-14208146D01*
X18370086Y-14222431D01*
X18384371Y-14251003D01*
X18384371Y-14322431D01*
X18370086Y-14351003D01*
X18355800Y-14365289D01*
X18327228Y-14379574D01*
X18255800Y-14379574D01*
X18227228Y-14365289D01*
X18212943Y-14351003D01*
X18741514Y-14379574D02*
X18741514Y-14079574D01*
X18870086Y-14379574D02*
X18870086Y-14222431D01*
X18855800Y-14193860D01*
X18827228Y-14179574D01*
X18784371Y-14179574D01*
X18755800Y-14193860D01*
X18741514Y-14208146D01*
X19055800Y-14379574D02*
X19027228Y-14365289D01*
X19012943Y-14351003D01*
X18998657Y-14322431D01*
X18998657Y-14236717D01*
X19012943Y-14208146D01*
X19027228Y-14193860D01*
X19055800Y-14179574D01*
X19098657Y-14179574D01*
X19127228Y-14193860D01*
X19141514Y-14208146D01*
X19155800Y-14236717D01*
X19155800Y-14322431D01*
X19141514Y-14351003D01*
X19127228Y-14365289D01*
X19098657Y-14379574D01*
X19055800Y-14379574D01*
X19327228Y-14379574D02*
X19298657Y-14365289D01*
X19284371Y-14336717D01*
X19284371Y-14079574D01*
X19555800Y-14365289D02*
X19527228Y-14379574D01*
X19470086Y-14379574D01*
X19441514Y-14365289D01*
X19427228Y-14336717D01*
X19427228Y-14222431D01*
X19441514Y-14193860D01*
X19470086Y-14179574D01*
X19527228Y-14179574D01*
X19555800Y-14193860D01*
X19570086Y-14222431D01*
X19570086Y-14251003D01*
X19427228Y-14279574D01*
X19684371Y-14365289D02*
X19712943Y-14379574D01*
X19770086Y-14379574D01*
X19798657Y-14365289D01*
X19812943Y-14336717D01*
X19812943Y-14322431D01*
X19798657Y-14293860D01*
X19770086Y-14279574D01*
X19727228Y-14279574D01*
X19698657Y-14265289D01*
X19684371Y-14236717D01*
X19684371Y-14222431D01*
X19698657Y-14193860D01*
X19727228Y-14179574D01*
X19770086Y-14179574D01*
X19798657Y-14193860D01*
X19912943Y-14493860D02*
X19927228Y-14479574D01*
X19955800Y-14436717D01*
X19970086Y-14408146D01*
X19984371Y-14365289D01*
X19998657Y-14293860D01*
X19998657Y-14236717D01*
X19984371Y-14165289D01*
X19970086Y-14122431D01*
X19955800Y-14093860D01*
X19927228Y-14051003D01*
X19912943Y-14036717D01*
X13140800Y-14639860D02*
G75*
G03X13140800Y-14639860I-50000J0D01*
G01*
X13584371Y-14775574D02*
X13412943Y-14775574D01*
X13498657Y-14775574D02*
X13498657Y-14475574D01*
X13470086Y-14518431D01*
X13441514Y-14547003D01*
X13412943Y-14561289D01*
X13712943Y-14747003D02*
X13727228Y-14761289D01*
X13712943Y-14775574D01*
X13698657Y-14761289D01*
X13712943Y-14747003D01*
X13712943Y-14775574D01*
X13912943Y-14475574D02*
X13941514Y-14475574D01*
X13970086Y-14489860D01*
X13984371Y-14504146D01*
X13998657Y-14532717D01*
X14012943Y-14589860D01*
X14012943Y-14661289D01*
X13998657Y-14718431D01*
X13984371Y-14747003D01*
X13970086Y-14761289D01*
X13941514Y-14775574D01*
X13912943Y-14775574D01*
X13884371Y-14761289D01*
X13870086Y-14747003D01*
X13855800Y-14718431D01*
X13841514Y-14661289D01*
X13841514Y-14589860D01*
X13855800Y-14532717D01*
X13870086Y-14504146D01*
X13884371Y-14489860D01*
X13912943Y-14475574D01*
X14198657Y-14475574D02*
X14227228Y-14475574D01*
X14255800Y-14489860D01*
X14270086Y-14504146D01*
X14284371Y-14532717D01*
X14298657Y-14589860D01*
X14298657Y-14661289D01*
X14284371Y-14718431D01*
X14270086Y-14747003D01*
X14255800Y-14761289D01*
X14227228Y-14775574D01*
X14198657Y-14775574D01*
X14170086Y-14761289D01*
X14155800Y-14747003D01*
X14141514Y-14718431D01*
X14127228Y-14661289D01*
X14127228Y-14589860D01*
X14141514Y-14532717D01*
X14155800Y-14504146D01*
X14170086Y-14489860D01*
X14198657Y-14475574D01*
X14427228Y-14775574D02*
X14427228Y-14575574D01*
X14427228Y-14604146D02*
X14441514Y-14589860D01*
X14470086Y-14575574D01*
X14512943Y-14575574D01*
X14541514Y-14589860D01*
X14555800Y-14618431D01*
X14555800Y-14775574D01*
X14555800Y-14618431D02*
X14570086Y-14589860D01*
X14598657Y-14575574D01*
X14641514Y-14575574D01*
X14670086Y-14589860D01*
X14684371Y-14618431D01*
X14684371Y-14775574D01*
X14827228Y-14775574D02*
X14827228Y-14575574D01*
X14827228Y-14604146D02*
X14841514Y-14589860D01*
X14870086Y-14575574D01*
X14912943Y-14575574D01*
X14941514Y-14589860D01*
X14955800Y-14618431D01*
X14955800Y-14775574D01*
X14955800Y-14618431D02*
X14970086Y-14589860D01*
X14998657Y-14575574D01*
X15041514Y-14575574D01*
X15070086Y-14589860D01*
X15084371Y-14618431D01*
X15084371Y-14775574D01*
X15670086Y-14461289D02*
X15412943Y-14847003D01*
X16055800Y-14475574D02*
X16084371Y-14475574D01*
X16112943Y-14489860D01*
X16127228Y-14504146D01*
X16141514Y-14532717D01*
X16155800Y-14589860D01*
X16155800Y-14661289D01*
X16141514Y-14718431D01*
X16127228Y-14747003D01*
X16112943Y-14761289D01*
X16084371Y-14775574D01*
X16055800Y-14775574D01*
X16027228Y-14761289D01*
X16012943Y-14747003D01*
X15998657Y-14718431D01*
X15984371Y-14661289D01*
X15984371Y-14589860D01*
X15998657Y-14532717D01*
X16012943Y-14504146D01*
X16027228Y-14489860D01*
X16055800Y-14475574D01*
X16284371Y-14747003D02*
X16298657Y-14761289D01*
X16284371Y-14775574D01*
X16270086Y-14761289D01*
X16284371Y-14747003D01*
X16284371Y-14775574D01*
X16484371Y-14475574D02*
X16512943Y-14475574D01*
X16541514Y-14489860D01*
X16555800Y-14504146D01*
X16570086Y-14532717D01*
X16584371Y-14589860D01*
X16584371Y-14661289D01*
X16570086Y-14718431D01*
X16555800Y-14747003D01*
X16541514Y-14761289D01*
X16512943Y-14775574D01*
X16484371Y-14775574D01*
X16455800Y-14761289D01*
X16441514Y-14747003D01*
X16427228Y-14718431D01*
X16412943Y-14661289D01*
X16412943Y-14589860D01*
X16427228Y-14532717D01*
X16441514Y-14504146D01*
X16455800Y-14489860D01*
X16484371Y-14475574D01*
X16684371Y-14475574D02*
X16870086Y-14475574D01*
X16770086Y-14589860D01*
X16812943Y-14589860D01*
X16841514Y-14604146D01*
X16855800Y-14618431D01*
X16870086Y-14647003D01*
X16870086Y-14718431D01*
X16855800Y-14747003D01*
X16841514Y-14761289D01*
X16812943Y-14775574D01*
X16727228Y-14775574D01*
X16698657Y-14761289D01*
X16684371Y-14747003D01*
X17012943Y-14775574D02*
X17070086Y-14775574D01*
X17098657Y-14761289D01*
X17112943Y-14747003D01*
X17141514Y-14704146D01*
X17155800Y-14647003D01*
X17155800Y-14532717D01*
X17141514Y-14504146D01*
X17127228Y-14489860D01*
X17098657Y-14475574D01*
X17041514Y-14475574D01*
X17012943Y-14489860D01*
X16998657Y-14504146D01*
X16984371Y-14532717D01*
X16984371Y-14604146D01*
X16998657Y-14632717D01*
X17012943Y-14647003D01*
X17041514Y-14661289D01*
X17098657Y-14661289D01*
X17127228Y-14647003D01*
X17141514Y-14632717D01*
X17155800Y-14604146D01*
X17270086Y-14475574D02*
X17270086Y-14532717D01*
X17384371Y-14475574D02*
X17384371Y-14532717D01*
X17827228Y-14889860D02*
X17812943Y-14875574D01*
X17784371Y-14832717D01*
X17770086Y-14804146D01*
X17755800Y-14761289D01*
X17741514Y-14689860D01*
X17741514Y-14632717D01*
X17755800Y-14561289D01*
X17770086Y-14518431D01*
X17784371Y-14489860D01*
X17812943Y-14447003D01*
X17827228Y-14432717D01*
X17984371Y-14604146D02*
X17955800Y-14589860D01*
X17941514Y-14575574D01*
X17927228Y-14547003D01*
X17927228Y-14532717D01*
X17941514Y-14504146D01*
X17955800Y-14489860D01*
X17984371Y-14475574D01*
X18041514Y-14475574D01*
X18070086Y-14489860D01*
X18084371Y-14504146D01*
X18098657Y-14532717D01*
X18098657Y-14547003D01*
X18084371Y-14575574D01*
X18070086Y-14589860D01*
X18041514Y-14604146D01*
X17984371Y-14604146D01*
X17955800Y-14618431D01*
X17941514Y-14632717D01*
X17927228Y-14661289D01*
X17927228Y-14718431D01*
X17941514Y-14747003D01*
X17955800Y-14761289D01*
X17984371Y-14775574D01*
X18041514Y-14775574D01*
X18070086Y-14761289D01*
X18084371Y-14747003D01*
X18098657Y-14718431D01*
X18098657Y-14661289D01*
X18084371Y-14632717D01*
X18070086Y-14618431D01*
X18041514Y-14604146D01*
X18455800Y-14775574D02*
X18455800Y-14475574D01*
X18584371Y-14775574D02*
X18584371Y-14618431D01*
X18570086Y-14589860D01*
X18541514Y-14575574D01*
X18498657Y-14575574D01*
X18470086Y-14589860D01*
X18455800Y-14604146D01*
X18770086Y-14775574D02*
X18741514Y-14761289D01*
X18727228Y-14747003D01*
X18712943Y-14718431D01*
X18712943Y-14632717D01*
X18727228Y-14604146D01*
X18741514Y-14589860D01*
X18770086Y-14575574D01*
X18812943Y-14575574D01*
X18841514Y-14589860D01*
X18855800Y-14604146D01*
X18870086Y-14632717D01*
X18870086Y-14718431D01*
X18855800Y-14747003D01*
X18841514Y-14761289D01*
X18812943Y-14775574D01*
X18770086Y-14775574D01*
X19041514Y-14775574D02*
X19012943Y-14761289D01*
X18998657Y-14732717D01*
X18998657Y-14475574D01*
X19270086Y-14761289D02*
X19241514Y-14775574D01*
X19184371Y-14775574D01*
X19155800Y-14761289D01*
X19141514Y-14732717D01*
X19141514Y-14618431D01*
X19155800Y-14589860D01*
X19184371Y-14575574D01*
X19241514Y-14575574D01*
X19270086Y-14589860D01*
X19284371Y-14618431D01*
X19284371Y-14647003D01*
X19141514Y-14675574D01*
X19398657Y-14761289D02*
X19427228Y-14775574D01*
X19484371Y-14775574D01*
X19512943Y-14761289D01*
X19527228Y-14732717D01*
X19527228Y-14718431D01*
X19512943Y-14689860D01*
X19484371Y-14675574D01*
X19441514Y-14675574D01*
X19412943Y-14661289D01*
X19398657Y-14632717D01*
X19398657Y-14618431D01*
X19412943Y-14589860D01*
X19441514Y-14575574D01*
X19484371Y-14575574D01*
X19512943Y-14589860D01*
X19627228Y-14889860D02*
X19641514Y-14875574D01*
X19670086Y-14832717D01*
X19684371Y-14804146D01*
X19698657Y-14761289D01*
X19712943Y-14689860D01*
X19712943Y-14632717D01*
X19698657Y-14561289D01*
X19684371Y-14518431D01*
X19670086Y-14489860D01*
X19641514Y-14447003D01*
X19627228Y-14432717D01*
M02*
