<?xml version="1.0" standalone="no"?>
 <!DOCTYPE svg PUBLIC "-//W3C//DTD SVG 1.1//EN" 
 "http://www.w3.org/Graphics/SVG/1.1/DTD/svg11.dtd"> 
<svg xmlns="http://www.w3.org/2000/svg" version="1.1" 
    width="29.7002cm" height="21.0007cm" viewBox="0 0 116930 82680 ">
<title>SVG Picture created as UWED-NPTH-drl_map.svg date 2019/05/26 23:57:37 </title>
  <desc>Picture generated by PCBNEW </desc>
<g style="fill:#000000; fill-opacity:1;stroke:#000000; stroke-opacity:1;
stroke-linecap:round; stroke-linejoin:round; "
 transform="translate(0 0) scale(1 1)">
</g>
<g style="fill:#000000; fill-opacity:0.0; 
stroke:#000000; stroke-width:-0.000393701; stroke-opacity:1; 
stroke-linecap:round; stroke-linejoin:round;">
</g>
<g style="fill:#000000; fill-opacity:0.0; 
stroke:#000000; stroke-width:59.0551; stroke-opacity:1; 
stroke-linecap:round; stroke-linejoin:round;">
<path d="M51764 52269
L65165 52269
" />
<path d="M65165 52269
L65165 31591
" />
<path d="M65165 31591
L51764 31591
" />
<path d="M51764 31591
L51764 52269
" />
</g>
<g style="fill:#000000; fill-opacity:0.0; 
stroke:#000000; stroke-width:78.7402; stroke-opacity:1; 
stroke-linecap:round; stroke-linejoin:round;">
</g>
<g style="fill:#000000; fill-opacity:0.0; 
stroke:#000000; stroke-width:118.11; stroke-opacity:1; 
stroke-linecap:round; stroke-linejoin:round;">
<path d="M52863 54132
L52863 52951
L53144 52951
L53313 53007
L53425 53119
L53481 53232
L53538 53457
L53538 53625
L53481 53850
L53425 53963
L53313 54075
L53144 54132
L52863 54132
" />
<path d="M54044 54132
L54044 53344
" />
<path d="M54044 53569
L54100 53457
L54156 53401
L54269 53344
L54381 53344
" />
<path d="M54775 54132
L54775 53344
" />
<path d="M54775 52951
L54719 53007
L54775 53063
L54831 53007
L54775 52951
L54775 53063
" />
<path d="M55506 54132
L55394 54075
L55337 53963
L55337 52951
" />
<path d="M56125 54132
L56012 54075
L55956 53963
L55956 52951
" />
<path d="M57475 54132
L57475 52951
L57868 53794
L58262 52951
L58262 54132
" />
<path d="M59331 54132
L59331 53513
L59274 53401
L59162 53344
L58937 53344
L58824 53401
" />
<path d="M59331 54075
L59218 54132
L58937 54132
L58824 54075
L58768 53963
L58768 53850
L58824 53738
L58937 53682
L59218 53682
L59331 53625
" />
<path d="M59893 53344
L59893 54525
" />
<path d="M59893 53401
L60005 53344
L60230 53344
L60343 53401
L60399 53457
L60455 53569
L60455 53907
L60399 54019
L60343 54075
L60230 54132
L60005 54132
L59893 54075
" />
<path d="M60962 54019
L61018 54075
L60962 54132
L60905 54075
L60962 54019
L60962 54132
" />
<path d="M60962 53401
L61018 53457
L60962 53513
L60905 53457
L60962 53401
L60962 53513
" />
</g> 
</svg>
