G04 #@! TF.GenerationSoftware,KiCad,Pcbnew,(5.1.0)-1*
G04 #@! TF.CreationDate,2019-05-26T23:58:58+02:00*
G04 #@! TF.ProjectId,UWED,55574544-2e6b-4696-9361-645f70636258,rev?*
G04 #@! TF.SameCoordinates,Original*
G04 #@! TF.FileFunction,Soldermask,Bot*
G04 #@! TF.FilePolarity,Negative*
%FSLAX46Y46*%
G04 Gerber Fmt 4.6, Leading zero omitted, Abs format (unit mm)*
G04 Created by KiCad (PCBNEW (5.1.0)-1) date 2019-05-26 23:58:58*
%MOMM*%
%LPD*%
G04 APERTURE LIST*
%ADD10C,0.100000*%
G04 APERTURE END LIST*
D10*
G36*
X140932600Y-130860600D02*
G01*
X139229400Y-130860600D01*
X139229400Y-129357400D01*
X140932600Y-129357400D01*
X140932600Y-130860600D01*
X140932600Y-130860600D01*
G37*
G36*
X133145431Y-128780023D02*
G01*
X133270939Y-128818096D01*
X133315085Y-128831487D01*
X133471431Y-128915056D01*
X133608475Y-129027525D01*
X133720944Y-129164569D01*
X133804513Y-129320915D01*
X133804514Y-129320919D01*
X133855977Y-129490569D01*
X133873354Y-129667000D01*
X133855977Y-129843431D01*
X133817904Y-129968939D01*
X133804513Y-130013085D01*
X133720944Y-130169431D01*
X133608475Y-130306475D01*
X133471431Y-130418944D01*
X133315085Y-130502513D01*
X133270939Y-130515904D01*
X133145431Y-130553977D01*
X133013207Y-130567000D01*
X132924793Y-130567000D01*
X132792569Y-130553977D01*
X132667061Y-130515904D01*
X132622915Y-130502513D01*
X132466569Y-130418944D01*
X132329525Y-130306475D01*
X132217056Y-130169431D01*
X132133487Y-130013085D01*
X132120096Y-129968939D01*
X132082023Y-129843431D01*
X132064646Y-129667000D01*
X132082023Y-129490569D01*
X132133486Y-129320919D01*
X132133487Y-129320915D01*
X132217056Y-129164569D01*
X132329525Y-129027525D01*
X132466569Y-128915056D01*
X132622915Y-128831487D01*
X132667061Y-128818096D01*
X132792569Y-128780023D01*
X132924793Y-128767000D01*
X133013207Y-128767000D01*
X133145431Y-128780023D01*
X133145431Y-128780023D01*
G37*
G36*
X140932600Y-128960600D02*
G01*
X139229400Y-128960600D01*
X139229400Y-127457400D01*
X140932600Y-127457400D01*
X140932600Y-128960600D01*
X140932600Y-128960600D01*
G37*
G36*
X162939200Y-128048800D02*
G01*
X158904000Y-128048800D01*
X158904000Y-126445600D01*
X162939200Y-126445600D01*
X162939200Y-128048800D01*
X162939200Y-128048800D01*
G37*
G36*
X133145431Y-126240023D02*
G01*
X133270939Y-126278096D01*
X133315085Y-126291487D01*
X133471431Y-126375056D01*
X133608475Y-126487525D01*
X133720944Y-126624569D01*
X133804513Y-126780915D01*
X133804514Y-126780919D01*
X133855977Y-126950569D01*
X133873354Y-127127000D01*
X133855977Y-127303431D01*
X133817904Y-127428939D01*
X133804513Y-127473085D01*
X133720944Y-127629431D01*
X133608475Y-127766475D01*
X133471431Y-127878944D01*
X133315085Y-127962513D01*
X133270939Y-127975904D01*
X133145431Y-128013977D01*
X133013207Y-128027000D01*
X132924793Y-128027000D01*
X132792569Y-128013977D01*
X132667061Y-127975904D01*
X132622915Y-127962513D01*
X132466569Y-127878944D01*
X132329525Y-127766475D01*
X132217056Y-127629431D01*
X132133487Y-127473085D01*
X132120096Y-127428939D01*
X132082023Y-127303431D01*
X132064646Y-127127000D01*
X132082023Y-126950569D01*
X132133486Y-126780919D01*
X132133487Y-126780915D01*
X132217056Y-126624569D01*
X132329525Y-126487525D01*
X132466569Y-126375056D01*
X132622915Y-126291487D01*
X132667061Y-126278096D01*
X132792569Y-126240023D01*
X132924793Y-126227000D01*
X133013207Y-126227000D01*
X133145431Y-126240023D01*
X133145431Y-126240023D01*
G37*
G36*
X156426600Y-127050600D02*
G01*
X154723400Y-127050600D01*
X154723400Y-125547400D01*
X156426600Y-125547400D01*
X156426600Y-127050600D01*
X156426600Y-127050600D01*
G37*
G36*
X154394600Y-127050600D02*
G01*
X152691400Y-127050600D01*
X152691400Y-125547400D01*
X154394600Y-125547400D01*
X154394600Y-127050600D01*
X154394600Y-127050600D01*
G37*
G36*
X136868600Y-126923600D02*
G01*
X135165400Y-126923600D01*
X135165400Y-125420400D01*
X136868600Y-125420400D01*
X136868600Y-126923600D01*
X136868600Y-126923600D01*
G37*
G36*
X140932600Y-126857600D02*
G01*
X139229400Y-126857600D01*
X139229400Y-125354400D01*
X140932600Y-125354400D01*
X140932600Y-126857600D01*
X140932600Y-126857600D01*
G37*
G36*
X133145431Y-123700023D02*
G01*
X133270939Y-123738096D01*
X133315085Y-123751487D01*
X133471431Y-123835056D01*
X133608475Y-123947525D01*
X133720944Y-124084569D01*
X133804513Y-124240915D01*
X133804514Y-124240919D01*
X133855977Y-124410569D01*
X133873354Y-124587000D01*
X133855977Y-124763431D01*
X133817904Y-124888939D01*
X133804513Y-124933085D01*
X133720944Y-125089431D01*
X133608475Y-125226475D01*
X133471431Y-125338944D01*
X133315085Y-125422513D01*
X133270939Y-125435904D01*
X133145431Y-125473977D01*
X133013207Y-125487000D01*
X132924793Y-125487000D01*
X132792569Y-125473977D01*
X132667061Y-125435904D01*
X132622915Y-125422513D01*
X132466569Y-125338944D01*
X132329525Y-125226475D01*
X132217056Y-125089431D01*
X132133487Y-124933085D01*
X132120096Y-124888939D01*
X132082023Y-124763431D01*
X132064646Y-124587000D01*
X132082023Y-124410569D01*
X132133486Y-124240919D01*
X132133487Y-124240915D01*
X132217056Y-124084569D01*
X132329525Y-123947525D01*
X132466569Y-123835056D01*
X132622915Y-123751487D01*
X132667061Y-123738096D01*
X132792569Y-123700023D01*
X132924793Y-123687000D01*
X133013207Y-123687000D01*
X133145431Y-123700023D01*
X133145431Y-123700023D01*
G37*
G36*
X154394600Y-125150600D02*
G01*
X152691400Y-125150600D01*
X152691400Y-123647400D01*
X154394600Y-123647400D01*
X154394600Y-125150600D01*
X154394600Y-125150600D01*
G37*
G36*
X156426600Y-125150600D02*
G01*
X154723400Y-125150600D01*
X154723400Y-123647400D01*
X156426600Y-123647400D01*
X156426600Y-125150600D01*
X156426600Y-125150600D01*
G37*
G36*
X136868600Y-125023600D02*
G01*
X135165400Y-125023600D01*
X135165400Y-123520400D01*
X136868600Y-123520400D01*
X136868600Y-125023600D01*
X136868600Y-125023600D01*
G37*
G36*
X140932600Y-124957600D02*
G01*
X139229400Y-124957600D01*
X139229400Y-123454400D01*
X140932600Y-123454400D01*
X140932600Y-124957600D01*
X140932600Y-124957600D01*
G37*
G36*
X162939200Y-124648800D02*
G01*
X158904000Y-124648800D01*
X158904000Y-121492600D01*
X162939200Y-121492600D01*
X162939200Y-124648800D01*
X162939200Y-124648800D01*
G37*
G36*
X133145431Y-121160023D02*
G01*
X133270939Y-121198096D01*
X133315085Y-121211487D01*
X133471431Y-121295056D01*
X133608475Y-121407525D01*
X133720944Y-121544569D01*
X133804513Y-121700915D01*
X133804514Y-121700919D01*
X133855977Y-121870569D01*
X133873354Y-122047000D01*
X133855977Y-122223431D01*
X133817904Y-122348939D01*
X133804513Y-122393085D01*
X133720944Y-122549431D01*
X133608475Y-122686475D01*
X133471431Y-122798944D01*
X133315085Y-122882513D01*
X133270939Y-122895904D01*
X133145431Y-122933977D01*
X133013207Y-122947000D01*
X132924793Y-122947000D01*
X132792569Y-122933977D01*
X132667061Y-122895904D01*
X132622915Y-122882513D01*
X132466569Y-122798944D01*
X132329525Y-122686475D01*
X132217056Y-122549431D01*
X132133487Y-122393085D01*
X132120096Y-122348939D01*
X132082023Y-122223431D01*
X132064646Y-122047000D01*
X132082023Y-121870569D01*
X132133486Y-121700919D01*
X132133487Y-121700915D01*
X132217056Y-121544569D01*
X132329525Y-121407525D01*
X132466569Y-121295056D01*
X132622915Y-121211487D01*
X132667061Y-121198096D01*
X132792569Y-121160023D01*
X132924793Y-121147000D01*
X133013207Y-121147000D01*
X133145431Y-121160023D01*
X133145431Y-121160023D01*
G37*
G36*
X156299600Y-120827600D02*
G01*
X154596400Y-120827600D01*
X154596400Y-119324400D01*
X156299600Y-119324400D01*
X156299600Y-120827600D01*
X156299600Y-120827600D01*
G37*
G36*
X133145431Y-118620023D02*
G01*
X133270939Y-118658096D01*
X133315085Y-118671487D01*
X133471431Y-118755056D01*
X133608475Y-118867525D01*
X133720944Y-119004569D01*
X133804513Y-119160915D01*
X133804514Y-119160919D01*
X133855977Y-119330569D01*
X133873354Y-119507000D01*
X133855977Y-119683431D01*
X133817904Y-119808939D01*
X133804513Y-119853085D01*
X133720944Y-120009431D01*
X133608475Y-120146475D01*
X133471431Y-120258944D01*
X133315085Y-120342513D01*
X133270939Y-120355904D01*
X133145431Y-120393977D01*
X133013207Y-120407000D01*
X132924793Y-120407000D01*
X132792569Y-120393977D01*
X132667061Y-120355904D01*
X132622915Y-120342513D01*
X132466569Y-120258944D01*
X132329525Y-120146475D01*
X132217056Y-120009431D01*
X132133487Y-119853085D01*
X132120096Y-119808939D01*
X132082023Y-119683431D01*
X132064646Y-119507000D01*
X132082023Y-119330569D01*
X132133486Y-119160919D01*
X132133487Y-119160915D01*
X132217056Y-119004569D01*
X132329525Y-118867525D01*
X132466569Y-118755056D01*
X132622915Y-118671487D01*
X132667061Y-118658096D01*
X132792569Y-118620023D01*
X132924793Y-118607000D01*
X133013207Y-118607000D01*
X133145431Y-118620023D01*
X133145431Y-118620023D01*
G37*
G36*
X139027600Y-120319600D02*
G01*
X137324400Y-120319600D01*
X137324400Y-118816400D01*
X139027600Y-118816400D01*
X139027600Y-120319600D01*
X139027600Y-120319600D01*
G37*
G36*
X136868600Y-120319600D02*
G01*
X135165400Y-120319600D01*
X135165400Y-118816400D01*
X136868600Y-118816400D01*
X136868600Y-120319600D01*
X136868600Y-120319600D01*
G37*
G36*
X162939200Y-119695800D02*
G01*
X158904000Y-119695800D01*
X158904000Y-116412600D01*
X162939200Y-116412600D01*
X162939200Y-119695800D01*
X162939200Y-119695800D01*
G37*
G36*
X156299600Y-118927600D02*
G01*
X154596400Y-118927600D01*
X154596400Y-117424400D01*
X156299600Y-117424400D01*
X156299600Y-118927600D01*
X156299600Y-118927600D01*
G37*
G36*
X136868600Y-118419600D02*
G01*
X135165400Y-118419600D01*
X135165400Y-116916400D01*
X136868600Y-116916400D01*
X136868600Y-118419600D01*
X136868600Y-118419600D01*
G37*
G36*
X139027600Y-118419600D02*
G01*
X137324400Y-118419600D01*
X137324400Y-116916400D01*
X139027600Y-116916400D01*
X139027600Y-118419600D01*
X139027600Y-118419600D01*
G37*
G36*
X133869000Y-117867000D02*
G01*
X132069000Y-117867000D01*
X132069000Y-116067000D01*
X133869000Y-116067000D01*
X133869000Y-117867000D01*
X133869000Y-117867000D01*
G37*
G36*
X156299600Y-116570600D02*
G01*
X154596400Y-116570600D01*
X154596400Y-115067400D01*
X156299600Y-115067400D01*
X156299600Y-116570600D01*
X156299600Y-116570600D01*
G37*
G36*
X158331600Y-116570600D02*
G01*
X156628400Y-116570600D01*
X156628400Y-115067400D01*
X158331600Y-115067400D01*
X158331600Y-116570600D01*
X158331600Y-116570600D01*
G37*
G36*
X158331600Y-114670600D02*
G01*
X156628400Y-114670600D01*
X156628400Y-113167400D01*
X158331600Y-113167400D01*
X158331600Y-114670600D01*
X158331600Y-114670600D01*
G37*
G36*
X156299600Y-114670600D02*
G01*
X154596400Y-114670600D01*
X154596400Y-113167400D01*
X156299600Y-113167400D01*
X156299600Y-114670600D01*
X156299600Y-114670600D01*
G37*
G36*
X162939200Y-114615800D02*
G01*
X158904000Y-114615800D01*
X158904000Y-113012600D01*
X162939200Y-113012600D01*
X162939200Y-114615800D01*
X162939200Y-114615800D01*
G37*
G36*
X140390600Y-113500600D02*
G01*
X138887400Y-113500600D01*
X138887400Y-111797400D01*
X140390600Y-111797400D01*
X140390600Y-113500600D01*
X140390600Y-113500600D01*
G37*
G36*
X142290600Y-113500600D02*
G01*
X140787400Y-113500600D01*
X140787400Y-111797400D01*
X142290600Y-111797400D01*
X142290600Y-113500600D01*
X142290600Y-113500600D01*
G37*
G36*
X142290600Y-111468600D02*
G01*
X140787400Y-111468600D01*
X140787400Y-109765400D01*
X142290600Y-109765400D01*
X142290600Y-111468600D01*
X142290600Y-111468600D01*
G37*
G36*
X140390600Y-111468600D02*
G01*
X138887400Y-111468600D01*
X138887400Y-109765400D01*
X140390600Y-109765400D01*
X140390600Y-111468600D01*
X140390600Y-111468600D01*
G37*
G36*
X139006200Y-106078800D02*
G01*
X137503000Y-106078800D01*
X137503000Y-104375600D01*
X139006200Y-104375600D01*
X139006200Y-106078800D01*
X139006200Y-106078800D01*
G37*
G36*
X140906200Y-106078800D02*
G01*
X139403000Y-106078800D01*
X139403000Y-104375600D01*
X140906200Y-104375600D01*
X140906200Y-106078800D01*
X140906200Y-106078800D01*
G37*
G36*
X136246200Y-104896800D02*
G01*
X134543000Y-104896800D01*
X134543000Y-103393600D01*
X136246200Y-103393600D01*
X136246200Y-104896800D01*
X136246200Y-104896800D01*
G37*
G36*
X153518200Y-104642800D02*
G01*
X151815000Y-104642800D01*
X151815000Y-103139600D01*
X153518200Y-103139600D01*
X153518200Y-104642800D01*
X153518200Y-104642800D01*
G37*
G36*
X139006200Y-104046800D02*
G01*
X137503000Y-104046800D01*
X137503000Y-102343600D01*
X139006200Y-102343600D01*
X139006200Y-104046800D01*
X139006200Y-104046800D01*
G37*
G36*
X140906200Y-104046800D02*
G01*
X139403000Y-104046800D01*
X139403000Y-102343600D01*
X140906200Y-102343600D01*
X140906200Y-104046800D01*
X140906200Y-104046800D01*
G37*
G36*
X136246200Y-102996800D02*
G01*
X134543000Y-102996800D01*
X134543000Y-101493600D01*
X136246200Y-101493600D01*
X136246200Y-102996800D01*
X136246200Y-102996800D01*
G37*
G36*
X153518200Y-102742800D02*
G01*
X151815000Y-102742800D01*
X151815000Y-101239600D01*
X153518200Y-101239600D01*
X153518200Y-102742800D01*
X153518200Y-102742800D01*
G37*
G36*
X155257200Y-100744800D02*
G01*
X153754000Y-100744800D01*
X153754000Y-99041600D01*
X155257200Y-99041600D01*
X155257200Y-100744800D01*
X155257200Y-100744800D01*
G37*
G36*
X153357200Y-100744800D02*
G01*
X151854000Y-100744800D01*
X151854000Y-99041600D01*
X153357200Y-99041600D01*
X153357200Y-100744800D01*
X153357200Y-100744800D01*
G37*
G36*
X159321200Y-100744800D02*
G01*
X157818000Y-100744800D01*
X157818000Y-99041600D01*
X159321200Y-99041600D01*
X159321200Y-100744800D01*
X159321200Y-100744800D01*
G37*
G36*
X157421200Y-100744800D02*
G01*
X155918000Y-100744800D01*
X155918000Y-99041600D01*
X157421200Y-99041600D01*
X157421200Y-100744800D01*
X157421200Y-100744800D01*
G37*
G36*
X163385200Y-100744800D02*
G01*
X161882000Y-100744800D01*
X161882000Y-99041600D01*
X163385200Y-99041600D01*
X163385200Y-100744800D01*
X163385200Y-100744800D01*
G37*
G36*
X161485200Y-100744800D02*
G01*
X159982000Y-100744800D01*
X159982000Y-99041600D01*
X161485200Y-99041600D01*
X161485200Y-100744800D01*
X161485200Y-100744800D01*
G37*
G36*
X137389200Y-97530800D02*
G01*
X135686000Y-97530800D01*
X135686000Y-96027600D01*
X137389200Y-96027600D01*
X137389200Y-97530800D01*
X137389200Y-97530800D01*
G37*
G36*
X139548200Y-97530800D02*
G01*
X137845000Y-97530800D01*
X137845000Y-96027600D01*
X139548200Y-96027600D01*
X139548200Y-97530800D01*
X139548200Y-97530800D01*
G37*
G36*
X143739200Y-97403800D02*
G01*
X142036000Y-97403800D01*
X142036000Y-95900600D01*
X143739200Y-95900600D01*
X143739200Y-97403800D01*
X143739200Y-97403800D01*
G37*
G36*
X145991200Y-96680800D02*
G01*
X144488000Y-96680800D01*
X144488000Y-94977600D01*
X145991200Y-94977600D01*
X145991200Y-96680800D01*
X145991200Y-96680800D01*
G37*
G36*
X147891200Y-96680800D02*
G01*
X146388000Y-96680800D01*
X146388000Y-94977600D01*
X147891200Y-94977600D01*
X147891200Y-96680800D01*
X147891200Y-96680800D01*
G37*
G36*
X139548200Y-95630800D02*
G01*
X137845000Y-95630800D01*
X137845000Y-94127600D01*
X139548200Y-94127600D01*
X139548200Y-95630800D01*
X139548200Y-95630800D01*
G37*
G36*
X137389200Y-95630800D02*
G01*
X135686000Y-95630800D01*
X135686000Y-94127600D01*
X137389200Y-94127600D01*
X137389200Y-95630800D01*
X137389200Y-95630800D01*
G37*
G36*
X143739200Y-95503800D02*
G01*
X142036000Y-95503800D01*
X142036000Y-94000600D01*
X143739200Y-94000600D01*
X143739200Y-95503800D01*
X143739200Y-95503800D01*
G37*
G36*
X149034200Y-91473800D02*
G01*
X147531000Y-91473800D01*
X147531000Y-89770600D01*
X149034200Y-89770600D01*
X149034200Y-91473800D01*
X149034200Y-91473800D01*
G37*
G36*
X147134200Y-91473800D02*
G01*
X145631000Y-91473800D01*
X145631000Y-89770600D01*
X147134200Y-89770600D01*
X147134200Y-91473800D01*
X147134200Y-91473800D01*
G37*
G36*
X143446200Y-91473800D02*
G01*
X141943000Y-91473800D01*
X141943000Y-89770600D01*
X143446200Y-89770600D01*
X143446200Y-91473800D01*
X143446200Y-91473800D01*
G37*
G36*
X141546200Y-91473800D02*
G01*
X140043000Y-91473800D01*
X140043000Y-89770600D01*
X141546200Y-89770600D01*
X141546200Y-91473800D01*
X141546200Y-91473800D01*
G37*
G36*
X142397000Y-88453000D02*
G01*
X139797000Y-88453000D01*
X139797000Y-86553000D01*
X142397000Y-86553000D01*
X142397000Y-88453000D01*
X142397000Y-88453000D01*
G37*
G36*
X146397000Y-88453000D02*
G01*
X143797000Y-88453000D01*
X143797000Y-86553000D01*
X146397000Y-86553000D01*
X146397000Y-88453000D01*
X146397000Y-88453000D01*
G37*
G36*
X160577431Y-83568023D02*
G01*
X160702939Y-83606096D01*
X160747085Y-83619487D01*
X160903431Y-83703056D01*
X161040475Y-83815525D01*
X161152944Y-83952569D01*
X161236513Y-84108915D01*
X161236514Y-84108919D01*
X161287977Y-84278569D01*
X161305354Y-84455000D01*
X161287977Y-84631431D01*
X161249904Y-84756939D01*
X161236513Y-84801085D01*
X161152944Y-84957431D01*
X161040475Y-85094475D01*
X160903431Y-85206944D01*
X160747085Y-85290513D01*
X160702939Y-85303904D01*
X160577431Y-85341977D01*
X160445207Y-85355000D01*
X160356793Y-85355000D01*
X160224569Y-85341977D01*
X160099061Y-85303904D01*
X160054915Y-85290513D01*
X159898569Y-85206944D01*
X159761525Y-85094475D01*
X159649056Y-84957431D01*
X159565487Y-84801085D01*
X159552096Y-84756939D01*
X159514023Y-84631431D01*
X159496646Y-84455000D01*
X159514023Y-84278569D01*
X159565486Y-84108919D01*
X159565487Y-84108915D01*
X159649056Y-83952569D01*
X159761525Y-83815525D01*
X159898569Y-83703056D01*
X160054915Y-83619487D01*
X160099061Y-83606096D01*
X160224569Y-83568023D01*
X160356793Y-83555000D01*
X160445207Y-83555000D01*
X160577431Y-83568023D01*
X160577431Y-83568023D01*
G37*
G36*
X161301000Y-82815000D02*
G01*
X159501000Y-82815000D01*
X159501000Y-81015000D01*
X161301000Y-81015000D01*
X161301000Y-82815000D01*
X161301000Y-82815000D01*
G37*
M02*
