G04 #@! TF.GenerationSoftware,KiCad,Pcbnew,(5.1.0)-1*
G04 #@! TF.CreationDate,2019-05-26T23:58:58+02:00*
G04 #@! TF.ProjectId,UWED,55574544-2e6b-4696-9361-645f70636258,rev?*
G04 #@! TF.SameCoordinates,Original*
G04 #@! TF.FileFunction,Soldermask,Top*
G04 #@! TF.FilePolarity,Negative*
%FSLAX46Y46*%
G04 Gerber Fmt 4.6, Leading zero omitted, Abs format (unit mm)*
G04 Created by KiCad (PCBNEW (5.1.0)-1) date 2019-05-26 23:58:58*
%MOMM*%
%LPD*%
G04 APERTURE LIST*
%ADD10C,0.100000*%
G04 APERTURE END LIST*
D10*
G36*
X156934600Y-132191600D02*
G01*
X155231400Y-132191600D01*
X155231400Y-130688400D01*
X156934600Y-130688400D01*
X156934600Y-132191600D01*
X156934600Y-132191600D01*
G37*
G36*
X162506600Y-132030600D02*
G01*
X160803400Y-132030600D01*
X160803400Y-128827400D01*
X162506600Y-128827400D01*
X162506600Y-132030600D01*
X162506600Y-132030600D01*
G37*
G36*
X160506600Y-132030600D02*
G01*
X158803400Y-132030600D01*
X158803400Y-128827400D01*
X160506600Y-128827400D01*
X160506600Y-132030600D01*
X160506600Y-132030600D01*
G37*
G36*
X137085000Y-131945000D02*
G01*
X134985000Y-131945000D01*
X134985000Y-130945000D01*
X137085000Y-130945000D01*
X137085000Y-131945000D01*
X137085000Y-131945000D01*
G37*
G36*
X154085000Y-131945000D02*
G01*
X151985000Y-131945000D01*
X151985000Y-130945000D01*
X154085000Y-130945000D01*
X154085000Y-131945000D01*
X154085000Y-131945000D01*
G37*
G36*
X137085000Y-130675000D02*
G01*
X134985000Y-130675000D01*
X134985000Y-129675000D01*
X137085000Y-129675000D01*
X137085000Y-130675000D01*
X137085000Y-130675000D01*
G37*
G36*
X154085000Y-130675000D02*
G01*
X151985000Y-130675000D01*
X151985000Y-129675000D01*
X154085000Y-129675000D01*
X154085000Y-130675000D01*
X154085000Y-130675000D01*
G37*
G36*
X133145431Y-128780023D02*
G01*
X133270939Y-128818096D01*
X133315085Y-128831487D01*
X133471431Y-128915056D01*
X133608475Y-129027525D01*
X133720944Y-129164569D01*
X133804513Y-129320915D01*
X133804514Y-129320919D01*
X133855977Y-129490569D01*
X133873354Y-129667000D01*
X133855977Y-129843431D01*
X133817904Y-129968939D01*
X133804513Y-130013085D01*
X133720944Y-130169431D01*
X133608475Y-130306475D01*
X133471431Y-130418944D01*
X133315085Y-130502513D01*
X133270939Y-130515904D01*
X133145431Y-130553977D01*
X133013207Y-130567000D01*
X132924793Y-130567000D01*
X132792569Y-130553977D01*
X132667061Y-130515904D01*
X132622915Y-130502513D01*
X132466569Y-130418944D01*
X132329525Y-130306475D01*
X132217056Y-130169431D01*
X132133487Y-130013085D01*
X132120096Y-129968939D01*
X132082023Y-129843431D01*
X132064646Y-129667000D01*
X132082023Y-129490569D01*
X132133486Y-129320919D01*
X132133487Y-129320915D01*
X132217056Y-129164569D01*
X132329525Y-129027525D01*
X132466569Y-128915056D01*
X132622915Y-128831487D01*
X132667061Y-128818096D01*
X132792569Y-128780023D01*
X132924793Y-128767000D01*
X133013207Y-128767000D01*
X133145431Y-128780023D01*
X133145431Y-128780023D01*
G37*
G36*
X156934600Y-130291600D02*
G01*
X155231400Y-130291600D01*
X155231400Y-128788400D01*
X156934600Y-128788400D01*
X156934600Y-130291600D01*
X156934600Y-130291600D01*
G37*
G36*
X137085000Y-129405000D02*
G01*
X134985000Y-129405000D01*
X134985000Y-128405000D01*
X137085000Y-128405000D01*
X137085000Y-129405000D01*
X137085000Y-129405000D01*
G37*
G36*
X154085000Y-129405000D02*
G01*
X151985000Y-129405000D01*
X151985000Y-128405000D01*
X154085000Y-128405000D01*
X154085000Y-129405000D01*
X154085000Y-129405000D01*
G37*
G36*
X154085000Y-128135000D02*
G01*
X151985000Y-128135000D01*
X151985000Y-127135000D01*
X154085000Y-127135000D01*
X154085000Y-128135000D01*
X154085000Y-128135000D01*
G37*
G36*
X137085000Y-128135000D02*
G01*
X134985000Y-128135000D01*
X134985000Y-127135000D01*
X137085000Y-127135000D01*
X137085000Y-128135000D01*
X137085000Y-128135000D01*
G37*
G36*
X133145431Y-126240023D02*
G01*
X133270939Y-126278096D01*
X133315085Y-126291487D01*
X133471431Y-126375056D01*
X133608475Y-126487525D01*
X133720944Y-126624569D01*
X133804513Y-126780915D01*
X133804514Y-126780919D01*
X133855977Y-126950569D01*
X133873354Y-127127000D01*
X133855977Y-127303431D01*
X133817904Y-127428939D01*
X133804513Y-127473085D01*
X133720944Y-127629431D01*
X133608475Y-127766475D01*
X133471431Y-127878944D01*
X133315085Y-127962513D01*
X133270939Y-127975904D01*
X133145431Y-128013977D01*
X133013207Y-128027000D01*
X132924793Y-128027000D01*
X132792569Y-128013977D01*
X132667061Y-127975904D01*
X132622915Y-127962513D01*
X132466569Y-127878944D01*
X132329525Y-127766475D01*
X132217056Y-127629431D01*
X132133487Y-127473085D01*
X132120096Y-127428939D01*
X132082023Y-127303431D01*
X132064646Y-127127000D01*
X132082023Y-126950569D01*
X132133486Y-126780919D01*
X132133487Y-126780915D01*
X132217056Y-126624569D01*
X132329525Y-126487525D01*
X132466569Y-126375056D01*
X132622915Y-126291487D01*
X132667061Y-126278096D01*
X132792569Y-126240023D01*
X132924793Y-126227000D01*
X133013207Y-126227000D01*
X133145431Y-126240023D01*
X133145431Y-126240023D01*
G37*
G36*
X160157000Y-127842000D02*
G01*
X159157000Y-127842000D01*
X159157000Y-126742000D01*
X160157000Y-126742000D01*
X160157000Y-127842000D01*
X160157000Y-127842000D01*
G37*
G36*
X156057000Y-127842000D02*
G01*
X155057000Y-127842000D01*
X155057000Y-126742000D01*
X156057000Y-126742000D01*
X156057000Y-127842000D01*
X156057000Y-127842000D01*
G37*
G36*
X148085000Y-127495000D02*
G01*
X142985000Y-127495000D01*
X142985000Y-122395000D01*
X148085000Y-122395000D01*
X148085000Y-127495000D01*
X148085000Y-127495000D01*
G37*
G36*
X137085000Y-126865000D02*
G01*
X134985000Y-126865000D01*
X134985000Y-125865000D01*
X137085000Y-125865000D01*
X137085000Y-126865000D01*
X137085000Y-126865000D01*
G37*
G36*
X154085000Y-126865000D02*
G01*
X151985000Y-126865000D01*
X151985000Y-125865000D01*
X154085000Y-125865000D01*
X154085000Y-126865000D01*
X154085000Y-126865000D01*
G37*
G36*
X156057000Y-126242000D02*
G01*
X155057000Y-126242000D01*
X155057000Y-125142000D01*
X156057000Y-125142000D01*
X156057000Y-126242000D01*
X156057000Y-126242000D01*
G37*
G36*
X160157000Y-126242000D02*
G01*
X159157000Y-126242000D01*
X159157000Y-125142000D01*
X160157000Y-125142000D01*
X160157000Y-126242000D01*
X160157000Y-126242000D01*
G37*
G36*
X137085000Y-125595000D02*
G01*
X134985000Y-125595000D01*
X134985000Y-124595000D01*
X137085000Y-124595000D01*
X137085000Y-125595000D01*
X137085000Y-125595000D01*
G37*
G36*
X154085000Y-125595000D02*
G01*
X151985000Y-125595000D01*
X151985000Y-124595000D01*
X154085000Y-124595000D01*
X154085000Y-125595000D01*
X154085000Y-125595000D01*
G37*
G36*
X133145431Y-123700023D02*
G01*
X133270939Y-123738096D01*
X133315085Y-123751487D01*
X133471431Y-123835056D01*
X133608475Y-123947525D01*
X133720944Y-124084569D01*
X133804513Y-124240915D01*
X133804514Y-124240919D01*
X133855977Y-124410569D01*
X133873354Y-124587000D01*
X133855977Y-124763431D01*
X133817904Y-124888939D01*
X133804513Y-124933085D01*
X133720944Y-125089431D01*
X133608475Y-125226475D01*
X133471431Y-125338944D01*
X133315085Y-125422513D01*
X133270939Y-125435904D01*
X133145431Y-125473977D01*
X133013207Y-125487000D01*
X132924793Y-125487000D01*
X132792569Y-125473977D01*
X132667061Y-125435904D01*
X132622915Y-125422513D01*
X132466569Y-125338944D01*
X132329525Y-125226475D01*
X132217056Y-125089431D01*
X132133487Y-124933085D01*
X132120096Y-124888939D01*
X132082023Y-124763431D01*
X132064646Y-124587000D01*
X132082023Y-124410569D01*
X132133486Y-124240919D01*
X132133487Y-124240915D01*
X132217056Y-124084569D01*
X132329525Y-123947525D01*
X132466569Y-123835056D01*
X132622915Y-123751487D01*
X132667061Y-123738096D01*
X132792569Y-123700023D01*
X132924793Y-123687000D01*
X133013207Y-123687000D01*
X133145431Y-123700023D01*
X133145431Y-123700023D01*
G37*
G36*
X154085000Y-124325000D02*
G01*
X151985000Y-124325000D01*
X151985000Y-123325000D01*
X154085000Y-123325000D01*
X154085000Y-124325000D01*
X154085000Y-124325000D01*
G37*
G36*
X137085000Y-124325000D02*
G01*
X134985000Y-124325000D01*
X134985000Y-123325000D01*
X137085000Y-123325000D01*
X137085000Y-124325000D01*
X137085000Y-124325000D01*
G37*
G36*
X154085000Y-123055000D02*
G01*
X151985000Y-123055000D01*
X151985000Y-122055000D01*
X154085000Y-122055000D01*
X154085000Y-123055000D01*
X154085000Y-123055000D01*
G37*
G36*
X137085000Y-123055000D02*
G01*
X134985000Y-123055000D01*
X134985000Y-122055000D01*
X137085000Y-122055000D01*
X137085000Y-123055000D01*
X137085000Y-123055000D01*
G37*
G36*
X133145431Y-121160023D02*
G01*
X133270939Y-121198096D01*
X133315085Y-121211487D01*
X133471431Y-121295056D01*
X133608475Y-121407525D01*
X133720944Y-121544569D01*
X133804513Y-121700915D01*
X133804514Y-121700919D01*
X133855977Y-121870569D01*
X133873354Y-122047000D01*
X133855977Y-122223431D01*
X133817904Y-122348939D01*
X133804513Y-122393085D01*
X133720944Y-122549431D01*
X133608475Y-122686475D01*
X133471431Y-122798944D01*
X133315085Y-122882513D01*
X133270939Y-122895904D01*
X133145431Y-122933977D01*
X133013207Y-122947000D01*
X132924793Y-122947000D01*
X132792569Y-122933977D01*
X132667061Y-122895904D01*
X132622915Y-122882513D01*
X132466569Y-122798944D01*
X132329525Y-122686475D01*
X132217056Y-122549431D01*
X132133487Y-122393085D01*
X132120096Y-122348939D01*
X132082023Y-122223431D01*
X132064646Y-122047000D01*
X132082023Y-121870569D01*
X132133486Y-121700919D01*
X132133487Y-121700915D01*
X132217056Y-121544569D01*
X132329525Y-121407525D01*
X132466569Y-121295056D01*
X132622915Y-121211487D01*
X132667061Y-121198096D01*
X132792569Y-121160023D01*
X132924793Y-121147000D01*
X133013207Y-121147000D01*
X133145431Y-121160023D01*
X133145431Y-121160023D01*
G37*
G36*
X162904200Y-122064800D02*
G01*
X159701000Y-122064800D01*
X159701000Y-120361600D01*
X162904200Y-120361600D01*
X162904200Y-122064800D01*
X162904200Y-122064800D01*
G37*
G36*
X137085000Y-121785000D02*
G01*
X134985000Y-121785000D01*
X134985000Y-120785000D01*
X137085000Y-120785000D01*
X137085000Y-121785000D01*
X137085000Y-121785000D01*
G37*
G36*
X154085000Y-121785000D02*
G01*
X151985000Y-121785000D01*
X151985000Y-120785000D01*
X154085000Y-120785000D01*
X154085000Y-121785000D01*
X154085000Y-121785000D01*
G37*
G36*
X137085000Y-120515000D02*
G01*
X134985000Y-120515000D01*
X134985000Y-119515000D01*
X137085000Y-119515000D01*
X137085000Y-120515000D01*
X137085000Y-120515000D01*
G37*
G36*
X154085000Y-120515000D02*
G01*
X151985000Y-120515000D01*
X151985000Y-119515000D01*
X154085000Y-119515000D01*
X154085000Y-120515000D01*
X154085000Y-120515000D01*
G37*
G36*
X133145431Y-118620023D02*
G01*
X133270939Y-118658096D01*
X133315085Y-118671487D01*
X133471431Y-118755056D01*
X133608475Y-118867525D01*
X133720944Y-119004569D01*
X133804513Y-119160915D01*
X133804514Y-119160919D01*
X133855977Y-119330569D01*
X133873354Y-119507000D01*
X133855977Y-119683431D01*
X133817904Y-119808939D01*
X133804513Y-119853085D01*
X133720944Y-120009431D01*
X133608475Y-120146475D01*
X133471431Y-120258944D01*
X133315085Y-120342513D01*
X133270939Y-120355904D01*
X133145431Y-120393977D01*
X133013207Y-120407000D01*
X132924793Y-120407000D01*
X132792569Y-120393977D01*
X132667061Y-120355904D01*
X132622915Y-120342513D01*
X132466569Y-120258944D01*
X132329525Y-120146475D01*
X132217056Y-120009431D01*
X132133487Y-119853085D01*
X132120096Y-119808939D01*
X132082023Y-119683431D01*
X132064646Y-119507000D01*
X132082023Y-119330569D01*
X132133486Y-119160919D01*
X132133487Y-119160915D01*
X132217056Y-119004569D01*
X132329525Y-118867525D01*
X132466569Y-118755056D01*
X132622915Y-118671487D01*
X132667061Y-118658096D01*
X132792569Y-118620023D01*
X132924793Y-118607000D01*
X133013207Y-118607000D01*
X133145431Y-118620023D01*
X133145431Y-118620023D01*
G37*
G36*
X162904200Y-120064800D02*
G01*
X159701000Y-120064800D01*
X159701000Y-118361600D01*
X162904200Y-118361600D01*
X162904200Y-120064800D01*
X162904200Y-120064800D01*
G37*
G36*
X137085000Y-119245000D02*
G01*
X134985000Y-119245000D01*
X134985000Y-118245000D01*
X137085000Y-118245000D01*
X137085000Y-119245000D01*
X137085000Y-119245000D01*
G37*
G36*
X154085000Y-119245000D02*
G01*
X151985000Y-119245000D01*
X151985000Y-118245000D01*
X154085000Y-118245000D01*
X154085000Y-119245000D01*
X154085000Y-119245000D01*
G37*
G36*
X154085000Y-117975000D02*
G01*
X151985000Y-117975000D01*
X151985000Y-116975000D01*
X154085000Y-116975000D01*
X154085000Y-117975000D01*
X154085000Y-117975000D01*
G37*
G36*
X137085000Y-117975000D02*
G01*
X134985000Y-117975000D01*
X134985000Y-116975000D01*
X137085000Y-116975000D01*
X137085000Y-117975000D01*
X137085000Y-117975000D01*
G37*
G36*
X162904200Y-117873800D02*
G01*
X159701000Y-117873800D01*
X159701000Y-116170600D01*
X162904200Y-116170600D01*
X162904200Y-117873800D01*
X162904200Y-117873800D01*
G37*
G36*
X133869000Y-117867000D02*
G01*
X132069000Y-117867000D01*
X132069000Y-116067000D01*
X133869000Y-116067000D01*
X133869000Y-117867000D01*
X133869000Y-117867000D01*
G37*
G36*
X137085000Y-116705000D02*
G01*
X134985000Y-116705000D01*
X134985000Y-115705000D01*
X137085000Y-115705000D01*
X137085000Y-116705000D01*
X137085000Y-116705000D01*
G37*
G36*
X154085000Y-116705000D02*
G01*
X151985000Y-116705000D01*
X151985000Y-115705000D01*
X154085000Y-115705000D01*
X154085000Y-116705000D01*
X154085000Y-116705000D01*
G37*
G36*
X162904200Y-115873800D02*
G01*
X159701000Y-115873800D01*
X159701000Y-114170600D01*
X162904200Y-114170600D01*
X162904200Y-115873800D01*
X162904200Y-115873800D01*
G37*
G36*
X154085000Y-115435000D02*
G01*
X151985000Y-115435000D01*
X151985000Y-114435000D01*
X154085000Y-114435000D01*
X154085000Y-115435000D01*
X154085000Y-115435000D01*
G37*
G36*
X137085000Y-115435000D02*
G01*
X134985000Y-115435000D01*
X134985000Y-114435000D01*
X137085000Y-114435000D01*
X137085000Y-115435000D01*
X137085000Y-115435000D01*
G37*
G36*
X141860000Y-114985000D02*
G01*
X140860000Y-114985000D01*
X140860000Y-112885000D01*
X141860000Y-112885000D01*
X141860000Y-114985000D01*
X141860000Y-114985000D01*
G37*
G36*
X149480000Y-114985000D02*
G01*
X148480000Y-114985000D01*
X148480000Y-112885000D01*
X149480000Y-112885000D01*
X149480000Y-114985000D01*
X149480000Y-114985000D01*
G37*
G36*
X150750000Y-114985000D02*
G01*
X149750000Y-114985000D01*
X149750000Y-112885000D01*
X150750000Y-112885000D01*
X150750000Y-114985000D01*
X150750000Y-114985000D01*
G37*
G36*
X148210000Y-114985000D02*
G01*
X147210000Y-114985000D01*
X147210000Y-112885000D01*
X148210000Y-112885000D01*
X148210000Y-114985000D01*
X148210000Y-114985000D01*
G37*
G36*
X145670000Y-114985000D02*
G01*
X144670000Y-114985000D01*
X144670000Y-112885000D01*
X145670000Y-112885000D01*
X145670000Y-114985000D01*
X145670000Y-114985000D01*
G37*
G36*
X140590000Y-114985000D02*
G01*
X139590000Y-114985000D01*
X139590000Y-112885000D01*
X140590000Y-112885000D01*
X140590000Y-114985000D01*
X140590000Y-114985000D01*
G37*
G36*
X139320000Y-114985000D02*
G01*
X138320000Y-114985000D01*
X138320000Y-112885000D01*
X139320000Y-112885000D01*
X139320000Y-114985000D01*
X139320000Y-114985000D01*
G37*
G36*
X144400000Y-114985000D02*
G01*
X143400000Y-114985000D01*
X143400000Y-112885000D01*
X144400000Y-112885000D01*
X144400000Y-114985000D01*
X144400000Y-114985000D01*
G37*
G36*
X146940000Y-114985000D02*
G01*
X145940000Y-114985000D01*
X145940000Y-112885000D01*
X146940000Y-112885000D01*
X146940000Y-114985000D01*
X146940000Y-114985000D01*
G37*
G36*
X143130000Y-114985000D02*
G01*
X142130000Y-114985000D01*
X142130000Y-112885000D01*
X143130000Y-112885000D01*
X143130000Y-114985000D01*
X143130000Y-114985000D01*
G37*
G36*
X133227000Y-112405000D02*
G01*
X132127000Y-112405000D01*
X132127000Y-111405000D01*
X133227000Y-111405000D01*
X133227000Y-112405000D01*
X133227000Y-112405000D01*
G37*
G36*
X134827000Y-112405000D02*
G01*
X133727000Y-112405000D01*
X133727000Y-111405000D01*
X134827000Y-111405000D01*
X134827000Y-112405000D01*
X134827000Y-112405000D01*
G37*
G36*
X137262200Y-111796800D02*
G01*
X135559000Y-111796800D01*
X135559000Y-109293600D01*
X137262200Y-109293600D01*
X137262200Y-111796800D01*
X137262200Y-111796800D01*
G37*
G36*
X142262200Y-111796800D02*
G01*
X140559000Y-111796800D01*
X140559000Y-109293600D01*
X142262200Y-109293600D01*
X142262200Y-111796800D01*
X142262200Y-111796800D01*
G37*
G36*
X147434200Y-111399400D02*
G01*
X145961000Y-111399400D01*
X145961000Y-110688200D01*
X147434200Y-110688200D01*
X147434200Y-111399400D01*
X147434200Y-111399400D01*
G37*
G36*
X150253600Y-111399400D02*
G01*
X148780400Y-111399400D01*
X148780400Y-110688200D01*
X150253600Y-110688200D01*
X150253600Y-111399400D01*
X150253600Y-111399400D01*
G37*
G36*
X157276600Y-110579600D02*
G01*
X155773400Y-110579600D01*
X155773400Y-108876400D01*
X157276600Y-108876400D01*
X157276600Y-110579600D01*
X157276600Y-110579600D01*
G37*
G36*
X155376600Y-110579600D02*
G01*
X153873400Y-110579600D01*
X153873400Y-108876400D01*
X155376600Y-108876400D01*
X155376600Y-110579600D01*
X155376600Y-110579600D01*
G37*
G36*
X150253600Y-110459600D02*
G01*
X148780400Y-110459600D01*
X148780400Y-109748400D01*
X150253600Y-109748400D01*
X150253600Y-110459600D01*
X150253600Y-110459600D01*
G37*
G36*
X147434200Y-110459600D02*
G01*
X145961000Y-110459600D01*
X145961000Y-109748400D01*
X147434200Y-109748400D01*
X147434200Y-110459600D01*
X147434200Y-110459600D01*
G37*
G36*
X150253600Y-109519800D02*
G01*
X148780400Y-109519800D01*
X148780400Y-108808600D01*
X150253600Y-108808600D01*
X150253600Y-109519800D01*
X150253600Y-109519800D01*
G37*
G36*
X147434200Y-109519800D02*
G01*
X145961000Y-109519800D01*
X145961000Y-108808600D01*
X147434200Y-108808600D01*
X147434200Y-109519800D01*
X147434200Y-109519800D01*
G37*
G36*
X142562200Y-109126800D02*
G01*
X141059000Y-109126800D01*
X141059000Y-107423600D01*
X142562200Y-107423600D01*
X142562200Y-109126800D01*
X142562200Y-109126800D01*
G37*
G36*
X144462200Y-109126800D02*
G01*
X142959000Y-109126800D01*
X142959000Y-107423600D01*
X144462200Y-107423600D01*
X144462200Y-109126800D01*
X144462200Y-109126800D01*
G37*
G36*
X155547200Y-107726251D02*
G01*
X155548641Y-107740883D01*
X155548641Y-108423550D01*
X154075441Y-108423550D01*
X154075441Y-107848549D01*
X154074000Y-107833917D01*
X154074000Y-103900050D01*
X155547200Y-103900050D01*
X155547200Y-107726251D01*
X155547200Y-107726251D01*
G37*
G36*
X161398640Y-108423309D02*
G01*
X159925440Y-108423309D01*
X159925440Y-103900050D01*
X161398640Y-103900050D01*
X161398640Y-108423309D01*
X161398640Y-108423309D01*
G37*
G36*
X134827000Y-108305000D02*
G01*
X133727000Y-108305000D01*
X133727000Y-107305000D01*
X134827000Y-107305000D01*
X134827000Y-108305000D01*
X134827000Y-108305000D01*
G37*
G36*
X133227000Y-108305000D02*
G01*
X132127000Y-108305000D01*
X132127000Y-107305000D01*
X133227000Y-107305000D01*
X133227000Y-108305000D01*
X133227000Y-108305000D01*
G37*
G36*
X137655200Y-105995550D02*
G01*
X136182000Y-105995550D01*
X136182000Y-102122050D01*
X137655200Y-102122050D01*
X137655200Y-105995550D01*
X137655200Y-105995550D01*
G37*
G36*
X141556640Y-105995550D02*
G01*
X140083440Y-105995550D01*
X140083440Y-102122050D01*
X141556640Y-102122050D01*
X141556640Y-105995550D01*
X141556640Y-105995550D01*
G37*
G36*
X147041200Y-105075800D02*
G01*
X145338000Y-105075800D01*
X145338000Y-102502600D01*
X147041200Y-102502600D01*
X147041200Y-105075800D01*
X147041200Y-105075800D01*
G37*
G36*
X150941200Y-105075800D02*
G01*
X149238000Y-105075800D01*
X149238000Y-102502600D01*
X150941200Y-102502600D01*
X150941200Y-105075800D01*
X150941200Y-105075800D01*
G37*
G36*
X154026200Y-103499800D02*
G01*
X152323000Y-103499800D01*
X152323000Y-101996600D01*
X154026200Y-101996600D01*
X154026200Y-103499800D01*
X154026200Y-103499800D01*
G37*
G36*
X154026200Y-101599800D02*
G01*
X152323000Y-101599800D01*
X152323000Y-100096600D01*
X154026200Y-100096600D01*
X154026200Y-101599800D01*
X154026200Y-101599800D01*
G37*
G36*
X137643200Y-101213800D02*
G01*
X135940000Y-101213800D01*
X135940000Y-99710600D01*
X137643200Y-99710600D01*
X137643200Y-101213800D01*
X137643200Y-101213800D01*
G37*
G36*
X139802200Y-101086800D02*
G01*
X138099000Y-101086800D01*
X138099000Y-99583600D01*
X139802200Y-99583600D01*
X139802200Y-101086800D01*
X139802200Y-101086800D01*
G37*
G36*
X159580200Y-100998800D02*
G01*
X158077000Y-100998800D01*
X158077000Y-99295600D01*
X159580200Y-99295600D01*
X159580200Y-100998800D01*
X159580200Y-100998800D01*
G37*
G36*
X161480200Y-100998800D02*
G01*
X159977000Y-100998800D01*
X159977000Y-99295600D01*
X161480200Y-99295600D01*
X161480200Y-100998800D01*
X161480200Y-100998800D01*
G37*
G36*
X156947200Y-99562800D02*
G01*
X155244000Y-99562800D01*
X155244000Y-98059600D01*
X156947200Y-98059600D01*
X156947200Y-99562800D01*
X156947200Y-99562800D01*
G37*
G36*
X137643200Y-99313800D02*
G01*
X135940000Y-99313800D01*
X135940000Y-97810600D01*
X137643200Y-97810600D01*
X137643200Y-99313800D01*
X137643200Y-99313800D01*
G37*
G36*
X139802200Y-99186800D02*
G01*
X138099000Y-99186800D01*
X138099000Y-97683600D01*
X139802200Y-97683600D01*
X139802200Y-99186800D01*
X139802200Y-99186800D01*
G37*
G36*
X134214200Y-98165800D02*
G01*
X132511000Y-98165800D01*
X132511000Y-96662600D01*
X134214200Y-96662600D01*
X134214200Y-98165800D01*
X134214200Y-98165800D01*
G37*
G36*
X156947200Y-97662800D02*
G01*
X155244000Y-97662800D01*
X155244000Y-96159600D01*
X156947200Y-96159600D01*
X156947200Y-97662800D01*
X156947200Y-97662800D01*
G37*
G36*
X146672200Y-97480200D02*
G01*
X145961000Y-97480200D01*
X145961000Y-96007000D01*
X146672200Y-96007000D01*
X146672200Y-97480200D01*
X146672200Y-97480200D01*
G37*
G36*
X142049400Y-97480200D02*
G01*
X141338200Y-97480200D01*
X141338200Y-96007000D01*
X142049400Y-96007000D01*
X142049400Y-97480200D01*
X142049400Y-97480200D01*
G37*
G36*
X141109600Y-97480200D02*
G01*
X140398400Y-97480200D01*
X140398400Y-96007000D01*
X141109600Y-96007000D01*
X141109600Y-97480200D01*
X141109600Y-97480200D01*
G37*
G36*
X142989200Y-97480200D02*
G01*
X142278000Y-97480200D01*
X142278000Y-96007000D01*
X142989200Y-96007000D01*
X142989200Y-97480200D01*
X142989200Y-97480200D01*
G37*
G36*
X144792600Y-97480200D02*
G01*
X144081400Y-97480200D01*
X144081400Y-96007000D01*
X144792600Y-96007000D01*
X144792600Y-97480200D01*
X144792600Y-97480200D01*
G37*
G36*
X145732400Y-97480200D02*
G01*
X145021200Y-97480200D01*
X145021200Y-96007000D01*
X145732400Y-96007000D01*
X145732400Y-97480200D01*
X145732400Y-97480200D01*
G37*
G36*
X134214200Y-96265800D02*
G01*
X132511000Y-96265800D01*
X132511000Y-94762600D01*
X134214200Y-94762600D01*
X134214200Y-96265800D01*
X134214200Y-96265800D01*
G37*
G36*
X144792600Y-94660800D02*
G01*
X144081400Y-94660800D01*
X144081400Y-93187600D01*
X144792600Y-93187600D01*
X144792600Y-94660800D01*
X144792600Y-94660800D01*
G37*
G36*
X145732400Y-94660800D02*
G01*
X145021200Y-94660800D01*
X145021200Y-93187600D01*
X145732400Y-93187600D01*
X145732400Y-94660800D01*
X145732400Y-94660800D01*
G37*
G36*
X141109600Y-94660800D02*
G01*
X140398400Y-94660800D01*
X140398400Y-93187600D01*
X141109600Y-93187600D01*
X141109600Y-94660800D01*
X141109600Y-94660800D01*
G37*
G36*
X142989200Y-94660800D02*
G01*
X142278000Y-94660800D01*
X142278000Y-93187600D01*
X142989200Y-93187600D01*
X142989200Y-94660800D01*
X142989200Y-94660800D01*
G37*
G36*
X142049400Y-94660800D02*
G01*
X141338200Y-94660800D01*
X141338200Y-93187600D01*
X142049400Y-93187600D01*
X142049400Y-94660800D01*
X142049400Y-94660800D01*
G37*
G36*
X146672200Y-94660800D02*
G01*
X145961000Y-94660800D01*
X145961000Y-93187600D01*
X146672200Y-93187600D01*
X146672200Y-94660800D01*
X146672200Y-94660800D01*
G37*
G36*
X134214200Y-94101800D02*
G01*
X132511000Y-94101800D01*
X132511000Y-92598600D01*
X134214200Y-92598600D01*
X134214200Y-94101800D01*
X134214200Y-94101800D01*
G37*
G36*
X138147200Y-92843800D02*
G01*
X135944000Y-92843800D01*
X135944000Y-90140600D01*
X138147200Y-90140600D01*
X138147200Y-92843800D01*
X138147200Y-92843800D01*
G37*
G36*
X157501600Y-92751600D02*
G01*
X155998400Y-92751600D01*
X155998400Y-91048400D01*
X157501600Y-91048400D01*
X157501600Y-92751600D01*
X157501600Y-92751600D01*
G37*
G36*
X159401600Y-92751600D02*
G01*
X157898400Y-92751600D01*
X157898400Y-91048400D01*
X159401600Y-91048400D01*
X159401600Y-92751600D01*
X159401600Y-92751600D01*
G37*
G36*
X149166200Y-92616800D02*
G01*
X147663000Y-92616800D01*
X147663000Y-90913600D01*
X149166200Y-90913600D01*
X149166200Y-92616800D01*
X149166200Y-92616800D01*
G37*
G36*
X151066200Y-92616800D02*
G01*
X149563000Y-92616800D01*
X149563000Y-90913600D01*
X151066200Y-90913600D01*
X151066200Y-92616800D01*
X151066200Y-92616800D01*
G37*
G36*
X155231000Y-92492200D02*
G01*
X153827800Y-92492200D01*
X153827800Y-91089000D01*
X155231000Y-91089000D01*
X155231000Y-92492200D01*
X155231000Y-92492200D01*
G37*
G36*
X153131000Y-92492200D02*
G01*
X151727800Y-92492200D01*
X151727800Y-91089000D01*
X153131000Y-91089000D01*
X153131000Y-92492200D01*
X153131000Y-92492200D01*
G37*
G36*
X134214200Y-92201800D02*
G01*
X132511000Y-92201800D01*
X132511000Y-90698600D01*
X134214200Y-90698600D01*
X134214200Y-92201800D01*
X134214200Y-92201800D01*
G37*
G36*
X141997200Y-91043800D02*
G01*
X139494000Y-91043800D01*
X139494000Y-87340600D01*
X141997200Y-87340600D01*
X141997200Y-91043800D01*
X141997200Y-91043800D01*
G37*
G36*
X154800200Y-90469800D02*
G01*
X150787000Y-90469800D01*
X150787000Y-88234600D01*
X154800200Y-88234600D01*
X154800200Y-90469800D01*
X154800200Y-90469800D01*
G37*
G36*
X149593200Y-90469800D02*
G01*
X148374000Y-90469800D01*
X148374000Y-88234600D01*
X149593200Y-88234600D01*
X149593200Y-90469800D01*
X149593200Y-90469800D01*
G37*
G36*
X147180200Y-90469800D02*
G01*
X143167000Y-90469800D01*
X143167000Y-88234600D01*
X147180200Y-88234600D01*
X147180200Y-90469800D01*
X147180200Y-90469800D01*
G37*
G36*
X157480000Y-90175000D02*
G01*
X155820000Y-90175000D01*
X155820000Y-89425000D01*
X157480000Y-89425000D01*
X157480000Y-90175000D01*
X157480000Y-90175000D01*
G37*
G36*
X160180000Y-90175000D02*
G01*
X158520000Y-90175000D01*
X158520000Y-89425000D01*
X160180000Y-89425000D01*
X160180000Y-90175000D01*
X160180000Y-90175000D01*
G37*
G36*
X134697200Y-90043800D02*
G01*
X132194000Y-90043800D01*
X132194000Y-86340600D01*
X134697200Y-86340600D01*
X134697200Y-90043800D01*
X134697200Y-90043800D01*
G37*
G36*
X160180000Y-89225000D02*
G01*
X158520000Y-89225000D01*
X158520000Y-88475000D01*
X160180000Y-88475000D01*
X160180000Y-89225000D01*
X160180000Y-89225000D01*
G37*
G36*
X160180000Y-88275000D02*
G01*
X158520000Y-88275000D01*
X158520000Y-87525000D01*
X160180000Y-87525000D01*
X160180000Y-88275000D01*
X160180000Y-88275000D01*
G37*
G36*
X157480000Y-88275000D02*
G01*
X155820000Y-88275000D01*
X155820000Y-87525000D01*
X157480000Y-87525000D01*
X157480000Y-88275000D01*
X157480000Y-88275000D01*
G37*
G36*
X149709803Y-85015723D02*
G01*
X149719227Y-85018582D01*
X149727912Y-85023224D01*
X149735526Y-85029474D01*
X149741776Y-85037088D01*
X149746418Y-85045773D01*
X149749277Y-85055197D01*
X149750605Y-85068684D01*
X149750605Y-86061316D01*
X149749277Y-86074803D01*
X149746418Y-86084227D01*
X149741776Y-86092912D01*
X149735540Y-86100510D01*
X149735537Y-86100512D01*
X149735526Y-86100526D01*
X149727869Y-86106804D01*
X149727837Y-86106825D01*
X149724987Y-86109162D01*
X149603069Y-86190441D01*
X149591694Y-86199756D01*
X149582355Y-86211112D01*
X149575411Y-86224071D01*
X149571128Y-86238136D01*
X149569672Y-86252766D01*
X149571098Y-86267399D01*
X149575351Y-86281473D01*
X149582268Y-86294446D01*
X149591583Y-86305821D01*
X149602939Y-86315160D01*
X149615898Y-86322104D01*
X149629963Y-86326387D01*
X149644593Y-86327843D01*
X149659226Y-86326417D01*
X149673300Y-86322164D01*
X149679944Y-86319030D01*
X149680822Y-86318562D01*
X149690250Y-86315713D01*
X149693518Y-86315395D01*
X149700051Y-86314758D01*
X149700053Y-86314758D01*
X149701554Y-86314908D01*
X149709854Y-86315733D01*
X149719275Y-86318602D01*
X149727956Y-86323254D01*
X149735565Y-86329512D01*
X149741803Y-86337129D01*
X149741804Y-86337131D01*
X149746438Y-86345822D01*
X149748680Y-86353241D01*
X149749292Y-86355266D01*
X149750605Y-86368669D01*
X149750605Y-87511316D01*
X149749277Y-87524803D01*
X149746418Y-87534227D01*
X149741776Y-87542912D01*
X149735526Y-87550526D01*
X149727912Y-87556776D01*
X149719227Y-87561418D01*
X149709803Y-87564277D01*
X149696316Y-87565605D01*
X148203684Y-87565605D01*
X148190197Y-87564277D01*
X148180773Y-87561418D01*
X148172088Y-87556776D01*
X148164474Y-87550526D01*
X148158224Y-87542912D01*
X148153582Y-87534227D01*
X148150723Y-87524803D01*
X148149395Y-87511316D01*
X148149395Y-86669908D01*
X148820184Y-86669908D01*
X148820184Y-86684610D01*
X148823053Y-86699030D01*
X148828680Y-86712613D01*
X148836848Y-86724837D01*
X148847245Y-86735233D01*
X148853220Y-86739660D01*
X148908398Y-86776445D01*
X148921372Y-86783362D01*
X148935446Y-86787615D01*
X148950079Y-86789041D01*
X148964709Y-86787585D01*
X148978774Y-86783302D01*
X148991602Y-86776445D01*
X149046929Y-86739560D01*
X149058304Y-86730245D01*
X149067643Y-86718889D01*
X149074587Y-86705930D01*
X149078870Y-86691865D01*
X149080326Y-86677235D01*
X149078900Y-86662602D01*
X149074647Y-86648528D01*
X149067730Y-86635555D01*
X149058415Y-86624180D01*
X149047059Y-86614841D01*
X149034100Y-86607897D01*
X149020035Y-86603614D01*
X149005405Y-86602158D01*
X148990772Y-86603584D01*
X148976698Y-86607837D01*
X148970055Y-86610970D01*
X148969178Y-86611438D01*
X148959750Y-86614287D01*
X148956482Y-86614605D01*
X148949949Y-86615242D01*
X148949947Y-86615242D01*
X148948446Y-86615092D01*
X148940146Y-86614267D01*
X148930686Y-86611386D01*
X148930175Y-86611113D01*
X148916591Y-86605487D01*
X148902171Y-86602619D01*
X148887469Y-86602619D01*
X148873049Y-86605488D01*
X148859466Y-86611115D01*
X148847242Y-86619283D01*
X148836846Y-86629680D01*
X148828678Y-86641904D01*
X148823052Y-86655488D01*
X148820184Y-86669908D01*
X148149395Y-86669908D01*
X148149395Y-86368684D01*
X148150723Y-86355197D01*
X148153582Y-86345773D01*
X148158224Y-86337088D01*
X148164474Y-86329474D01*
X148172088Y-86323224D01*
X148180773Y-86318582D01*
X148190197Y-86315723D01*
X148200000Y-86314758D01*
X148209803Y-86315723D01*
X148219241Y-86318586D01*
X148219932Y-86318955D01*
X148233518Y-86324574D01*
X148247939Y-86327435D01*
X148262642Y-86327428D01*
X148277060Y-86324553D01*
X148290641Y-86318920D01*
X148302861Y-86310746D01*
X148313252Y-86300344D01*
X148321415Y-86288116D01*
X148327034Y-86274530D01*
X148329895Y-86260109D01*
X148329888Y-86245406D01*
X148327013Y-86230988D01*
X148321380Y-86217407D01*
X148313206Y-86205187D01*
X148302804Y-86194796D01*
X148296856Y-86190391D01*
X148174994Y-86109149D01*
X148164512Y-86100565D01*
X148158254Y-86092956D01*
X148153602Y-86084275D01*
X148150739Y-86074873D01*
X148150738Y-86074868D01*
X148150734Y-86074853D01*
X148149758Y-86065000D01*
X148149758Y-86064963D01*
X148149395Y-86061296D01*
X148149395Y-85068684D01*
X148150723Y-85055197D01*
X148153582Y-85045773D01*
X148158224Y-85037088D01*
X148164474Y-85029474D01*
X148172088Y-85023224D01*
X148180773Y-85018582D01*
X148190197Y-85015723D01*
X148203684Y-85014395D01*
X149696316Y-85014395D01*
X149709803Y-85015723D01*
X149709803Y-85015723D01*
G37*
G36*
X134397200Y-85543800D02*
G01*
X132694000Y-85543800D01*
X132694000Y-81840600D01*
X134397200Y-81840600D01*
X134397200Y-85543800D01*
X134397200Y-85543800D01*
G37*
G36*
X160577431Y-83568023D02*
G01*
X160702939Y-83606096D01*
X160747085Y-83619487D01*
X160903431Y-83703056D01*
X161040475Y-83815525D01*
X161152944Y-83952569D01*
X161236513Y-84108915D01*
X161236514Y-84108919D01*
X161287977Y-84278569D01*
X161305354Y-84455000D01*
X161287977Y-84631431D01*
X161249904Y-84756939D01*
X161236513Y-84801085D01*
X161152944Y-84957431D01*
X161040475Y-85094475D01*
X160903431Y-85206944D01*
X160747085Y-85290513D01*
X160702939Y-85303904D01*
X160577431Y-85341977D01*
X160445207Y-85355000D01*
X160356793Y-85355000D01*
X160224569Y-85341977D01*
X160099061Y-85303904D01*
X160054915Y-85290513D01*
X159898569Y-85206944D01*
X159761525Y-85094475D01*
X159649056Y-84957431D01*
X159565487Y-84801085D01*
X159552096Y-84756939D01*
X159514023Y-84631431D01*
X159496646Y-84455000D01*
X159514023Y-84278569D01*
X159565486Y-84108919D01*
X159565487Y-84108915D01*
X159649056Y-83952569D01*
X159761525Y-83815525D01*
X159898569Y-83703056D01*
X160054915Y-83619487D01*
X160099061Y-83606096D01*
X160224569Y-83568023D01*
X160356793Y-83555000D01*
X160445207Y-83555000D01*
X160577431Y-83568023D01*
X160577431Y-83568023D01*
G37*
G36*
X158967200Y-84853800D02*
G01*
X155764000Y-84853800D01*
X155764000Y-83150600D01*
X158967200Y-83150600D01*
X158967200Y-84853800D01*
X158967200Y-84853800D01*
G37*
G36*
X141497200Y-84543800D02*
G01*
X139794000Y-84543800D01*
X139794000Y-80840600D01*
X141497200Y-80840600D01*
X141497200Y-84543800D01*
X141497200Y-84543800D01*
G37*
G36*
X158967200Y-82853800D02*
G01*
X155764000Y-82853800D01*
X155764000Y-81150600D01*
X158967200Y-81150600D01*
X158967200Y-82853800D01*
X158967200Y-82853800D01*
G37*
G36*
X148323200Y-82849800D02*
G01*
X146088000Y-82849800D01*
X146088000Y-80614600D01*
X148323200Y-80614600D01*
X148323200Y-82849800D01*
X148323200Y-82849800D01*
G37*
G36*
X151879200Y-82849800D02*
G01*
X149644000Y-82849800D01*
X149644000Y-80614600D01*
X151879200Y-80614600D01*
X151879200Y-82849800D01*
X151879200Y-82849800D01*
G37*
G36*
X161301000Y-82815000D02*
G01*
X159501000Y-82815000D01*
X159501000Y-81015000D01*
X161301000Y-81015000D01*
X161301000Y-82815000D01*
X161301000Y-82815000D01*
G37*
M02*
