G04 #@! TF.GenerationSoftware,KiCad,Pcbnew,(5.1.0)-1*
G04 #@! TF.CreationDate,2019-05-26T23:58:58+02:00*
G04 #@! TF.ProjectId,UWED,55574544-2e6b-4696-9361-645f70636258,rev?*
G04 #@! TF.SameCoordinates,Original*
G04 #@! TF.FileFunction,Copper,L1,Top*
G04 #@! TF.FilePolarity,Positive*
%FSLAX46Y46*%
G04 Gerber Fmt 4.6, Leading zero omitted, Abs format (unit mm)*
G04 Created by KiCad (PCBNEW (5.1.0)-1) date 2019-05-26 23:58:58*
%MOMM*%
%LPD*%
G04 APERTURE LIST*
%ADD10R,1.560000X0.650000*%
%ADD11C,0.300000*%
%ADD12C,0.100000*%
%ADD13R,1.300000X1.500000*%
%ADD14R,1.500000X0.420000*%
%ADD15R,1.700000X1.700000*%
%ADD16O,1.700000X1.700000*%
%ADD17R,0.900000X1.000000*%
%ADD18R,1.000000X0.900000*%
%ADD19R,5.000000X5.000000*%
%ADD20R,2.000000X0.900000*%
%ADD21R,0.900000X2.000000*%
%ADD22R,1.500000X1.300000*%
%ADD23R,1.200000X1.200000*%
%ADD24R,1.270000X0.419100*%
%ADD25R,0.508000X1.270000*%
%ADD26R,1.270000X0.508000*%
%ADD27R,2.032000X2.032000*%
%ADD28R,3.810000X2.032000*%
%ADD29R,1.016000X2.032000*%
%ADD30R,1.500000X3.000000*%
%ADD31R,3.000000X1.500000*%
%ADD32R,1.500000X0.300000*%
%ADD33R,2.000000X2.500000*%
%ADD34R,1.500000X3.500000*%
%ADD35R,2.300000X3.500000*%
%ADD36C,1.000000*%
%ADD37C,0.601000*%
%ADD38C,0.812800*%
%ADD39C,0.406400*%
%ADD40C,0.609600*%
%ADD41C,0.305000*%
%ADD42C,0.406000*%
%ADD43C,0.304800*%
%ADD44C,0.250000*%
%ADD45C,0.254000*%
G04 APERTURE END LIST*
D10*
X159350000Y-89800000D03*
X159350000Y-88850000D03*
X159350000Y-87900000D03*
X156650000Y-87900000D03*
X156650000Y-89800000D03*
D11*
X148950000Y-85565000D03*
D12*
G36*
X148950000Y-86565000D02*
G01*
X148200000Y-86065000D01*
X148200000Y-85065000D01*
X149700000Y-85065000D01*
X149700000Y-86065000D01*
X148950000Y-86565000D01*
X148950000Y-86565000D01*
G37*
D11*
X148950000Y-87015000D03*
D12*
G36*
X148200000Y-87515000D02*
G01*
X148200000Y-86365000D01*
X148950000Y-86865000D01*
X149700000Y-86365000D01*
X149700000Y-87515000D01*
X148200000Y-87515000D01*
X148200000Y-87515000D01*
G37*
D13*
X158650000Y-91900000D03*
X156750000Y-91900000D03*
D14*
X150089600Y-102814200D03*
X150089600Y-103464200D03*
X150089600Y-104114200D03*
X150089600Y-104764200D03*
X146189600Y-104764200D03*
X146189600Y-104114200D03*
X146189600Y-103464200D03*
X146189600Y-102814200D03*
D15*
X160401000Y-81915000D03*
D16*
X160401000Y-84455000D03*
D17*
X159657000Y-127292000D03*
X159657000Y-125692000D03*
X155557000Y-127292000D03*
X155557000Y-125692000D03*
D18*
X132677000Y-111905000D03*
X134277000Y-111905000D03*
X132677000Y-107805000D03*
X134277000Y-107805000D03*
D15*
X132969000Y-116967000D03*
D16*
X132969000Y-119507000D03*
X132969000Y-122047000D03*
X132969000Y-124587000D03*
X132969000Y-127127000D03*
X132969000Y-129667000D03*
D19*
X145535000Y-124945000D03*
D20*
X136035000Y-114935000D03*
X136035000Y-116205000D03*
X136035000Y-117475000D03*
X136035000Y-118745000D03*
X136035000Y-120015000D03*
X136035000Y-121285000D03*
X136035000Y-122555000D03*
X136035000Y-123825000D03*
X136035000Y-125095000D03*
X136035000Y-126365000D03*
X136035000Y-127635000D03*
X136035000Y-128905000D03*
X136035000Y-130175000D03*
X136035000Y-131445000D03*
X153035000Y-114935000D03*
X153035000Y-116205000D03*
X153035000Y-117475000D03*
X153035000Y-118745000D03*
X153035000Y-120015000D03*
X153035000Y-121285000D03*
X153035000Y-122555000D03*
X153035000Y-123825000D03*
X153035000Y-125095000D03*
X153035000Y-126365000D03*
X153035000Y-127635000D03*
X153035000Y-128905000D03*
X153035000Y-130175000D03*
D21*
X138820000Y-113935000D03*
X140090000Y-113935000D03*
X141360000Y-113935000D03*
X142630000Y-113935000D03*
X143900000Y-113935000D03*
X145170000Y-113935000D03*
X146440000Y-113935000D03*
X147710000Y-113935000D03*
X148980000Y-113935000D03*
X150250000Y-113935000D03*
D20*
X153035000Y-131445000D03*
D22*
X153174600Y-100848200D03*
X153174600Y-102748200D03*
D13*
X160728600Y-100147200D03*
X158828600Y-100147200D03*
D22*
X156095600Y-96911200D03*
X156095600Y-98811200D03*
X138950600Y-98435200D03*
X138950600Y-100335200D03*
X136791600Y-98562200D03*
X136791600Y-100462200D03*
X156083000Y-131440000D03*
X156083000Y-129540000D03*
D13*
X156525000Y-109728000D03*
X154625000Y-109728000D03*
D23*
X152429400Y-91790600D03*
X154529400Y-91790600D03*
D13*
X148414600Y-91765200D03*
X150314600Y-91765200D03*
X141810600Y-108275200D03*
X143710600Y-108275200D03*
D22*
X133362600Y-97414200D03*
X133362600Y-95514200D03*
X133362600Y-93350200D03*
X133362600Y-91450200D03*
D24*
X160662040Y-104211200D03*
X160662040Y-104861200D03*
X160662040Y-105511200D03*
X160662040Y-106161440D03*
X160662040Y-106811681D03*
X160662040Y-107461918D03*
X160662040Y-108112159D03*
X154812041Y-108112400D03*
X154810600Y-107462400D03*
X154810600Y-106812159D03*
X154810600Y-106161918D03*
X154810600Y-105511681D03*
X154810600Y-104861440D03*
X154810600Y-104211200D03*
D25*
X142633600Y-93924200D03*
X141693800Y-93924200D03*
X140754000Y-93924200D03*
X140754000Y-96743600D03*
X141693800Y-96743600D03*
X142633600Y-96743600D03*
X146316600Y-93924200D03*
X145376800Y-93924200D03*
X144437000Y-93924200D03*
X144437000Y-96743600D03*
X145376800Y-96743600D03*
X146316600Y-96743600D03*
D26*
X149517000Y-109164200D03*
X149517000Y-110104000D03*
X149517000Y-111043800D03*
X146697600Y-111043800D03*
X146697600Y-110104000D03*
X146697600Y-109164200D03*
D27*
X147205600Y-81732200D03*
X150761600Y-81732200D03*
D28*
X145173600Y-89352200D03*
X152793600Y-89352200D03*
D29*
X148983600Y-89352200D03*
D30*
X161655000Y-130429000D03*
X159655000Y-130429000D03*
D24*
X140820040Y-102433200D03*
X140820040Y-103083440D03*
X140820040Y-103733681D03*
X140820040Y-104383918D03*
X140820040Y-105034159D03*
X140820040Y-105684400D03*
X136918600Y-105684400D03*
X136918600Y-105034159D03*
X136918600Y-104383918D03*
X136918600Y-103733681D03*
X136918600Y-103083440D03*
X136918600Y-102433200D03*
D31*
X157365600Y-84002200D03*
X157365600Y-82002200D03*
X161302600Y-121213200D03*
X161302600Y-119213200D03*
X161302600Y-115022200D03*
X161302600Y-117022200D03*
D32*
X141410600Y-109545200D03*
X141410600Y-110045200D03*
X141410600Y-110545200D03*
X141410600Y-111045200D03*
X141410600Y-111545200D03*
X136410600Y-111545200D03*
X136410600Y-111045200D03*
X136410600Y-110545200D03*
X136410600Y-110045200D03*
X136410600Y-109545200D03*
D33*
X137045600Y-91492200D03*
D34*
X133545600Y-83692200D03*
X140645600Y-82692200D03*
D35*
X133445600Y-88192200D03*
X140745600Y-89192200D03*
D36*
X142506600Y-81986200D03*
X142379600Y-105608200D03*
X146189600Y-105862200D03*
X158508600Y-97734200D03*
X148163302Y-111297720D03*
X138088200Y-111545200D03*
X155206608Y-84002200D03*
X149225000Y-97028000D03*
X149225000Y-93853000D03*
X135001000Y-98933000D03*
X136271000Y-83439000D03*
X138557000Y-89027000D03*
X154559000Y-93853000D03*
X153035000Y-81661000D03*
X163195000Y-128651000D03*
X133985000Y-131445000D03*
X138176000Y-119568000D03*
X149225000Y-128270000D03*
X142621000Y-100076000D03*
X143637000Y-112014000D03*
X144327800Y-91511200D03*
X138303000Y-131445000D03*
X150749000Y-131445000D03*
X154686000Y-131191000D03*
X141605000Y-131445000D03*
X144272000Y-131445000D03*
X147574000Y-131445000D03*
X152192236Y-106864811D03*
X157462790Y-103759000D03*
X159529924Y-103504572D03*
X162317379Y-107061000D03*
X162326008Y-110871000D03*
X132969000Y-113411000D03*
X133837991Y-106426000D03*
X141034178Y-119949376D03*
X145060602Y-107696000D03*
X150749000Y-99800513D03*
X150603056Y-101505324D03*
X157946011Y-131453129D03*
X158867113Y-108901170D03*
X153923999Y-111251999D03*
X157696000Y-127292000D03*
X156222600Y-101798200D03*
X153273324Y-105128466D03*
X154825600Y-103322200D03*
X141628283Y-98185396D03*
X146443600Y-92527200D03*
X140728600Y-92527200D03*
X142633588Y-92527200D03*
X144411600Y-98242200D03*
X160667600Y-97988200D03*
X163449000Y-130682992D03*
X142494000Y-128524000D03*
X143002000Y-98425000D03*
X157861000Y-129920990D03*
X146062600Y-98242200D03*
X143129000Y-110109012D03*
X139984607Y-106830281D03*
X154738012Y-121400761D03*
X138176000Y-121285000D03*
X145288000Y-108986009D03*
X138176000Y-122555000D03*
X152201071Y-110806121D03*
X137668000Y-128905000D03*
X142268670Y-115640059D03*
X138683302Y-108712797D03*
X138303000Y-124840996D03*
X137396590Y-106807000D03*
X141063565Y-115857439D03*
X139980190Y-108036685D03*
X157225998Y-125729998D03*
X133851559Y-115371607D03*
X150876000Y-128905000D03*
X142621000Y-103631992D03*
X160832599Y-103061702D03*
X162854382Y-105969958D03*
X132727600Y-99664618D03*
X147193000Y-118745000D03*
X140843000Y-118236996D03*
X150876000Y-118872000D03*
X162070220Y-104861200D03*
X157607000Y-117475000D03*
X159105200Y-105511200D03*
X150241000Y-106934000D03*
X148094600Y-106243200D03*
X158854510Y-107589009D03*
X160528000Y-109601000D03*
X144540812Y-106243200D03*
X133985000Y-114173000D03*
X155122800Y-81971779D03*
X144653000Y-100711000D03*
X135018219Y-110043928D03*
X135890004Y-108077000D03*
X137934600Y-85796200D03*
X152793600Y-86499602D03*
D37*
X160401000Y-84455000D02*
X159893000Y-84455000D01*
D38*
X140645600Y-82692200D02*
X133545600Y-82692200D01*
X133545600Y-82692200D02*
X133545600Y-83692200D01*
X133545600Y-83692200D02*
X133445600Y-83692200D01*
X133445600Y-83692200D02*
X133445600Y-88192200D01*
X140645600Y-82692200D02*
X140745600Y-82692200D01*
X140745600Y-82692200D02*
X140745600Y-84018200D01*
X140745600Y-84018200D02*
X140745600Y-89192200D01*
X142506600Y-81986200D02*
X142506600Y-84018200D01*
X142506600Y-84018200D02*
X140745600Y-84018200D01*
D39*
X140820040Y-103083441D02*
X140820040Y-103733682D01*
X140820040Y-103733682D02*
X139204600Y-103733682D01*
X139204600Y-103733682D02*
X136918600Y-103733682D01*
X136918600Y-103733682D02*
X136918600Y-104383919D01*
X140820040Y-105684400D02*
X139280800Y-105684400D01*
X139280800Y-105684400D02*
X139204600Y-105608200D01*
X139204600Y-105608200D02*
X139204600Y-103733682D01*
D40*
X161286600Y-121229200D02*
X161302600Y-121213200D01*
D39*
X133362600Y-91450200D02*
X133362600Y-88275200D01*
X133362600Y-88275200D02*
X133445600Y-88192200D01*
X138950600Y-98435200D02*
X136918600Y-98435200D01*
X136918600Y-98435200D02*
X136791600Y-98562200D01*
X138950600Y-96464200D02*
X139839600Y-95575200D01*
X139839600Y-95575200D02*
X141617600Y-95575200D01*
X141617600Y-95575200D02*
X141744600Y-95448200D01*
X141744600Y-95448200D02*
X141744600Y-93975000D01*
X141744600Y-93975000D02*
X141693800Y-93924200D01*
X146189600Y-104764200D02*
X146189600Y-105862200D01*
X153174600Y-100848200D02*
X154378600Y-100848200D01*
X154378600Y-100848200D02*
X154698600Y-100782200D01*
X154698600Y-100782200D02*
X154698600Y-96845200D01*
X157365600Y-96845200D02*
X157492600Y-97353200D01*
X158127600Y-97353200D02*
X159397600Y-97353200D01*
X159397600Y-97353200D02*
X159651600Y-96845200D01*
X159651600Y-96845200D02*
X161683600Y-96845200D01*
X161683600Y-96845200D02*
X162191600Y-97353200D01*
X162191600Y-97353200D02*
X162191600Y-98242200D01*
X162191600Y-98242200D02*
X162318600Y-98369200D01*
X162318600Y-98369200D02*
X163969600Y-98369200D01*
X156095600Y-96911200D02*
X157299600Y-96911200D01*
X157299600Y-96911200D02*
X157365600Y-96845200D01*
X154698600Y-96845200D02*
X157365600Y-96845200D01*
X157365600Y-96845200D02*
X157365600Y-97226200D01*
X157365600Y-97226200D02*
X157492600Y-97353200D01*
X157492600Y-97353200D02*
X158127600Y-97353200D01*
X158127600Y-97353200D02*
X158508600Y-97734200D01*
D41*
X147909382Y-111043800D02*
X148163302Y-111297720D01*
X146697600Y-111043800D02*
X147909382Y-111043800D01*
D42*
X154927000Y-131252000D02*
X154734000Y-131445000D01*
X156083000Y-131252000D02*
X154927000Y-131252000D01*
X154734000Y-131445000D02*
X153035000Y-131445000D01*
X150250000Y-113935000D02*
X150250000Y-117466000D01*
X145535000Y-122039000D02*
X145535000Y-124945000D01*
X150250000Y-117466000D02*
X150108000Y-117466000D01*
X142629000Y-124945000D02*
X141224000Y-126350000D01*
X145535000Y-124945000D02*
X142629000Y-124945000D01*
X141224000Y-126350000D02*
X141224000Y-129159000D01*
X141224000Y-129159000D02*
X143510000Y-131445000D01*
X138263800Y-111545200D02*
X138088200Y-111545200D01*
D43*
X136410600Y-111545200D02*
X138088200Y-111545200D01*
D42*
X132677000Y-107805000D02*
X132677000Y-111905000D01*
X132677000Y-107805000D02*
X132677000Y-107607000D01*
D38*
X157365600Y-84002200D02*
X155206608Y-84002200D01*
D37*
X159440200Y-84002200D02*
X157365600Y-84002200D01*
X159893000Y-84455000D02*
X159440200Y-84002200D01*
D39*
X140820040Y-105684400D02*
X142303400Y-105684400D01*
X142303400Y-105684400D02*
X142379600Y-105608200D01*
X163969600Y-98369200D02*
X163969600Y-101587400D01*
X163969600Y-101587400D02*
X163969600Y-106116200D01*
D41*
X141693800Y-94864200D02*
X141825600Y-94996000D01*
X141693800Y-93924200D02*
X141693800Y-94864200D01*
X145376800Y-94864200D02*
X145376800Y-93924200D01*
X145245000Y-94996000D02*
X145376800Y-94864200D01*
X141825600Y-94996000D02*
X145245000Y-94996000D01*
X136791600Y-98562200D02*
X135371800Y-98562200D01*
X135371800Y-98562200D02*
X135001000Y-98933000D01*
X133545600Y-83692200D02*
X136017800Y-83692200D01*
X136017800Y-83692200D02*
X136271000Y-83439000D01*
X140745600Y-89192200D02*
X138722200Y-89192200D01*
X138722200Y-89192200D02*
X138557000Y-89027000D01*
X154529400Y-91790600D02*
X154529400Y-93823400D01*
X154529400Y-93823400D02*
X154559000Y-93853000D01*
X136035000Y-131445000D02*
X133985000Y-131445000D01*
D42*
X146296500Y-121277500D02*
X145535000Y-122039000D01*
X150108000Y-117466000D02*
X146296500Y-121277500D01*
X145535000Y-127851000D02*
X145542000Y-127858000D01*
X145535000Y-124945000D02*
X145535000Y-127851000D01*
X145542000Y-127858000D02*
X145542000Y-128778000D01*
X145542000Y-128778000D02*
X148717000Y-128778000D01*
X148717000Y-128778000D02*
X149225000Y-128270000D01*
D41*
X142240000Y-99695000D02*
X142621000Y-100076000D01*
X141265400Y-99695000D02*
X142240000Y-99695000D01*
X138950600Y-98435200D02*
X140005600Y-98435200D01*
X140005600Y-98435200D02*
X141265400Y-99695000D01*
X143168200Y-111545200D02*
X143637000Y-112014000D01*
X140820040Y-105034159D02*
X140820040Y-105684400D01*
X145376800Y-92560200D02*
X144327800Y-91511200D01*
X145376800Y-93924200D02*
X145376800Y-92560200D01*
X136035000Y-131445000D02*
X138303000Y-131445000D01*
X153035000Y-131445000D02*
X150749000Y-131445000D01*
X153035000Y-131445000D02*
X154432000Y-131445000D01*
X154432000Y-131445000D02*
X154686000Y-131191000D01*
X138303000Y-131445000D02*
X141605000Y-131445000D01*
D42*
X143510000Y-131445000D02*
X141605000Y-131445000D01*
D41*
X141605000Y-131445000D02*
X144272000Y-131445000D01*
D42*
X143510000Y-131445000D02*
X144272000Y-131445000D01*
D41*
X144272000Y-131445000D02*
X147574000Y-131445000D01*
D42*
X147574000Y-131445000D02*
X150749000Y-131445000D01*
D41*
X148722001Y-94355999D02*
X149225000Y-93853000D01*
X148100011Y-94977989D02*
X148722001Y-94355999D01*
X145245000Y-94996000D02*
X145263011Y-94977989D01*
X145263011Y-94977989D02*
X148100011Y-94977989D01*
D39*
X140745600Y-90512200D02*
X140745600Y-89192200D01*
X141744600Y-91511200D02*
X140745600Y-90512200D01*
X144327800Y-91511200D02*
X141744600Y-91511200D01*
X141693800Y-93924200D02*
X141693800Y-91562000D01*
X141693800Y-91562000D02*
X141744600Y-91511200D01*
D41*
X138950600Y-96464200D02*
X138950600Y-98435200D01*
X163969600Y-101587400D02*
X160735747Y-101587400D01*
X159529924Y-102793223D02*
X159529924Y-103504572D01*
X160735747Y-101587400D02*
X159529924Y-102793223D01*
D42*
X163969600Y-106984622D02*
X163832311Y-107121911D01*
X163969600Y-106116200D02*
X163969600Y-106984622D01*
X163771400Y-107061000D02*
X163832311Y-107121911D01*
X163405800Y-107061000D02*
X163771400Y-107061000D01*
D41*
X160662040Y-106161440D02*
X161602040Y-106161440D01*
D39*
X163405800Y-107061000D02*
X162317379Y-107061000D01*
D41*
X162317379Y-106876779D02*
X162317379Y-107061000D01*
X161602040Y-106161440D02*
X162317379Y-106876779D01*
D42*
X163832311Y-113921311D02*
X163980309Y-114069309D01*
X163832311Y-113159311D02*
X163832311Y-113921311D01*
X163980309Y-114069309D02*
X163980309Y-117625309D01*
D40*
X163832311Y-113159311D02*
X163832311Y-107121911D01*
D41*
X162317379Y-107061000D02*
X162317379Y-110862371D01*
X163832311Y-113159311D02*
X163832311Y-112377303D01*
X162317379Y-110862371D02*
X162326008Y-110871000D01*
X158775830Y-108901170D02*
X158867113Y-108901170D01*
X163832311Y-112377303D02*
X162829007Y-111373999D01*
X162829007Y-111373999D02*
X162326008Y-110871000D01*
D40*
X163576000Y-121049400D02*
X163576000Y-118029618D01*
X163412200Y-121213200D02*
X163576000Y-121049400D01*
X161302600Y-121213200D02*
X163412200Y-121213200D01*
X163576000Y-118029618D02*
X163980309Y-117625309D01*
D42*
X132677000Y-113119000D02*
X132969000Y-113411000D01*
X132677000Y-111905000D02*
X132677000Y-113119000D01*
D41*
X133837991Y-106694009D02*
X133837991Y-106426000D01*
X136918600Y-103733681D02*
X136493150Y-103733681D01*
X136493150Y-103733681D02*
X133837991Y-106388840D01*
X134549340Y-106426000D02*
X133837991Y-106426000D01*
X138088200Y-111545200D02*
X137585201Y-111042201D01*
X137585201Y-108248201D02*
X135763000Y-106426000D01*
X133837991Y-106388840D02*
X133837991Y-106426000D01*
X132677000Y-107805000D02*
X132727000Y-107805000D01*
X135763000Y-106426000D02*
X134549340Y-106426000D01*
X132727000Y-107805000D02*
X133837991Y-106694009D01*
X137585201Y-111042201D02*
X137585201Y-108248201D01*
D43*
X138263800Y-111545200D02*
X140247200Y-111545200D01*
D41*
X142708800Y-111545200D02*
X143168200Y-111545200D01*
X144968376Y-119949376D02*
X141745527Y-119949376D01*
X146296500Y-121277500D02*
X144968376Y-119949376D01*
X141745527Y-119949376D02*
X141034178Y-119949376D01*
X152279572Y-83127777D02*
X153035000Y-82372349D01*
X153035000Y-82372349D02*
X153035000Y-81661000D01*
X143648177Y-83127777D02*
X152279572Y-83127777D01*
X142506600Y-81986200D02*
X143648177Y-83127777D01*
D44*
X136410600Y-110545200D02*
X136410600Y-111045200D01*
X136410600Y-111045200D02*
X136410600Y-111545200D01*
X141410600Y-111545200D02*
X140247200Y-111545200D01*
X141410600Y-111545200D02*
X142708800Y-111545200D01*
D41*
X146189600Y-105862200D02*
X146189600Y-106567002D01*
X146189600Y-106567002D02*
X145060602Y-107696000D01*
X151796687Y-100848200D02*
X151248999Y-100300512D01*
D37*
X150749000Y-98552000D02*
X150749000Y-99093407D01*
D42*
X150603056Y-101505324D02*
X150603056Y-99946457D01*
D41*
X151248999Y-100300512D02*
X150749000Y-99800513D01*
D37*
X150749000Y-99093407D02*
X150749000Y-99800513D01*
D42*
X150603056Y-99946457D02*
X150749000Y-99800513D01*
D37*
X149225000Y-97028000D02*
X150749000Y-98552000D01*
D41*
X153174600Y-100848200D02*
X151796687Y-100848200D01*
D42*
X157744882Y-131252000D02*
X157946011Y-131453129D01*
X158446010Y-130953130D02*
X157946011Y-131453129D01*
X159655000Y-130429000D02*
X158970140Y-130429000D01*
X157546000Y-131252000D02*
X157744882Y-131252000D01*
X158970140Y-130429000D02*
X158446010Y-130953130D01*
X152192236Y-109520236D02*
X153424000Y-110752000D01*
X153424000Y-110752000D02*
X153923999Y-111251999D01*
X152192236Y-106864811D02*
X152192236Y-109520236D01*
X154128414Y-111047584D02*
X153923999Y-111251999D01*
X158040283Y-109728000D02*
X158867113Y-108901170D01*
X156525000Y-109728000D02*
X158040283Y-109728000D01*
X155557000Y-127292000D02*
X157696000Y-127292000D01*
X157696000Y-127292000D02*
X159657000Y-127292000D01*
X160536000Y-88850000D02*
X159350000Y-88850000D01*
X161250999Y-88135001D02*
X160536000Y-88850000D01*
X160401000Y-84455000D02*
X161250999Y-85304999D01*
X161250999Y-85304999D02*
X161250999Y-88135001D01*
X159706000Y-91900000D02*
X158650000Y-91900000D01*
X160536000Y-91070000D02*
X159706000Y-91900000D01*
X160536000Y-88850000D02*
X160536000Y-91070000D01*
D39*
X154812040Y-108112400D02*
X154812040Y-107463841D01*
X154812040Y-107463841D02*
X154810600Y-107462400D01*
D43*
X159651600Y-106751200D02*
X160601559Y-106751200D01*
X160601559Y-106751200D02*
X160662040Y-106811682D01*
D39*
X157350401Y-106682599D02*
X158069201Y-106682599D01*
X154810600Y-107462400D02*
X156570600Y-107462400D01*
X156570600Y-107462400D02*
X157350401Y-106682599D01*
D41*
X158000600Y-106613998D02*
X158069201Y-106682599D01*
X158000600Y-104762400D02*
X158000600Y-106613998D01*
D39*
X158369000Y-104394000D02*
X158000600Y-104762400D01*
X158369000Y-101763200D02*
X158369000Y-104394000D01*
X158828600Y-100147200D02*
X158828600Y-101303600D01*
X158828600Y-101303600D02*
X158369000Y-101763200D01*
X159582999Y-106682599D02*
X159651600Y-106751200D01*
X158069201Y-106682599D02*
X159582999Y-106682599D01*
X154810600Y-106812160D02*
X156034640Y-106812160D01*
X156034640Y-106812160D02*
X156222600Y-106624200D01*
X156222600Y-106624200D02*
X156222600Y-101798200D01*
X156095600Y-98811200D02*
X156095600Y-101671200D01*
X156095600Y-101671200D02*
X156222600Y-101798200D01*
D43*
X154810600Y-105511682D02*
X153771692Y-105511682D01*
D39*
X153174600Y-102748200D02*
X153174600Y-105029742D01*
X153174600Y-105029742D02*
X153273324Y-105128466D01*
D43*
X153771692Y-105511682D02*
X153388476Y-105128466D01*
X153388476Y-105128466D02*
X153273324Y-105128466D01*
X154810600Y-104211200D02*
X154810600Y-104861441D01*
X154810600Y-104211200D02*
X154810600Y-103337200D01*
X154810600Y-103337200D02*
X154825600Y-103322200D01*
D42*
X138089559Y-102194441D02*
X138950600Y-101333400D01*
X138089559Y-103083441D02*
X138089559Y-102194441D01*
D39*
X138950600Y-101333400D02*
X138950600Y-100335200D01*
X136918600Y-103083441D02*
X138089559Y-103083441D01*
X140754000Y-96743600D02*
X140754000Y-97785000D01*
X140754000Y-97785000D02*
X141154396Y-98185396D01*
X141154396Y-98185396D02*
X141628283Y-98185396D01*
X146443600Y-92527200D02*
X146316600Y-92527200D01*
X146316600Y-92527200D02*
X146316600Y-93924200D01*
X140754000Y-93924200D02*
X140728600Y-93924200D01*
X140728600Y-93924200D02*
X140728600Y-92527200D01*
X144437000Y-93924200D02*
X142633600Y-93924200D01*
X140682800Y-93853000D02*
X140754000Y-93924200D01*
X133362600Y-97414200D02*
X134063600Y-97414200D01*
X134063600Y-97414200D02*
X135013600Y-96464200D01*
X135013600Y-96464200D02*
X135013600Y-94983400D01*
X140081000Y-93853000D02*
X140682800Y-93853000D01*
D41*
X139636500Y-94297500D02*
X140081000Y-93853000D01*
X135445500Y-94297500D02*
X139636500Y-94297500D01*
X135013600Y-94983400D02*
X135013600Y-94729400D01*
X135013600Y-94729400D02*
X135445500Y-94297500D01*
X146946799Y-92024001D02*
X146443600Y-92527200D01*
X146946799Y-92014399D02*
X146946799Y-92024001D01*
X147210401Y-92014399D02*
X146946799Y-92014399D01*
X147459600Y-91765200D02*
X147210401Y-92014399D01*
X148414600Y-91765200D02*
X147459600Y-91765200D01*
D39*
X142633600Y-93924200D02*
X142633600Y-92527212D01*
X142633600Y-92527212D02*
X142633588Y-92527200D01*
D42*
X148983600Y-89352200D02*
X148983600Y-90186400D01*
X148414600Y-90609200D02*
X148414600Y-91765200D01*
X148837400Y-90186400D02*
X148414600Y-90609200D01*
X148983600Y-90186400D02*
X148837400Y-90186400D01*
D39*
X144437000Y-96743600D02*
X144411600Y-96743600D01*
X144411600Y-96743600D02*
X144411600Y-98242200D01*
X160728600Y-100147200D02*
X160728600Y-98049200D01*
X160728600Y-98049200D02*
X160667600Y-97988200D01*
D43*
X150314600Y-91765200D02*
X152429400Y-91765200D01*
X152429400Y-91765200D02*
X152429400Y-91790600D01*
D37*
X163952007Y-130179993D02*
X164350600Y-129781400D01*
X163951999Y-130179993D02*
X163952007Y-130179993D01*
X163449000Y-130682992D02*
X163951999Y-130179993D01*
D42*
X153035000Y-130175000D02*
X144145000Y-130175000D01*
X144145000Y-130175000D02*
X142996999Y-129026999D01*
X142996999Y-129026999D02*
X142494000Y-128524000D01*
D39*
X147193000Y-95758000D02*
X147066000Y-95631000D01*
X142633600Y-96743600D02*
X142633600Y-98056600D01*
X142633600Y-98056600D02*
X143002000Y-98425000D01*
X142633600Y-96362600D02*
X142633600Y-96743600D01*
X143337491Y-95658709D02*
X142633600Y-96362600D01*
X147066000Y-95631000D02*
X147038291Y-95658709D01*
X147038291Y-95658709D02*
X143337491Y-95658709D01*
D37*
X154642800Y-95631000D02*
X147066000Y-95631000D01*
X154825600Y-95448200D02*
X154642800Y-95631000D01*
D40*
X157746600Y-95829200D02*
X157365600Y-95448200D01*
X157365600Y-95448200D02*
X154825600Y-95448200D01*
X162572600Y-95829200D02*
X157746600Y-95829200D01*
X164789918Y-98046518D02*
X162572600Y-95829200D01*
X164350600Y-129781400D02*
X164789918Y-129342082D01*
X164789918Y-129342082D02*
X164789918Y-98046518D01*
D42*
X154305000Y-130175000D02*
X153035000Y-130175000D01*
X154940000Y-129540000D02*
X154305000Y-130175000D01*
X156083000Y-129540000D02*
X154940000Y-129540000D01*
X156083000Y-129540000D02*
X157480010Y-129540000D01*
X157861000Y-129920990D02*
X157480010Y-129540000D01*
D39*
X146316600Y-96743600D02*
X146316600Y-97861200D01*
X146316600Y-97861200D02*
X146062600Y-98242200D01*
X144030600Y-99639200D02*
X145554600Y-99639200D01*
X145554600Y-99639200D02*
X146062600Y-99131200D01*
X146062600Y-99131200D02*
X146062600Y-99004200D01*
X146062600Y-99004200D02*
X146062600Y-98242200D01*
D43*
X143710600Y-108275200D02*
X143583600Y-108021200D01*
X143583600Y-108021200D02*
X143583600Y-108595200D01*
D39*
X143710600Y-108275200D02*
X143583600Y-106624200D01*
X143583600Y-100213200D02*
X144030600Y-99639200D01*
D42*
X143896000Y-110104000D02*
X146697600Y-110104000D01*
X143896000Y-109616600D02*
X143896000Y-110104000D01*
X143710600Y-109431200D02*
X143896000Y-109616600D01*
X143710600Y-108275200D02*
X143710600Y-109431200D01*
X140820040Y-102433200D02*
X141803200Y-102433200D01*
X143583600Y-100652800D02*
X143583600Y-100213200D01*
X141803200Y-102433200D02*
X143583600Y-100652800D01*
D39*
X143634402Y-100264002D02*
X143583600Y-100213200D01*
X143634402Y-106573398D02*
X143634402Y-100264002D01*
X143583600Y-106624200D02*
X143634402Y-106573398D01*
D41*
X153578282Y-106161918D02*
X153301600Y-106438600D01*
X154810600Y-106161918D02*
X153578282Y-106161918D01*
D39*
X151904600Y-103238400D02*
X151480400Y-102814200D01*
X151904600Y-105295600D02*
X151904600Y-103238400D01*
X153301600Y-106438600D02*
X153047600Y-106438600D01*
X151480400Y-102814200D02*
X150089600Y-102814200D01*
X153047600Y-106438600D02*
X151904600Y-105295600D01*
D42*
X143896000Y-110104000D02*
X143890988Y-110109012D01*
X143840349Y-110109012D02*
X143129000Y-110109012D01*
X143890988Y-110109012D02*
X143840349Y-110109012D01*
D39*
X140696239Y-106830281D02*
X139984607Y-106830281D01*
X143377519Y-106830281D02*
X140696239Y-106830281D01*
X143583600Y-106624200D02*
X143377519Y-106830281D01*
X153301600Y-106624200D02*
X153301600Y-106438600D01*
X153543000Y-106865600D02*
X153301600Y-106624200D01*
X153543000Y-108897600D02*
X153543000Y-106865600D01*
D44*
X143065188Y-110045200D02*
X143129000Y-110109012D01*
X141410600Y-110045200D02*
X143065188Y-110045200D01*
D39*
X149987000Y-102166600D02*
X146062600Y-98242200D01*
X149987000Y-102801600D02*
X149987000Y-102166600D01*
X150089600Y-102814200D02*
X149999600Y-102814200D01*
X149999600Y-102814200D02*
X149987000Y-102801600D01*
D42*
X153543000Y-109702000D02*
X153543000Y-108897600D01*
X153569000Y-109728000D02*
X153543000Y-109702000D01*
X154625000Y-109728000D02*
X153569000Y-109728000D01*
D41*
X154738012Y-122112110D02*
X154738012Y-121400761D01*
D42*
X161655000Y-128523000D02*
X161655000Y-130429000D01*
X161529000Y-128397000D02*
X161655000Y-128523000D01*
X154686000Y-128397000D02*
X161529000Y-128397000D01*
X153035000Y-127635000D02*
X153924000Y-127635000D01*
X153924000Y-127635000D02*
X154686000Y-128397000D01*
D41*
X154340000Y-127635000D02*
X153035000Y-127635000D01*
X154387501Y-127587499D02*
X154340000Y-127635000D01*
X154387501Y-122458378D02*
X154387501Y-127587499D01*
X154738012Y-122107867D02*
X154387501Y-122458378D01*
X154738012Y-121400761D02*
X154738012Y-122107867D01*
D39*
X146189600Y-104114200D02*
X147235600Y-104114200D01*
X147235600Y-104114200D02*
X147459600Y-104338200D01*
X147459600Y-104338200D02*
X147459600Y-105227200D01*
X147459600Y-105227200D02*
X147205600Y-105481200D01*
D43*
X147205600Y-105481200D02*
X147205600Y-105608200D01*
X147205600Y-105608200D02*
X147078600Y-105735200D01*
X147078600Y-105735200D02*
X147078600Y-108783200D01*
X147078600Y-108783200D02*
X146697600Y-109164200D01*
D42*
X138176000Y-121285000D02*
X136035000Y-121285000D01*
X146697600Y-109164200D02*
X145466191Y-109164200D01*
X145466191Y-109164200D02*
X145288000Y-108986009D01*
X138176000Y-122555000D02*
X136035000Y-122555000D01*
D43*
X151269600Y-109874650D02*
X151701072Y-110306122D01*
X151701072Y-110306122D02*
X152201071Y-110806121D01*
X151144400Y-103464200D02*
X151269600Y-103589400D01*
X151269600Y-103589400D02*
X151269600Y-109874650D01*
X150089600Y-103464200D02*
X151144400Y-103464200D01*
D42*
X136035000Y-128905000D02*
X137668000Y-128905000D01*
D39*
X138303000Y-107149996D02*
X138554402Y-107401398D01*
X137995559Y-105034160D02*
X138303000Y-105341601D01*
X138303000Y-105341601D02*
X138303000Y-107149996D01*
X136918600Y-105034160D02*
X137995559Y-105034160D01*
D42*
X140014588Y-116811874D02*
X141808204Y-116811874D01*
X139702998Y-126870002D02*
X139702998Y-117123464D01*
X139702998Y-117123464D02*
X140014588Y-116811874D01*
X142268670Y-116351408D02*
X142268670Y-115640059D01*
X141808204Y-116811874D02*
X142268670Y-116351408D01*
X137668000Y-128905000D02*
X139702998Y-126870002D01*
D41*
X138683302Y-109587093D02*
X138683302Y-109424146D01*
X138554402Y-107401398D02*
X138683302Y-107530298D01*
X138683302Y-108001448D02*
X138683302Y-108712797D01*
X138683302Y-109424146D02*
X138683302Y-108712797D01*
X140136499Y-111040290D02*
X138683302Y-109587093D01*
X138683302Y-107530298D02*
X138683302Y-108001448D01*
D44*
X140141409Y-111045200D02*
X140136499Y-111040290D01*
X141410600Y-111045200D02*
X140141409Y-111045200D01*
D42*
X136035000Y-125095000D02*
X138048996Y-125095000D01*
X138048996Y-125095000D02*
X138303000Y-124840996D01*
D39*
X136918600Y-106329010D02*
X137396590Y-106807000D01*
X136918600Y-105684400D02*
X136918600Y-106329010D01*
D42*
X138303000Y-124840996D02*
X139096987Y-124047009D01*
X140352216Y-115857439D02*
X141063565Y-115857439D01*
X139096987Y-116763636D02*
X140003184Y-115857439D01*
X139096987Y-124047009D02*
X139096987Y-116763636D01*
X140003184Y-115857439D02*
X140352216Y-115857439D01*
D41*
X139980190Y-108748317D02*
X139980190Y-108036685D01*
X139980190Y-110169790D02*
X139980190Y-108748317D01*
X140355600Y-110545200D02*
X139980190Y-110169790D01*
D44*
X141410600Y-110545200D02*
X140355600Y-110545200D01*
D42*
X159657000Y-125692000D02*
X157263996Y-125692000D01*
X157263996Y-125692000D02*
X157225998Y-125729998D01*
X155594998Y-125729998D02*
X155557000Y-125692000D01*
X157225998Y-125729998D02*
X155594998Y-125729998D01*
X134747000Y-126365000D02*
X132969000Y-124587000D01*
X136035000Y-126365000D02*
X134747000Y-126365000D01*
X133477000Y-127635000D02*
X132969000Y-127127000D01*
X136035000Y-127635000D02*
X133477000Y-127635000D01*
D41*
X136035000Y-114935000D02*
X134730000Y-114935000D01*
X134293393Y-115371607D02*
X133851559Y-115371607D01*
X134730000Y-114935000D02*
X134293393Y-115371607D01*
D42*
X150876000Y-128905000D02*
X153035000Y-128905000D01*
D43*
X141869073Y-104383919D02*
X142117801Y-104135191D01*
X140820040Y-104383919D02*
X141869073Y-104383919D01*
X142117801Y-104135191D02*
X142621000Y-103631992D01*
X160662040Y-103232261D02*
X160832599Y-103061702D01*
X160662040Y-104211200D02*
X160662040Y-103232261D01*
D41*
X163357381Y-104556381D02*
X163357381Y-105466959D01*
X163357381Y-105466959D02*
X162854382Y-105969958D01*
X160662040Y-104211200D02*
X161087490Y-104211200D01*
X162497650Y-103696650D02*
X163357381Y-104556381D01*
X161602040Y-103696650D02*
X162497650Y-103696650D01*
X161087490Y-104211200D02*
X161602040Y-103696650D01*
D39*
X133362600Y-93350200D02*
X133362600Y-94432200D01*
X133362600Y-94432200D02*
X133362600Y-95514200D01*
D42*
X153035000Y-126365000D02*
X152165598Y-126365000D01*
D41*
X132727600Y-98952986D02*
X132727600Y-99664618D01*
X132260099Y-98485485D02*
X132727600Y-98952986D01*
X132260099Y-96516701D02*
X132260099Y-98485485D01*
X133262600Y-95514200D02*
X132260099Y-96516701D01*
X133362600Y-95514200D02*
X133262600Y-95514200D01*
D42*
X141345999Y-118739995D02*
X140843000Y-118236996D01*
X141351004Y-118745000D02*
X141345999Y-118739995D01*
X147193000Y-118745000D02*
X141351004Y-118745000D01*
X152165598Y-126365000D02*
X151584299Y-125783701D01*
D41*
X151584299Y-119580299D02*
X151375999Y-119371999D01*
X151375999Y-119371999D02*
X150876000Y-118872000D01*
X151584299Y-125783701D02*
X151584299Y-119580299D01*
D39*
X160662040Y-104861200D02*
X162070220Y-104861200D01*
D42*
X152523100Y-112899100D02*
X155190100Y-112899100D01*
X155190100Y-112899100D02*
X157607000Y-115316000D01*
X157607000Y-115316000D02*
X157607000Y-117475000D01*
D43*
X151753300Y-112899100D02*
X152523100Y-112899100D01*
X149517000Y-111043800D02*
X149898000Y-111043800D01*
X149898000Y-111043800D02*
X151753300Y-112899100D01*
X149517000Y-109164200D02*
X149517000Y-105336800D01*
X149517000Y-105336800D02*
X150089600Y-104764200D01*
X160662040Y-105511200D02*
X159105200Y-105511200D01*
X150089600Y-104764200D02*
X150089600Y-106782600D01*
X150089600Y-106782600D02*
X150241000Y-106934000D01*
X148094600Y-103464200D02*
X148094600Y-106243200D01*
X146189600Y-103464200D02*
X148094600Y-103464200D01*
D41*
X162052600Y-117022200D02*
X161302600Y-117022200D01*
D37*
X161302600Y-117022200D02*
X162758800Y-117022200D01*
X163195000Y-116586000D02*
X163195000Y-116244702D01*
X162758800Y-117022200D02*
X163195000Y-116586000D01*
D42*
X163195000Y-115879800D02*
X163195000Y-116586000D01*
D41*
X160662040Y-107461918D02*
X158981601Y-107461918D01*
X158981601Y-107461918D02*
X158854510Y-107589009D01*
X163195000Y-113538000D02*
X163195000Y-115879800D01*
X161470498Y-111813498D02*
X163195000Y-113538000D01*
X161470498Y-110469958D02*
X161470498Y-111813498D01*
X161671000Y-110269456D02*
X161470498Y-110469958D01*
X161671000Y-107758586D02*
X161671000Y-110269456D01*
X161374332Y-107461918D02*
X161671000Y-107758586D01*
X160662040Y-107461918D02*
X161374332Y-107461918D01*
D39*
X161302600Y-115022200D02*
X161243367Y-113711633D01*
D41*
X160662040Y-108626709D02*
X160528000Y-108760749D01*
X160662040Y-108112159D02*
X160662040Y-108626709D01*
X160528000Y-108760749D02*
X160528000Y-109601000D01*
D37*
X161152533Y-113521133D02*
X161052867Y-113521133D01*
X161302600Y-113671200D02*
X161152533Y-113521133D01*
X161302600Y-115022200D02*
X161302600Y-113671200D01*
D41*
X161052867Y-113521133D02*
X161243367Y-113711633D01*
D37*
X161052867Y-113521133D02*
X160528000Y-112996266D01*
D43*
X146189600Y-102814200D02*
X145134800Y-102814200D01*
X145134800Y-102814200D02*
X144540812Y-103408188D01*
X144540812Y-103408188D02*
X144540812Y-105531568D01*
X144540812Y-105531568D02*
X144540812Y-106243200D01*
D41*
X160274000Y-112742266D02*
X160528000Y-112996266D01*
X160528000Y-109601000D02*
X160274000Y-109855000D01*
X160274000Y-109855000D02*
X160274000Y-112742266D01*
D42*
X158643790Y-118470210D02*
X158623000Y-118449420D01*
X158623000Y-118449420D02*
X158623000Y-115316000D01*
X155575000Y-112268000D02*
X158623000Y-115316000D01*
D37*
X158623000Y-118634600D02*
X158623000Y-118449420D01*
X159201600Y-119213200D02*
X158623000Y-118634600D01*
X161302600Y-119213200D02*
X159201600Y-119213200D01*
D39*
X155575000Y-112268000D02*
X155560799Y-112282201D01*
X150162212Y-110104000D02*
X149517000Y-110104000D01*
X155560799Y-112282201D02*
X152340413Y-112282201D01*
X152340413Y-112282201D02*
X150162212Y-110104000D01*
D41*
X134277000Y-111905000D02*
X134277000Y-113881000D01*
X134277000Y-113881000D02*
X133985000Y-114173000D01*
D42*
X134277000Y-110635568D02*
X134277000Y-111905000D01*
X134112009Y-110470577D02*
X134277000Y-110635568D01*
X134112009Y-109619823D02*
X134112009Y-110470577D01*
X134277000Y-109454832D02*
X134112009Y-109619823D01*
X134277000Y-107805000D02*
X134277000Y-109454832D01*
D37*
X160313800Y-82002200D02*
X160401000Y-81915000D01*
X157365600Y-82002200D02*
X160313800Y-82002200D01*
D38*
X155834149Y-81971779D02*
X155122800Y-81971779D01*
X157365600Y-82002200D02*
X157335179Y-81971779D01*
X157335179Y-81971779D02*
X155834149Y-81971779D01*
X154619801Y-82474778D02*
X155122800Y-81971779D01*
X153207891Y-83886688D02*
X154619801Y-82474778D01*
X152362724Y-83886688D02*
X153207891Y-83886688D01*
D37*
X159350000Y-86974000D02*
X159336000Y-86960000D01*
X159350000Y-87900000D02*
X159350000Y-86974000D01*
X159336000Y-86960000D02*
X158560000Y-86960000D01*
X158560000Y-86960000D02*
X157150000Y-85550000D01*
X154871203Y-85550000D02*
X153207891Y-83886688D01*
X157150000Y-85550000D02*
X154871203Y-85550000D01*
D44*
X141810600Y-108760400D02*
X141410600Y-109160400D01*
X141810600Y-108275200D02*
X141810600Y-108760400D01*
X141410600Y-109160400D02*
X141410600Y-109545200D01*
D43*
X145364632Y-100711000D02*
X144653000Y-100711000D01*
X149034800Y-104114200D02*
X148729600Y-103809000D01*
X148729600Y-103313968D02*
X146126632Y-100711000D01*
X146126632Y-100711000D02*
X145364632Y-100711000D01*
X148729600Y-103809000D02*
X148729600Y-103313968D01*
X150089600Y-104114200D02*
X149034800Y-104114200D01*
D44*
X135019491Y-110045200D02*
X135018219Y-110043928D01*
X136410600Y-110045200D02*
X135019491Y-110045200D01*
D43*
X136410600Y-108597596D02*
X136393203Y-108580199D01*
X136393203Y-108580199D02*
X135890004Y-108077000D01*
D41*
X136393203Y-109527803D02*
X136405690Y-109540290D01*
X136393203Y-108580199D02*
X136393203Y-109527803D01*
D39*
X145173600Y-89352200D02*
X146443600Y-89352200D01*
D37*
X145173600Y-86256400D02*
X145173600Y-89352200D01*
X146190000Y-85240000D02*
X145173600Y-86256400D01*
X146190000Y-85240000D02*
X146190000Y-84280000D01*
X152259922Y-83989490D02*
X152362724Y-83886688D01*
X146190000Y-84280000D02*
X146480510Y-83989490D01*
X148950000Y-84220000D02*
X148950000Y-85565000D01*
X148719490Y-83989490D02*
X148950000Y-84220000D01*
X146480510Y-83989490D02*
X148719490Y-83989490D01*
X148719490Y-83989490D02*
X152259922Y-83989490D01*
D39*
X136918600Y-102433200D02*
X136918600Y-100589200D01*
X136918600Y-100589200D02*
X136791600Y-100462200D01*
D38*
X137045600Y-91492200D02*
X137045600Y-85796200D01*
X137045600Y-85796200D02*
X137934600Y-85796200D01*
X152793600Y-89352200D02*
X152793600Y-86499602D01*
D41*
X156650000Y-87270000D02*
X156650000Y-87900000D01*
X155879602Y-86499602D02*
X156650000Y-87270000D01*
X152793600Y-86499602D02*
X155879602Y-86499602D01*
X156650000Y-87900000D02*
X156650000Y-88185000D01*
X156650000Y-88185000D02*
X158265000Y-89800000D01*
X158265000Y-89800000D02*
X159350000Y-89800000D01*
D42*
X156750000Y-90731000D02*
X156750000Y-91900000D01*
X156650000Y-89800000D02*
X156650000Y-90631000D01*
X156650000Y-90631000D02*
X156750000Y-90731000D01*
D45*
G36*
X151450517Y-113630082D02*
G01*
X151598943Y-113675106D01*
X151714627Y-113686500D01*
X151714636Y-113686500D01*
X151753299Y-113690308D01*
X151791962Y-113686500D01*
X152231992Y-113686500D01*
X152358823Y-113724974D01*
X152481939Y-113737100D01*
X154842990Y-113737100D01*
X156769000Y-115663111D01*
X156769001Y-116707867D01*
X156725388Y-116751480D01*
X156601176Y-116937376D01*
X156515617Y-117143933D01*
X156472000Y-117363212D01*
X156472000Y-117586788D01*
X156515617Y-117806067D01*
X156601176Y-118012624D01*
X156725388Y-118198520D01*
X156883480Y-118356612D01*
X157069376Y-118480824D01*
X157275933Y-118566383D01*
X157495212Y-118610000D01*
X157685397Y-118610000D01*
X157682974Y-118634600D01*
X157687500Y-118680552D01*
X157687500Y-118680553D01*
X157701036Y-118817989D01*
X157754529Y-118994331D01*
X157773493Y-119029810D01*
X157841397Y-119156850D01*
X157887330Y-119212819D01*
X157958301Y-119299299D01*
X157994002Y-119328598D01*
X158507599Y-119842194D01*
X158536901Y-119877899D01*
X158640841Y-119963200D01*
X158679349Y-119994803D01*
X158745101Y-120029948D01*
X158841868Y-120081671D01*
X159018210Y-120135164D01*
X159155646Y-120148700D01*
X159155648Y-120148700D01*
X159196519Y-120152726D01*
X159213098Y-120207380D01*
X159216209Y-120213200D01*
X159213098Y-120219020D01*
X159176788Y-120338718D01*
X159164528Y-120463200D01*
X159167600Y-120927450D01*
X159326350Y-121086200D01*
X161175600Y-121086200D01*
X161175600Y-121066200D01*
X161429600Y-121066200D01*
X161429600Y-121086200D01*
X163278850Y-121086200D01*
X163437600Y-120927450D01*
X163440672Y-120463200D01*
X163428412Y-120338718D01*
X163392102Y-120219020D01*
X163388991Y-120213200D01*
X163392102Y-120207380D01*
X163428412Y-120087682D01*
X163440672Y-119963200D01*
X163440672Y-118463200D01*
X163428412Y-118338718D01*
X163392102Y-118219020D01*
X163337944Y-118117700D01*
X163392102Y-118016380D01*
X163428412Y-117896682D01*
X163440672Y-117772200D01*
X163440672Y-117665973D01*
X163452798Y-117651198D01*
X163823995Y-117280000D01*
X163850118Y-117258561D01*
X163850118Y-128952806D01*
X163653417Y-129149507D01*
X163625588Y-129183416D01*
X163323045Y-129485959D01*
X163287300Y-129515294D01*
X163258002Y-129550994D01*
X163242081Y-129566915D01*
X163117933Y-129591609D01*
X163043072Y-129622618D01*
X163043072Y-128929000D01*
X163030812Y-128804518D01*
X162994502Y-128684820D01*
X162935537Y-128574506D01*
X162856185Y-128477815D01*
X162759494Y-128398463D01*
X162649180Y-128339498D01*
X162529482Y-128303188D01*
X162462012Y-128296543D01*
X162432956Y-128200760D01*
X162355142Y-128055180D01*
X162250422Y-127927578D01*
X162218447Y-127901337D01*
X162150664Y-127833554D01*
X162124422Y-127801578D01*
X161996820Y-127696858D01*
X161851240Y-127619044D01*
X161693277Y-127571126D01*
X161570161Y-127559000D01*
X161570150Y-127559000D01*
X161529000Y-127554947D01*
X161487850Y-127559000D01*
X160723250Y-127559000D01*
X160583250Y-127419000D01*
X159784000Y-127419000D01*
X159784000Y-127439000D01*
X159530000Y-127439000D01*
X159530000Y-127419000D01*
X158730750Y-127419000D01*
X158590750Y-127559000D01*
X156623250Y-127559000D01*
X156483250Y-127419000D01*
X155684000Y-127419000D01*
X155684000Y-127439000D01*
X155430000Y-127439000D01*
X155430000Y-127419000D01*
X155410000Y-127419000D01*
X155410000Y-127165000D01*
X155430000Y-127165000D01*
X155430000Y-127145000D01*
X155684000Y-127145000D01*
X155684000Y-127165000D01*
X156483250Y-127165000D01*
X156642000Y-127006250D01*
X156645072Y-126792000D01*
X156636099Y-126700893D01*
X156688374Y-126735822D01*
X156894931Y-126821381D01*
X157114210Y-126864998D01*
X157337786Y-126864998D01*
X157557065Y-126821381D01*
X157763622Y-126735822D01*
X157949518Y-126611610D01*
X158031128Y-126530000D01*
X158627023Y-126530000D01*
X158617498Y-126547820D01*
X158581188Y-126667518D01*
X158568928Y-126792000D01*
X158572000Y-127006250D01*
X158730750Y-127165000D01*
X159530000Y-127165000D01*
X159530000Y-127145000D01*
X159784000Y-127145000D01*
X159784000Y-127165000D01*
X160583250Y-127165000D01*
X160742000Y-127006250D01*
X160745072Y-126792000D01*
X160732812Y-126667518D01*
X160696502Y-126547820D01*
X160666665Y-126492000D01*
X160696502Y-126436180D01*
X160732812Y-126316482D01*
X160745072Y-126192000D01*
X160745072Y-125192000D01*
X160732812Y-125067518D01*
X160696502Y-124947820D01*
X160637537Y-124837506D01*
X160558185Y-124740815D01*
X160461494Y-124661463D01*
X160351180Y-124602498D01*
X160231482Y-124566188D01*
X160107000Y-124553928D01*
X159207000Y-124553928D01*
X159082518Y-124566188D01*
X158962820Y-124602498D01*
X158852506Y-124661463D01*
X158755815Y-124740815D01*
X158676463Y-124837506D01*
X158667647Y-124854000D01*
X157955132Y-124854000D01*
X157949518Y-124848386D01*
X157763622Y-124724174D01*
X157557065Y-124638615D01*
X157337786Y-124594998D01*
X157114210Y-124594998D01*
X156894931Y-124638615D01*
X156688374Y-124724174D01*
X156530887Y-124829403D01*
X156458185Y-124740815D01*
X156361494Y-124661463D01*
X156251180Y-124602498D01*
X156131482Y-124566188D01*
X156007000Y-124553928D01*
X155175001Y-124553928D01*
X155175001Y-122784570D01*
X155243838Y-122715733D01*
X155297553Y-122671651D01*
X155395962Y-122551738D01*
X155469087Y-122414931D01*
X155514117Y-122266487D01*
X155518126Y-122225779D01*
X155619624Y-122124281D01*
X155727255Y-121963200D01*
X159164528Y-121963200D01*
X159176788Y-122087682D01*
X159213098Y-122207380D01*
X159272063Y-122317694D01*
X159351415Y-122414385D01*
X159448106Y-122493737D01*
X159558420Y-122552702D01*
X159678118Y-122589012D01*
X159802600Y-122601272D01*
X161016850Y-122598200D01*
X161175600Y-122439450D01*
X161175600Y-121340200D01*
X161429600Y-121340200D01*
X161429600Y-122439450D01*
X161588350Y-122598200D01*
X162802600Y-122601272D01*
X162927082Y-122589012D01*
X163046780Y-122552702D01*
X163157094Y-122493737D01*
X163253785Y-122414385D01*
X163333137Y-122317694D01*
X163392102Y-122207380D01*
X163428412Y-122087682D01*
X163440672Y-121963200D01*
X163437600Y-121498950D01*
X163278850Y-121340200D01*
X161429600Y-121340200D01*
X161175600Y-121340200D01*
X159326350Y-121340200D01*
X159167600Y-121498950D01*
X159164528Y-121963200D01*
X155727255Y-121963200D01*
X155743836Y-121938385D01*
X155829395Y-121731828D01*
X155873012Y-121512549D01*
X155873012Y-121288973D01*
X155829395Y-121069694D01*
X155743836Y-120863137D01*
X155619624Y-120677241D01*
X155461532Y-120519149D01*
X155275636Y-120394937D01*
X155069079Y-120309378D01*
X154849800Y-120265761D01*
X154673072Y-120265761D01*
X154673072Y-119565000D01*
X154660812Y-119440518D01*
X154642454Y-119380000D01*
X154660812Y-119319482D01*
X154673072Y-119195000D01*
X154673072Y-118295000D01*
X154660812Y-118170518D01*
X154642454Y-118110000D01*
X154660812Y-118049482D01*
X154673072Y-117925000D01*
X154673072Y-117025000D01*
X154660812Y-116900518D01*
X154642454Y-116840000D01*
X154660812Y-116779482D01*
X154673072Y-116655000D01*
X154673072Y-115755000D01*
X154660812Y-115630518D01*
X154642454Y-115570000D01*
X154660812Y-115509482D01*
X154673072Y-115385000D01*
X154673072Y-114485000D01*
X154660812Y-114360518D01*
X154624502Y-114240820D01*
X154565537Y-114130506D01*
X154486185Y-114033815D01*
X154389494Y-113954463D01*
X154279180Y-113895498D01*
X154159482Y-113859188D01*
X154035000Y-113846928D01*
X152035000Y-113846928D01*
X151910518Y-113859188D01*
X151790820Y-113895498D01*
X151680506Y-113954463D01*
X151583815Y-114033815D01*
X151504463Y-114130506D01*
X151445498Y-114240820D01*
X151409188Y-114360518D01*
X151396928Y-114485000D01*
X151396928Y-115385000D01*
X151409188Y-115509482D01*
X151427546Y-115570000D01*
X151409188Y-115630518D01*
X151396928Y-115755000D01*
X151396928Y-116655000D01*
X151409188Y-116779482D01*
X151427546Y-116840000D01*
X151409188Y-116900518D01*
X151396928Y-117025000D01*
X151396928Y-117859260D01*
X151207067Y-117780617D01*
X150987788Y-117737000D01*
X150764212Y-117737000D01*
X150544933Y-117780617D01*
X150338376Y-117866176D01*
X150152480Y-117990388D01*
X149994388Y-118148480D01*
X149870176Y-118334376D01*
X149784617Y-118540933D01*
X149741000Y-118760212D01*
X149741000Y-118983788D01*
X149784617Y-119203067D01*
X149870176Y-119409624D01*
X149994388Y-119595520D01*
X150152480Y-119753612D01*
X150338376Y-119877824D01*
X150544933Y-119963383D01*
X150764212Y-120007000D01*
X150796800Y-120007000D01*
X150796799Y-125492925D01*
X150758426Y-125619425D01*
X150742246Y-125783701D01*
X150758426Y-125947977D01*
X150806343Y-126105940D01*
X150884157Y-126251520D01*
X150962639Y-126347151D01*
X151396928Y-126781441D01*
X151396928Y-126815000D01*
X151409188Y-126939482D01*
X151427546Y-127000000D01*
X151409188Y-127060518D01*
X151396928Y-127185000D01*
X151396928Y-127892260D01*
X151207067Y-127813617D01*
X150987788Y-127770000D01*
X150764212Y-127770000D01*
X150544933Y-127813617D01*
X150338376Y-127899176D01*
X150152480Y-128023388D01*
X149994388Y-128181480D01*
X149870176Y-128367376D01*
X149784617Y-128573933D01*
X149741000Y-128793212D01*
X149741000Y-129016788D01*
X149784617Y-129236067D01*
X149826425Y-129337000D01*
X144492110Y-129337000D01*
X143629000Y-128473890D01*
X143629000Y-128412212D01*
X143585383Y-128192933D01*
X143539587Y-128082372D01*
X145249250Y-128080000D01*
X145408000Y-127921250D01*
X145408000Y-125072000D01*
X145662000Y-125072000D01*
X145662000Y-127921250D01*
X145820750Y-128080000D01*
X148035000Y-128083072D01*
X148159482Y-128070812D01*
X148279180Y-128034502D01*
X148389494Y-127975537D01*
X148486185Y-127896185D01*
X148565537Y-127799494D01*
X148624502Y-127689180D01*
X148660812Y-127569482D01*
X148673072Y-127445000D01*
X148670000Y-125230750D01*
X148511250Y-125072000D01*
X145662000Y-125072000D01*
X145408000Y-125072000D01*
X142558750Y-125072000D01*
X142400000Y-125230750D01*
X142397006Y-127389000D01*
X142382212Y-127389000D01*
X142162933Y-127432617D01*
X141956376Y-127518176D01*
X141770480Y-127642388D01*
X141612388Y-127800480D01*
X141488176Y-127986376D01*
X141402617Y-128192933D01*
X141359000Y-128412212D01*
X141359000Y-128635788D01*
X141402617Y-128855067D01*
X141488176Y-129061624D01*
X141612388Y-129247520D01*
X141770480Y-129405612D01*
X141956376Y-129529824D01*
X142162933Y-129615383D01*
X142382212Y-129659000D01*
X142443890Y-129659000D01*
X143523336Y-130738446D01*
X143549578Y-130770422D01*
X143666506Y-130866382D01*
X143677180Y-130875142D01*
X143822760Y-130952956D01*
X143980723Y-131000874D01*
X144145000Y-131017054D01*
X144186160Y-131013000D01*
X151397265Y-131013000D01*
X151400000Y-131159250D01*
X151558750Y-131318000D01*
X152908000Y-131318000D01*
X152908000Y-131298000D01*
X153162000Y-131298000D01*
X153162000Y-131318000D01*
X154511250Y-131318000D01*
X154670000Y-131159250D01*
X154673072Y-130995000D01*
X154666846Y-130931786D01*
X154695992Y-130916207D01*
X154698000Y-131154250D01*
X154856750Y-131313000D01*
X155956000Y-131313000D01*
X155956000Y-131293000D01*
X156210000Y-131293000D01*
X156210000Y-131313000D01*
X157309250Y-131313000D01*
X157468000Y-131154250D01*
X157469408Y-130987303D01*
X157529933Y-131012373D01*
X157749212Y-131055990D01*
X157972788Y-131055990D01*
X158192067Y-131012373D01*
X158269328Y-130980370D01*
X158266928Y-131929000D01*
X158279188Y-132053482D01*
X158279224Y-132053600D01*
X157470765Y-132053600D01*
X157468000Y-131725750D01*
X157309250Y-131567000D01*
X156210000Y-131567000D01*
X156210000Y-131587000D01*
X155956000Y-131587000D01*
X155956000Y-131567000D01*
X154856750Y-131567000D01*
X154698000Y-131725750D01*
X154695235Y-132053600D01*
X154650462Y-132053600D01*
X154660812Y-132019482D01*
X154673072Y-131895000D01*
X154670000Y-131730750D01*
X154511250Y-131572000D01*
X153162000Y-131572000D01*
X153162000Y-131592000D01*
X152908000Y-131592000D01*
X152908000Y-131572000D01*
X151558750Y-131572000D01*
X151400000Y-131730750D01*
X151396928Y-131895000D01*
X151409188Y-132019482D01*
X151419538Y-132053600D01*
X137650462Y-132053600D01*
X137660812Y-132019482D01*
X137673072Y-131895000D01*
X137670000Y-131730750D01*
X137511250Y-131572000D01*
X136162000Y-131572000D01*
X136162000Y-131592000D01*
X135908000Y-131592000D01*
X135908000Y-131572000D01*
X134558750Y-131572000D01*
X134400000Y-131730750D01*
X134396928Y-131895000D01*
X134409188Y-132019482D01*
X134419538Y-132053600D01*
X132588383Y-132053600D01*
X132590745Y-131104078D01*
X132677889Y-131130513D01*
X132896050Y-131152000D01*
X133041950Y-131152000D01*
X133260111Y-131130513D01*
X133540034Y-131045599D01*
X133798014Y-130907706D01*
X134024134Y-130722134D01*
X134209706Y-130496014D01*
X134347599Y-130238034D01*
X134396928Y-130075419D01*
X134396928Y-130625000D01*
X134409188Y-130749482D01*
X134427546Y-130810000D01*
X134409188Y-130870518D01*
X134396928Y-130995000D01*
X134400000Y-131159250D01*
X134558750Y-131318000D01*
X135908000Y-131318000D01*
X135908000Y-131298000D01*
X136162000Y-131298000D01*
X136162000Y-131318000D01*
X137511250Y-131318000D01*
X137670000Y-131159250D01*
X137673072Y-130995000D01*
X137660812Y-130870518D01*
X137642454Y-130810000D01*
X137660812Y-130749482D01*
X137673072Y-130625000D01*
X137673072Y-130040000D01*
X137779788Y-130040000D01*
X137999067Y-129996383D01*
X138205624Y-129910824D01*
X138391520Y-129786612D01*
X138549612Y-129628520D01*
X138673824Y-129442624D01*
X138759383Y-129236067D01*
X138803000Y-129016788D01*
X138803000Y-128955110D01*
X140266451Y-127491660D01*
X140298420Y-127465424D01*
X140403140Y-127337822D01*
X140480954Y-127192242D01*
X140528872Y-127034279D01*
X140540998Y-126911163D01*
X140540998Y-126911162D01*
X140545052Y-126870002D01*
X140540998Y-126828842D01*
X140540998Y-122445000D01*
X142396928Y-122445000D01*
X142400000Y-124659250D01*
X142558750Y-124818000D01*
X145408000Y-124818000D01*
X145408000Y-121968750D01*
X145662000Y-121968750D01*
X145662000Y-124818000D01*
X148511250Y-124818000D01*
X148670000Y-124659250D01*
X148673072Y-122445000D01*
X148660812Y-122320518D01*
X148624502Y-122200820D01*
X148565537Y-122090506D01*
X148486185Y-121993815D01*
X148389494Y-121914463D01*
X148279180Y-121855498D01*
X148159482Y-121819188D01*
X148035000Y-121806928D01*
X145820750Y-121810000D01*
X145662000Y-121968750D01*
X145408000Y-121968750D01*
X145249250Y-121810000D01*
X143035000Y-121806928D01*
X142910518Y-121819188D01*
X142790820Y-121855498D01*
X142680506Y-121914463D01*
X142583815Y-121993815D01*
X142504463Y-122090506D01*
X142445498Y-122200820D01*
X142409188Y-122320518D01*
X142396928Y-122445000D01*
X140540998Y-122445000D01*
X140540998Y-119334160D01*
X140731212Y-119371996D01*
X140794055Y-119371996D01*
X140883184Y-119445142D01*
X141028764Y-119522956D01*
X141186727Y-119570874D01*
X141309843Y-119583000D01*
X141309853Y-119583000D01*
X141351003Y-119587053D01*
X141392153Y-119583000D01*
X146425868Y-119583000D01*
X146469480Y-119626612D01*
X146655376Y-119750824D01*
X146861933Y-119836383D01*
X147081212Y-119880000D01*
X147304788Y-119880000D01*
X147524067Y-119836383D01*
X147730624Y-119750824D01*
X147916520Y-119626612D01*
X148074612Y-119468520D01*
X148198824Y-119282624D01*
X148284383Y-119076067D01*
X148328000Y-118856788D01*
X148328000Y-118633212D01*
X148284383Y-118413933D01*
X148198824Y-118207376D01*
X148074612Y-118021480D01*
X147916520Y-117863388D01*
X147730624Y-117739176D01*
X147524067Y-117653617D01*
X147304788Y-117610000D01*
X147081212Y-117610000D01*
X146861933Y-117653617D01*
X146655376Y-117739176D01*
X146469480Y-117863388D01*
X146425868Y-117907000D01*
X141934596Y-117907000D01*
X141934383Y-117905929D01*
X141848824Y-117699372D01*
X141817825Y-117652979D01*
X141849354Y-117649874D01*
X141849365Y-117649874D01*
X141972481Y-117637748D01*
X142130444Y-117589830D01*
X142276024Y-117512016D01*
X142403626Y-117407296D01*
X142429868Y-117375320D01*
X142832117Y-116973071D01*
X142864092Y-116946830D01*
X142968812Y-116819228D01*
X143046626Y-116673648D01*
X143094544Y-116515685D01*
X143105073Y-116408788D01*
X143150282Y-116363579D01*
X143274494Y-116177683D01*
X143360053Y-115971126D01*
X143403670Y-115751847D01*
X143403670Y-115568509D01*
X143450000Y-115573072D01*
X144350000Y-115573072D01*
X144474482Y-115560812D01*
X144535000Y-115542454D01*
X144595518Y-115560812D01*
X144720000Y-115573072D01*
X145620000Y-115573072D01*
X145744482Y-115560812D01*
X145805000Y-115542454D01*
X145865518Y-115560812D01*
X145990000Y-115573072D01*
X146890000Y-115573072D01*
X147014482Y-115560812D01*
X147075000Y-115542454D01*
X147135518Y-115560812D01*
X147260000Y-115573072D01*
X148160000Y-115573072D01*
X148284482Y-115560812D01*
X148345000Y-115542454D01*
X148405518Y-115560812D01*
X148530000Y-115573072D01*
X149430000Y-115573072D01*
X149554482Y-115560812D01*
X149615000Y-115542454D01*
X149675518Y-115560812D01*
X149800000Y-115573072D01*
X149964250Y-115570000D01*
X150123000Y-115411250D01*
X150123000Y-114062000D01*
X150377000Y-114062000D01*
X150377000Y-115411250D01*
X150535750Y-115570000D01*
X150700000Y-115573072D01*
X150824482Y-115560812D01*
X150944180Y-115524502D01*
X151054494Y-115465537D01*
X151151185Y-115386185D01*
X151230537Y-115289494D01*
X151289502Y-115179180D01*
X151325812Y-115059482D01*
X151338072Y-114935000D01*
X151335000Y-114220750D01*
X151176250Y-114062000D01*
X150377000Y-114062000D01*
X150123000Y-114062000D01*
X150103000Y-114062000D01*
X150103000Y-113808000D01*
X150123000Y-113808000D01*
X150123000Y-113788000D01*
X150377000Y-113788000D01*
X150377000Y-113808000D01*
X151176250Y-113808000D01*
X151335000Y-113649250D01*
X151335347Y-113568522D01*
X151450517Y-113630082D01*
X151450517Y-113630082D01*
G37*
X151450517Y-113630082D02*
X151598943Y-113675106D01*
X151714627Y-113686500D01*
X151714636Y-113686500D01*
X151753299Y-113690308D01*
X151791962Y-113686500D01*
X152231992Y-113686500D01*
X152358823Y-113724974D01*
X152481939Y-113737100D01*
X154842990Y-113737100D01*
X156769000Y-115663111D01*
X156769001Y-116707867D01*
X156725388Y-116751480D01*
X156601176Y-116937376D01*
X156515617Y-117143933D01*
X156472000Y-117363212D01*
X156472000Y-117586788D01*
X156515617Y-117806067D01*
X156601176Y-118012624D01*
X156725388Y-118198520D01*
X156883480Y-118356612D01*
X157069376Y-118480824D01*
X157275933Y-118566383D01*
X157495212Y-118610000D01*
X157685397Y-118610000D01*
X157682974Y-118634600D01*
X157687500Y-118680552D01*
X157687500Y-118680553D01*
X157701036Y-118817989D01*
X157754529Y-118994331D01*
X157773493Y-119029810D01*
X157841397Y-119156850D01*
X157887330Y-119212819D01*
X157958301Y-119299299D01*
X157994002Y-119328598D01*
X158507599Y-119842194D01*
X158536901Y-119877899D01*
X158640841Y-119963200D01*
X158679349Y-119994803D01*
X158745101Y-120029948D01*
X158841868Y-120081671D01*
X159018210Y-120135164D01*
X159155646Y-120148700D01*
X159155648Y-120148700D01*
X159196519Y-120152726D01*
X159213098Y-120207380D01*
X159216209Y-120213200D01*
X159213098Y-120219020D01*
X159176788Y-120338718D01*
X159164528Y-120463200D01*
X159167600Y-120927450D01*
X159326350Y-121086200D01*
X161175600Y-121086200D01*
X161175600Y-121066200D01*
X161429600Y-121066200D01*
X161429600Y-121086200D01*
X163278850Y-121086200D01*
X163437600Y-120927450D01*
X163440672Y-120463200D01*
X163428412Y-120338718D01*
X163392102Y-120219020D01*
X163388991Y-120213200D01*
X163392102Y-120207380D01*
X163428412Y-120087682D01*
X163440672Y-119963200D01*
X163440672Y-118463200D01*
X163428412Y-118338718D01*
X163392102Y-118219020D01*
X163337944Y-118117700D01*
X163392102Y-118016380D01*
X163428412Y-117896682D01*
X163440672Y-117772200D01*
X163440672Y-117665973D01*
X163452798Y-117651198D01*
X163823995Y-117280000D01*
X163850118Y-117258561D01*
X163850118Y-128952806D01*
X163653417Y-129149507D01*
X163625588Y-129183416D01*
X163323045Y-129485959D01*
X163287300Y-129515294D01*
X163258002Y-129550994D01*
X163242081Y-129566915D01*
X163117933Y-129591609D01*
X163043072Y-129622618D01*
X163043072Y-128929000D01*
X163030812Y-128804518D01*
X162994502Y-128684820D01*
X162935537Y-128574506D01*
X162856185Y-128477815D01*
X162759494Y-128398463D01*
X162649180Y-128339498D01*
X162529482Y-128303188D01*
X162462012Y-128296543D01*
X162432956Y-128200760D01*
X162355142Y-128055180D01*
X162250422Y-127927578D01*
X162218447Y-127901337D01*
X162150664Y-127833554D01*
X162124422Y-127801578D01*
X161996820Y-127696858D01*
X161851240Y-127619044D01*
X161693277Y-127571126D01*
X161570161Y-127559000D01*
X161570150Y-127559000D01*
X161529000Y-127554947D01*
X161487850Y-127559000D01*
X160723250Y-127559000D01*
X160583250Y-127419000D01*
X159784000Y-127419000D01*
X159784000Y-127439000D01*
X159530000Y-127439000D01*
X159530000Y-127419000D01*
X158730750Y-127419000D01*
X158590750Y-127559000D01*
X156623250Y-127559000D01*
X156483250Y-127419000D01*
X155684000Y-127419000D01*
X155684000Y-127439000D01*
X155430000Y-127439000D01*
X155430000Y-127419000D01*
X155410000Y-127419000D01*
X155410000Y-127165000D01*
X155430000Y-127165000D01*
X155430000Y-127145000D01*
X155684000Y-127145000D01*
X155684000Y-127165000D01*
X156483250Y-127165000D01*
X156642000Y-127006250D01*
X156645072Y-126792000D01*
X156636099Y-126700893D01*
X156688374Y-126735822D01*
X156894931Y-126821381D01*
X157114210Y-126864998D01*
X157337786Y-126864998D01*
X157557065Y-126821381D01*
X157763622Y-126735822D01*
X157949518Y-126611610D01*
X158031128Y-126530000D01*
X158627023Y-126530000D01*
X158617498Y-126547820D01*
X158581188Y-126667518D01*
X158568928Y-126792000D01*
X158572000Y-127006250D01*
X158730750Y-127165000D01*
X159530000Y-127165000D01*
X159530000Y-127145000D01*
X159784000Y-127145000D01*
X159784000Y-127165000D01*
X160583250Y-127165000D01*
X160742000Y-127006250D01*
X160745072Y-126792000D01*
X160732812Y-126667518D01*
X160696502Y-126547820D01*
X160666665Y-126492000D01*
X160696502Y-126436180D01*
X160732812Y-126316482D01*
X160745072Y-126192000D01*
X160745072Y-125192000D01*
X160732812Y-125067518D01*
X160696502Y-124947820D01*
X160637537Y-124837506D01*
X160558185Y-124740815D01*
X160461494Y-124661463D01*
X160351180Y-124602498D01*
X160231482Y-124566188D01*
X160107000Y-124553928D01*
X159207000Y-124553928D01*
X159082518Y-124566188D01*
X158962820Y-124602498D01*
X158852506Y-124661463D01*
X158755815Y-124740815D01*
X158676463Y-124837506D01*
X158667647Y-124854000D01*
X157955132Y-124854000D01*
X157949518Y-124848386D01*
X157763622Y-124724174D01*
X157557065Y-124638615D01*
X157337786Y-124594998D01*
X157114210Y-124594998D01*
X156894931Y-124638615D01*
X156688374Y-124724174D01*
X156530887Y-124829403D01*
X156458185Y-124740815D01*
X156361494Y-124661463D01*
X156251180Y-124602498D01*
X156131482Y-124566188D01*
X156007000Y-124553928D01*
X155175001Y-124553928D01*
X155175001Y-122784570D01*
X155243838Y-122715733D01*
X155297553Y-122671651D01*
X155395962Y-122551738D01*
X155469087Y-122414931D01*
X155514117Y-122266487D01*
X155518126Y-122225779D01*
X155619624Y-122124281D01*
X155727255Y-121963200D01*
X159164528Y-121963200D01*
X159176788Y-122087682D01*
X159213098Y-122207380D01*
X159272063Y-122317694D01*
X159351415Y-122414385D01*
X159448106Y-122493737D01*
X159558420Y-122552702D01*
X159678118Y-122589012D01*
X159802600Y-122601272D01*
X161016850Y-122598200D01*
X161175600Y-122439450D01*
X161175600Y-121340200D01*
X161429600Y-121340200D01*
X161429600Y-122439450D01*
X161588350Y-122598200D01*
X162802600Y-122601272D01*
X162927082Y-122589012D01*
X163046780Y-122552702D01*
X163157094Y-122493737D01*
X163253785Y-122414385D01*
X163333137Y-122317694D01*
X163392102Y-122207380D01*
X163428412Y-122087682D01*
X163440672Y-121963200D01*
X163437600Y-121498950D01*
X163278850Y-121340200D01*
X161429600Y-121340200D01*
X161175600Y-121340200D01*
X159326350Y-121340200D01*
X159167600Y-121498950D01*
X159164528Y-121963200D01*
X155727255Y-121963200D01*
X155743836Y-121938385D01*
X155829395Y-121731828D01*
X155873012Y-121512549D01*
X155873012Y-121288973D01*
X155829395Y-121069694D01*
X155743836Y-120863137D01*
X155619624Y-120677241D01*
X155461532Y-120519149D01*
X155275636Y-120394937D01*
X155069079Y-120309378D01*
X154849800Y-120265761D01*
X154673072Y-120265761D01*
X154673072Y-119565000D01*
X154660812Y-119440518D01*
X154642454Y-119380000D01*
X154660812Y-119319482D01*
X154673072Y-119195000D01*
X154673072Y-118295000D01*
X154660812Y-118170518D01*
X154642454Y-118110000D01*
X154660812Y-118049482D01*
X154673072Y-117925000D01*
X154673072Y-117025000D01*
X154660812Y-116900518D01*
X154642454Y-116840000D01*
X154660812Y-116779482D01*
X154673072Y-116655000D01*
X154673072Y-115755000D01*
X154660812Y-115630518D01*
X154642454Y-115570000D01*
X154660812Y-115509482D01*
X154673072Y-115385000D01*
X154673072Y-114485000D01*
X154660812Y-114360518D01*
X154624502Y-114240820D01*
X154565537Y-114130506D01*
X154486185Y-114033815D01*
X154389494Y-113954463D01*
X154279180Y-113895498D01*
X154159482Y-113859188D01*
X154035000Y-113846928D01*
X152035000Y-113846928D01*
X151910518Y-113859188D01*
X151790820Y-113895498D01*
X151680506Y-113954463D01*
X151583815Y-114033815D01*
X151504463Y-114130506D01*
X151445498Y-114240820D01*
X151409188Y-114360518D01*
X151396928Y-114485000D01*
X151396928Y-115385000D01*
X151409188Y-115509482D01*
X151427546Y-115570000D01*
X151409188Y-115630518D01*
X151396928Y-115755000D01*
X151396928Y-116655000D01*
X151409188Y-116779482D01*
X151427546Y-116840000D01*
X151409188Y-116900518D01*
X151396928Y-117025000D01*
X151396928Y-117859260D01*
X151207067Y-117780617D01*
X150987788Y-117737000D01*
X150764212Y-117737000D01*
X150544933Y-117780617D01*
X150338376Y-117866176D01*
X150152480Y-117990388D01*
X149994388Y-118148480D01*
X149870176Y-118334376D01*
X149784617Y-118540933D01*
X149741000Y-118760212D01*
X149741000Y-118983788D01*
X149784617Y-119203067D01*
X149870176Y-119409624D01*
X149994388Y-119595520D01*
X150152480Y-119753612D01*
X150338376Y-119877824D01*
X150544933Y-119963383D01*
X150764212Y-120007000D01*
X150796800Y-120007000D01*
X150796799Y-125492925D01*
X150758426Y-125619425D01*
X150742246Y-125783701D01*
X150758426Y-125947977D01*
X150806343Y-126105940D01*
X150884157Y-126251520D01*
X150962639Y-126347151D01*
X151396928Y-126781441D01*
X151396928Y-126815000D01*
X151409188Y-126939482D01*
X151427546Y-127000000D01*
X151409188Y-127060518D01*
X151396928Y-127185000D01*
X151396928Y-127892260D01*
X151207067Y-127813617D01*
X150987788Y-127770000D01*
X150764212Y-127770000D01*
X150544933Y-127813617D01*
X150338376Y-127899176D01*
X150152480Y-128023388D01*
X149994388Y-128181480D01*
X149870176Y-128367376D01*
X149784617Y-128573933D01*
X149741000Y-128793212D01*
X149741000Y-129016788D01*
X149784617Y-129236067D01*
X149826425Y-129337000D01*
X144492110Y-129337000D01*
X143629000Y-128473890D01*
X143629000Y-128412212D01*
X143585383Y-128192933D01*
X143539587Y-128082372D01*
X145249250Y-128080000D01*
X145408000Y-127921250D01*
X145408000Y-125072000D01*
X145662000Y-125072000D01*
X145662000Y-127921250D01*
X145820750Y-128080000D01*
X148035000Y-128083072D01*
X148159482Y-128070812D01*
X148279180Y-128034502D01*
X148389494Y-127975537D01*
X148486185Y-127896185D01*
X148565537Y-127799494D01*
X148624502Y-127689180D01*
X148660812Y-127569482D01*
X148673072Y-127445000D01*
X148670000Y-125230750D01*
X148511250Y-125072000D01*
X145662000Y-125072000D01*
X145408000Y-125072000D01*
X142558750Y-125072000D01*
X142400000Y-125230750D01*
X142397006Y-127389000D01*
X142382212Y-127389000D01*
X142162933Y-127432617D01*
X141956376Y-127518176D01*
X141770480Y-127642388D01*
X141612388Y-127800480D01*
X141488176Y-127986376D01*
X141402617Y-128192933D01*
X141359000Y-128412212D01*
X141359000Y-128635788D01*
X141402617Y-128855067D01*
X141488176Y-129061624D01*
X141612388Y-129247520D01*
X141770480Y-129405612D01*
X141956376Y-129529824D01*
X142162933Y-129615383D01*
X142382212Y-129659000D01*
X142443890Y-129659000D01*
X143523336Y-130738446D01*
X143549578Y-130770422D01*
X143666506Y-130866382D01*
X143677180Y-130875142D01*
X143822760Y-130952956D01*
X143980723Y-131000874D01*
X144145000Y-131017054D01*
X144186160Y-131013000D01*
X151397265Y-131013000D01*
X151400000Y-131159250D01*
X151558750Y-131318000D01*
X152908000Y-131318000D01*
X152908000Y-131298000D01*
X153162000Y-131298000D01*
X153162000Y-131318000D01*
X154511250Y-131318000D01*
X154670000Y-131159250D01*
X154673072Y-130995000D01*
X154666846Y-130931786D01*
X154695992Y-130916207D01*
X154698000Y-131154250D01*
X154856750Y-131313000D01*
X155956000Y-131313000D01*
X155956000Y-131293000D01*
X156210000Y-131293000D01*
X156210000Y-131313000D01*
X157309250Y-131313000D01*
X157468000Y-131154250D01*
X157469408Y-130987303D01*
X157529933Y-131012373D01*
X157749212Y-131055990D01*
X157972788Y-131055990D01*
X158192067Y-131012373D01*
X158269328Y-130980370D01*
X158266928Y-131929000D01*
X158279188Y-132053482D01*
X158279224Y-132053600D01*
X157470765Y-132053600D01*
X157468000Y-131725750D01*
X157309250Y-131567000D01*
X156210000Y-131567000D01*
X156210000Y-131587000D01*
X155956000Y-131587000D01*
X155956000Y-131567000D01*
X154856750Y-131567000D01*
X154698000Y-131725750D01*
X154695235Y-132053600D01*
X154650462Y-132053600D01*
X154660812Y-132019482D01*
X154673072Y-131895000D01*
X154670000Y-131730750D01*
X154511250Y-131572000D01*
X153162000Y-131572000D01*
X153162000Y-131592000D01*
X152908000Y-131592000D01*
X152908000Y-131572000D01*
X151558750Y-131572000D01*
X151400000Y-131730750D01*
X151396928Y-131895000D01*
X151409188Y-132019482D01*
X151419538Y-132053600D01*
X137650462Y-132053600D01*
X137660812Y-132019482D01*
X137673072Y-131895000D01*
X137670000Y-131730750D01*
X137511250Y-131572000D01*
X136162000Y-131572000D01*
X136162000Y-131592000D01*
X135908000Y-131592000D01*
X135908000Y-131572000D01*
X134558750Y-131572000D01*
X134400000Y-131730750D01*
X134396928Y-131895000D01*
X134409188Y-132019482D01*
X134419538Y-132053600D01*
X132588383Y-132053600D01*
X132590745Y-131104078D01*
X132677889Y-131130513D01*
X132896050Y-131152000D01*
X133041950Y-131152000D01*
X133260111Y-131130513D01*
X133540034Y-131045599D01*
X133798014Y-130907706D01*
X134024134Y-130722134D01*
X134209706Y-130496014D01*
X134347599Y-130238034D01*
X134396928Y-130075419D01*
X134396928Y-130625000D01*
X134409188Y-130749482D01*
X134427546Y-130810000D01*
X134409188Y-130870518D01*
X134396928Y-130995000D01*
X134400000Y-131159250D01*
X134558750Y-131318000D01*
X135908000Y-131318000D01*
X135908000Y-131298000D01*
X136162000Y-131298000D01*
X136162000Y-131318000D01*
X137511250Y-131318000D01*
X137670000Y-131159250D01*
X137673072Y-130995000D01*
X137660812Y-130870518D01*
X137642454Y-130810000D01*
X137660812Y-130749482D01*
X137673072Y-130625000D01*
X137673072Y-130040000D01*
X137779788Y-130040000D01*
X137999067Y-129996383D01*
X138205624Y-129910824D01*
X138391520Y-129786612D01*
X138549612Y-129628520D01*
X138673824Y-129442624D01*
X138759383Y-129236067D01*
X138803000Y-129016788D01*
X138803000Y-128955110D01*
X140266451Y-127491660D01*
X140298420Y-127465424D01*
X140403140Y-127337822D01*
X140480954Y-127192242D01*
X140528872Y-127034279D01*
X140540998Y-126911163D01*
X140540998Y-126911162D01*
X140545052Y-126870002D01*
X140540998Y-126828842D01*
X140540998Y-122445000D01*
X142396928Y-122445000D01*
X142400000Y-124659250D01*
X142558750Y-124818000D01*
X145408000Y-124818000D01*
X145408000Y-121968750D01*
X145662000Y-121968750D01*
X145662000Y-124818000D01*
X148511250Y-124818000D01*
X148670000Y-124659250D01*
X148673072Y-122445000D01*
X148660812Y-122320518D01*
X148624502Y-122200820D01*
X148565537Y-122090506D01*
X148486185Y-121993815D01*
X148389494Y-121914463D01*
X148279180Y-121855498D01*
X148159482Y-121819188D01*
X148035000Y-121806928D01*
X145820750Y-121810000D01*
X145662000Y-121968750D01*
X145408000Y-121968750D01*
X145249250Y-121810000D01*
X143035000Y-121806928D01*
X142910518Y-121819188D01*
X142790820Y-121855498D01*
X142680506Y-121914463D01*
X142583815Y-121993815D01*
X142504463Y-122090506D01*
X142445498Y-122200820D01*
X142409188Y-122320518D01*
X142396928Y-122445000D01*
X140540998Y-122445000D01*
X140540998Y-119334160D01*
X140731212Y-119371996D01*
X140794055Y-119371996D01*
X140883184Y-119445142D01*
X141028764Y-119522956D01*
X141186727Y-119570874D01*
X141309843Y-119583000D01*
X141309853Y-119583000D01*
X141351003Y-119587053D01*
X141392153Y-119583000D01*
X146425868Y-119583000D01*
X146469480Y-119626612D01*
X146655376Y-119750824D01*
X146861933Y-119836383D01*
X147081212Y-119880000D01*
X147304788Y-119880000D01*
X147524067Y-119836383D01*
X147730624Y-119750824D01*
X147916520Y-119626612D01*
X148074612Y-119468520D01*
X148198824Y-119282624D01*
X148284383Y-119076067D01*
X148328000Y-118856788D01*
X148328000Y-118633212D01*
X148284383Y-118413933D01*
X148198824Y-118207376D01*
X148074612Y-118021480D01*
X147916520Y-117863388D01*
X147730624Y-117739176D01*
X147524067Y-117653617D01*
X147304788Y-117610000D01*
X147081212Y-117610000D01*
X146861933Y-117653617D01*
X146655376Y-117739176D01*
X146469480Y-117863388D01*
X146425868Y-117907000D01*
X141934596Y-117907000D01*
X141934383Y-117905929D01*
X141848824Y-117699372D01*
X141817825Y-117652979D01*
X141849354Y-117649874D01*
X141849365Y-117649874D01*
X141972481Y-117637748D01*
X142130444Y-117589830D01*
X142276024Y-117512016D01*
X142403626Y-117407296D01*
X142429868Y-117375320D01*
X142832117Y-116973071D01*
X142864092Y-116946830D01*
X142968812Y-116819228D01*
X143046626Y-116673648D01*
X143094544Y-116515685D01*
X143105073Y-116408788D01*
X143150282Y-116363579D01*
X143274494Y-116177683D01*
X143360053Y-115971126D01*
X143403670Y-115751847D01*
X143403670Y-115568509D01*
X143450000Y-115573072D01*
X144350000Y-115573072D01*
X144474482Y-115560812D01*
X144535000Y-115542454D01*
X144595518Y-115560812D01*
X144720000Y-115573072D01*
X145620000Y-115573072D01*
X145744482Y-115560812D01*
X145805000Y-115542454D01*
X145865518Y-115560812D01*
X145990000Y-115573072D01*
X146890000Y-115573072D01*
X147014482Y-115560812D01*
X147075000Y-115542454D01*
X147135518Y-115560812D01*
X147260000Y-115573072D01*
X148160000Y-115573072D01*
X148284482Y-115560812D01*
X148345000Y-115542454D01*
X148405518Y-115560812D01*
X148530000Y-115573072D01*
X149430000Y-115573072D01*
X149554482Y-115560812D01*
X149615000Y-115542454D01*
X149675518Y-115560812D01*
X149800000Y-115573072D01*
X149964250Y-115570000D01*
X150123000Y-115411250D01*
X150123000Y-114062000D01*
X150377000Y-114062000D01*
X150377000Y-115411250D01*
X150535750Y-115570000D01*
X150700000Y-115573072D01*
X150824482Y-115560812D01*
X150944180Y-115524502D01*
X151054494Y-115465537D01*
X151151185Y-115386185D01*
X151230537Y-115289494D01*
X151289502Y-115179180D01*
X151325812Y-115059482D01*
X151338072Y-114935000D01*
X151335000Y-114220750D01*
X151176250Y-114062000D01*
X150377000Y-114062000D01*
X150123000Y-114062000D01*
X150103000Y-114062000D01*
X150103000Y-113808000D01*
X150123000Y-113808000D01*
X150123000Y-113788000D01*
X150377000Y-113788000D01*
X150377000Y-113808000D01*
X151176250Y-113808000D01*
X151335000Y-113649250D01*
X151335347Y-113568522D01*
X151450517Y-113630082D01*
G36*
X159782000Y-130302000D02*
G01*
X159802000Y-130302000D01*
X159802000Y-130556000D01*
X159782000Y-130556000D01*
X159782000Y-130576000D01*
X159528000Y-130576000D01*
X159528000Y-130556000D01*
X159508000Y-130556000D01*
X159508000Y-130302000D01*
X159528000Y-130302000D01*
X159528000Y-130282000D01*
X159782000Y-130282000D01*
X159782000Y-130302000D01*
X159782000Y-130302000D01*
G37*
X159782000Y-130302000D02*
X159802000Y-130302000D01*
X159802000Y-130556000D01*
X159782000Y-130556000D01*
X159782000Y-130576000D01*
X159528000Y-130576000D01*
X159528000Y-130556000D01*
X159508000Y-130556000D01*
X159508000Y-130302000D01*
X159528000Y-130302000D01*
X159528000Y-130282000D01*
X159782000Y-130282000D01*
X159782000Y-130302000D01*
G36*
X137801690Y-109436317D02*
G01*
X137895802Y-109530429D01*
X137895802Y-109548413D01*
X137891992Y-109587093D01*
X137895802Y-109625773D01*
X137895802Y-109625775D01*
X137907197Y-109741469D01*
X137952227Y-109889913D01*
X137970488Y-109924076D01*
X138025352Y-110026721D01*
X138054081Y-110061727D01*
X138123761Y-110146634D01*
X138153817Y-110171300D01*
X139607005Y-111624489D01*
X139696870Y-111698240D01*
X139833677Y-111771364D01*
X139982122Y-111816394D01*
X140035916Y-111821693D01*
X140036709Y-111828973D01*
X140074794Y-111948118D01*
X140135392Y-112057543D01*
X140216174Y-112153044D01*
X140314034Y-112230950D01*
X140425213Y-112288267D01*
X140455372Y-112296928D01*
X139640000Y-112296928D01*
X139515518Y-112309188D01*
X139455000Y-112327546D01*
X139394482Y-112309188D01*
X139270000Y-112296928D01*
X138370000Y-112296928D01*
X138245518Y-112309188D01*
X138125820Y-112345498D01*
X138015506Y-112404463D01*
X137918815Y-112483815D01*
X137839463Y-112580506D01*
X137780498Y-112690820D01*
X137744188Y-112810518D01*
X137731928Y-112935000D01*
X137731928Y-114935000D01*
X137744188Y-115059482D01*
X137780498Y-115179180D01*
X137839463Y-115289494D01*
X137918815Y-115386185D01*
X138015506Y-115465537D01*
X138125820Y-115524502D01*
X138245518Y-115560812D01*
X138370000Y-115573072D01*
X139102440Y-115573072D01*
X138533536Y-116141977D01*
X138501566Y-116168214D01*
X138475329Y-116200184D01*
X138475327Y-116200186D01*
X138396845Y-116295817D01*
X138319031Y-116441397D01*
X138292748Y-116528042D01*
X138272926Y-116593388D01*
X138271114Y-116599360D01*
X138254934Y-116763636D01*
X138258988Y-116804796D01*
X138258988Y-120150000D01*
X138064212Y-120150000D01*
X137844933Y-120193617D01*
X137673072Y-120264804D01*
X137673072Y-119565000D01*
X137660812Y-119440518D01*
X137642454Y-119380000D01*
X137660812Y-119319482D01*
X137673072Y-119195000D01*
X137673072Y-118295000D01*
X137660812Y-118170518D01*
X137642454Y-118110000D01*
X137660812Y-118049482D01*
X137673072Y-117925000D01*
X137673072Y-117025000D01*
X137660812Y-116900518D01*
X137642454Y-116840000D01*
X137660812Y-116779482D01*
X137673072Y-116655000D01*
X137673072Y-115755000D01*
X137660812Y-115630518D01*
X137642454Y-115570000D01*
X137660812Y-115509482D01*
X137673072Y-115385000D01*
X137673072Y-114485000D01*
X137660812Y-114360518D01*
X137624502Y-114240820D01*
X137565537Y-114130506D01*
X137486185Y-114033815D01*
X137389494Y-113954463D01*
X137279180Y-113895498D01*
X137159482Y-113859188D01*
X137035000Y-113846928D01*
X135077377Y-113846928D01*
X135076383Y-113841933D01*
X135064500Y-113813245D01*
X135064500Y-112921347D01*
X135131494Y-112885537D01*
X135228185Y-112806185D01*
X135307537Y-112709494D01*
X135366502Y-112599180D01*
X135402812Y-112479482D01*
X135415072Y-112355000D01*
X135415072Y-112283039D01*
X135425213Y-112288267D01*
X135545438Y-112322793D01*
X135670088Y-112333201D01*
X136124850Y-112330200D01*
X136283600Y-112171450D01*
X136283600Y-111398200D01*
X136537600Y-111398200D01*
X136537600Y-112171450D01*
X136696350Y-112330200D01*
X137151112Y-112333201D01*
X137275762Y-112322793D01*
X137395987Y-112288267D01*
X137507166Y-112230950D01*
X137605026Y-112153044D01*
X137685808Y-112057543D01*
X137746406Y-111948118D01*
X137784491Y-111828973D01*
X137795600Y-111726950D01*
X137658489Y-111589839D01*
X137685808Y-111557543D01*
X137746406Y-111448118D01*
X137763073Y-111395977D01*
X137795600Y-111363450D01*
X137788168Y-111295200D01*
X137795600Y-111226950D01*
X137763073Y-111194423D01*
X137746406Y-111142282D01*
X137692643Y-111045200D01*
X137746406Y-110948118D01*
X137763073Y-110895977D01*
X137795600Y-110863450D01*
X137788168Y-110795200D01*
X137795600Y-110726950D01*
X137763073Y-110694423D01*
X137746406Y-110642282D01*
X137693099Y-110546023D01*
X137750102Y-110439380D01*
X137763353Y-110395697D01*
X137795600Y-110363450D01*
X137788512Y-110298357D01*
X137798672Y-110195200D01*
X137798672Y-109895200D01*
X137788823Y-109795200D01*
X137798672Y-109695200D01*
X137798672Y-109431800D01*
X137801690Y-109436317D01*
X137801690Y-109436317D01*
G37*
X137801690Y-109436317D02*
X137895802Y-109530429D01*
X137895802Y-109548413D01*
X137891992Y-109587093D01*
X137895802Y-109625773D01*
X137895802Y-109625775D01*
X137907197Y-109741469D01*
X137952227Y-109889913D01*
X137970488Y-109924076D01*
X138025352Y-110026721D01*
X138054081Y-110061727D01*
X138123761Y-110146634D01*
X138153817Y-110171300D01*
X139607005Y-111624489D01*
X139696870Y-111698240D01*
X139833677Y-111771364D01*
X139982122Y-111816394D01*
X140035916Y-111821693D01*
X140036709Y-111828973D01*
X140074794Y-111948118D01*
X140135392Y-112057543D01*
X140216174Y-112153044D01*
X140314034Y-112230950D01*
X140425213Y-112288267D01*
X140455372Y-112296928D01*
X139640000Y-112296928D01*
X139515518Y-112309188D01*
X139455000Y-112327546D01*
X139394482Y-112309188D01*
X139270000Y-112296928D01*
X138370000Y-112296928D01*
X138245518Y-112309188D01*
X138125820Y-112345498D01*
X138015506Y-112404463D01*
X137918815Y-112483815D01*
X137839463Y-112580506D01*
X137780498Y-112690820D01*
X137744188Y-112810518D01*
X137731928Y-112935000D01*
X137731928Y-114935000D01*
X137744188Y-115059482D01*
X137780498Y-115179180D01*
X137839463Y-115289494D01*
X137918815Y-115386185D01*
X138015506Y-115465537D01*
X138125820Y-115524502D01*
X138245518Y-115560812D01*
X138370000Y-115573072D01*
X139102440Y-115573072D01*
X138533536Y-116141977D01*
X138501566Y-116168214D01*
X138475329Y-116200184D01*
X138475327Y-116200186D01*
X138396845Y-116295817D01*
X138319031Y-116441397D01*
X138292748Y-116528042D01*
X138272926Y-116593388D01*
X138271114Y-116599360D01*
X138254934Y-116763636D01*
X138258988Y-116804796D01*
X138258988Y-120150000D01*
X138064212Y-120150000D01*
X137844933Y-120193617D01*
X137673072Y-120264804D01*
X137673072Y-119565000D01*
X137660812Y-119440518D01*
X137642454Y-119380000D01*
X137660812Y-119319482D01*
X137673072Y-119195000D01*
X137673072Y-118295000D01*
X137660812Y-118170518D01*
X137642454Y-118110000D01*
X137660812Y-118049482D01*
X137673072Y-117925000D01*
X137673072Y-117025000D01*
X137660812Y-116900518D01*
X137642454Y-116840000D01*
X137660812Y-116779482D01*
X137673072Y-116655000D01*
X137673072Y-115755000D01*
X137660812Y-115630518D01*
X137642454Y-115570000D01*
X137660812Y-115509482D01*
X137673072Y-115385000D01*
X137673072Y-114485000D01*
X137660812Y-114360518D01*
X137624502Y-114240820D01*
X137565537Y-114130506D01*
X137486185Y-114033815D01*
X137389494Y-113954463D01*
X137279180Y-113895498D01*
X137159482Y-113859188D01*
X137035000Y-113846928D01*
X135077377Y-113846928D01*
X135076383Y-113841933D01*
X135064500Y-113813245D01*
X135064500Y-112921347D01*
X135131494Y-112885537D01*
X135228185Y-112806185D01*
X135307537Y-112709494D01*
X135366502Y-112599180D01*
X135402812Y-112479482D01*
X135415072Y-112355000D01*
X135415072Y-112283039D01*
X135425213Y-112288267D01*
X135545438Y-112322793D01*
X135670088Y-112333201D01*
X136124850Y-112330200D01*
X136283600Y-112171450D01*
X136283600Y-111398200D01*
X136537600Y-111398200D01*
X136537600Y-112171450D01*
X136696350Y-112330200D01*
X137151112Y-112333201D01*
X137275762Y-112322793D01*
X137395987Y-112288267D01*
X137507166Y-112230950D01*
X137605026Y-112153044D01*
X137685808Y-112057543D01*
X137746406Y-111948118D01*
X137784491Y-111828973D01*
X137795600Y-111726950D01*
X137658489Y-111589839D01*
X137685808Y-111557543D01*
X137746406Y-111448118D01*
X137763073Y-111395977D01*
X137795600Y-111363450D01*
X137788168Y-111295200D01*
X137795600Y-111226950D01*
X137763073Y-111194423D01*
X137746406Y-111142282D01*
X137692643Y-111045200D01*
X137746406Y-110948118D01*
X137763073Y-110895977D01*
X137795600Y-110863450D01*
X137788168Y-110795200D01*
X137795600Y-110726950D01*
X137763073Y-110694423D01*
X137746406Y-110642282D01*
X137693099Y-110546023D01*
X137750102Y-110439380D01*
X137763353Y-110395697D01*
X137795600Y-110363450D01*
X137788512Y-110298357D01*
X137798672Y-110195200D01*
X137798672Y-109895200D01*
X137788823Y-109795200D01*
X137798672Y-109695200D01*
X137798672Y-109431800D01*
X137801690Y-109436317D01*
G36*
X133096000Y-116840000D02*
G01*
X133116000Y-116840000D01*
X133116000Y-117094000D01*
X133096000Y-117094000D01*
X133096000Y-117114000D01*
X132842000Y-117114000D01*
X132842000Y-117094000D01*
X132822000Y-117094000D01*
X132822000Y-116840000D01*
X132842000Y-116840000D01*
X132842000Y-116820000D01*
X133096000Y-116820000D01*
X133096000Y-116840000D01*
X133096000Y-116840000D01*
G37*
X133096000Y-116840000D02*
X133116000Y-116840000D01*
X133116000Y-117094000D01*
X133096000Y-117094000D01*
X133096000Y-117114000D01*
X132842000Y-117114000D01*
X132842000Y-117094000D01*
X132822000Y-117094000D01*
X132822000Y-116840000D01*
X132842000Y-116840000D01*
X132842000Y-116820000D01*
X133096000Y-116820000D01*
X133096000Y-116840000D01*
G36*
X141741528Y-94559200D02*
G01*
X141753788Y-94683682D01*
X141790098Y-94803380D01*
X141820800Y-94860818D01*
X141820800Y-95035450D01*
X141979550Y-95194200D01*
X142082693Y-95182850D01*
X142162923Y-95157045D01*
X142255118Y-95185012D01*
X142379600Y-95197272D01*
X142613534Y-95197272D01*
X142335983Y-95474824D01*
X142255118Y-95482788D01*
X142163700Y-95510519D01*
X142072282Y-95482788D01*
X141947800Y-95470528D01*
X141439800Y-95470528D01*
X141315318Y-95482788D01*
X141223900Y-95510519D01*
X141132482Y-95482788D01*
X141008000Y-95470528D01*
X140500000Y-95470528D01*
X140375518Y-95482788D01*
X140255820Y-95519098D01*
X140145506Y-95578063D01*
X140048815Y-95657415D01*
X139969463Y-95754106D01*
X139910498Y-95864420D01*
X139874188Y-95984118D01*
X139861928Y-96108600D01*
X139861928Y-97170565D01*
X139825082Y-97159388D01*
X139700600Y-97147128D01*
X139236350Y-97150200D01*
X139077600Y-97308950D01*
X139077600Y-98308200D01*
X139097600Y-98308200D01*
X139097600Y-98562200D01*
X139077600Y-98562200D01*
X139077600Y-98582200D01*
X138823600Y-98582200D01*
X138823600Y-98562200D01*
X138803600Y-98562200D01*
X138803600Y-98308200D01*
X138823600Y-98308200D01*
X138823600Y-97308950D01*
X138664850Y-97150200D01*
X138200600Y-97147128D01*
X138076118Y-97159388D01*
X137956420Y-97195698D01*
X137846106Y-97254663D01*
X137769297Y-97317698D01*
X137666082Y-97286388D01*
X137541600Y-97274128D01*
X137077350Y-97277200D01*
X136918600Y-97435950D01*
X136918600Y-98435200D01*
X136938600Y-98435200D01*
X136938600Y-98689200D01*
X136918600Y-98689200D01*
X136918600Y-98709200D01*
X136664600Y-98709200D01*
X136664600Y-98689200D01*
X135565350Y-98689200D01*
X135406600Y-98847950D01*
X135403528Y-99212200D01*
X135415788Y-99336682D01*
X135452098Y-99456380D01*
X135481935Y-99512200D01*
X135452098Y-99568020D01*
X135415788Y-99687718D01*
X135403528Y-99812200D01*
X135403528Y-101112200D01*
X135415788Y-101236682D01*
X135452098Y-101356380D01*
X135511063Y-101466694D01*
X135590415Y-101563385D01*
X135687106Y-101642737D01*
X135797420Y-101701702D01*
X135885926Y-101728550D01*
X135832415Y-101772465D01*
X135753063Y-101869156D01*
X135694098Y-101979470D01*
X135657788Y-102099168D01*
X135645528Y-102223650D01*
X135645528Y-102642750D01*
X135656910Y-102758320D01*
X135645528Y-102873890D01*
X135645528Y-103292990D01*
X135657342Y-103412941D01*
X135648600Y-103492381D01*
X135694912Y-103538693D01*
X135753063Y-103647484D01*
X135824270Y-103734251D01*
X135759044Y-103811082D01*
X135698249Y-103920399D01*
X135695910Y-103927671D01*
X135648600Y-103974981D01*
X135657824Y-104058799D01*
X135648600Y-104142618D01*
X135695910Y-104189928D01*
X135698249Y-104197200D01*
X135759044Y-104306517D01*
X135824270Y-104383348D01*
X135753063Y-104470115D01*
X135694912Y-104578906D01*
X135648600Y-104625218D01*
X135657342Y-104704658D01*
X135645528Y-104824609D01*
X135645528Y-105243709D01*
X135656910Y-105359280D01*
X135645528Y-105474850D01*
X135645528Y-105893950D01*
X135657788Y-106018432D01*
X135694098Y-106138130D01*
X135753063Y-106248444D01*
X135832415Y-106345135D01*
X135929106Y-106424487D01*
X136039420Y-106483452D01*
X136094613Y-106500194D01*
X136103115Y-106528222D01*
X136140458Y-106651326D01*
X136218291Y-106796941D01*
X136261590Y-106849701D01*
X136261590Y-106918788D01*
X136279715Y-107009908D01*
X136221071Y-106985617D01*
X136001792Y-106942000D01*
X135778216Y-106942000D01*
X135558937Y-106985617D01*
X135352380Y-107071176D01*
X135347172Y-107074656D01*
X135307537Y-107000506D01*
X135228185Y-106903815D01*
X135131494Y-106824463D01*
X135021180Y-106765498D01*
X134901482Y-106729188D01*
X134777000Y-106716928D01*
X133777000Y-106716928D01*
X133652518Y-106729188D01*
X133532820Y-106765498D01*
X133477000Y-106795335D01*
X133421180Y-106765498D01*
X133301482Y-106729188D01*
X133177000Y-106716928D01*
X132962750Y-106720000D01*
X132804000Y-106878750D01*
X132804000Y-107678000D01*
X132824000Y-107678000D01*
X132824000Y-107932000D01*
X132804000Y-107932000D01*
X132804000Y-108731250D01*
X132962750Y-108890000D01*
X133177000Y-108893072D01*
X133301482Y-108880812D01*
X133421180Y-108844502D01*
X133439001Y-108834977D01*
X133439001Y-109118941D01*
X133411867Y-109152004D01*
X133334053Y-109297584D01*
X133286135Y-109455547D01*
X133274009Y-109578663D01*
X133274009Y-109578673D01*
X133269956Y-109619823D01*
X133274009Y-109660973D01*
X133274009Y-110429427D01*
X133269956Y-110470577D01*
X133274009Y-110511727D01*
X133274009Y-110511738D01*
X133286136Y-110634854D01*
X133292219Y-110654907D01*
X133334053Y-110792816D01*
X133363560Y-110848019D01*
X133301482Y-110829188D01*
X133177000Y-110816928D01*
X132962750Y-110820000D01*
X132804000Y-110978750D01*
X132804000Y-111778000D01*
X132824000Y-111778000D01*
X132824000Y-112032000D01*
X132804000Y-112032000D01*
X132804000Y-112831250D01*
X132962750Y-112990000D01*
X133177000Y-112993072D01*
X133301482Y-112980812D01*
X133421180Y-112944502D01*
X133477000Y-112914665D01*
X133489501Y-112921347D01*
X133489501Y-113149727D01*
X133447376Y-113167176D01*
X133261480Y-113291388D01*
X133103388Y-113449480D01*
X132979176Y-113635376D01*
X132893617Y-113841933D01*
X132850000Y-114061212D01*
X132850000Y-114284788D01*
X132893617Y-114504067D01*
X132959653Y-114663492D01*
X132845735Y-114833983D01*
X132760176Y-115040540D01*
X132716559Y-115259819D01*
X132716559Y-115483395D01*
X132724483Y-115523233D01*
X132683250Y-115482000D01*
X132629606Y-115481708D01*
X132666129Y-100799618D01*
X132839388Y-100799618D01*
X133058667Y-100756001D01*
X133265224Y-100670442D01*
X133451120Y-100546230D01*
X133609212Y-100388138D01*
X133733424Y-100202242D01*
X133818983Y-99995685D01*
X133862600Y-99776406D01*
X133862600Y-99552830D01*
X133818983Y-99333551D01*
X133733424Y-99126994D01*
X133609212Y-98941098D01*
X133507745Y-98839631D01*
X133503705Y-98798609D01*
X133474481Y-98702272D01*
X134112600Y-98702272D01*
X134237082Y-98690012D01*
X134356780Y-98653702D01*
X134467094Y-98594737D01*
X134563785Y-98515385D01*
X134643137Y-98418694D01*
X134702102Y-98308380D01*
X134738412Y-98188682D01*
X134750672Y-98064200D01*
X134750672Y-97912521D01*
X134750993Y-97912200D01*
X135403528Y-97912200D01*
X135406600Y-98276450D01*
X135565350Y-98435200D01*
X136664600Y-98435200D01*
X136664600Y-97435950D01*
X136505850Y-97277200D01*
X136041600Y-97274128D01*
X135917118Y-97286388D01*
X135797420Y-97322698D01*
X135687106Y-97381663D01*
X135590415Y-97461015D01*
X135511063Y-97557706D01*
X135452098Y-97668020D01*
X135415788Y-97787718D01*
X135403528Y-97912200D01*
X134750993Y-97912200D01*
X135577189Y-97086005D01*
X135609164Y-97059764D01*
X135713909Y-96932132D01*
X135791742Y-96786517D01*
X135839671Y-96628516D01*
X135851800Y-96505370D01*
X135851800Y-96505363D01*
X135855854Y-96464200D01*
X135851800Y-96423037D01*
X135851800Y-95085000D01*
X139597820Y-95085000D01*
X139636500Y-95088810D01*
X139675180Y-95085000D01*
X139675183Y-95085000D01*
X139790877Y-95073605D01*
X139939321Y-95028575D01*
X140025806Y-94982348D01*
X140048815Y-95010385D01*
X140145506Y-95089737D01*
X140255820Y-95148702D01*
X140375518Y-95185012D01*
X140500000Y-95197272D01*
X141008000Y-95197272D01*
X141132482Y-95185012D01*
X141224677Y-95157045D01*
X141304907Y-95182850D01*
X141408050Y-95194200D01*
X141566800Y-95035450D01*
X141566800Y-94860818D01*
X141597502Y-94803380D01*
X141633812Y-94683682D01*
X141646072Y-94559200D01*
X141646072Y-93777200D01*
X141741528Y-93777200D01*
X141741528Y-94559200D01*
X141741528Y-94559200D01*
G37*
X141741528Y-94559200D02*
X141753788Y-94683682D01*
X141790098Y-94803380D01*
X141820800Y-94860818D01*
X141820800Y-95035450D01*
X141979550Y-95194200D01*
X142082693Y-95182850D01*
X142162923Y-95157045D01*
X142255118Y-95185012D01*
X142379600Y-95197272D01*
X142613534Y-95197272D01*
X142335983Y-95474824D01*
X142255118Y-95482788D01*
X142163700Y-95510519D01*
X142072282Y-95482788D01*
X141947800Y-95470528D01*
X141439800Y-95470528D01*
X141315318Y-95482788D01*
X141223900Y-95510519D01*
X141132482Y-95482788D01*
X141008000Y-95470528D01*
X140500000Y-95470528D01*
X140375518Y-95482788D01*
X140255820Y-95519098D01*
X140145506Y-95578063D01*
X140048815Y-95657415D01*
X139969463Y-95754106D01*
X139910498Y-95864420D01*
X139874188Y-95984118D01*
X139861928Y-96108600D01*
X139861928Y-97170565D01*
X139825082Y-97159388D01*
X139700600Y-97147128D01*
X139236350Y-97150200D01*
X139077600Y-97308950D01*
X139077600Y-98308200D01*
X139097600Y-98308200D01*
X139097600Y-98562200D01*
X139077600Y-98562200D01*
X139077600Y-98582200D01*
X138823600Y-98582200D01*
X138823600Y-98562200D01*
X138803600Y-98562200D01*
X138803600Y-98308200D01*
X138823600Y-98308200D01*
X138823600Y-97308950D01*
X138664850Y-97150200D01*
X138200600Y-97147128D01*
X138076118Y-97159388D01*
X137956420Y-97195698D01*
X137846106Y-97254663D01*
X137769297Y-97317698D01*
X137666082Y-97286388D01*
X137541600Y-97274128D01*
X137077350Y-97277200D01*
X136918600Y-97435950D01*
X136918600Y-98435200D01*
X136938600Y-98435200D01*
X136938600Y-98689200D01*
X136918600Y-98689200D01*
X136918600Y-98709200D01*
X136664600Y-98709200D01*
X136664600Y-98689200D01*
X135565350Y-98689200D01*
X135406600Y-98847950D01*
X135403528Y-99212200D01*
X135415788Y-99336682D01*
X135452098Y-99456380D01*
X135481935Y-99512200D01*
X135452098Y-99568020D01*
X135415788Y-99687718D01*
X135403528Y-99812200D01*
X135403528Y-101112200D01*
X135415788Y-101236682D01*
X135452098Y-101356380D01*
X135511063Y-101466694D01*
X135590415Y-101563385D01*
X135687106Y-101642737D01*
X135797420Y-101701702D01*
X135885926Y-101728550D01*
X135832415Y-101772465D01*
X135753063Y-101869156D01*
X135694098Y-101979470D01*
X135657788Y-102099168D01*
X135645528Y-102223650D01*
X135645528Y-102642750D01*
X135656910Y-102758320D01*
X135645528Y-102873890D01*
X135645528Y-103292990D01*
X135657342Y-103412941D01*
X135648600Y-103492381D01*
X135694912Y-103538693D01*
X135753063Y-103647484D01*
X135824270Y-103734251D01*
X135759044Y-103811082D01*
X135698249Y-103920399D01*
X135695910Y-103927671D01*
X135648600Y-103974981D01*
X135657824Y-104058799D01*
X135648600Y-104142618D01*
X135695910Y-104189928D01*
X135698249Y-104197200D01*
X135759044Y-104306517D01*
X135824270Y-104383348D01*
X135753063Y-104470115D01*
X135694912Y-104578906D01*
X135648600Y-104625218D01*
X135657342Y-104704658D01*
X135645528Y-104824609D01*
X135645528Y-105243709D01*
X135656910Y-105359280D01*
X135645528Y-105474850D01*
X135645528Y-105893950D01*
X135657788Y-106018432D01*
X135694098Y-106138130D01*
X135753063Y-106248444D01*
X135832415Y-106345135D01*
X135929106Y-106424487D01*
X136039420Y-106483452D01*
X136094613Y-106500194D01*
X136103115Y-106528222D01*
X136140458Y-106651326D01*
X136218291Y-106796941D01*
X136261590Y-106849701D01*
X136261590Y-106918788D01*
X136279715Y-107009908D01*
X136221071Y-106985617D01*
X136001792Y-106942000D01*
X135778216Y-106942000D01*
X135558937Y-106985617D01*
X135352380Y-107071176D01*
X135347172Y-107074656D01*
X135307537Y-107000506D01*
X135228185Y-106903815D01*
X135131494Y-106824463D01*
X135021180Y-106765498D01*
X134901482Y-106729188D01*
X134777000Y-106716928D01*
X133777000Y-106716928D01*
X133652518Y-106729188D01*
X133532820Y-106765498D01*
X133477000Y-106795335D01*
X133421180Y-106765498D01*
X133301482Y-106729188D01*
X133177000Y-106716928D01*
X132962750Y-106720000D01*
X132804000Y-106878750D01*
X132804000Y-107678000D01*
X132824000Y-107678000D01*
X132824000Y-107932000D01*
X132804000Y-107932000D01*
X132804000Y-108731250D01*
X132962750Y-108890000D01*
X133177000Y-108893072D01*
X133301482Y-108880812D01*
X133421180Y-108844502D01*
X133439001Y-108834977D01*
X133439001Y-109118941D01*
X133411867Y-109152004D01*
X133334053Y-109297584D01*
X133286135Y-109455547D01*
X133274009Y-109578663D01*
X133274009Y-109578673D01*
X133269956Y-109619823D01*
X133274009Y-109660973D01*
X133274009Y-110429427D01*
X133269956Y-110470577D01*
X133274009Y-110511727D01*
X133274009Y-110511738D01*
X133286136Y-110634854D01*
X133292219Y-110654907D01*
X133334053Y-110792816D01*
X133363560Y-110848019D01*
X133301482Y-110829188D01*
X133177000Y-110816928D01*
X132962750Y-110820000D01*
X132804000Y-110978750D01*
X132804000Y-111778000D01*
X132824000Y-111778000D01*
X132824000Y-112032000D01*
X132804000Y-112032000D01*
X132804000Y-112831250D01*
X132962750Y-112990000D01*
X133177000Y-112993072D01*
X133301482Y-112980812D01*
X133421180Y-112944502D01*
X133477000Y-112914665D01*
X133489501Y-112921347D01*
X133489501Y-113149727D01*
X133447376Y-113167176D01*
X133261480Y-113291388D01*
X133103388Y-113449480D01*
X132979176Y-113635376D01*
X132893617Y-113841933D01*
X132850000Y-114061212D01*
X132850000Y-114284788D01*
X132893617Y-114504067D01*
X132959653Y-114663492D01*
X132845735Y-114833983D01*
X132760176Y-115040540D01*
X132716559Y-115259819D01*
X132716559Y-115483395D01*
X132724483Y-115523233D01*
X132683250Y-115482000D01*
X132629606Y-115481708D01*
X132666129Y-100799618D01*
X132839388Y-100799618D01*
X133058667Y-100756001D01*
X133265224Y-100670442D01*
X133451120Y-100546230D01*
X133609212Y-100388138D01*
X133733424Y-100202242D01*
X133818983Y-99995685D01*
X133862600Y-99776406D01*
X133862600Y-99552830D01*
X133818983Y-99333551D01*
X133733424Y-99126994D01*
X133609212Y-98941098D01*
X133507745Y-98839631D01*
X133503705Y-98798609D01*
X133474481Y-98702272D01*
X134112600Y-98702272D01*
X134237082Y-98690012D01*
X134356780Y-98653702D01*
X134467094Y-98594737D01*
X134563785Y-98515385D01*
X134643137Y-98418694D01*
X134702102Y-98308380D01*
X134738412Y-98188682D01*
X134750672Y-98064200D01*
X134750672Y-97912521D01*
X134750993Y-97912200D01*
X135403528Y-97912200D01*
X135406600Y-98276450D01*
X135565350Y-98435200D01*
X136664600Y-98435200D01*
X136664600Y-97435950D01*
X136505850Y-97277200D01*
X136041600Y-97274128D01*
X135917118Y-97286388D01*
X135797420Y-97322698D01*
X135687106Y-97381663D01*
X135590415Y-97461015D01*
X135511063Y-97557706D01*
X135452098Y-97668020D01*
X135415788Y-97787718D01*
X135403528Y-97912200D01*
X134750993Y-97912200D01*
X135577189Y-97086005D01*
X135609164Y-97059764D01*
X135713909Y-96932132D01*
X135791742Y-96786517D01*
X135839671Y-96628516D01*
X135851800Y-96505370D01*
X135851800Y-96505363D01*
X135855854Y-96464200D01*
X135851800Y-96423037D01*
X135851800Y-95085000D01*
X139597820Y-95085000D01*
X139636500Y-95088810D01*
X139675180Y-95085000D01*
X139675183Y-95085000D01*
X139790877Y-95073605D01*
X139939321Y-95028575D01*
X140025806Y-94982348D01*
X140048815Y-95010385D01*
X140145506Y-95089737D01*
X140255820Y-95148702D01*
X140375518Y-95185012D01*
X140500000Y-95197272D01*
X141008000Y-95197272D01*
X141132482Y-95185012D01*
X141224677Y-95157045D01*
X141304907Y-95182850D01*
X141408050Y-95194200D01*
X141566800Y-95035450D01*
X141566800Y-94860818D01*
X141597502Y-94803380D01*
X141633812Y-94683682D01*
X141646072Y-94559200D01*
X141646072Y-93777200D01*
X141741528Y-93777200D01*
X141741528Y-94559200D01*
G36*
X157719510Y-107700797D02*
G01*
X157763127Y-107920076D01*
X157848686Y-108126633D01*
X157972898Y-108312529D01*
X158130990Y-108470621D01*
X158316886Y-108594833D01*
X158523443Y-108680392D01*
X158742722Y-108724009D01*
X158966298Y-108724009D01*
X159185577Y-108680392D01*
X159392134Y-108594833D01*
X159437186Y-108564730D01*
X159437538Y-108565889D01*
X159496503Y-108676203D01*
X159575855Y-108772894D01*
X159672038Y-108851830D01*
X159646388Y-108877480D01*
X159522176Y-109063376D01*
X159436617Y-109269933D01*
X159393000Y-109489212D01*
X159393000Y-109712788D01*
X159436617Y-109932067D01*
X159486500Y-110052495D01*
X159486501Y-112703576D01*
X159482690Y-112742266D01*
X159491455Y-112831250D01*
X159497896Y-112896643D01*
X159528116Y-112996265D01*
X159542926Y-113045087D01*
X159604045Y-113159434D01*
X159606037Y-113179656D01*
X159659530Y-113355998D01*
X159746397Y-113518516D01*
X159834008Y-113625270D01*
X159842866Y-113634128D01*
X159802600Y-113634128D01*
X159678118Y-113646388D01*
X159558420Y-113682698D01*
X159448106Y-113741663D01*
X159351415Y-113821015D01*
X159272063Y-113917706D01*
X159213098Y-114028020D01*
X159176788Y-114147718D01*
X159164528Y-114272200D01*
X159164528Y-114672417D01*
X156198105Y-111705995D01*
X156170564Y-111672436D01*
X156042931Y-111567691D01*
X155897316Y-111489859D01*
X155739315Y-111441930D01*
X155574999Y-111425746D01*
X155410685Y-111441930D01*
X155403858Y-111444001D01*
X153139906Y-111444001D01*
X153206895Y-111343745D01*
X153292454Y-111137188D01*
X153336071Y-110917909D01*
X153336071Y-110694333D01*
X153301930Y-110522692D01*
X153342543Y-110535012D01*
X153349188Y-110602482D01*
X153385498Y-110722180D01*
X153444463Y-110832494D01*
X153523815Y-110929185D01*
X153620506Y-111008537D01*
X153730820Y-111067502D01*
X153850518Y-111103812D01*
X153975000Y-111116072D01*
X155275000Y-111116072D01*
X155399482Y-111103812D01*
X155519180Y-111067502D01*
X155575000Y-111037665D01*
X155630820Y-111067502D01*
X155750518Y-111103812D01*
X155875000Y-111116072D01*
X156239250Y-111113000D01*
X156398000Y-110954250D01*
X156398000Y-109855000D01*
X156652000Y-109855000D01*
X156652000Y-110954250D01*
X156810750Y-111113000D01*
X157175000Y-111116072D01*
X157299482Y-111103812D01*
X157419180Y-111067502D01*
X157529494Y-111008537D01*
X157626185Y-110929185D01*
X157705537Y-110832494D01*
X157764502Y-110722180D01*
X157800812Y-110602482D01*
X157813072Y-110478000D01*
X157810000Y-110013750D01*
X157651250Y-109855000D01*
X156652000Y-109855000D01*
X156398000Y-109855000D01*
X156378000Y-109855000D01*
X156378000Y-109601000D01*
X156398000Y-109601000D01*
X156398000Y-108501750D01*
X156652000Y-108501750D01*
X156652000Y-109601000D01*
X157651250Y-109601000D01*
X157810000Y-109442250D01*
X157813072Y-108978000D01*
X157800812Y-108853518D01*
X157764502Y-108733820D01*
X157705537Y-108623506D01*
X157626185Y-108526815D01*
X157529494Y-108447463D01*
X157419180Y-108388498D01*
X157299482Y-108352188D01*
X157175000Y-108339928D01*
X156810750Y-108343000D01*
X156652000Y-108501750D01*
X156398000Y-108501750D01*
X156239250Y-108343000D01*
X156083169Y-108341684D01*
X156085113Y-108321950D01*
X156085113Y-108300600D01*
X156529437Y-108300600D01*
X156570600Y-108304654D01*
X156611763Y-108300600D01*
X156611770Y-108300600D01*
X156734916Y-108288471D01*
X156892917Y-108240542D01*
X157038532Y-108162709D01*
X157166164Y-108057964D01*
X157192411Y-108025982D01*
X157697595Y-107520799D01*
X157719510Y-107520799D01*
X157719510Y-107700797D01*
X157719510Y-107700797D01*
G37*
X157719510Y-107700797D02*
X157763127Y-107920076D01*
X157848686Y-108126633D01*
X157972898Y-108312529D01*
X158130990Y-108470621D01*
X158316886Y-108594833D01*
X158523443Y-108680392D01*
X158742722Y-108724009D01*
X158966298Y-108724009D01*
X159185577Y-108680392D01*
X159392134Y-108594833D01*
X159437186Y-108564730D01*
X159437538Y-108565889D01*
X159496503Y-108676203D01*
X159575855Y-108772894D01*
X159672038Y-108851830D01*
X159646388Y-108877480D01*
X159522176Y-109063376D01*
X159436617Y-109269933D01*
X159393000Y-109489212D01*
X159393000Y-109712788D01*
X159436617Y-109932067D01*
X159486500Y-110052495D01*
X159486501Y-112703576D01*
X159482690Y-112742266D01*
X159491455Y-112831250D01*
X159497896Y-112896643D01*
X159528116Y-112996265D01*
X159542926Y-113045087D01*
X159604045Y-113159434D01*
X159606037Y-113179656D01*
X159659530Y-113355998D01*
X159746397Y-113518516D01*
X159834008Y-113625270D01*
X159842866Y-113634128D01*
X159802600Y-113634128D01*
X159678118Y-113646388D01*
X159558420Y-113682698D01*
X159448106Y-113741663D01*
X159351415Y-113821015D01*
X159272063Y-113917706D01*
X159213098Y-114028020D01*
X159176788Y-114147718D01*
X159164528Y-114272200D01*
X159164528Y-114672417D01*
X156198105Y-111705995D01*
X156170564Y-111672436D01*
X156042931Y-111567691D01*
X155897316Y-111489859D01*
X155739315Y-111441930D01*
X155574999Y-111425746D01*
X155410685Y-111441930D01*
X155403858Y-111444001D01*
X153139906Y-111444001D01*
X153206895Y-111343745D01*
X153292454Y-111137188D01*
X153336071Y-110917909D01*
X153336071Y-110694333D01*
X153301930Y-110522692D01*
X153342543Y-110535012D01*
X153349188Y-110602482D01*
X153385498Y-110722180D01*
X153444463Y-110832494D01*
X153523815Y-110929185D01*
X153620506Y-111008537D01*
X153730820Y-111067502D01*
X153850518Y-111103812D01*
X153975000Y-111116072D01*
X155275000Y-111116072D01*
X155399482Y-111103812D01*
X155519180Y-111067502D01*
X155575000Y-111037665D01*
X155630820Y-111067502D01*
X155750518Y-111103812D01*
X155875000Y-111116072D01*
X156239250Y-111113000D01*
X156398000Y-110954250D01*
X156398000Y-109855000D01*
X156652000Y-109855000D01*
X156652000Y-110954250D01*
X156810750Y-111113000D01*
X157175000Y-111116072D01*
X157299482Y-111103812D01*
X157419180Y-111067502D01*
X157529494Y-111008537D01*
X157626185Y-110929185D01*
X157705537Y-110832494D01*
X157764502Y-110722180D01*
X157800812Y-110602482D01*
X157813072Y-110478000D01*
X157810000Y-110013750D01*
X157651250Y-109855000D01*
X156652000Y-109855000D01*
X156398000Y-109855000D01*
X156378000Y-109855000D01*
X156378000Y-109601000D01*
X156398000Y-109601000D01*
X156398000Y-108501750D01*
X156652000Y-108501750D01*
X156652000Y-109601000D01*
X157651250Y-109601000D01*
X157810000Y-109442250D01*
X157813072Y-108978000D01*
X157800812Y-108853518D01*
X157764502Y-108733820D01*
X157705537Y-108623506D01*
X157626185Y-108526815D01*
X157529494Y-108447463D01*
X157419180Y-108388498D01*
X157299482Y-108352188D01*
X157175000Y-108339928D01*
X156810750Y-108343000D01*
X156652000Y-108501750D01*
X156398000Y-108501750D01*
X156239250Y-108343000D01*
X156083169Y-108341684D01*
X156085113Y-108321950D01*
X156085113Y-108300600D01*
X156529437Y-108300600D01*
X156570600Y-108304654D01*
X156611763Y-108300600D01*
X156611770Y-108300600D01*
X156734916Y-108288471D01*
X156892917Y-108240542D01*
X157038532Y-108162709D01*
X157166164Y-108057964D01*
X157192411Y-108025982D01*
X157697595Y-107520799D01*
X157719510Y-107520799D01*
X157719510Y-107700797D01*
G36*
X163850119Y-113094921D02*
G01*
X163806849Y-113042197D01*
X163754541Y-112978459D01*
X163724491Y-112953798D01*
X162257998Y-111487306D01*
X162257998Y-110795540D01*
X162328950Y-110709084D01*
X162402075Y-110572277D01*
X162447105Y-110423833D01*
X162458500Y-110308139D01*
X162462310Y-110269456D01*
X162458500Y-110230773D01*
X162458500Y-107797267D01*
X162462310Y-107758586D01*
X162458500Y-107719903D01*
X162447105Y-107604209D01*
X162402075Y-107455765D01*
X162328950Y-107318958D01*
X162230541Y-107199045D01*
X162200486Y-107174380D01*
X161958539Y-106932433D01*
X161935112Y-106903887D01*
X161935112Y-106637119D01*
X161972770Y-106693478D01*
X162130862Y-106851570D01*
X162316758Y-106975782D01*
X162523315Y-107061341D01*
X162742594Y-107104958D01*
X162966170Y-107104958D01*
X163185449Y-107061341D01*
X163392006Y-106975782D01*
X163577902Y-106851570D01*
X163735994Y-106693478D01*
X163850119Y-106522679D01*
X163850119Y-113094921D01*
X163850119Y-113094921D01*
G37*
X163850119Y-113094921D02*
X163806849Y-113042197D01*
X163754541Y-112978459D01*
X163724491Y-112953798D01*
X162257998Y-111487306D01*
X162257998Y-110795540D01*
X162328950Y-110709084D01*
X162402075Y-110572277D01*
X162447105Y-110423833D01*
X162458500Y-110308139D01*
X162462310Y-110269456D01*
X162458500Y-110230773D01*
X162458500Y-107797267D01*
X162462310Y-107758586D01*
X162458500Y-107719903D01*
X162447105Y-107604209D01*
X162402075Y-107455765D01*
X162328950Y-107318958D01*
X162230541Y-107199045D01*
X162200486Y-107174380D01*
X161958539Y-106932433D01*
X161935112Y-106903887D01*
X161935112Y-106637119D01*
X161972770Y-106693478D01*
X162130862Y-106851570D01*
X162316758Y-106975782D01*
X162523315Y-107061341D01*
X162742594Y-107104958D01*
X162966170Y-107104958D01*
X163185449Y-107061341D01*
X163392006Y-106975782D01*
X163577902Y-106851570D01*
X163735994Y-106693478D01*
X163850119Y-106522679D01*
X163850119Y-113094921D01*
G36*
X148729600Y-108292857D02*
G01*
X148637820Y-108320698D01*
X148527506Y-108379663D01*
X148430815Y-108459015D01*
X148351463Y-108555706D01*
X148292498Y-108666020D01*
X148256188Y-108785718D01*
X148243928Y-108910200D01*
X148243928Y-109418200D01*
X148256188Y-109542682D01*
X148283919Y-109634100D01*
X148256188Y-109725518D01*
X148243928Y-109850000D01*
X148243928Y-110358000D01*
X148256188Y-110482482D01*
X148283919Y-110573900D01*
X148256188Y-110665318D01*
X148243928Y-110789800D01*
X148243928Y-111297800D01*
X148256188Y-111422282D01*
X148292498Y-111541980D01*
X148351463Y-111652294D01*
X148430815Y-111748985D01*
X148527506Y-111828337D01*
X148637820Y-111887302D01*
X148757518Y-111923612D01*
X148882000Y-111935872D01*
X149676522Y-111935872D01*
X150122998Y-112382349D01*
X150122998Y-112458748D01*
X149964250Y-112300000D01*
X149800000Y-112296928D01*
X149675518Y-112309188D01*
X149615000Y-112327546D01*
X149554482Y-112309188D01*
X149430000Y-112296928D01*
X148530000Y-112296928D01*
X148405518Y-112309188D01*
X148345000Y-112327546D01*
X148284482Y-112309188D01*
X148160000Y-112296928D01*
X147260000Y-112296928D01*
X147135518Y-112309188D01*
X147075000Y-112327546D01*
X147014482Y-112309188D01*
X146890000Y-112296928D01*
X145990000Y-112296928D01*
X145865518Y-112309188D01*
X145805000Y-112327546D01*
X145744482Y-112309188D01*
X145620000Y-112296928D01*
X144720000Y-112296928D01*
X144595518Y-112309188D01*
X144535000Y-112327546D01*
X144474482Y-112309188D01*
X144350000Y-112296928D01*
X143450000Y-112296928D01*
X143325518Y-112309188D01*
X143265000Y-112327546D01*
X143204482Y-112309188D01*
X143080000Y-112296928D01*
X142365828Y-112296928D01*
X142395987Y-112288267D01*
X142507166Y-112230950D01*
X142605026Y-112153044D01*
X142685808Y-112057543D01*
X142746406Y-111948118D01*
X142784491Y-111828973D01*
X142795600Y-111726950D01*
X142658325Y-111589675D01*
X142691137Y-111549694D01*
X142750102Y-111439380D01*
X142763353Y-111395697D01*
X142795600Y-111363450D01*
X142791909Y-111329550D01*
X145427600Y-111329550D01*
X145438950Y-111432693D01*
X145477249Y-111551769D01*
X145538044Y-111661086D01*
X145618996Y-111756441D01*
X145716996Y-111834171D01*
X145828278Y-111891289D01*
X145948564Y-111925599D01*
X146073233Y-111935783D01*
X146411850Y-111932800D01*
X146570600Y-111774050D01*
X146570600Y-111170800D01*
X146824600Y-111170800D01*
X146824600Y-111774050D01*
X146983350Y-111932800D01*
X147321967Y-111935783D01*
X147446636Y-111925599D01*
X147566922Y-111891289D01*
X147678204Y-111834171D01*
X147776204Y-111756441D01*
X147857156Y-111661086D01*
X147917951Y-111551769D01*
X147956250Y-111432693D01*
X147967600Y-111329550D01*
X147808850Y-111170800D01*
X146824600Y-111170800D01*
X146570600Y-111170800D01*
X145586350Y-111170800D01*
X145427600Y-111329550D01*
X142791909Y-111329550D01*
X142788512Y-111298357D01*
X142798156Y-111200439D01*
X143017212Y-111244012D01*
X143240788Y-111244012D01*
X143460067Y-111200395D01*
X143666624Y-111114836D01*
X143852520Y-110990624D01*
X143892198Y-110950946D01*
X143932138Y-110947012D01*
X143932149Y-110947012D01*
X143983036Y-110942000D01*
X145808127Y-110942000D01*
X145818420Y-110947502D01*
X145938118Y-110983812D01*
X146062600Y-110996072D01*
X147332600Y-110996072D01*
X147457082Y-110983812D01*
X147576780Y-110947502D01*
X147634218Y-110916800D01*
X147808850Y-110916800D01*
X147967600Y-110758050D01*
X147956250Y-110654907D01*
X147930445Y-110574677D01*
X147958412Y-110482482D01*
X147970672Y-110358000D01*
X147970672Y-109850000D01*
X147958412Y-109725518D01*
X147930681Y-109634100D01*
X147958412Y-109542682D01*
X147970672Y-109418200D01*
X147970672Y-108910200D01*
X147958412Y-108785718D01*
X147922102Y-108666020D01*
X147866000Y-108561062D01*
X147866000Y-107354965D01*
X147982812Y-107378200D01*
X148206388Y-107378200D01*
X148425667Y-107334583D01*
X148632224Y-107249024D01*
X148729601Y-107183959D01*
X148729600Y-108292857D01*
X148729600Y-108292857D01*
G37*
X148729600Y-108292857D02*
X148637820Y-108320698D01*
X148527506Y-108379663D01*
X148430815Y-108459015D01*
X148351463Y-108555706D01*
X148292498Y-108666020D01*
X148256188Y-108785718D01*
X148243928Y-108910200D01*
X148243928Y-109418200D01*
X148256188Y-109542682D01*
X148283919Y-109634100D01*
X148256188Y-109725518D01*
X148243928Y-109850000D01*
X148243928Y-110358000D01*
X148256188Y-110482482D01*
X148283919Y-110573900D01*
X148256188Y-110665318D01*
X148243928Y-110789800D01*
X148243928Y-111297800D01*
X148256188Y-111422282D01*
X148292498Y-111541980D01*
X148351463Y-111652294D01*
X148430815Y-111748985D01*
X148527506Y-111828337D01*
X148637820Y-111887302D01*
X148757518Y-111923612D01*
X148882000Y-111935872D01*
X149676522Y-111935872D01*
X150122998Y-112382349D01*
X150122998Y-112458748D01*
X149964250Y-112300000D01*
X149800000Y-112296928D01*
X149675518Y-112309188D01*
X149615000Y-112327546D01*
X149554482Y-112309188D01*
X149430000Y-112296928D01*
X148530000Y-112296928D01*
X148405518Y-112309188D01*
X148345000Y-112327546D01*
X148284482Y-112309188D01*
X148160000Y-112296928D01*
X147260000Y-112296928D01*
X147135518Y-112309188D01*
X147075000Y-112327546D01*
X147014482Y-112309188D01*
X146890000Y-112296928D01*
X145990000Y-112296928D01*
X145865518Y-112309188D01*
X145805000Y-112327546D01*
X145744482Y-112309188D01*
X145620000Y-112296928D01*
X144720000Y-112296928D01*
X144595518Y-112309188D01*
X144535000Y-112327546D01*
X144474482Y-112309188D01*
X144350000Y-112296928D01*
X143450000Y-112296928D01*
X143325518Y-112309188D01*
X143265000Y-112327546D01*
X143204482Y-112309188D01*
X143080000Y-112296928D01*
X142365828Y-112296928D01*
X142395987Y-112288267D01*
X142507166Y-112230950D01*
X142605026Y-112153044D01*
X142685808Y-112057543D01*
X142746406Y-111948118D01*
X142784491Y-111828973D01*
X142795600Y-111726950D01*
X142658325Y-111589675D01*
X142691137Y-111549694D01*
X142750102Y-111439380D01*
X142763353Y-111395697D01*
X142795600Y-111363450D01*
X142791909Y-111329550D01*
X145427600Y-111329550D01*
X145438950Y-111432693D01*
X145477249Y-111551769D01*
X145538044Y-111661086D01*
X145618996Y-111756441D01*
X145716996Y-111834171D01*
X145828278Y-111891289D01*
X145948564Y-111925599D01*
X146073233Y-111935783D01*
X146411850Y-111932800D01*
X146570600Y-111774050D01*
X146570600Y-111170800D01*
X146824600Y-111170800D01*
X146824600Y-111774050D01*
X146983350Y-111932800D01*
X147321967Y-111935783D01*
X147446636Y-111925599D01*
X147566922Y-111891289D01*
X147678204Y-111834171D01*
X147776204Y-111756441D01*
X147857156Y-111661086D01*
X147917951Y-111551769D01*
X147956250Y-111432693D01*
X147967600Y-111329550D01*
X147808850Y-111170800D01*
X146824600Y-111170800D01*
X146570600Y-111170800D01*
X145586350Y-111170800D01*
X145427600Y-111329550D01*
X142791909Y-111329550D01*
X142788512Y-111298357D01*
X142798156Y-111200439D01*
X143017212Y-111244012D01*
X143240788Y-111244012D01*
X143460067Y-111200395D01*
X143666624Y-111114836D01*
X143852520Y-110990624D01*
X143892198Y-110950946D01*
X143932138Y-110947012D01*
X143932149Y-110947012D01*
X143983036Y-110942000D01*
X145808127Y-110942000D01*
X145818420Y-110947502D01*
X145938118Y-110983812D01*
X146062600Y-110996072D01*
X147332600Y-110996072D01*
X147457082Y-110983812D01*
X147576780Y-110947502D01*
X147634218Y-110916800D01*
X147808850Y-110916800D01*
X147967600Y-110758050D01*
X147956250Y-110654907D01*
X147930445Y-110574677D01*
X147958412Y-110482482D01*
X147970672Y-110358000D01*
X147970672Y-109850000D01*
X147958412Y-109725518D01*
X147930681Y-109634100D01*
X147958412Y-109542682D01*
X147970672Y-109418200D01*
X147970672Y-108910200D01*
X147958412Y-108785718D01*
X147922102Y-108666020D01*
X147866000Y-108561062D01*
X147866000Y-107354965D01*
X147982812Y-107378200D01*
X148206388Y-107378200D01*
X148425667Y-107334583D01*
X148632224Y-107249024D01*
X148729601Y-107183959D01*
X148729600Y-108292857D01*
G36*
X152425793Y-107002187D02*
G01*
X152452036Y-107034164D01*
X152484012Y-107060406D01*
X152484014Y-107060408D01*
X152540972Y-107107152D01*
X152579668Y-107138909D01*
X152686577Y-107196053D01*
X152704801Y-107218259D01*
X152704800Y-108938769D01*
X152705000Y-108940800D01*
X152705000Y-109660850D01*
X152700947Y-109702000D01*
X152705000Y-109743150D01*
X152705000Y-109743160D01*
X152709434Y-109788177D01*
X152532138Y-109714738D01*
X152312859Y-109671121D01*
X152179622Y-109671121D01*
X152057000Y-109548499D01*
X152057000Y-106633394D01*
X152425793Y-107002187D01*
X152425793Y-107002187D01*
G37*
X152425793Y-107002187D02*
X152452036Y-107034164D01*
X152484012Y-107060406D01*
X152484014Y-107060408D01*
X152540972Y-107107152D01*
X152579668Y-107138909D01*
X152686577Y-107196053D01*
X152704801Y-107218259D01*
X152704800Y-108938769D01*
X152705000Y-108940800D01*
X152705000Y-109660850D01*
X152700947Y-109702000D01*
X152705000Y-109743150D01*
X152705000Y-109743160D01*
X152709434Y-109788177D01*
X152532138Y-109714738D01*
X152312859Y-109671121D01*
X152179622Y-109671121D01*
X152057000Y-109548499D01*
X152057000Y-106633394D01*
X152425793Y-107002187D01*
G36*
X137879289Y-107911678D02*
G01*
X137801690Y-107989277D01*
X137677478Y-108175173D01*
X137591919Y-108381730D01*
X137548302Y-108601009D01*
X137548302Y-108824585D01*
X137564308Y-108905051D01*
X137515094Y-108864663D01*
X137404780Y-108805698D01*
X137285082Y-108769388D01*
X137184326Y-108759465D01*
X137186605Y-108751953D01*
X137201808Y-108597595D01*
X137186605Y-108443239D01*
X137141582Y-108294814D01*
X137068465Y-108158024D01*
X137025004Y-108105067D01*
X137025004Y-107965212D01*
X137006879Y-107874092D01*
X137065523Y-107898383D01*
X137284802Y-107942000D01*
X137508378Y-107942000D01*
X137727657Y-107898383D01*
X137825476Y-107857865D01*
X137879289Y-107911678D01*
X137879289Y-107911678D01*
G37*
X137879289Y-107911678D02*
X137801690Y-107989277D01*
X137677478Y-108175173D01*
X137591919Y-108381730D01*
X137548302Y-108601009D01*
X137548302Y-108824585D01*
X137564308Y-108905051D01*
X137515094Y-108864663D01*
X137404780Y-108805698D01*
X137285082Y-108769388D01*
X137184326Y-108759465D01*
X137186605Y-108751953D01*
X137201808Y-108597595D01*
X137186605Y-108443239D01*
X137141582Y-108294814D01*
X137068465Y-108158024D01*
X137025004Y-108105067D01*
X137025004Y-107965212D01*
X137006879Y-107874092D01*
X137065523Y-107898383D01*
X137284802Y-107942000D01*
X137508378Y-107942000D01*
X137727657Y-107898383D01*
X137825476Y-107857865D01*
X137879289Y-107911678D01*
G36*
X146316600Y-105450450D02*
G01*
X146336202Y-105470052D01*
X146302594Y-105580844D01*
X146291200Y-105696528D01*
X146291200Y-105696537D01*
X146287392Y-105735200D01*
X146291200Y-105773863D01*
X146291201Y-108272128D01*
X146176053Y-108272128D01*
X146169612Y-108262489D01*
X146011520Y-108104397D01*
X145825624Y-107980185D01*
X145619067Y-107894626D01*
X145399788Y-107851009D01*
X145176212Y-107851009D01*
X144998672Y-107886324D01*
X144998672Y-107525200D01*
X144986412Y-107400718D01*
X144955805Y-107299820D01*
X145078436Y-107249024D01*
X145264332Y-107124812D01*
X145422424Y-106966720D01*
X145546636Y-106780824D01*
X145632195Y-106574267D01*
X145675812Y-106354988D01*
X145675812Y-106131412D01*
X145632195Y-105912133D01*
X145546636Y-105705576D01*
X145484090Y-105611970D01*
X145903850Y-105609200D01*
X146062600Y-105450450D01*
X146062600Y-104962272D01*
X146316600Y-104962272D01*
X146316600Y-105450450D01*
X146316600Y-105450450D01*
G37*
X146316600Y-105450450D02*
X146336202Y-105470052D01*
X146302594Y-105580844D01*
X146291200Y-105696528D01*
X146291200Y-105696537D01*
X146287392Y-105735200D01*
X146291200Y-105773863D01*
X146291201Y-108272128D01*
X146176053Y-108272128D01*
X146169612Y-108262489D01*
X146011520Y-108104397D01*
X145825624Y-107980185D01*
X145619067Y-107894626D01*
X145399788Y-107851009D01*
X145176212Y-107851009D01*
X144998672Y-107886324D01*
X144998672Y-107525200D01*
X144986412Y-107400718D01*
X144955805Y-107299820D01*
X145078436Y-107249024D01*
X145264332Y-107124812D01*
X145422424Y-106966720D01*
X145546636Y-106780824D01*
X145632195Y-106574267D01*
X145675812Y-106354988D01*
X145675812Y-106131412D01*
X145632195Y-105912133D01*
X145546636Y-105705576D01*
X145484090Y-105611970D01*
X145903850Y-105609200D01*
X146062600Y-105450450D01*
X146062600Y-104962272D01*
X146316600Y-104962272D01*
X146316600Y-105450450D01*
G36*
X140532585Y-98748978D02*
G01*
X140558832Y-98780960D01*
X140686464Y-98885705D01*
X140765942Y-98928187D01*
X140904763Y-99067008D01*
X141090659Y-99191220D01*
X141297216Y-99276779D01*
X141516495Y-99320396D01*
X141740071Y-99320396D01*
X141959350Y-99276779D01*
X142163914Y-99192046D01*
X142278480Y-99306612D01*
X142464376Y-99430824D01*
X142670933Y-99516383D01*
X142890212Y-99560000D01*
X143029895Y-99560000D01*
X142928840Y-99689767D01*
X142883291Y-99745269D01*
X142858724Y-99791231D01*
X142830887Y-99835291D01*
X142819896Y-99863873D01*
X142805458Y-99890884D01*
X142790327Y-99940764D01*
X142771624Y-99989400D01*
X142766420Y-100019574D01*
X142757529Y-100048885D01*
X142752421Y-100100753D01*
X142743564Y-100152109D01*
X142744347Y-100182726D01*
X142741346Y-100213200D01*
X142745600Y-100256393D01*
X142745600Y-100305689D01*
X141464755Y-101586535D01*
X141455040Y-101585578D01*
X140185040Y-101585578D01*
X140060558Y-101597838D01*
X139940860Y-101634148D01*
X139830546Y-101693113D01*
X139733855Y-101772465D01*
X139654503Y-101869156D01*
X139595538Y-101979470D01*
X139559228Y-102099168D01*
X139546968Y-102223650D01*
X139546968Y-102642750D01*
X139558782Y-102762700D01*
X139550040Y-102842140D01*
X139596351Y-102888451D01*
X139654503Y-102997244D01*
X139725712Y-103084012D01*
X139660484Y-103160845D01*
X139599689Y-103270162D01*
X139597352Y-103277428D01*
X139550040Y-103324740D01*
X139559264Y-103408561D01*
X139550040Y-103492381D01*
X139597352Y-103539693D01*
X139599689Y-103546959D01*
X139660484Y-103656276D01*
X139725710Y-103733107D01*
X139654503Y-103819874D01*
X139596348Y-103928673D01*
X139550040Y-103974981D01*
X139558782Y-104054419D01*
X139546968Y-104174368D01*
X139546968Y-104593468D01*
X139558782Y-104713419D01*
X139550040Y-104792859D01*
X139596352Y-104839171D01*
X139654503Y-104947962D01*
X139725712Y-105034731D01*
X139660484Y-105111564D01*
X139599689Y-105220881D01*
X139597352Y-105228147D01*
X139550040Y-105275459D01*
X139559264Y-105359280D01*
X139550040Y-105443100D01*
X139597352Y-105490412D01*
X139599689Y-105497678D01*
X139660484Y-105606995D01*
X139741436Y-105702350D01*
X139760653Y-105717592D01*
X139653540Y-105738898D01*
X139446983Y-105824457D01*
X139261087Y-105948669D01*
X139141200Y-106068556D01*
X139141200Y-105382760D01*
X139145254Y-105341600D01*
X139141200Y-105300440D01*
X139141200Y-105300431D01*
X139129071Y-105177285D01*
X139081142Y-105019284D01*
X139003309Y-104873669D01*
X138898564Y-104746037D01*
X138866583Y-104719791D01*
X138617370Y-104470578D01*
X138591123Y-104438596D01*
X138463491Y-104333851D01*
X138317876Y-104256018D01*
X138159875Y-104208089D01*
X138134296Y-104205570D01*
X138138951Y-104197200D01*
X138141290Y-104189928D01*
X138188600Y-104142618D01*
X138179376Y-104058799D01*
X138188600Y-103974981D01*
X138141290Y-103927671D01*
X138139086Y-103920818D01*
X138253875Y-103909512D01*
X138411876Y-103861583D01*
X138557491Y-103783750D01*
X138685123Y-103679005D01*
X138789868Y-103551373D01*
X138867701Y-103405758D01*
X138915630Y-103247757D01*
X138931814Y-103083441D01*
X138927559Y-103040240D01*
X138927559Y-102541551D01*
X139512610Y-101956501D01*
X139546164Y-101928964D01*
X139650909Y-101801332D01*
X139728742Y-101655717D01*
X139739754Y-101619416D01*
X139825082Y-101611012D01*
X139944780Y-101574702D01*
X140055094Y-101515737D01*
X140151785Y-101436385D01*
X140231137Y-101339694D01*
X140290102Y-101229380D01*
X140326412Y-101109682D01*
X140338672Y-100985200D01*
X140338672Y-99685200D01*
X140326412Y-99560718D01*
X140290102Y-99441020D01*
X140260265Y-99385200D01*
X140290102Y-99329380D01*
X140326412Y-99209682D01*
X140338672Y-99085200D01*
X140335600Y-98720950D01*
X140176852Y-98562202D01*
X140335600Y-98562202D01*
X140335600Y-98551993D01*
X140532585Y-98748978D01*
X140532585Y-98748978D01*
G37*
X140532585Y-98748978D02*
X140558832Y-98780960D01*
X140686464Y-98885705D01*
X140765942Y-98928187D01*
X140904763Y-99067008D01*
X141090659Y-99191220D01*
X141297216Y-99276779D01*
X141516495Y-99320396D01*
X141740071Y-99320396D01*
X141959350Y-99276779D01*
X142163914Y-99192046D01*
X142278480Y-99306612D01*
X142464376Y-99430824D01*
X142670933Y-99516383D01*
X142890212Y-99560000D01*
X143029895Y-99560000D01*
X142928840Y-99689767D01*
X142883291Y-99745269D01*
X142858724Y-99791231D01*
X142830887Y-99835291D01*
X142819896Y-99863873D01*
X142805458Y-99890884D01*
X142790327Y-99940764D01*
X142771624Y-99989400D01*
X142766420Y-100019574D01*
X142757529Y-100048885D01*
X142752421Y-100100753D01*
X142743564Y-100152109D01*
X142744347Y-100182726D01*
X142741346Y-100213200D01*
X142745600Y-100256393D01*
X142745600Y-100305689D01*
X141464755Y-101586535D01*
X141455040Y-101585578D01*
X140185040Y-101585578D01*
X140060558Y-101597838D01*
X139940860Y-101634148D01*
X139830546Y-101693113D01*
X139733855Y-101772465D01*
X139654503Y-101869156D01*
X139595538Y-101979470D01*
X139559228Y-102099168D01*
X139546968Y-102223650D01*
X139546968Y-102642750D01*
X139558782Y-102762700D01*
X139550040Y-102842140D01*
X139596351Y-102888451D01*
X139654503Y-102997244D01*
X139725712Y-103084012D01*
X139660484Y-103160845D01*
X139599689Y-103270162D01*
X139597352Y-103277428D01*
X139550040Y-103324740D01*
X139559264Y-103408561D01*
X139550040Y-103492381D01*
X139597352Y-103539693D01*
X139599689Y-103546959D01*
X139660484Y-103656276D01*
X139725710Y-103733107D01*
X139654503Y-103819874D01*
X139596348Y-103928673D01*
X139550040Y-103974981D01*
X139558782Y-104054419D01*
X139546968Y-104174368D01*
X139546968Y-104593468D01*
X139558782Y-104713419D01*
X139550040Y-104792859D01*
X139596352Y-104839171D01*
X139654503Y-104947962D01*
X139725712Y-105034731D01*
X139660484Y-105111564D01*
X139599689Y-105220881D01*
X139597352Y-105228147D01*
X139550040Y-105275459D01*
X139559264Y-105359280D01*
X139550040Y-105443100D01*
X139597352Y-105490412D01*
X139599689Y-105497678D01*
X139660484Y-105606995D01*
X139741436Y-105702350D01*
X139760653Y-105717592D01*
X139653540Y-105738898D01*
X139446983Y-105824457D01*
X139261087Y-105948669D01*
X139141200Y-106068556D01*
X139141200Y-105382760D01*
X139145254Y-105341600D01*
X139141200Y-105300440D01*
X139141200Y-105300431D01*
X139129071Y-105177285D01*
X139081142Y-105019284D01*
X139003309Y-104873669D01*
X138898564Y-104746037D01*
X138866583Y-104719791D01*
X138617370Y-104470578D01*
X138591123Y-104438596D01*
X138463491Y-104333851D01*
X138317876Y-104256018D01*
X138159875Y-104208089D01*
X138134296Y-104205570D01*
X138138951Y-104197200D01*
X138141290Y-104189928D01*
X138188600Y-104142618D01*
X138179376Y-104058799D01*
X138188600Y-103974981D01*
X138141290Y-103927671D01*
X138139086Y-103920818D01*
X138253875Y-103909512D01*
X138411876Y-103861583D01*
X138557491Y-103783750D01*
X138685123Y-103679005D01*
X138789868Y-103551373D01*
X138867701Y-103405758D01*
X138915630Y-103247757D01*
X138931814Y-103083441D01*
X138927559Y-103040240D01*
X138927559Y-102541551D01*
X139512610Y-101956501D01*
X139546164Y-101928964D01*
X139650909Y-101801332D01*
X139728742Y-101655717D01*
X139739754Y-101619416D01*
X139825082Y-101611012D01*
X139944780Y-101574702D01*
X140055094Y-101515737D01*
X140151785Y-101436385D01*
X140231137Y-101339694D01*
X140290102Y-101229380D01*
X140326412Y-101109682D01*
X140338672Y-100985200D01*
X140338672Y-99685200D01*
X140326412Y-99560718D01*
X140290102Y-99441020D01*
X140260265Y-99385200D01*
X140290102Y-99329380D01*
X140326412Y-99209682D01*
X140338672Y-99085200D01*
X140335600Y-98720950D01*
X140176852Y-98562202D01*
X140335600Y-98562202D01*
X140335600Y-98551993D01*
X140532585Y-98748978D01*
G36*
X142796202Y-105992081D02*
G01*
X142082735Y-105992081D01*
X142090040Y-105925700D01*
X141931290Y-105766950D01*
X141817198Y-105766950D01*
X141898644Y-105702350D01*
X141979596Y-105606995D01*
X142040391Y-105497678D01*
X142042728Y-105490412D01*
X142090040Y-105443100D01*
X142080816Y-105359279D01*
X142090040Y-105275459D01*
X142042728Y-105228147D01*
X142040391Y-105220881D01*
X142007371Y-105161507D01*
X142010883Y-105161161D01*
X142090040Y-105161161D01*
X142090040Y-105139719D01*
X142171856Y-105114901D01*
X142308645Y-105041785D01*
X142428542Y-104943388D01*
X142453200Y-104913342D01*
X142599551Y-104766992D01*
X142732788Y-104766992D01*
X142796202Y-104754378D01*
X142796202Y-105992081D01*
X142796202Y-105992081D01*
G37*
X142796202Y-105992081D02*
X142082735Y-105992081D01*
X142090040Y-105925700D01*
X141931290Y-105766950D01*
X141817198Y-105766950D01*
X141898644Y-105702350D01*
X141979596Y-105606995D01*
X142040391Y-105497678D01*
X142042728Y-105490412D01*
X142090040Y-105443100D01*
X142080816Y-105359279D01*
X142090040Y-105275459D01*
X142042728Y-105228147D01*
X142040391Y-105220881D01*
X142007371Y-105161507D01*
X142010883Y-105161161D01*
X142090040Y-105161161D01*
X142090040Y-105139719D01*
X142171856Y-105114901D01*
X142308645Y-105041785D01*
X142428542Y-104943388D01*
X142453200Y-104913342D01*
X142599551Y-104766992D01*
X142732788Y-104766992D01*
X142796202Y-104754378D01*
X142796202Y-105992081D01*
G36*
X154710600Y-96625450D02*
G01*
X154869350Y-96784200D01*
X155968600Y-96784200D01*
X155968600Y-96764200D01*
X156222600Y-96764200D01*
X156222600Y-96784200D01*
X157321850Y-96784200D01*
X157399925Y-96706125D01*
X157562367Y-96755402D01*
X157700433Y-96769000D01*
X157700442Y-96769000D01*
X157746599Y-96773546D01*
X157792756Y-96769000D01*
X162183324Y-96769000D01*
X163850119Y-98435797D01*
X163850119Y-103935426D01*
X163081857Y-103167165D01*
X163057191Y-103137109D01*
X162937278Y-103038700D01*
X162800471Y-102965575D01*
X162652027Y-102920545D01*
X162536333Y-102909150D01*
X162536330Y-102909150D01*
X162497650Y-102905340D01*
X162458970Y-102909150D01*
X161959491Y-102909150D01*
X161923982Y-102730635D01*
X161838423Y-102524078D01*
X161714211Y-102338182D01*
X161556119Y-102180090D01*
X161370223Y-102055878D01*
X161163666Y-101970319D01*
X160944387Y-101926702D01*
X160720811Y-101926702D01*
X160501532Y-101970319D01*
X160294975Y-102055878D01*
X160109079Y-102180090D01*
X159950987Y-102338182D01*
X159826775Y-102524078D01*
X159741216Y-102730635D01*
X159697599Y-102949914D01*
X159697599Y-103173490D01*
X159741216Y-103392769D01*
X159755337Y-103426860D01*
X159672546Y-103471113D01*
X159575855Y-103550465D01*
X159496503Y-103647156D01*
X159437538Y-103757470D01*
X159401228Y-103877168D01*
X159388968Y-104001650D01*
X159388968Y-104410409D01*
X159216988Y-104376200D01*
X159209501Y-104376200D01*
X159207200Y-104352841D01*
X159207200Y-102110393D01*
X159392182Y-101925411D01*
X159424164Y-101899164D01*
X159528909Y-101771532D01*
X159606742Y-101625917D01*
X159641492Y-101511360D01*
X159722780Y-101486702D01*
X159778600Y-101456865D01*
X159834420Y-101486702D01*
X159954118Y-101523012D01*
X160078600Y-101535272D01*
X161378600Y-101535272D01*
X161503082Y-101523012D01*
X161622780Y-101486702D01*
X161733094Y-101427737D01*
X161829785Y-101348385D01*
X161909137Y-101251694D01*
X161968102Y-101141380D01*
X162004412Y-101021682D01*
X162016672Y-100897200D01*
X162016672Y-99397200D01*
X162004412Y-99272718D01*
X161968102Y-99153020D01*
X161909137Y-99042706D01*
X161829785Y-98946015D01*
X161733094Y-98866663D01*
X161622780Y-98807698D01*
X161566800Y-98790717D01*
X161566800Y-98685398D01*
X161673424Y-98525824D01*
X161758983Y-98319267D01*
X161802600Y-98099988D01*
X161802600Y-97876412D01*
X161758983Y-97657133D01*
X161673424Y-97450576D01*
X161549212Y-97264680D01*
X161391120Y-97106588D01*
X161205224Y-96982376D01*
X160998667Y-96896817D01*
X160779388Y-96853200D01*
X160555812Y-96853200D01*
X160336533Y-96896817D01*
X160129976Y-96982376D01*
X159944080Y-97106588D01*
X159785988Y-97264680D01*
X159661776Y-97450576D01*
X159576217Y-97657133D01*
X159532600Y-97876412D01*
X159532600Y-98099988D01*
X159576217Y-98319267D01*
X159661776Y-98525824D01*
X159785988Y-98711720D01*
X159870900Y-98796632D01*
X159834420Y-98807698D01*
X159778600Y-98837535D01*
X159722780Y-98807698D01*
X159603082Y-98771388D01*
X159478600Y-98759128D01*
X158178600Y-98759128D01*
X158054118Y-98771388D01*
X157934420Y-98807698D01*
X157824106Y-98866663D01*
X157727415Y-98946015D01*
X157648063Y-99042706D01*
X157589098Y-99153020D01*
X157552788Y-99272718D01*
X157540528Y-99397200D01*
X157540528Y-100897200D01*
X157552788Y-101021682D01*
X157589098Y-101141380D01*
X157648063Y-101251694D01*
X157676257Y-101286049D01*
X157668691Y-101295269D01*
X157590858Y-101440884D01*
X157542929Y-101598885D01*
X157530800Y-101722031D01*
X157530800Y-101722037D01*
X157526746Y-101763200D01*
X157530800Y-101804363D01*
X157530801Y-104046806D01*
X157378792Y-104198815D01*
X157300291Y-104294469D01*
X157222458Y-104440084D01*
X157174529Y-104598085D01*
X157158346Y-104762400D01*
X157174529Y-104926715D01*
X157213100Y-105053867D01*
X157213101Y-105853867D01*
X157186085Y-105856528D01*
X157060800Y-105894533D01*
X157060800Y-102565132D01*
X157104212Y-102521720D01*
X157228424Y-102335824D01*
X157313983Y-102129267D01*
X157357600Y-101909988D01*
X157357600Y-101686412D01*
X157313983Y-101467133D01*
X157228424Y-101260576D01*
X157104212Y-101074680D01*
X156946120Y-100916588D01*
X156933800Y-100908356D01*
X156933800Y-100090585D01*
X156970082Y-100087012D01*
X157089780Y-100050702D01*
X157200094Y-99991737D01*
X157296785Y-99912385D01*
X157376137Y-99815694D01*
X157435102Y-99705380D01*
X157471412Y-99585682D01*
X157483672Y-99461200D01*
X157483672Y-98161200D01*
X157471412Y-98036718D01*
X157435102Y-97917020D01*
X157405265Y-97861200D01*
X157435102Y-97805380D01*
X157471412Y-97685682D01*
X157483672Y-97561200D01*
X157480600Y-97196950D01*
X157321850Y-97038200D01*
X156222600Y-97038200D01*
X156222600Y-97058200D01*
X155968600Y-97058200D01*
X155968600Y-97038200D01*
X154869350Y-97038200D01*
X154710600Y-97196950D01*
X154707528Y-97561200D01*
X154719788Y-97685682D01*
X154756098Y-97805380D01*
X154785935Y-97861200D01*
X154756098Y-97917020D01*
X154719788Y-98036718D01*
X154707528Y-98161200D01*
X154707528Y-99461200D01*
X154719788Y-99585682D01*
X154756098Y-99705380D01*
X154815063Y-99815694D01*
X154894415Y-99912385D01*
X154991106Y-99991737D01*
X155101420Y-100050702D01*
X155221118Y-100087012D01*
X155257400Y-100090585D01*
X155257401Y-101199777D01*
X155216776Y-101260576D01*
X155131217Y-101467133D01*
X155087600Y-101686412D01*
X155087600Y-101909988D01*
X155131217Y-102129267D01*
X155176721Y-102239124D01*
X155156667Y-102230817D01*
X154937388Y-102187200D01*
X154713812Y-102187200D01*
X154562672Y-102217263D01*
X154562672Y-102098200D01*
X154550412Y-101973718D01*
X154514102Y-101854020D01*
X154484265Y-101798200D01*
X154514102Y-101742380D01*
X154550412Y-101622682D01*
X154562672Y-101498200D01*
X154559600Y-101133950D01*
X154400850Y-100975200D01*
X153301600Y-100975200D01*
X153301600Y-100995200D01*
X153047600Y-100995200D01*
X153047600Y-100975200D01*
X151948350Y-100975200D01*
X151789600Y-101133950D01*
X151786528Y-101498200D01*
X151798788Y-101622682D01*
X151835098Y-101742380D01*
X151864935Y-101798200D01*
X151835098Y-101854020D01*
X151798788Y-101973718D01*
X151792940Y-102033092D01*
X151644716Y-101988129D01*
X151521570Y-101976000D01*
X151521563Y-101976000D01*
X151480400Y-101971946D01*
X151439237Y-101976000D01*
X150939835Y-101976000D01*
X150839600Y-101966128D01*
X150802103Y-101966128D01*
X150765142Y-101844283D01*
X150687309Y-101698668D01*
X150651672Y-101655244D01*
X150608808Y-101603014D01*
X150608806Y-101603012D01*
X150582564Y-101571036D01*
X150550588Y-101544794D01*
X149203994Y-100198200D01*
X151786528Y-100198200D01*
X151789600Y-100562450D01*
X151948350Y-100721200D01*
X153047600Y-100721200D01*
X153047600Y-99721950D01*
X153301600Y-99721950D01*
X153301600Y-100721200D01*
X154400850Y-100721200D01*
X154559600Y-100562450D01*
X154562672Y-100198200D01*
X154550412Y-100073718D01*
X154514102Y-99954020D01*
X154455137Y-99843706D01*
X154375785Y-99747015D01*
X154279094Y-99667663D01*
X154168780Y-99608698D01*
X154049082Y-99572388D01*
X153924600Y-99560128D01*
X153460350Y-99563200D01*
X153301600Y-99721950D01*
X153047600Y-99721950D01*
X152888850Y-99563200D01*
X152424600Y-99560128D01*
X152300118Y-99572388D01*
X152180420Y-99608698D01*
X152070106Y-99667663D01*
X151973415Y-99747015D01*
X151894063Y-99843706D01*
X151835098Y-99954020D01*
X151798788Y-100073718D01*
X151786528Y-100198200D01*
X149203994Y-100198200D01*
X147197600Y-98191807D01*
X147197600Y-98130412D01*
X147153983Y-97911133D01*
X147153946Y-97911043D01*
X147154800Y-97902370D01*
X147154800Y-97901926D01*
X147158854Y-97860319D01*
X147154800Y-97819596D01*
X147154800Y-97632699D01*
X147160102Y-97622780D01*
X147196412Y-97503082D01*
X147208672Y-97378600D01*
X147208672Y-96598710D01*
X147357315Y-96584071D01*
X147415238Y-96566500D01*
X154596848Y-96566500D01*
X154642800Y-96571026D01*
X154688752Y-96566500D01*
X154688754Y-96566500D01*
X154710085Y-96564399D01*
X154710600Y-96625450D01*
X154710600Y-96625450D01*
G37*
X154710600Y-96625450D02*
X154869350Y-96784200D01*
X155968600Y-96784200D01*
X155968600Y-96764200D01*
X156222600Y-96764200D01*
X156222600Y-96784200D01*
X157321850Y-96784200D01*
X157399925Y-96706125D01*
X157562367Y-96755402D01*
X157700433Y-96769000D01*
X157700442Y-96769000D01*
X157746599Y-96773546D01*
X157792756Y-96769000D01*
X162183324Y-96769000D01*
X163850119Y-98435797D01*
X163850119Y-103935426D01*
X163081857Y-103167165D01*
X163057191Y-103137109D01*
X162937278Y-103038700D01*
X162800471Y-102965575D01*
X162652027Y-102920545D01*
X162536333Y-102909150D01*
X162536330Y-102909150D01*
X162497650Y-102905340D01*
X162458970Y-102909150D01*
X161959491Y-102909150D01*
X161923982Y-102730635D01*
X161838423Y-102524078D01*
X161714211Y-102338182D01*
X161556119Y-102180090D01*
X161370223Y-102055878D01*
X161163666Y-101970319D01*
X160944387Y-101926702D01*
X160720811Y-101926702D01*
X160501532Y-101970319D01*
X160294975Y-102055878D01*
X160109079Y-102180090D01*
X159950987Y-102338182D01*
X159826775Y-102524078D01*
X159741216Y-102730635D01*
X159697599Y-102949914D01*
X159697599Y-103173490D01*
X159741216Y-103392769D01*
X159755337Y-103426860D01*
X159672546Y-103471113D01*
X159575855Y-103550465D01*
X159496503Y-103647156D01*
X159437538Y-103757470D01*
X159401228Y-103877168D01*
X159388968Y-104001650D01*
X159388968Y-104410409D01*
X159216988Y-104376200D01*
X159209501Y-104376200D01*
X159207200Y-104352841D01*
X159207200Y-102110393D01*
X159392182Y-101925411D01*
X159424164Y-101899164D01*
X159528909Y-101771532D01*
X159606742Y-101625917D01*
X159641492Y-101511360D01*
X159722780Y-101486702D01*
X159778600Y-101456865D01*
X159834420Y-101486702D01*
X159954118Y-101523012D01*
X160078600Y-101535272D01*
X161378600Y-101535272D01*
X161503082Y-101523012D01*
X161622780Y-101486702D01*
X161733094Y-101427737D01*
X161829785Y-101348385D01*
X161909137Y-101251694D01*
X161968102Y-101141380D01*
X162004412Y-101021682D01*
X162016672Y-100897200D01*
X162016672Y-99397200D01*
X162004412Y-99272718D01*
X161968102Y-99153020D01*
X161909137Y-99042706D01*
X161829785Y-98946015D01*
X161733094Y-98866663D01*
X161622780Y-98807698D01*
X161566800Y-98790717D01*
X161566800Y-98685398D01*
X161673424Y-98525824D01*
X161758983Y-98319267D01*
X161802600Y-98099988D01*
X161802600Y-97876412D01*
X161758983Y-97657133D01*
X161673424Y-97450576D01*
X161549212Y-97264680D01*
X161391120Y-97106588D01*
X161205224Y-96982376D01*
X160998667Y-96896817D01*
X160779388Y-96853200D01*
X160555812Y-96853200D01*
X160336533Y-96896817D01*
X160129976Y-96982376D01*
X159944080Y-97106588D01*
X159785988Y-97264680D01*
X159661776Y-97450576D01*
X159576217Y-97657133D01*
X159532600Y-97876412D01*
X159532600Y-98099988D01*
X159576217Y-98319267D01*
X159661776Y-98525824D01*
X159785988Y-98711720D01*
X159870900Y-98796632D01*
X159834420Y-98807698D01*
X159778600Y-98837535D01*
X159722780Y-98807698D01*
X159603082Y-98771388D01*
X159478600Y-98759128D01*
X158178600Y-98759128D01*
X158054118Y-98771388D01*
X157934420Y-98807698D01*
X157824106Y-98866663D01*
X157727415Y-98946015D01*
X157648063Y-99042706D01*
X157589098Y-99153020D01*
X157552788Y-99272718D01*
X157540528Y-99397200D01*
X157540528Y-100897200D01*
X157552788Y-101021682D01*
X157589098Y-101141380D01*
X157648063Y-101251694D01*
X157676257Y-101286049D01*
X157668691Y-101295269D01*
X157590858Y-101440884D01*
X157542929Y-101598885D01*
X157530800Y-101722031D01*
X157530800Y-101722037D01*
X157526746Y-101763200D01*
X157530800Y-101804363D01*
X157530801Y-104046806D01*
X157378792Y-104198815D01*
X157300291Y-104294469D01*
X157222458Y-104440084D01*
X157174529Y-104598085D01*
X157158346Y-104762400D01*
X157174529Y-104926715D01*
X157213100Y-105053867D01*
X157213101Y-105853867D01*
X157186085Y-105856528D01*
X157060800Y-105894533D01*
X157060800Y-102565132D01*
X157104212Y-102521720D01*
X157228424Y-102335824D01*
X157313983Y-102129267D01*
X157357600Y-101909988D01*
X157357600Y-101686412D01*
X157313983Y-101467133D01*
X157228424Y-101260576D01*
X157104212Y-101074680D01*
X156946120Y-100916588D01*
X156933800Y-100908356D01*
X156933800Y-100090585D01*
X156970082Y-100087012D01*
X157089780Y-100050702D01*
X157200094Y-99991737D01*
X157296785Y-99912385D01*
X157376137Y-99815694D01*
X157435102Y-99705380D01*
X157471412Y-99585682D01*
X157483672Y-99461200D01*
X157483672Y-98161200D01*
X157471412Y-98036718D01*
X157435102Y-97917020D01*
X157405265Y-97861200D01*
X157435102Y-97805380D01*
X157471412Y-97685682D01*
X157483672Y-97561200D01*
X157480600Y-97196950D01*
X157321850Y-97038200D01*
X156222600Y-97038200D01*
X156222600Y-97058200D01*
X155968600Y-97058200D01*
X155968600Y-97038200D01*
X154869350Y-97038200D01*
X154710600Y-97196950D01*
X154707528Y-97561200D01*
X154719788Y-97685682D01*
X154756098Y-97805380D01*
X154785935Y-97861200D01*
X154756098Y-97917020D01*
X154719788Y-98036718D01*
X154707528Y-98161200D01*
X154707528Y-99461200D01*
X154719788Y-99585682D01*
X154756098Y-99705380D01*
X154815063Y-99815694D01*
X154894415Y-99912385D01*
X154991106Y-99991737D01*
X155101420Y-100050702D01*
X155221118Y-100087012D01*
X155257400Y-100090585D01*
X155257401Y-101199777D01*
X155216776Y-101260576D01*
X155131217Y-101467133D01*
X155087600Y-101686412D01*
X155087600Y-101909988D01*
X155131217Y-102129267D01*
X155176721Y-102239124D01*
X155156667Y-102230817D01*
X154937388Y-102187200D01*
X154713812Y-102187200D01*
X154562672Y-102217263D01*
X154562672Y-102098200D01*
X154550412Y-101973718D01*
X154514102Y-101854020D01*
X154484265Y-101798200D01*
X154514102Y-101742380D01*
X154550412Y-101622682D01*
X154562672Y-101498200D01*
X154559600Y-101133950D01*
X154400850Y-100975200D01*
X153301600Y-100975200D01*
X153301600Y-100995200D01*
X153047600Y-100995200D01*
X153047600Y-100975200D01*
X151948350Y-100975200D01*
X151789600Y-101133950D01*
X151786528Y-101498200D01*
X151798788Y-101622682D01*
X151835098Y-101742380D01*
X151864935Y-101798200D01*
X151835098Y-101854020D01*
X151798788Y-101973718D01*
X151792940Y-102033092D01*
X151644716Y-101988129D01*
X151521570Y-101976000D01*
X151521563Y-101976000D01*
X151480400Y-101971946D01*
X151439237Y-101976000D01*
X150939835Y-101976000D01*
X150839600Y-101966128D01*
X150802103Y-101966128D01*
X150765142Y-101844283D01*
X150687309Y-101698668D01*
X150651672Y-101655244D01*
X150608808Y-101603014D01*
X150608806Y-101603012D01*
X150582564Y-101571036D01*
X150550588Y-101544794D01*
X149203994Y-100198200D01*
X151786528Y-100198200D01*
X151789600Y-100562450D01*
X151948350Y-100721200D01*
X153047600Y-100721200D01*
X153047600Y-99721950D01*
X153301600Y-99721950D01*
X153301600Y-100721200D01*
X154400850Y-100721200D01*
X154559600Y-100562450D01*
X154562672Y-100198200D01*
X154550412Y-100073718D01*
X154514102Y-99954020D01*
X154455137Y-99843706D01*
X154375785Y-99747015D01*
X154279094Y-99667663D01*
X154168780Y-99608698D01*
X154049082Y-99572388D01*
X153924600Y-99560128D01*
X153460350Y-99563200D01*
X153301600Y-99721950D01*
X153047600Y-99721950D01*
X152888850Y-99563200D01*
X152424600Y-99560128D01*
X152300118Y-99572388D01*
X152180420Y-99608698D01*
X152070106Y-99667663D01*
X151973415Y-99747015D01*
X151894063Y-99843706D01*
X151835098Y-99954020D01*
X151798788Y-100073718D01*
X151786528Y-100198200D01*
X149203994Y-100198200D01*
X147197600Y-98191807D01*
X147197600Y-98130412D01*
X147153983Y-97911133D01*
X147153946Y-97911043D01*
X147154800Y-97902370D01*
X147154800Y-97901926D01*
X147158854Y-97860319D01*
X147154800Y-97819596D01*
X147154800Y-97632699D01*
X147160102Y-97622780D01*
X147196412Y-97503082D01*
X147208672Y-97378600D01*
X147208672Y-96598710D01*
X147357315Y-96584071D01*
X147415238Y-96566500D01*
X154596848Y-96566500D01*
X154642800Y-96571026D01*
X154688752Y-96566500D01*
X154688754Y-96566500D01*
X154710085Y-96564399D01*
X154710600Y-96625450D01*
G36*
X140947040Y-105719959D02*
G01*
X140994031Y-105766950D01*
X140947040Y-105766950D01*
X140947040Y-105831400D01*
X140693040Y-105831400D01*
X140693040Y-105766950D01*
X140646049Y-105766950D01*
X140693040Y-105719959D01*
X140693040Y-105537400D01*
X140947040Y-105537400D01*
X140947040Y-105719959D01*
X140947040Y-105719959D01*
G37*
X140947040Y-105719959D02*
X140994031Y-105766950D01*
X140947040Y-105766950D01*
X140947040Y-105831400D01*
X140693040Y-105831400D01*
X140693040Y-105766950D01*
X140646049Y-105766950D01*
X140693040Y-105719959D01*
X140693040Y-105537400D01*
X140947040Y-105537400D01*
X140947040Y-105719959D01*
G36*
X164592000Y-96519523D02*
G01*
X163269791Y-95197315D01*
X163240354Y-95161446D01*
X163097251Y-95044004D01*
X162933986Y-94956737D01*
X162756833Y-94902998D01*
X162618767Y-94889400D01*
X162618757Y-94889400D01*
X162572600Y-94884854D01*
X162526443Y-94889400D01*
X158135876Y-94889400D01*
X158062790Y-94816314D01*
X158033354Y-94780446D01*
X157890251Y-94663004D01*
X157726986Y-94575737D01*
X157549833Y-94521998D01*
X157411767Y-94508400D01*
X157411757Y-94508400D01*
X157365600Y-94503854D01*
X157319443Y-94508400D01*
X154827894Y-94508400D01*
X154825599Y-94508174D01*
X154823304Y-94508400D01*
X154779433Y-94508400D01*
X154641367Y-94521998D01*
X154464214Y-94575737D01*
X154300949Y-94663004D01*
X154261353Y-94695500D01*
X147192827Y-94695500D01*
X147196412Y-94683682D01*
X147208672Y-94559200D01*
X147208672Y-93367260D01*
X147325212Y-93250720D01*
X147448474Y-93066246D01*
X147520420Y-93104702D01*
X147640118Y-93141012D01*
X147764600Y-93153272D01*
X149064600Y-93153272D01*
X149189082Y-93141012D01*
X149308780Y-93104702D01*
X149364600Y-93074865D01*
X149420420Y-93104702D01*
X149540118Y-93141012D01*
X149664600Y-93153272D01*
X150964600Y-93153272D01*
X151089082Y-93141012D01*
X151208780Y-93104702D01*
X151319094Y-93045737D01*
X151415785Y-92966385D01*
X151461768Y-92910355D01*
X151474906Y-92921137D01*
X151585220Y-92980102D01*
X151704918Y-93016412D01*
X151829400Y-93028672D01*
X153029400Y-93028672D01*
X153153882Y-93016412D01*
X153273580Y-92980102D01*
X153383894Y-92921137D01*
X153479400Y-92842758D01*
X153574906Y-92921137D01*
X153685220Y-92980102D01*
X153804918Y-93016412D01*
X153929400Y-93028672D01*
X154243650Y-93025600D01*
X154402400Y-92866850D01*
X154402400Y-91917600D01*
X154382400Y-91917600D01*
X154382400Y-91663600D01*
X154402400Y-91663600D01*
X154402400Y-91643600D01*
X154656400Y-91643600D01*
X154656400Y-91663600D01*
X154676400Y-91663600D01*
X154676400Y-91917600D01*
X154656400Y-91917600D01*
X154656400Y-92866850D01*
X154815150Y-93025600D01*
X155129400Y-93028672D01*
X155253882Y-93016412D01*
X155373580Y-92980102D01*
X155483894Y-92921137D01*
X155512402Y-92897741D01*
X155569463Y-93004494D01*
X155648815Y-93101185D01*
X155745506Y-93180537D01*
X155855820Y-93239502D01*
X155975518Y-93275812D01*
X156100000Y-93288072D01*
X157400000Y-93288072D01*
X157524482Y-93275812D01*
X157644180Y-93239502D01*
X157700000Y-93209665D01*
X157755820Y-93239502D01*
X157875518Y-93275812D01*
X158000000Y-93288072D01*
X158364250Y-93285000D01*
X158523000Y-93126250D01*
X158523000Y-92027000D01*
X158777000Y-92027000D01*
X158777000Y-93126250D01*
X158935750Y-93285000D01*
X159300000Y-93288072D01*
X159424482Y-93275812D01*
X159544180Y-93239502D01*
X159654494Y-93180537D01*
X159751185Y-93101185D01*
X159830537Y-93004494D01*
X159889502Y-92894180D01*
X159925812Y-92774482D01*
X159938072Y-92650000D01*
X159935000Y-92185750D01*
X159776250Y-92027000D01*
X158777000Y-92027000D01*
X158523000Y-92027000D01*
X158503000Y-92027000D01*
X158503000Y-91773000D01*
X158523000Y-91773000D01*
X158523000Y-91753000D01*
X158777000Y-91753000D01*
X158777000Y-91773000D01*
X159776250Y-91773000D01*
X159935000Y-91614250D01*
X159938072Y-91150000D01*
X159925812Y-91025518D01*
X159889502Y-90905820D01*
X159830537Y-90795506D01*
X159803919Y-90763072D01*
X160130000Y-90763072D01*
X160254482Y-90750812D01*
X160374180Y-90714502D01*
X160484494Y-90655537D01*
X160581185Y-90576185D01*
X160660537Y-90479494D01*
X160719502Y-90369180D01*
X160755812Y-90249482D01*
X160768072Y-90125000D01*
X160768072Y-89475000D01*
X160755812Y-89350518D01*
X160748071Y-89325000D01*
X160755812Y-89299482D01*
X160768072Y-89175000D01*
X160765000Y-89135750D01*
X160606250Y-88977000D01*
X160524141Y-88977000D01*
X160484494Y-88944463D01*
X160374180Y-88885498D01*
X160257159Y-88850000D01*
X160374180Y-88814502D01*
X160484494Y-88755537D01*
X160524141Y-88723000D01*
X160606250Y-88723000D01*
X160765000Y-88564250D01*
X160768072Y-88525000D01*
X160755812Y-88400518D01*
X160748071Y-88375000D01*
X160755812Y-88349482D01*
X160768072Y-88225000D01*
X160768072Y-87575000D01*
X160755812Y-87450518D01*
X160719502Y-87330820D01*
X160660537Y-87220506D01*
X160581185Y-87123815D01*
X160484494Y-87044463D01*
X160374180Y-86985498D01*
X160288602Y-86959538D01*
X160285500Y-86928046D01*
X160271964Y-86790610D01*
X160218471Y-86614268D01*
X160131603Y-86451750D01*
X160014699Y-86309301D01*
X160007010Y-86302990D01*
X160000699Y-86295301D01*
X159858250Y-86178397D01*
X159695732Y-86091529D01*
X159519390Y-86038036D01*
X159381954Y-86024500D01*
X159381952Y-86024500D01*
X159336000Y-86019974D01*
X159290048Y-86024500D01*
X158947497Y-86024500D01*
X158311867Y-85388871D01*
X158865600Y-85390272D01*
X158990082Y-85378012D01*
X159109780Y-85341702D01*
X159187655Y-85300076D01*
X159303412Y-85455269D01*
X159519645Y-85650178D01*
X159769748Y-85799157D01*
X160044109Y-85896481D01*
X160274000Y-85775814D01*
X160274000Y-84582000D01*
X160528000Y-84582000D01*
X160528000Y-85775814D01*
X160757891Y-85896481D01*
X161032252Y-85799157D01*
X161282355Y-85650178D01*
X161498588Y-85455269D01*
X161672641Y-85221920D01*
X161797825Y-84959099D01*
X161842476Y-84811890D01*
X161721155Y-84582000D01*
X160528000Y-84582000D01*
X160274000Y-84582000D01*
X160254000Y-84582000D01*
X160254000Y-84328000D01*
X160274000Y-84328000D01*
X160274000Y-84308000D01*
X160528000Y-84308000D01*
X160528000Y-84328000D01*
X161721155Y-84328000D01*
X161842476Y-84098110D01*
X161797825Y-83950901D01*
X161672641Y-83688080D01*
X161498588Y-83454731D01*
X161414534Y-83378966D01*
X161495180Y-83354502D01*
X161605494Y-83295537D01*
X161702185Y-83216185D01*
X161781537Y-83119494D01*
X161840502Y-83009180D01*
X161876812Y-82889482D01*
X161889072Y-82765000D01*
X161889072Y-81280000D01*
X164592000Y-81280000D01*
X164592000Y-96519523D01*
X164592000Y-96519523D01*
G37*
X164592000Y-96519523D02*
X163269791Y-95197315D01*
X163240354Y-95161446D01*
X163097251Y-95044004D01*
X162933986Y-94956737D01*
X162756833Y-94902998D01*
X162618767Y-94889400D01*
X162618757Y-94889400D01*
X162572600Y-94884854D01*
X162526443Y-94889400D01*
X158135876Y-94889400D01*
X158062790Y-94816314D01*
X158033354Y-94780446D01*
X157890251Y-94663004D01*
X157726986Y-94575737D01*
X157549833Y-94521998D01*
X157411767Y-94508400D01*
X157411757Y-94508400D01*
X157365600Y-94503854D01*
X157319443Y-94508400D01*
X154827894Y-94508400D01*
X154825599Y-94508174D01*
X154823304Y-94508400D01*
X154779433Y-94508400D01*
X154641367Y-94521998D01*
X154464214Y-94575737D01*
X154300949Y-94663004D01*
X154261353Y-94695500D01*
X147192827Y-94695500D01*
X147196412Y-94683682D01*
X147208672Y-94559200D01*
X147208672Y-93367260D01*
X147325212Y-93250720D01*
X147448474Y-93066246D01*
X147520420Y-93104702D01*
X147640118Y-93141012D01*
X147764600Y-93153272D01*
X149064600Y-93153272D01*
X149189082Y-93141012D01*
X149308780Y-93104702D01*
X149364600Y-93074865D01*
X149420420Y-93104702D01*
X149540118Y-93141012D01*
X149664600Y-93153272D01*
X150964600Y-93153272D01*
X151089082Y-93141012D01*
X151208780Y-93104702D01*
X151319094Y-93045737D01*
X151415785Y-92966385D01*
X151461768Y-92910355D01*
X151474906Y-92921137D01*
X151585220Y-92980102D01*
X151704918Y-93016412D01*
X151829400Y-93028672D01*
X153029400Y-93028672D01*
X153153882Y-93016412D01*
X153273580Y-92980102D01*
X153383894Y-92921137D01*
X153479400Y-92842758D01*
X153574906Y-92921137D01*
X153685220Y-92980102D01*
X153804918Y-93016412D01*
X153929400Y-93028672D01*
X154243650Y-93025600D01*
X154402400Y-92866850D01*
X154402400Y-91917600D01*
X154382400Y-91917600D01*
X154382400Y-91663600D01*
X154402400Y-91663600D01*
X154402400Y-91643600D01*
X154656400Y-91643600D01*
X154656400Y-91663600D01*
X154676400Y-91663600D01*
X154676400Y-91917600D01*
X154656400Y-91917600D01*
X154656400Y-92866850D01*
X154815150Y-93025600D01*
X155129400Y-93028672D01*
X155253882Y-93016412D01*
X155373580Y-92980102D01*
X155483894Y-92921137D01*
X155512402Y-92897741D01*
X155569463Y-93004494D01*
X155648815Y-93101185D01*
X155745506Y-93180537D01*
X155855820Y-93239502D01*
X155975518Y-93275812D01*
X156100000Y-93288072D01*
X157400000Y-93288072D01*
X157524482Y-93275812D01*
X157644180Y-93239502D01*
X157700000Y-93209665D01*
X157755820Y-93239502D01*
X157875518Y-93275812D01*
X158000000Y-93288072D01*
X158364250Y-93285000D01*
X158523000Y-93126250D01*
X158523000Y-92027000D01*
X158777000Y-92027000D01*
X158777000Y-93126250D01*
X158935750Y-93285000D01*
X159300000Y-93288072D01*
X159424482Y-93275812D01*
X159544180Y-93239502D01*
X159654494Y-93180537D01*
X159751185Y-93101185D01*
X159830537Y-93004494D01*
X159889502Y-92894180D01*
X159925812Y-92774482D01*
X159938072Y-92650000D01*
X159935000Y-92185750D01*
X159776250Y-92027000D01*
X158777000Y-92027000D01*
X158523000Y-92027000D01*
X158503000Y-92027000D01*
X158503000Y-91773000D01*
X158523000Y-91773000D01*
X158523000Y-91753000D01*
X158777000Y-91753000D01*
X158777000Y-91773000D01*
X159776250Y-91773000D01*
X159935000Y-91614250D01*
X159938072Y-91150000D01*
X159925812Y-91025518D01*
X159889502Y-90905820D01*
X159830537Y-90795506D01*
X159803919Y-90763072D01*
X160130000Y-90763072D01*
X160254482Y-90750812D01*
X160374180Y-90714502D01*
X160484494Y-90655537D01*
X160581185Y-90576185D01*
X160660537Y-90479494D01*
X160719502Y-90369180D01*
X160755812Y-90249482D01*
X160768072Y-90125000D01*
X160768072Y-89475000D01*
X160755812Y-89350518D01*
X160748071Y-89325000D01*
X160755812Y-89299482D01*
X160768072Y-89175000D01*
X160765000Y-89135750D01*
X160606250Y-88977000D01*
X160524141Y-88977000D01*
X160484494Y-88944463D01*
X160374180Y-88885498D01*
X160257159Y-88850000D01*
X160374180Y-88814502D01*
X160484494Y-88755537D01*
X160524141Y-88723000D01*
X160606250Y-88723000D01*
X160765000Y-88564250D01*
X160768072Y-88525000D01*
X160755812Y-88400518D01*
X160748071Y-88375000D01*
X160755812Y-88349482D01*
X160768072Y-88225000D01*
X160768072Y-87575000D01*
X160755812Y-87450518D01*
X160719502Y-87330820D01*
X160660537Y-87220506D01*
X160581185Y-87123815D01*
X160484494Y-87044463D01*
X160374180Y-86985498D01*
X160288602Y-86959538D01*
X160285500Y-86928046D01*
X160271964Y-86790610D01*
X160218471Y-86614268D01*
X160131603Y-86451750D01*
X160014699Y-86309301D01*
X160007010Y-86302990D01*
X160000699Y-86295301D01*
X159858250Y-86178397D01*
X159695732Y-86091529D01*
X159519390Y-86038036D01*
X159381954Y-86024500D01*
X159381952Y-86024500D01*
X159336000Y-86019974D01*
X159290048Y-86024500D01*
X158947497Y-86024500D01*
X158311867Y-85388871D01*
X158865600Y-85390272D01*
X158990082Y-85378012D01*
X159109780Y-85341702D01*
X159187655Y-85300076D01*
X159303412Y-85455269D01*
X159519645Y-85650178D01*
X159769748Y-85799157D01*
X160044109Y-85896481D01*
X160274000Y-85775814D01*
X160274000Y-84582000D01*
X160528000Y-84582000D01*
X160528000Y-85775814D01*
X160757891Y-85896481D01*
X161032252Y-85799157D01*
X161282355Y-85650178D01*
X161498588Y-85455269D01*
X161672641Y-85221920D01*
X161797825Y-84959099D01*
X161842476Y-84811890D01*
X161721155Y-84582000D01*
X160528000Y-84582000D01*
X160274000Y-84582000D01*
X160254000Y-84582000D01*
X160254000Y-84328000D01*
X160274000Y-84328000D01*
X160274000Y-84308000D01*
X160528000Y-84308000D01*
X160528000Y-84328000D01*
X161721155Y-84328000D01*
X161842476Y-84098110D01*
X161797825Y-83950901D01*
X161672641Y-83688080D01*
X161498588Y-83454731D01*
X161414534Y-83378966D01*
X161495180Y-83354502D01*
X161605494Y-83295537D01*
X161702185Y-83216185D01*
X161781537Y-83119494D01*
X161840502Y-83009180D01*
X161876812Y-82889482D01*
X161889072Y-82765000D01*
X161889072Y-81280000D01*
X164592000Y-81280000D01*
X164592000Y-96519523D01*
G36*
X145424528Y-94071200D02*
G01*
X145329072Y-94071200D01*
X145329072Y-93777200D01*
X145424528Y-93777200D01*
X145424528Y-94071200D01*
X145424528Y-94071200D01*
G37*
X145424528Y-94071200D02*
X145329072Y-94071200D01*
X145329072Y-93777200D01*
X145424528Y-93777200D01*
X145424528Y-94071200D01*
G36*
X139260600Y-82406450D02*
G01*
X139419350Y-82565200D01*
X140518600Y-82565200D01*
X140518600Y-82545200D01*
X140772600Y-82545200D01*
X140772600Y-82565200D01*
X141871850Y-82565200D01*
X142030600Y-82406450D01*
X142032963Y-81280000D01*
X145551528Y-81280000D01*
X145551528Y-82748200D01*
X145563788Y-82872682D01*
X145600098Y-82992380D01*
X145659063Y-83102694D01*
X145738415Y-83199385D01*
X145835106Y-83278737D01*
X145857405Y-83290656D01*
X145815811Y-83324791D01*
X145786513Y-83360491D01*
X145560997Y-83586007D01*
X145525302Y-83615301D01*
X145496008Y-83650996D01*
X145408397Y-83757750D01*
X145321530Y-83920268D01*
X145268037Y-84096610D01*
X145249974Y-84280000D01*
X145254501Y-84325961D01*
X145254500Y-84852503D01*
X144544601Y-85562403D01*
X144508901Y-85591701D01*
X144460911Y-85650178D01*
X144391997Y-85734150D01*
X144369584Y-85776082D01*
X144305129Y-85896669D01*
X144251636Y-86073011D01*
X144239446Y-86196781D01*
X144233574Y-86256400D01*
X144238100Y-86302352D01*
X144238100Y-87698128D01*
X143268600Y-87698128D01*
X143144118Y-87710388D01*
X143024420Y-87746698D01*
X142914106Y-87805663D01*
X142817415Y-87885015D01*
X142738063Y-87981706D01*
X142679098Y-88092020D01*
X142642788Y-88211718D01*
X142630528Y-88336200D01*
X142630528Y-90368200D01*
X142642788Y-90492682D01*
X142679098Y-90612380D01*
X142738063Y-90722694D01*
X142817415Y-90819385D01*
X142914106Y-90898737D01*
X143024420Y-90957702D01*
X143144118Y-90994012D01*
X143268600Y-91006272D01*
X147078600Y-91006272D01*
X147127885Y-91001418D01*
X147126528Y-91015200D01*
X147126528Y-91050295D01*
X147019972Y-91107250D01*
X146900059Y-91205659D01*
X146880387Y-91229630D01*
X146792422Y-91238294D01*
X146643978Y-91283324D01*
X146507171Y-91356449D01*
X146463608Y-91392200D01*
X146331812Y-91392200D01*
X146112533Y-91435817D01*
X145905976Y-91521376D01*
X145720080Y-91645588D01*
X145561988Y-91803680D01*
X145437776Y-91989576D01*
X145352217Y-92196133D01*
X145308600Y-92415412D01*
X145308600Y-92638988D01*
X145311626Y-92654200D01*
X145249798Y-92654200D01*
X145249798Y-92812948D01*
X145091050Y-92654200D01*
X144987907Y-92665550D01*
X144907677Y-92691355D01*
X144815482Y-92663388D01*
X144691000Y-92651128D01*
X144183000Y-92651128D01*
X144058518Y-92663388D01*
X143938820Y-92699698D01*
X143828506Y-92758663D01*
X143731815Y-92838015D01*
X143728099Y-92842543D01*
X143768588Y-92638988D01*
X143768588Y-92415412D01*
X143724971Y-92196133D01*
X143639412Y-91989576D01*
X143515200Y-91803680D01*
X143357108Y-91645588D01*
X143171212Y-91521376D01*
X142964655Y-91435817D01*
X142745376Y-91392200D01*
X142521800Y-91392200D01*
X142302521Y-91435817D01*
X142287500Y-91442039D01*
X142346785Y-91393385D01*
X142426137Y-91296694D01*
X142485102Y-91186380D01*
X142521412Y-91066682D01*
X142533672Y-90942200D01*
X142530600Y-89477950D01*
X142371850Y-89319200D01*
X140872600Y-89319200D01*
X140872600Y-89339200D01*
X140618600Y-89339200D01*
X140618600Y-89319200D01*
X139119350Y-89319200D01*
X138960600Y-89477950D01*
X138957528Y-90942200D01*
X138969788Y-91066682D01*
X139006098Y-91186380D01*
X139065063Y-91296694D01*
X139144415Y-91393385D01*
X139241106Y-91472737D01*
X139351420Y-91531702D01*
X139471118Y-91568012D01*
X139595600Y-91580272D01*
X140105545Y-91578459D01*
X140005080Y-91645588D01*
X139846988Y-91803680D01*
X139722776Y-91989576D01*
X139637217Y-92196133D01*
X139593600Y-92415412D01*
X139593600Y-92638988D01*
X139637217Y-92858267D01*
X139722776Y-93064824D01*
X139737166Y-93086359D01*
X139613068Y-93152691D01*
X139485436Y-93257436D01*
X139380691Y-93385068D01*
X139318053Y-93502255D01*
X139310308Y-93510000D01*
X135484181Y-93510000D01*
X135445500Y-93506190D01*
X135406819Y-93510000D01*
X135406817Y-93510000D01*
X135291123Y-93521395D01*
X135142679Y-93566425D01*
X135005872Y-93639550D01*
X134885959Y-93737959D01*
X134861293Y-93768015D01*
X134750672Y-93878636D01*
X134750672Y-92700200D01*
X134738412Y-92575718D01*
X134702102Y-92456020D01*
X134672265Y-92400200D01*
X134702102Y-92344380D01*
X134738412Y-92224682D01*
X134750672Y-92100200D01*
X134747600Y-91735950D01*
X134588850Y-91577200D01*
X133489600Y-91577200D01*
X133489600Y-91597200D01*
X133235600Y-91597200D01*
X133235600Y-91577200D01*
X133215600Y-91577200D01*
X133215600Y-91323200D01*
X133235600Y-91323200D01*
X133235600Y-90501450D01*
X133318600Y-90418450D01*
X133318600Y-90323950D01*
X133489600Y-90323950D01*
X133489600Y-91323200D01*
X134588850Y-91323200D01*
X134747600Y-91164450D01*
X134750672Y-90800200D01*
X134738412Y-90675718D01*
X134706156Y-90569384D01*
X134720082Y-90568012D01*
X134839780Y-90531702D01*
X134950094Y-90472737D01*
X135046785Y-90393385D01*
X135126137Y-90296694D01*
X135155265Y-90242200D01*
X135407528Y-90242200D01*
X135407528Y-92742200D01*
X135419788Y-92866682D01*
X135456098Y-92986380D01*
X135515063Y-93096694D01*
X135594415Y-93193385D01*
X135691106Y-93272737D01*
X135801420Y-93331702D01*
X135921118Y-93368012D01*
X136045600Y-93380272D01*
X138045600Y-93380272D01*
X138170082Y-93368012D01*
X138289780Y-93331702D01*
X138400094Y-93272737D01*
X138496785Y-93193385D01*
X138576137Y-93096694D01*
X138635102Y-92986380D01*
X138671412Y-92866682D01*
X138683672Y-92742200D01*
X138683672Y-90242200D01*
X138671412Y-90117718D01*
X138635102Y-89998020D01*
X138576137Y-89887706D01*
X138496785Y-89791015D01*
X138400094Y-89711663D01*
X138289780Y-89652698D01*
X138170082Y-89616388D01*
X138087000Y-89608205D01*
X138087000Y-87442200D01*
X138957528Y-87442200D01*
X138960600Y-88906450D01*
X139119350Y-89065200D01*
X140618600Y-89065200D01*
X140618600Y-86965950D01*
X140872600Y-86965950D01*
X140872600Y-89065200D01*
X142371850Y-89065200D01*
X142530600Y-88906450D01*
X142533672Y-87442200D01*
X142521412Y-87317718D01*
X142485102Y-87198020D01*
X142426137Y-87087706D01*
X142346785Y-86991015D01*
X142250094Y-86911663D01*
X142139780Y-86852698D01*
X142020082Y-86816388D01*
X141895600Y-86804128D01*
X141031350Y-86807200D01*
X140872600Y-86965950D01*
X140618600Y-86965950D01*
X140459850Y-86807200D01*
X139595600Y-86804128D01*
X139471118Y-86816388D01*
X139351420Y-86852698D01*
X139241106Y-86911663D01*
X139144415Y-86991015D01*
X139065063Y-87087706D01*
X139006098Y-87198020D01*
X138969788Y-87317718D01*
X138957528Y-87442200D01*
X138087000Y-87442200D01*
X138087000Y-86923122D01*
X138265667Y-86887583D01*
X138472224Y-86802024D01*
X138658120Y-86677812D01*
X138816212Y-86519720D01*
X138940424Y-86333824D01*
X139025983Y-86127267D01*
X139069600Y-85907988D01*
X139069600Y-85684412D01*
X139025983Y-85465133D01*
X138940424Y-85258576D01*
X138816212Y-85072680D01*
X138658120Y-84914588D01*
X138472224Y-84790376D01*
X138265667Y-84704817D01*
X138046388Y-84661200D01*
X137822812Y-84661200D01*
X137603533Y-84704817D01*
X137482864Y-84754800D01*
X137096752Y-84754800D01*
X137045600Y-84749762D01*
X136994449Y-84754800D01*
X136994448Y-84754800D01*
X136841450Y-84769869D01*
X136645146Y-84829417D01*
X136464230Y-84926119D01*
X136305657Y-85056257D01*
X136175519Y-85214830D01*
X136078817Y-85395746D01*
X136019269Y-85592050D01*
X135999162Y-85796200D01*
X136004201Y-85847362D01*
X136004200Y-89608205D01*
X135921118Y-89616388D01*
X135801420Y-89652698D01*
X135691106Y-89711663D01*
X135594415Y-89791015D01*
X135515063Y-89887706D01*
X135456098Y-89998020D01*
X135419788Y-90117718D01*
X135407528Y-90242200D01*
X135155265Y-90242200D01*
X135185102Y-90186380D01*
X135221412Y-90066682D01*
X135233672Y-89942200D01*
X135230600Y-88477950D01*
X135071850Y-88319200D01*
X133572600Y-88319200D01*
X133572600Y-90240950D01*
X133489600Y-90323950D01*
X133318600Y-90323950D01*
X133318600Y-88319200D01*
X133298600Y-88319200D01*
X133298600Y-88065200D01*
X133318600Y-88065200D01*
X133318600Y-86018450D01*
X133371100Y-85965950D01*
X133572600Y-85965950D01*
X133572600Y-88065200D01*
X135071850Y-88065200D01*
X135230600Y-87906450D01*
X135233672Y-86442200D01*
X135221412Y-86317718D01*
X135185102Y-86198020D01*
X135126137Y-86087706D01*
X135046785Y-85991015D01*
X134950094Y-85911663D01*
X134839780Y-85852698D01*
X134792057Y-85838221D01*
X134826137Y-85796694D01*
X134885102Y-85686380D01*
X134921412Y-85566682D01*
X134933672Y-85442200D01*
X134931574Y-84442200D01*
X139257528Y-84442200D01*
X139269788Y-84566682D01*
X139306098Y-84686380D01*
X139365063Y-84796694D01*
X139444415Y-84893385D01*
X139541106Y-84972737D01*
X139651420Y-85031702D01*
X139771118Y-85068012D01*
X139895600Y-85080272D01*
X140359850Y-85077200D01*
X140518600Y-84918450D01*
X140518600Y-82819200D01*
X140772600Y-82819200D01*
X140772600Y-84918450D01*
X140931350Y-85077200D01*
X141395600Y-85080272D01*
X141520082Y-85068012D01*
X141639780Y-85031702D01*
X141750094Y-84972737D01*
X141846785Y-84893385D01*
X141926137Y-84796694D01*
X141985102Y-84686380D01*
X142021412Y-84566682D01*
X142033672Y-84442200D01*
X142030600Y-82977950D01*
X141871850Y-82819200D01*
X140772600Y-82819200D01*
X140518600Y-82819200D01*
X139419350Y-82819200D01*
X139260600Y-82977950D01*
X139257528Y-84442200D01*
X134931574Y-84442200D01*
X134930600Y-83977950D01*
X134771850Y-83819200D01*
X133672600Y-83819200D01*
X133672600Y-85865950D01*
X133572600Y-85965950D01*
X133371100Y-85965950D01*
X133418600Y-85918450D01*
X133418600Y-83819200D01*
X133398600Y-83819200D01*
X133398600Y-83565200D01*
X133418600Y-83565200D01*
X133418600Y-81465950D01*
X133672600Y-81465950D01*
X133672600Y-83565200D01*
X134771850Y-83565200D01*
X134930600Y-83406450D01*
X134933672Y-81942200D01*
X134921412Y-81817718D01*
X134885102Y-81698020D01*
X134826137Y-81587706D01*
X134746785Y-81491015D01*
X134650094Y-81411663D01*
X134539780Y-81352698D01*
X134420082Y-81316388D01*
X134295600Y-81304128D01*
X133831350Y-81307200D01*
X133672600Y-81465950D01*
X133418600Y-81465950D01*
X133259850Y-81307200D01*
X132795600Y-81304128D01*
X132714605Y-81312105D01*
X132714685Y-81280000D01*
X139258237Y-81280000D01*
X139260600Y-82406450D01*
X139260600Y-82406450D01*
G37*
X139260600Y-82406450D02*
X139419350Y-82565200D01*
X140518600Y-82565200D01*
X140518600Y-82545200D01*
X140772600Y-82545200D01*
X140772600Y-82565200D01*
X141871850Y-82565200D01*
X142030600Y-82406450D01*
X142032963Y-81280000D01*
X145551528Y-81280000D01*
X145551528Y-82748200D01*
X145563788Y-82872682D01*
X145600098Y-82992380D01*
X145659063Y-83102694D01*
X145738415Y-83199385D01*
X145835106Y-83278737D01*
X145857405Y-83290656D01*
X145815811Y-83324791D01*
X145786513Y-83360491D01*
X145560997Y-83586007D01*
X145525302Y-83615301D01*
X145496008Y-83650996D01*
X145408397Y-83757750D01*
X145321530Y-83920268D01*
X145268037Y-84096610D01*
X145249974Y-84280000D01*
X145254501Y-84325961D01*
X145254500Y-84852503D01*
X144544601Y-85562403D01*
X144508901Y-85591701D01*
X144460911Y-85650178D01*
X144391997Y-85734150D01*
X144369584Y-85776082D01*
X144305129Y-85896669D01*
X144251636Y-86073011D01*
X144239446Y-86196781D01*
X144233574Y-86256400D01*
X144238100Y-86302352D01*
X144238100Y-87698128D01*
X143268600Y-87698128D01*
X143144118Y-87710388D01*
X143024420Y-87746698D01*
X142914106Y-87805663D01*
X142817415Y-87885015D01*
X142738063Y-87981706D01*
X142679098Y-88092020D01*
X142642788Y-88211718D01*
X142630528Y-88336200D01*
X142630528Y-90368200D01*
X142642788Y-90492682D01*
X142679098Y-90612380D01*
X142738063Y-90722694D01*
X142817415Y-90819385D01*
X142914106Y-90898737D01*
X143024420Y-90957702D01*
X143144118Y-90994012D01*
X143268600Y-91006272D01*
X147078600Y-91006272D01*
X147127885Y-91001418D01*
X147126528Y-91015200D01*
X147126528Y-91050295D01*
X147019972Y-91107250D01*
X146900059Y-91205659D01*
X146880387Y-91229630D01*
X146792422Y-91238294D01*
X146643978Y-91283324D01*
X146507171Y-91356449D01*
X146463608Y-91392200D01*
X146331812Y-91392200D01*
X146112533Y-91435817D01*
X145905976Y-91521376D01*
X145720080Y-91645588D01*
X145561988Y-91803680D01*
X145437776Y-91989576D01*
X145352217Y-92196133D01*
X145308600Y-92415412D01*
X145308600Y-92638988D01*
X145311626Y-92654200D01*
X145249798Y-92654200D01*
X145249798Y-92812948D01*
X145091050Y-92654200D01*
X144987907Y-92665550D01*
X144907677Y-92691355D01*
X144815482Y-92663388D01*
X144691000Y-92651128D01*
X144183000Y-92651128D01*
X144058518Y-92663388D01*
X143938820Y-92699698D01*
X143828506Y-92758663D01*
X143731815Y-92838015D01*
X143728099Y-92842543D01*
X143768588Y-92638988D01*
X143768588Y-92415412D01*
X143724971Y-92196133D01*
X143639412Y-91989576D01*
X143515200Y-91803680D01*
X143357108Y-91645588D01*
X143171212Y-91521376D01*
X142964655Y-91435817D01*
X142745376Y-91392200D01*
X142521800Y-91392200D01*
X142302521Y-91435817D01*
X142287500Y-91442039D01*
X142346785Y-91393385D01*
X142426137Y-91296694D01*
X142485102Y-91186380D01*
X142521412Y-91066682D01*
X142533672Y-90942200D01*
X142530600Y-89477950D01*
X142371850Y-89319200D01*
X140872600Y-89319200D01*
X140872600Y-89339200D01*
X140618600Y-89339200D01*
X140618600Y-89319200D01*
X139119350Y-89319200D01*
X138960600Y-89477950D01*
X138957528Y-90942200D01*
X138969788Y-91066682D01*
X139006098Y-91186380D01*
X139065063Y-91296694D01*
X139144415Y-91393385D01*
X139241106Y-91472737D01*
X139351420Y-91531702D01*
X139471118Y-91568012D01*
X139595600Y-91580272D01*
X140105545Y-91578459D01*
X140005080Y-91645588D01*
X139846988Y-91803680D01*
X139722776Y-91989576D01*
X139637217Y-92196133D01*
X139593600Y-92415412D01*
X139593600Y-92638988D01*
X139637217Y-92858267D01*
X139722776Y-93064824D01*
X139737166Y-93086359D01*
X139613068Y-93152691D01*
X139485436Y-93257436D01*
X139380691Y-93385068D01*
X139318053Y-93502255D01*
X139310308Y-93510000D01*
X135484181Y-93510000D01*
X135445500Y-93506190D01*
X135406819Y-93510000D01*
X135406817Y-93510000D01*
X135291123Y-93521395D01*
X135142679Y-93566425D01*
X135005872Y-93639550D01*
X134885959Y-93737959D01*
X134861293Y-93768015D01*
X134750672Y-93878636D01*
X134750672Y-92700200D01*
X134738412Y-92575718D01*
X134702102Y-92456020D01*
X134672265Y-92400200D01*
X134702102Y-92344380D01*
X134738412Y-92224682D01*
X134750672Y-92100200D01*
X134747600Y-91735950D01*
X134588850Y-91577200D01*
X133489600Y-91577200D01*
X133489600Y-91597200D01*
X133235600Y-91597200D01*
X133235600Y-91577200D01*
X133215600Y-91577200D01*
X133215600Y-91323200D01*
X133235600Y-91323200D01*
X133235600Y-90501450D01*
X133318600Y-90418450D01*
X133318600Y-90323950D01*
X133489600Y-90323950D01*
X133489600Y-91323200D01*
X134588850Y-91323200D01*
X134747600Y-91164450D01*
X134750672Y-90800200D01*
X134738412Y-90675718D01*
X134706156Y-90569384D01*
X134720082Y-90568012D01*
X134839780Y-90531702D01*
X134950094Y-90472737D01*
X135046785Y-90393385D01*
X135126137Y-90296694D01*
X135155265Y-90242200D01*
X135407528Y-90242200D01*
X135407528Y-92742200D01*
X135419788Y-92866682D01*
X135456098Y-92986380D01*
X135515063Y-93096694D01*
X135594415Y-93193385D01*
X135691106Y-93272737D01*
X135801420Y-93331702D01*
X135921118Y-93368012D01*
X136045600Y-93380272D01*
X138045600Y-93380272D01*
X138170082Y-93368012D01*
X138289780Y-93331702D01*
X138400094Y-93272737D01*
X138496785Y-93193385D01*
X138576137Y-93096694D01*
X138635102Y-92986380D01*
X138671412Y-92866682D01*
X138683672Y-92742200D01*
X138683672Y-90242200D01*
X138671412Y-90117718D01*
X138635102Y-89998020D01*
X138576137Y-89887706D01*
X138496785Y-89791015D01*
X138400094Y-89711663D01*
X138289780Y-89652698D01*
X138170082Y-89616388D01*
X138087000Y-89608205D01*
X138087000Y-87442200D01*
X138957528Y-87442200D01*
X138960600Y-88906450D01*
X139119350Y-89065200D01*
X140618600Y-89065200D01*
X140618600Y-86965950D01*
X140872600Y-86965950D01*
X140872600Y-89065200D01*
X142371850Y-89065200D01*
X142530600Y-88906450D01*
X142533672Y-87442200D01*
X142521412Y-87317718D01*
X142485102Y-87198020D01*
X142426137Y-87087706D01*
X142346785Y-86991015D01*
X142250094Y-86911663D01*
X142139780Y-86852698D01*
X142020082Y-86816388D01*
X141895600Y-86804128D01*
X141031350Y-86807200D01*
X140872600Y-86965950D01*
X140618600Y-86965950D01*
X140459850Y-86807200D01*
X139595600Y-86804128D01*
X139471118Y-86816388D01*
X139351420Y-86852698D01*
X139241106Y-86911663D01*
X139144415Y-86991015D01*
X139065063Y-87087706D01*
X139006098Y-87198020D01*
X138969788Y-87317718D01*
X138957528Y-87442200D01*
X138087000Y-87442200D01*
X138087000Y-86923122D01*
X138265667Y-86887583D01*
X138472224Y-86802024D01*
X138658120Y-86677812D01*
X138816212Y-86519720D01*
X138940424Y-86333824D01*
X139025983Y-86127267D01*
X139069600Y-85907988D01*
X139069600Y-85684412D01*
X139025983Y-85465133D01*
X138940424Y-85258576D01*
X138816212Y-85072680D01*
X138658120Y-84914588D01*
X138472224Y-84790376D01*
X138265667Y-84704817D01*
X138046388Y-84661200D01*
X137822812Y-84661200D01*
X137603533Y-84704817D01*
X137482864Y-84754800D01*
X137096752Y-84754800D01*
X137045600Y-84749762D01*
X136994449Y-84754800D01*
X136994448Y-84754800D01*
X136841450Y-84769869D01*
X136645146Y-84829417D01*
X136464230Y-84926119D01*
X136305657Y-85056257D01*
X136175519Y-85214830D01*
X136078817Y-85395746D01*
X136019269Y-85592050D01*
X135999162Y-85796200D01*
X136004201Y-85847362D01*
X136004200Y-89608205D01*
X135921118Y-89616388D01*
X135801420Y-89652698D01*
X135691106Y-89711663D01*
X135594415Y-89791015D01*
X135515063Y-89887706D01*
X135456098Y-89998020D01*
X135419788Y-90117718D01*
X135407528Y-90242200D01*
X135155265Y-90242200D01*
X135185102Y-90186380D01*
X135221412Y-90066682D01*
X135233672Y-89942200D01*
X135230600Y-88477950D01*
X135071850Y-88319200D01*
X133572600Y-88319200D01*
X133572600Y-90240950D01*
X133489600Y-90323950D01*
X133318600Y-90323950D01*
X133318600Y-88319200D01*
X133298600Y-88319200D01*
X133298600Y-88065200D01*
X133318600Y-88065200D01*
X133318600Y-86018450D01*
X133371100Y-85965950D01*
X133572600Y-85965950D01*
X133572600Y-88065200D01*
X135071850Y-88065200D01*
X135230600Y-87906450D01*
X135233672Y-86442200D01*
X135221412Y-86317718D01*
X135185102Y-86198020D01*
X135126137Y-86087706D01*
X135046785Y-85991015D01*
X134950094Y-85911663D01*
X134839780Y-85852698D01*
X134792057Y-85838221D01*
X134826137Y-85796694D01*
X134885102Y-85686380D01*
X134921412Y-85566682D01*
X134933672Y-85442200D01*
X134931574Y-84442200D01*
X139257528Y-84442200D01*
X139269788Y-84566682D01*
X139306098Y-84686380D01*
X139365063Y-84796694D01*
X139444415Y-84893385D01*
X139541106Y-84972737D01*
X139651420Y-85031702D01*
X139771118Y-85068012D01*
X139895600Y-85080272D01*
X140359850Y-85077200D01*
X140518600Y-84918450D01*
X140518600Y-82819200D01*
X140772600Y-82819200D01*
X140772600Y-84918450D01*
X140931350Y-85077200D01*
X141395600Y-85080272D01*
X141520082Y-85068012D01*
X141639780Y-85031702D01*
X141750094Y-84972737D01*
X141846785Y-84893385D01*
X141926137Y-84796694D01*
X141985102Y-84686380D01*
X142021412Y-84566682D01*
X142033672Y-84442200D01*
X142030600Y-82977950D01*
X141871850Y-82819200D01*
X140772600Y-82819200D01*
X140518600Y-82819200D01*
X139419350Y-82819200D01*
X139260600Y-82977950D01*
X139257528Y-84442200D01*
X134931574Y-84442200D01*
X134930600Y-83977950D01*
X134771850Y-83819200D01*
X133672600Y-83819200D01*
X133672600Y-85865950D01*
X133572600Y-85965950D01*
X133371100Y-85965950D01*
X133418600Y-85918450D01*
X133418600Y-83819200D01*
X133398600Y-83819200D01*
X133398600Y-83565200D01*
X133418600Y-83565200D01*
X133418600Y-81465950D01*
X133672600Y-81465950D01*
X133672600Y-83565200D01*
X134771850Y-83565200D01*
X134930600Y-83406450D01*
X134933672Y-81942200D01*
X134921412Y-81817718D01*
X134885102Y-81698020D01*
X134826137Y-81587706D01*
X134746785Y-81491015D01*
X134650094Y-81411663D01*
X134539780Y-81352698D01*
X134420082Y-81316388D01*
X134295600Y-81304128D01*
X133831350Y-81307200D01*
X133672600Y-81465950D01*
X133418600Y-81465950D01*
X133259850Y-81307200D01*
X132795600Y-81304128D01*
X132714605Y-81312105D01*
X132714685Y-81280000D01*
X139258237Y-81280000D01*
X139260600Y-82406450D01*
G36*
X141910068Y-91645588D02*
G01*
X141751976Y-91803680D01*
X141681094Y-91909762D01*
X141610212Y-91803680D01*
X141452120Y-91645588D01*
X141351473Y-91578338D01*
X141895600Y-91580272D01*
X142020082Y-91568012D01*
X142031229Y-91564631D01*
X141910068Y-91645588D01*
X141910068Y-91645588D01*
G37*
X141910068Y-91645588D02*
X141751976Y-91803680D01*
X141681094Y-91909762D01*
X141610212Y-91803680D01*
X141452120Y-91645588D01*
X141351473Y-91578338D01*
X141895600Y-91580272D01*
X142020082Y-91568012D01*
X142031229Y-91564631D01*
X141910068Y-91645588D01*
G36*
X155230600Y-83716450D02*
G01*
X155389350Y-83875200D01*
X157238600Y-83875200D01*
X157238600Y-83855200D01*
X157492600Y-83855200D01*
X157492600Y-83875200D01*
X157512600Y-83875200D01*
X157512600Y-84129200D01*
X157492600Y-84129200D01*
X157492600Y-84149200D01*
X157238600Y-84149200D01*
X157238600Y-84129200D01*
X155389350Y-84129200D01*
X155230600Y-84287950D01*
X155228638Y-84584438D01*
X154605770Y-83961571D01*
X155228104Y-83339237D01*
X155230600Y-83716450D01*
X155230600Y-83716450D01*
G37*
X155230600Y-83716450D02*
X155389350Y-83875200D01*
X157238600Y-83875200D01*
X157238600Y-83855200D01*
X157492600Y-83855200D01*
X157492600Y-83875200D01*
X157512600Y-83875200D01*
X157512600Y-84129200D01*
X157492600Y-84129200D01*
X157492600Y-84149200D01*
X157238600Y-84149200D01*
X157238600Y-84129200D01*
X155389350Y-84129200D01*
X155230600Y-84287950D01*
X155228638Y-84584438D01*
X154605770Y-83961571D01*
X155228104Y-83339237D01*
X155230600Y-83716450D01*
G36*
X154116976Y-81434155D02*
G01*
X154066992Y-81554826D01*
X153919595Y-81702223D01*
X153919589Y-81702228D01*
X152776530Y-82845288D01*
X152406110Y-82845288D01*
X152415672Y-82748200D01*
X152415672Y-81280000D01*
X154219979Y-81280000D01*
X154116976Y-81434155D01*
X154116976Y-81434155D01*
G37*
X154116976Y-81434155D02*
X154066992Y-81554826D01*
X153919595Y-81702223D01*
X153919589Y-81702228D01*
X152776530Y-82845288D01*
X152406110Y-82845288D01*
X152415672Y-82748200D01*
X152415672Y-81280000D01*
X154219979Y-81280000D01*
X154116976Y-81434155D01*
M02*
